G04 #@! TF.GenerationSoftware,KiCad,Pcbnew,(6.0.9-0)*
G04 #@! TF.CreationDate,2022-12-07T17:47:50-05:00*
G04 #@! TF.ProjectId,6502tor,36353032-746f-4722-9e6b-696361645f70,rev?*
G04 #@! TF.SameCoordinates,Original*
G04 #@! TF.FileFunction,Legend,Top*
G04 #@! TF.FilePolarity,Positive*
%FSLAX46Y46*%
G04 Gerber Fmt 4.6, Leading zero omitted, Abs format (unit mm)*
G04 Created by KiCad (PCBNEW (6.0.9-0)) date 2022-12-07 17:47:50*
%MOMM*%
%LPD*%
G01*
G04 APERTURE LIST*
%ADD10C,0.150000*%
%ADD11C,0.120000*%
%ADD12C,0.000000*%
%ADD13C,0.127000*%
%ADD14C,0.152400*%
%ADD15C,0.304800*%
%ADD16C,0.254000*%
%ADD17C,0.200000*%
%ADD18C,0.100000*%
%ADD19C,0.300000*%
%ADD20C,0.250000*%
G04 APERTURE END LIST*
D10*
X120213619Y-107767380D02*
X120213619Y-106767380D01*
X120451714Y-106767380D01*
X120594571Y-106815000D01*
X120689809Y-106910238D01*
X120737428Y-107005476D01*
X120785047Y-107195952D01*
X120785047Y-107338809D01*
X120737428Y-107529285D01*
X120689809Y-107624523D01*
X120594571Y-107719761D01*
X120451714Y-107767380D01*
X120213619Y-107767380D01*
X121642190Y-107767380D02*
X121642190Y-107243571D01*
X121594571Y-107148333D01*
X121499333Y-107100714D01*
X121308857Y-107100714D01*
X121213619Y-107148333D01*
X121642190Y-107719761D02*
X121546952Y-107767380D01*
X121308857Y-107767380D01*
X121213619Y-107719761D01*
X121166000Y-107624523D01*
X121166000Y-107529285D01*
X121213619Y-107434047D01*
X121308857Y-107386428D01*
X121546952Y-107386428D01*
X121642190Y-107338809D01*
X121975523Y-107100714D02*
X122356476Y-107100714D01*
X122118380Y-106767380D02*
X122118380Y-107624523D01*
X122166000Y-107719761D01*
X122261238Y-107767380D01*
X122356476Y-107767380D01*
X123118380Y-107767380D02*
X123118380Y-107243571D01*
X123070761Y-107148333D01*
X122975523Y-107100714D01*
X122785047Y-107100714D01*
X122689809Y-107148333D01*
X123118380Y-107719761D02*
X123023142Y-107767380D01*
X122785047Y-107767380D01*
X122689809Y-107719761D01*
X122642190Y-107624523D01*
X122642190Y-107529285D01*
X122689809Y-107434047D01*
X122785047Y-107386428D01*
X123023142Y-107386428D01*
X123118380Y-107338809D01*
D11*
X145796000Y-108585000D02*
X145796000Y-107315000D01*
X116586000Y-107315000D02*
X116586000Y-108585000D01*
X124206000Y-107315000D02*
X145796000Y-107315000D01*
X116586000Y-107315000D02*
X119126000Y-107315000D01*
X81280000Y-154940000D02*
X82550000Y-153670000D01*
D12*
G36*
X147199497Y-24892000D02*
G01*
X147282797Y-24897180D01*
X147364569Y-24905814D01*
X147444813Y-24917902D01*
X147523528Y-24933443D01*
X147600714Y-24952438D01*
X147676372Y-24974887D01*
X147750502Y-25000789D01*
X147823103Y-25030145D01*
X147894175Y-25062954D01*
X147963719Y-25099217D01*
X148031735Y-25138934D01*
X148098222Y-25182104D01*
X148163180Y-25228728D01*
X148226610Y-25278806D01*
X148288511Y-25332337D01*
X148348213Y-25388253D01*
X148404062Y-25445485D01*
X148456060Y-25504032D01*
X148504206Y-25563896D01*
X148548500Y-25625074D01*
X148588943Y-25687569D01*
X148625534Y-25751379D01*
X148658273Y-25816505D01*
X148687161Y-25882946D01*
X148712197Y-25950704D01*
X148733381Y-26019776D01*
X148750713Y-26090165D01*
X148764194Y-26161869D01*
X148773823Y-26234889D01*
X148779601Y-26309224D01*
X148781527Y-26384875D01*
X148781527Y-26763789D01*
X148779949Y-26812699D01*
X148775214Y-26862506D01*
X148767324Y-26913210D01*
X148756277Y-26964813D01*
X148742074Y-27017313D01*
X148724715Y-27070711D01*
X148704199Y-27125006D01*
X148680527Y-27180199D01*
X148653699Y-27236290D01*
X148623715Y-27293279D01*
X148554278Y-27409949D01*
X148472216Y-27530209D01*
X148377529Y-27654061D01*
X148270217Y-27781503D01*
X148150280Y-27912536D01*
X148017718Y-28047160D01*
X147872531Y-28185374D01*
X147714719Y-28327179D01*
X147544282Y-28472575D01*
X147361220Y-28621561D01*
X147165533Y-28774138D01*
X147055975Y-28861846D01*
X146860289Y-29014588D01*
X146677227Y-29163190D01*
X146506790Y-29307654D01*
X146348978Y-29447979D01*
X146203792Y-29584165D01*
X146071230Y-29716212D01*
X145951293Y-29844120D01*
X145843980Y-29967889D01*
X145749293Y-30087519D01*
X145667231Y-30203011D01*
X145597794Y-30314363D01*
X145540981Y-30421577D01*
X145496794Y-30524652D01*
X145465232Y-30623588D01*
X145446294Y-30718385D01*
X145439982Y-30809043D01*
X145439982Y-30875710D01*
X148781527Y-30875710D01*
X148781527Y-31626521D01*
X143773123Y-31626521D01*
X143773123Y-30875710D01*
X143774697Y-30826798D01*
X143779420Y-30776980D01*
X143787292Y-30726258D01*
X143798312Y-30674632D01*
X143812480Y-30622101D01*
X143829798Y-30568666D01*
X143850264Y-30514325D01*
X143873878Y-30459081D01*
X143900641Y-30402932D01*
X143930553Y-30345878D01*
X143999822Y-30229057D01*
X144081685Y-30108618D01*
X144176143Y-29984561D01*
X144283195Y-29856886D01*
X144402842Y-29725593D01*
X144535083Y-29590681D01*
X144679918Y-29452152D01*
X144837348Y-29310004D01*
X145007372Y-29164239D01*
X145189990Y-29014855D01*
X145385202Y-28861854D01*
X145498678Y-28774144D01*
X145694365Y-28621567D01*
X145877426Y-28472581D01*
X146047863Y-28327185D01*
X146205675Y-28185380D01*
X146350862Y-28047166D01*
X146483424Y-27912542D01*
X146603361Y-27781509D01*
X146710673Y-27654067D01*
X146805360Y-27530216D01*
X146887422Y-27409956D01*
X146956860Y-27293286D01*
X147013672Y-27180207D01*
X147057859Y-27070718D01*
X147089422Y-26964820D01*
X147108359Y-26862513D01*
X147114672Y-26763797D01*
X147114672Y-26384881D01*
X147113694Y-26347069D01*
X147110759Y-26309942D01*
X147105868Y-26273501D01*
X147099021Y-26237745D01*
X147090217Y-26202674D01*
X147079457Y-26168289D01*
X147066740Y-26134588D01*
X147052067Y-26101573D01*
X147035437Y-26069244D01*
X147016852Y-26037599D01*
X146996309Y-26006640D01*
X146973811Y-25976366D01*
X146949356Y-25946777D01*
X146922944Y-25917874D01*
X146894576Y-25889656D01*
X146864252Y-25862123D01*
X146832613Y-25835357D01*
X146800301Y-25810318D01*
X146767317Y-25787006D01*
X146733660Y-25765421D01*
X146699331Y-25745563D01*
X146664329Y-25727431D01*
X146628655Y-25711026D01*
X146592309Y-25696348D01*
X146555290Y-25683397D01*
X146517598Y-25672173D01*
X146479234Y-25662675D01*
X146440198Y-25654904D01*
X146400489Y-25648860D01*
X146360107Y-25644543D01*
X146319053Y-25641953D01*
X146277327Y-25641089D01*
X145439985Y-25641089D01*
X145346414Y-25643995D01*
X145301714Y-25647627D01*
X145258406Y-25652711D01*
X145216488Y-25659249D01*
X145175961Y-25667239D01*
X145136825Y-25676681D01*
X145099080Y-25687577D01*
X145062726Y-25699925D01*
X145027763Y-25713726D01*
X144994190Y-25728979D01*
X144962009Y-25745686D01*
X144931219Y-25763845D01*
X144901819Y-25783456D01*
X144873810Y-25804521D01*
X144847192Y-25827038D01*
X144821965Y-25851008D01*
X144798129Y-25876431D01*
X144775684Y-25903306D01*
X144754630Y-25931634D01*
X144734967Y-25961415D01*
X144716694Y-25992648D01*
X144699813Y-26025334D01*
X144684322Y-26059473D01*
X144670222Y-26095065D01*
X144657513Y-26132109D01*
X144646195Y-26170606D01*
X144636268Y-26210555D01*
X144627732Y-26251958D01*
X144620586Y-26294813D01*
X144610468Y-26384881D01*
X144610468Y-26384877D01*
X143773127Y-26384877D01*
X143802564Y-26203890D01*
X143821020Y-26117775D01*
X143841967Y-26034579D01*
X143865406Y-25954303D01*
X143891335Y-25876945D01*
X143919757Y-25802507D01*
X143950669Y-25730988D01*
X143984074Y-25662388D01*
X144019969Y-25596707D01*
X144058356Y-25533945D01*
X144099234Y-25474103D01*
X144142604Y-25417179D01*
X144188465Y-25363175D01*
X144236817Y-25312090D01*
X144287661Y-25263924D01*
X144340996Y-25218677D01*
X144396822Y-25176350D01*
X144455140Y-25136941D01*
X144515949Y-25100452D01*
X144579250Y-25066882D01*
X144645042Y-25036231D01*
X144713325Y-25008499D01*
X144784100Y-24983686D01*
X144857366Y-24961792D01*
X144933123Y-24942818D01*
X145011372Y-24926762D01*
X145092112Y-24913626D01*
X145175343Y-24903409D01*
X145261066Y-24896111D01*
X145349280Y-24891733D01*
X145439985Y-24890273D01*
X147114668Y-24890273D01*
X147199497Y-24892000D01*
G37*
G36*
X136576491Y-25641084D02*
G01*
X133238859Y-25641084D01*
X133238859Y-27135690D01*
X134913545Y-27135690D01*
X134998373Y-27137417D01*
X135081674Y-27142597D01*
X135163445Y-27151231D01*
X135243689Y-27163319D01*
X135322403Y-27178860D01*
X135399590Y-27197855D01*
X135475248Y-27220303D01*
X135549377Y-27246206D01*
X135621978Y-27275561D01*
X135693051Y-27308371D01*
X135762595Y-27344634D01*
X135830611Y-27384351D01*
X135897098Y-27427521D01*
X135962057Y-27474145D01*
X136025488Y-27524223D01*
X136087390Y-27577754D01*
X136147091Y-27633259D01*
X136202940Y-27690134D01*
X136254938Y-27748380D01*
X136303084Y-27807997D01*
X136347378Y-27868983D01*
X136387820Y-27931341D01*
X136424411Y-27995069D01*
X136457150Y-28060167D01*
X136486038Y-28126636D01*
X136511074Y-28194475D01*
X136532258Y-28263684D01*
X136549590Y-28334265D01*
X136563071Y-28406215D01*
X136572700Y-28479536D01*
X136578478Y-28554228D01*
X136580403Y-28630290D01*
X136580403Y-30131913D01*
X136578462Y-30207989D01*
X136572639Y-30282722D01*
X136562933Y-30356112D01*
X136549346Y-30428159D01*
X136531876Y-30498862D01*
X136510523Y-30568222D01*
X136485289Y-30636240D01*
X136456172Y-30702914D01*
X136423173Y-30768245D01*
X136386292Y-30832233D01*
X136345529Y-30894878D01*
X136300883Y-30956180D01*
X136252355Y-31016139D01*
X136199945Y-31074754D01*
X136143653Y-31132027D01*
X136083478Y-31187957D01*
X136021133Y-31241064D01*
X135957351Y-31290744D01*
X135892132Y-31336998D01*
X135825477Y-31379826D01*
X135757385Y-31419228D01*
X135687856Y-31455203D01*
X135616890Y-31487752D01*
X135544488Y-31516875D01*
X135470649Y-31542572D01*
X135395373Y-31564842D01*
X135318660Y-31583686D01*
X135240511Y-31599104D01*
X135160924Y-31611096D01*
X135079901Y-31619661D01*
X134997441Y-31624800D01*
X134913545Y-31626513D01*
X133238859Y-31626513D01*
X133059481Y-31620675D01*
X132973552Y-31613377D01*
X132890130Y-31603160D01*
X132809214Y-31590024D01*
X132730805Y-31573969D01*
X132654902Y-31554994D01*
X132581507Y-31533101D01*
X132510617Y-31508288D01*
X132442235Y-31480556D01*
X132376359Y-31449905D01*
X132312990Y-31416335D01*
X132252127Y-31379845D01*
X132193771Y-31340437D01*
X132137922Y-31298109D01*
X132084579Y-31252862D01*
X132033743Y-31204696D01*
X131985414Y-31153611D01*
X131939591Y-31099607D01*
X131896275Y-31042684D01*
X131855466Y-30982841D01*
X131817163Y-30920079D01*
X131781367Y-30854399D01*
X131748077Y-30785799D01*
X131717294Y-30714279D01*
X131689018Y-30639841D01*
X131663248Y-30562484D01*
X131639985Y-30482207D01*
X131619229Y-30399011D01*
X131600979Y-30312897D01*
X131572000Y-30131909D01*
X132409343Y-30131909D01*
X132413707Y-30177670D01*
X132419462Y-30221978D01*
X132426607Y-30264833D01*
X132435143Y-30306236D01*
X132445070Y-30346185D01*
X132456389Y-30384682D01*
X132469098Y-30421727D01*
X132483197Y-30457318D01*
X132498688Y-30491457D01*
X132515570Y-30524144D01*
X132533842Y-30555377D01*
X132553506Y-30585158D01*
X132574560Y-30613486D01*
X132597005Y-30640361D01*
X132620842Y-30665784D01*
X132646069Y-30689754D01*
X132672687Y-30712271D01*
X132700695Y-30733336D01*
X132730095Y-30752947D01*
X132760886Y-30771107D01*
X132793067Y-30787813D01*
X132826640Y-30803066D01*
X132861603Y-30816867D01*
X132897957Y-30829216D01*
X132935702Y-30840111D01*
X132974838Y-30849554D01*
X133015365Y-30857544D01*
X133057283Y-30864081D01*
X133100591Y-30869166D01*
X133145291Y-30872797D01*
X133191381Y-30874976D01*
X133238863Y-30875703D01*
X134076205Y-30875703D01*
X134118390Y-30874853D01*
X134159842Y-30872304D01*
X134200560Y-30868055D01*
X134240544Y-30862107D01*
X134279794Y-30854460D01*
X134318311Y-30845113D01*
X134356094Y-30834067D01*
X134393143Y-30821321D01*
X134429458Y-30806876D01*
X134465040Y-30790732D01*
X134499889Y-30772888D01*
X134534003Y-30753345D01*
X134567384Y-30732103D01*
X134600031Y-30709161D01*
X134631945Y-30684520D01*
X134663125Y-30658179D01*
X134693450Y-30630221D01*
X134721818Y-30601606D01*
X134748230Y-30572332D01*
X134772685Y-30542401D01*
X134795184Y-30511811D01*
X134815726Y-30480564D01*
X134834312Y-30448659D01*
X134850942Y-30416096D01*
X134865615Y-30382875D01*
X134878331Y-30348996D01*
X134889092Y-30314460D01*
X134897895Y-30279265D01*
X134904743Y-30243413D01*
X134909634Y-30206903D01*
X134912568Y-30169735D01*
X134913547Y-30131909D01*
X134913547Y-28630288D01*
X134912568Y-28592476D01*
X134909634Y-28555349D01*
X134904743Y-28518908D01*
X134897895Y-28483152D01*
X134889092Y-28448081D01*
X134878331Y-28413695D01*
X134865615Y-28379995D01*
X134850942Y-28346980D01*
X134834312Y-28314650D01*
X134815726Y-28283006D01*
X134795184Y-28252046D01*
X134772685Y-28221772D01*
X134748230Y-28192184D01*
X134721818Y-28163280D01*
X134693450Y-28135062D01*
X134663125Y-28107530D01*
X134631945Y-28080764D01*
X134600031Y-28055725D01*
X134567384Y-28032413D01*
X134534003Y-28010828D01*
X134499888Y-27990970D01*
X134465040Y-27972838D01*
X134429458Y-27956433D01*
X134393142Y-27941755D01*
X134356093Y-27928804D01*
X134318310Y-27917580D01*
X134279793Y-27908082D01*
X134240543Y-27900311D01*
X134200559Y-27894267D01*
X134159841Y-27889950D01*
X134118390Y-27887360D01*
X134076205Y-27886496D01*
X131572000Y-27886496D01*
X131572063Y-24890273D01*
X136580466Y-24890273D01*
X136576491Y-25641084D01*
G37*
D11*
X80010000Y-142240000D02*
X82550000Y-144780000D01*
X100330000Y-40640000D02*
X100330000Y-39370000D01*
X153670000Y-180340000D02*
X153670000Y-179070000D01*
D12*
G36*
X150599215Y-23668971D02*
G01*
X151222509Y-23668971D01*
X151222509Y-24198897D01*
X150599215Y-24198897D01*
X150599215Y-26313655D01*
X150599988Y-26345073D01*
X150602309Y-26375562D01*
X150606178Y-26405123D01*
X150611593Y-26433755D01*
X150618557Y-26461459D01*
X150627067Y-26488234D01*
X150637125Y-26514080D01*
X150648730Y-26538998D01*
X150661882Y-26562987D01*
X150676582Y-26586048D01*
X150692829Y-26608180D01*
X150710623Y-26629383D01*
X150729965Y-26649658D01*
X150750854Y-26669004D01*
X150773290Y-26687421D01*
X150797274Y-26704909D01*
X150821917Y-26721102D01*
X150846333Y-26736250D01*
X150870521Y-26750353D01*
X150894481Y-26763411D01*
X150918214Y-26775425D01*
X150941720Y-26786395D01*
X150964997Y-26796319D01*
X150988048Y-26805199D01*
X151010870Y-26813034D01*
X151033466Y-26819825D01*
X151055833Y-26825571D01*
X151077973Y-26830272D01*
X151099886Y-26833928D01*
X151121571Y-26836540D01*
X151143029Y-26838107D01*
X151164259Y-26838630D01*
X151222506Y-26838630D01*
X151222506Y-27368558D01*
X150599215Y-27368558D01*
X150535718Y-27367349D01*
X150473382Y-27363721D01*
X150412206Y-27357676D01*
X150352190Y-27349212D01*
X150293336Y-27338330D01*
X150235641Y-27325029D01*
X150179107Y-27309311D01*
X150123734Y-27291174D01*
X150069521Y-27270619D01*
X150016468Y-27247645D01*
X149964576Y-27222253D01*
X149913845Y-27194443D01*
X149864274Y-27164215D01*
X149815864Y-27131568D01*
X149768614Y-27096503D01*
X149722525Y-27059020D01*
X149678437Y-27019545D01*
X149637194Y-26979121D01*
X149598796Y-26937750D01*
X149563242Y-26895430D01*
X149530532Y-26852163D01*
X149500666Y-26807948D01*
X149473645Y-26762784D01*
X149449468Y-26716673D01*
X149428136Y-26669614D01*
X149409648Y-26621606D01*
X149394004Y-26572651D01*
X149381205Y-26522748D01*
X149371249Y-26471897D01*
X149364139Y-26420097D01*
X149359872Y-26367350D01*
X149358450Y-26313655D01*
X149358450Y-24198899D01*
X148735159Y-24198899D01*
X148735159Y-23668971D01*
X149358450Y-23668971D01*
X149358454Y-22614070D01*
X150599215Y-22614070D01*
X150599215Y-23668971D01*
G37*
D11*
X78740000Y-142240000D02*
X80010000Y-142240000D01*
X41402000Y-107254000D02*
X44577000Y-107254000D01*
D12*
G36*
X125474892Y-27374561D02*
G01*
X125484979Y-27243898D01*
X125501792Y-27115592D01*
X125525330Y-26989644D01*
X125555593Y-26866053D01*
X125592582Y-26744819D01*
X125636295Y-26625943D01*
X125686734Y-26509424D01*
X125743898Y-26395262D01*
X125807786Y-26283457D01*
X125878400Y-26174010D01*
X125955740Y-26066920D01*
X126039804Y-25962187D01*
X126130593Y-25859811D01*
X126228108Y-25759793D01*
X126332348Y-25662131D01*
X126441723Y-25568664D01*
X126553667Y-25481226D01*
X126668177Y-25399819D01*
X126785256Y-25324442D01*
X126904903Y-25255095D01*
X127027117Y-25191779D01*
X127151899Y-25134492D01*
X127279248Y-25083236D01*
X127409166Y-25038010D01*
X127541651Y-24998814D01*
X127676704Y-24965648D01*
X127814325Y-24938512D01*
X127954514Y-24917407D01*
X128097271Y-24902331D01*
X128242595Y-24893286D01*
X128390488Y-24890271D01*
X129642587Y-24890271D01*
X129642587Y-25641082D01*
X128813072Y-25641082D01*
X128727281Y-25642809D01*
X128643048Y-25647989D01*
X128560375Y-25656623D01*
X128479260Y-25668711D01*
X128399705Y-25684252D01*
X128321708Y-25703248D01*
X128245271Y-25725696D01*
X128170392Y-25751599D01*
X128097073Y-25780955D01*
X128025312Y-25813764D01*
X127955111Y-25850027D01*
X127886468Y-25889744D01*
X127819385Y-25932915D01*
X127753861Y-25979539D01*
X127689895Y-26029617D01*
X127627489Y-26083148D01*
X127568262Y-26139064D01*
X127512856Y-26196296D01*
X127461271Y-26254843D01*
X127413507Y-26314706D01*
X127369565Y-26375885D01*
X127329443Y-26438379D01*
X127293143Y-26502189D01*
X127260663Y-26567315D01*
X127232005Y-26633756D01*
X127207168Y-26701513D01*
X127186152Y-26770586D01*
X127168957Y-26840974D01*
X127155583Y-26912678D01*
X127146030Y-26985698D01*
X127140298Y-27060033D01*
X127138388Y-27135684D01*
X127138390Y-27886498D01*
X127145359Y-27839888D01*
X127153552Y-27794784D01*
X127162967Y-27751189D01*
X127173605Y-27709101D01*
X127185466Y-27668521D01*
X127198549Y-27629448D01*
X127212855Y-27591883D01*
X127228384Y-27555825D01*
X127245136Y-27521275D01*
X127263110Y-27488232D01*
X127282308Y-27456697D01*
X127302728Y-27426670D01*
X127324370Y-27398150D01*
X127347236Y-27371138D01*
X127371324Y-27345633D01*
X127396635Y-27321635D01*
X127423658Y-27299118D01*
X127451903Y-27278053D01*
X127481371Y-27258441D01*
X127512062Y-27240282D01*
X127543976Y-27223576D01*
X127577113Y-27208322D01*
X127611472Y-27194521D01*
X127647054Y-27182173D01*
X127683859Y-27171278D01*
X127721887Y-27161835D01*
X127761137Y-27153845D01*
X127801610Y-27147308D01*
X127843306Y-27142223D01*
X127886225Y-27138591D01*
X127930367Y-27136412D01*
X127975731Y-27135686D01*
X128813074Y-27135686D01*
X128897903Y-27137413D01*
X128981203Y-27142593D01*
X129062974Y-27151227D01*
X129143218Y-27163315D01*
X129221933Y-27178857D01*
X129299119Y-27197852D01*
X129374777Y-27220300D01*
X129448906Y-27246203D01*
X129521507Y-27275559D01*
X129592580Y-27308368D01*
X129662124Y-27344632D01*
X129730140Y-27384348D01*
X129796627Y-27427519D01*
X129861586Y-27474143D01*
X129925017Y-27524221D01*
X129986919Y-27577752D01*
X130046620Y-27633257D01*
X130102469Y-27690132D01*
X130154466Y-27748378D01*
X130202612Y-27807994D01*
X130246906Y-27868981D01*
X130287348Y-27931338D01*
X130323939Y-27995066D01*
X130356679Y-28060164D01*
X130385566Y-28126633D01*
X130410602Y-28194472D01*
X130431786Y-28263682D01*
X130449119Y-28334262D01*
X130462600Y-28406213D01*
X130472229Y-28479534D01*
X130478007Y-28554226D01*
X130479932Y-28630288D01*
X130479932Y-30131909D01*
X130478007Y-30207149D01*
X130472229Y-30281128D01*
X130462600Y-30353847D01*
X130449119Y-30425304D01*
X130431786Y-30495501D01*
X130410602Y-30564437D01*
X130385566Y-30632112D01*
X130356679Y-30698526D01*
X130323939Y-30763679D01*
X130287348Y-30827571D01*
X130246906Y-30890203D01*
X130202612Y-30951574D01*
X130154466Y-31011683D01*
X130102469Y-31070532D01*
X130046620Y-31128120D01*
X129986919Y-31184447D01*
X129925017Y-31237979D01*
X129861586Y-31288056D01*
X129796627Y-31334680D01*
X129730140Y-31377851D01*
X129662124Y-31417567D01*
X129592580Y-31453830D01*
X129521507Y-31486640D01*
X129448906Y-31515996D01*
X129374777Y-31541898D01*
X129299119Y-31564346D01*
X129221933Y-31583341D01*
X129143218Y-31598883D01*
X129062974Y-31610970D01*
X128981203Y-31619604D01*
X128897903Y-31624785D01*
X128813074Y-31626512D01*
X127138390Y-31626512D01*
X127053546Y-31624785D01*
X126970200Y-31619604D01*
X126888351Y-31610970D01*
X126808001Y-31598883D01*
X126729149Y-31583341D01*
X126651794Y-31564346D01*
X126575938Y-31541898D01*
X126501579Y-31515996D01*
X126428718Y-31486640D01*
X126357355Y-31453830D01*
X126287490Y-31417567D01*
X126219123Y-31377851D01*
X126152253Y-31334680D01*
X126086882Y-31288056D01*
X126023008Y-31237979D01*
X125960632Y-31184447D01*
X125901405Y-31128120D01*
X125845999Y-31070532D01*
X125794414Y-31011683D01*
X125746650Y-30951574D01*
X125702707Y-30890203D01*
X125662585Y-30827571D01*
X125626284Y-30763679D01*
X125593805Y-30698526D01*
X125565147Y-30632112D01*
X125540309Y-30564437D01*
X125519293Y-30495501D01*
X125502098Y-30425304D01*
X125488724Y-30353847D01*
X125479171Y-30281128D01*
X125473440Y-30207149D01*
X125471529Y-30131913D01*
X127138390Y-30131913D01*
X127139337Y-30169313D01*
X127142180Y-30206083D01*
X127146918Y-30242223D01*
X127153552Y-30277732D01*
X127162080Y-30312611D01*
X127172504Y-30346859D01*
X127184823Y-30380477D01*
X127199038Y-30413465D01*
X127215148Y-30445822D01*
X127233153Y-30477549D01*
X127253053Y-30508645D01*
X127274849Y-30539111D01*
X127298540Y-30568947D01*
X127324126Y-30598152D01*
X127351608Y-30626727D01*
X127380985Y-30654672D01*
X127412196Y-30681437D01*
X127444201Y-30706476D01*
X127477002Y-30729788D01*
X127510597Y-30751373D01*
X127544987Y-30771231D01*
X127580171Y-30789363D01*
X127616151Y-30805768D01*
X127652925Y-30820446D01*
X127690494Y-30833397D01*
X127728858Y-30844622D01*
X127768017Y-30854119D01*
X127807971Y-30861890D01*
X127848719Y-30867934D01*
X127890262Y-30872251D01*
X127932600Y-30874841D01*
X127975733Y-30875705D01*
X128018850Y-30874841D01*
X128061142Y-30872251D01*
X128102609Y-30867934D01*
X128143250Y-30861890D01*
X128183066Y-30854119D01*
X128222057Y-30844622D01*
X128260222Y-30833397D01*
X128297562Y-30820446D01*
X128334077Y-30805768D01*
X128369766Y-30789363D01*
X128404630Y-30771231D01*
X128438668Y-30751373D01*
X128471881Y-30729788D01*
X128504269Y-30706476D01*
X128535831Y-30681437D01*
X128566568Y-30654672D01*
X128596419Y-30626727D01*
X128624344Y-30598152D01*
X128650343Y-30568947D01*
X128674416Y-30539111D01*
X128696563Y-30508645D01*
X128716784Y-30477549D01*
X128735080Y-30445822D01*
X128751449Y-30413465D01*
X128765893Y-30380477D01*
X128778411Y-30346859D01*
X128789003Y-30312611D01*
X128797669Y-30277732D01*
X128804410Y-30242223D01*
X128809224Y-30206083D01*
X128812113Y-30169313D01*
X128813076Y-30131913D01*
X128813074Y-30131913D01*
X128813074Y-28630290D01*
X128812096Y-28592478D01*
X128809161Y-28555351D01*
X128804270Y-28518910D01*
X128797423Y-28483154D01*
X128788619Y-28448083D01*
X128777859Y-28413698D01*
X128765142Y-28379997D01*
X128750469Y-28346982D01*
X128733840Y-28314653D01*
X128715254Y-28283008D01*
X128694712Y-28252049D01*
X128672213Y-28221775D01*
X128647758Y-28192186D01*
X128621346Y-28163283D01*
X128592979Y-28135065D01*
X128562654Y-28107532D01*
X128531474Y-28080766D01*
X128499560Y-28055727D01*
X128466913Y-28032415D01*
X128433532Y-28010830D01*
X128399417Y-27990972D01*
X128364568Y-27972840D01*
X128328986Y-27956435D01*
X128292670Y-27941757D01*
X128255620Y-27928806D01*
X128217837Y-27917582D01*
X128179320Y-27908084D01*
X128140070Y-27900313D01*
X128100085Y-27894269D01*
X128059367Y-27889952D01*
X128017916Y-27887362D01*
X127975731Y-27886498D01*
X127933072Y-27887362D01*
X127891177Y-27889952D01*
X127850047Y-27894269D01*
X127809681Y-27900313D01*
X127770079Y-27908084D01*
X127731241Y-27917582D01*
X127693168Y-27928806D01*
X127655858Y-27941757D01*
X127619313Y-27956435D01*
X127583532Y-27972840D01*
X127548516Y-27990972D01*
X127514263Y-28010830D01*
X127480775Y-28032415D01*
X127448051Y-28055727D01*
X127416091Y-28080766D01*
X127384895Y-28107532D01*
X127355045Y-28135065D01*
X127327121Y-28163284D01*
X127301122Y-28192187D01*
X127277049Y-28221776D01*
X127254902Y-28252051D01*
X127234681Y-28283010D01*
X127216386Y-28314655D01*
X127200016Y-28346985D01*
X127185572Y-28380000D01*
X127173054Y-28413700D01*
X127162462Y-28448085D01*
X127153796Y-28483156D01*
X127147056Y-28518912D01*
X127142241Y-28555353D01*
X127139352Y-28592479D01*
X127138390Y-28630290D01*
X127138390Y-30131913D01*
X125471529Y-30131913D01*
X125471529Y-27507581D01*
X125474892Y-27374561D01*
G37*
G36*
X160392487Y-28767780D02*
G01*
X149020695Y-28767780D01*
X149020695Y-28012474D01*
X160392487Y-28012474D01*
X160392487Y-28767780D01*
G37*
D11*
X41402000Y-107254000D02*
X41402000Y-108651000D01*
X133350000Y-180340000D02*
X135890000Y-180340000D01*
X110490000Y-159512000D02*
X110490000Y-160782000D01*
X140970000Y-180340000D02*
X153670000Y-180340000D01*
X153670000Y-160782000D02*
X153670000Y-159512000D01*
X133350000Y-179070000D02*
X133350000Y-180340000D01*
X78740000Y-148590000D02*
X82550000Y-148590000D01*
X101727000Y-108778000D02*
X101727000Y-107254000D01*
D12*
G36*
X158672878Y-24728826D02*
G01*
X158682912Y-24663620D01*
X158694812Y-24600484D01*
X158708578Y-24539418D01*
X158724210Y-24480422D01*
X158741708Y-24423496D01*
X158761072Y-24368640D01*
X158782302Y-24315854D01*
X158805398Y-24265139D01*
X158830359Y-24216493D01*
X158857187Y-24169917D01*
X158885881Y-24125411D01*
X158916441Y-24082976D01*
X158948866Y-24042610D01*
X158983158Y-24004315D01*
X159019315Y-23968090D01*
X159057339Y-23933934D01*
X159097227Y-23901849D01*
X159138982Y-23871833D01*
X159182602Y-23843888D01*
X159228089Y-23818012D01*
X159275441Y-23794207D01*
X159324659Y-23772472D01*
X159375743Y-23752806D01*
X159428693Y-23735211D01*
X159483509Y-23719686D01*
X159540191Y-23706231D01*
X159598738Y-23694846D01*
X159659152Y-23685531D01*
X159721431Y-23678286D01*
X159785576Y-23673111D01*
X159851587Y-23670006D01*
X159919464Y-23668971D01*
X160536930Y-23668971D01*
X160536930Y-24728826D01*
X159296169Y-24728826D01*
X159264415Y-24729435D01*
X159233230Y-24731263D01*
X159202614Y-24734310D01*
X159172567Y-24738576D01*
X159143089Y-24744060D01*
X159114180Y-24750764D01*
X159085839Y-24758686D01*
X159058068Y-24767827D01*
X159030865Y-24778187D01*
X159004231Y-24789765D01*
X158978166Y-24802563D01*
X158952670Y-24816579D01*
X158927743Y-24831814D01*
X158903384Y-24848268D01*
X158879594Y-24865940D01*
X158856373Y-24884831D01*
X158834153Y-24904264D01*
X158813366Y-24924181D01*
X158794013Y-24944581D01*
X158776094Y-24965465D01*
X158759608Y-24986833D01*
X158744556Y-25008684D01*
X158730937Y-25031019D01*
X158718752Y-25053837D01*
X158708000Y-25077139D01*
X158698682Y-25100925D01*
X158690798Y-25125195D01*
X158684347Y-25149948D01*
X158679329Y-25175185D01*
X158675745Y-25200905D01*
X158673595Y-25227109D01*
X158672878Y-25253797D01*
X158672878Y-27368556D01*
X157432119Y-27368556D01*
X157432119Y-23668971D01*
X158672878Y-23668971D01*
X158672878Y-24728826D01*
G37*
D11*
X71120000Y-39370000D02*
X71120000Y-40640000D01*
X78740000Y-40640000D02*
X100330000Y-40640000D01*
D12*
G36*
X152464692Y-24674541D02*
G01*
X152468993Y-24621262D01*
X152476160Y-24568989D01*
X152486195Y-24517722D01*
X152499097Y-24467460D01*
X152514865Y-24418205D01*
X152533501Y-24369956D01*
X152555004Y-24322713D01*
X152579374Y-24276476D01*
X152606611Y-24231245D01*
X152636716Y-24187019D01*
X152669687Y-24143800D01*
X152705526Y-24101587D01*
X152744231Y-24060380D01*
X152785804Y-24020179D01*
X152830244Y-23980985D01*
X152876663Y-23943202D01*
X152924175Y-23907856D01*
X152972778Y-23874949D01*
X153022474Y-23844478D01*
X153073262Y-23816446D01*
X153125143Y-23790851D01*
X153178115Y-23767694D01*
X153232180Y-23746974D01*
X153287337Y-23728692D01*
X153343587Y-23712848D01*
X153400928Y-23699441D01*
X153459362Y-23688472D01*
X153518888Y-23679940D01*
X153579506Y-23673846D01*
X153641217Y-23670190D01*
X153704020Y-23668971D01*
X154950609Y-23668971D01*
X155013753Y-23670199D01*
X155075759Y-23673885D01*
X155136628Y-23680027D01*
X155196358Y-23688627D01*
X155254951Y-23699683D01*
X155312406Y-23713196D01*
X155368724Y-23729166D01*
X155423904Y-23747593D01*
X155477946Y-23768477D01*
X155530850Y-23791818D01*
X155582616Y-23817616D01*
X155633245Y-23845871D01*
X155682737Y-23876583D01*
X155731090Y-23909752D01*
X155778306Y-23945378D01*
X155824385Y-23983460D01*
X155868824Y-24022936D01*
X155910397Y-24063359D01*
X155949102Y-24104731D01*
X155984940Y-24147050D01*
X156017912Y-24190318D01*
X156048016Y-24234533D01*
X156075253Y-24279696D01*
X156099623Y-24325808D01*
X156121126Y-24372867D01*
X156139762Y-24420874D01*
X156155531Y-24469829D01*
X156168433Y-24519733D01*
X156178468Y-24570584D01*
X156185636Y-24622383D01*
X156189937Y-24675130D01*
X156191370Y-24728826D01*
X156191370Y-26313653D01*
X156189937Y-26366758D01*
X156185636Y-26418973D01*
X156178468Y-26470298D01*
X156168433Y-26520733D01*
X156155531Y-26570278D01*
X156139762Y-26618933D01*
X156121126Y-26666699D01*
X156099623Y-26713574D01*
X156075253Y-26759560D01*
X156048016Y-26804655D01*
X156017912Y-26848861D01*
X155984940Y-26892177D01*
X155949102Y-26934603D01*
X155910397Y-26976140D01*
X155868824Y-27016786D01*
X155824385Y-27056542D01*
X155778306Y-27094325D01*
X155731090Y-27129671D01*
X155682737Y-27162578D01*
X155633245Y-27193049D01*
X155582616Y-27221081D01*
X155530850Y-27246676D01*
X155477946Y-27269833D01*
X155423904Y-27290553D01*
X155368724Y-27308835D01*
X155312406Y-27324679D01*
X155254951Y-27338086D01*
X155196358Y-27349055D01*
X155136628Y-27357587D01*
X155075759Y-27363681D01*
X155013753Y-27367337D01*
X154950609Y-27368556D01*
X153704020Y-27368556D01*
X153640864Y-27367347D01*
X153578824Y-27363720D01*
X153517899Y-27357674D01*
X153458088Y-27349210D01*
X153399393Y-27338328D01*
X153341812Y-27325028D01*
X153285347Y-27309309D01*
X153229996Y-27291172D01*
X153175761Y-27270617D01*
X153122640Y-27247643D01*
X153070634Y-27222252D01*
X153019744Y-27194441D01*
X152969968Y-27164213D01*
X152921307Y-27131566D01*
X152873761Y-27096501D01*
X152827330Y-27059018D01*
X152783243Y-27019543D01*
X152742001Y-26979119D01*
X152703603Y-26937748D01*
X152668049Y-26895428D01*
X152635339Y-26852161D01*
X152605474Y-26807945D01*
X152578453Y-26762782D01*
X152554277Y-26716670D01*
X152532944Y-26669611D01*
X152514456Y-26621603D01*
X152498813Y-26572648D01*
X152486013Y-26522745D01*
X152476058Y-26471894D01*
X152468947Y-26420095D01*
X152464681Y-26367348D01*
X152463259Y-26313653D01*
X153704020Y-26313653D01*
X153704725Y-26340051D01*
X153706841Y-26366003D01*
X153710368Y-26391511D01*
X153715306Y-26416574D01*
X153721655Y-26441192D01*
X153729414Y-26465365D01*
X153738585Y-26489093D01*
X153749166Y-26512376D01*
X153761157Y-26535214D01*
X153774560Y-26557607D01*
X153789373Y-26579556D01*
X153805597Y-26601059D01*
X153823232Y-26622117D01*
X153842277Y-26642730D01*
X153862733Y-26662899D01*
X153884600Y-26682622D01*
X153907832Y-26701513D01*
X153931656Y-26719185D01*
X153956072Y-26735639D01*
X153981079Y-26750874D01*
X154006678Y-26764890D01*
X154032869Y-26777687D01*
X154059651Y-26789266D01*
X154087024Y-26799626D01*
X154114990Y-26808767D01*
X154143547Y-26816689D01*
X154172695Y-26823392D01*
X154202436Y-26828877D01*
X154232768Y-26833143D01*
X154263692Y-26836190D01*
X154295207Y-26838018D01*
X154327314Y-26838628D01*
X154359410Y-26838018D01*
X154390891Y-26836190D01*
X154421758Y-26833143D01*
X154452010Y-26828877D01*
X154481648Y-26823392D01*
X154510671Y-26816689D01*
X154539080Y-26808767D01*
X154566875Y-26799626D01*
X154594055Y-26789266D01*
X154620621Y-26777687D01*
X154646572Y-26764890D01*
X154671909Y-26750874D01*
X154696631Y-26735639D01*
X154720739Y-26719185D01*
X154744232Y-26701513D01*
X154767111Y-26682622D01*
X154789332Y-26662899D01*
X154810119Y-26642730D01*
X154829472Y-26622117D01*
X154847391Y-26601059D01*
X154863877Y-26579556D01*
X154878930Y-26557607D01*
X154892548Y-26535214D01*
X154904733Y-26512376D01*
X154915485Y-26489093D01*
X154924803Y-26465365D01*
X154932687Y-26441192D01*
X154939138Y-26416574D01*
X154944155Y-26391511D01*
X154947739Y-26366003D01*
X154949889Y-26340051D01*
X154950605Y-26313653D01*
X154950605Y-24728826D01*
X154949877Y-24701828D01*
X154947693Y-24675315D01*
X154944052Y-24649285D01*
X154938955Y-24623738D01*
X154932401Y-24598675D01*
X154924391Y-24574096D01*
X154914925Y-24550001D01*
X154904003Y-24526389D01*
X154891624Y-24503260D01*
X154877789Y-24480616D01*
X154862498Y-24458455D01*
X154845750Y-24436777D01*
X154827546Y-24415584D01*
X154807886Y-24394874D01*
X154786769Y-24374648D01*
X154764196Y-24354905D01*
X154740987Y-24336013D01*
X154717231Y-24318341D01*
X154692929Y-24301887D01*
X154668081Y-24286651D01*
X154642687Y-24272635D01*
X154616747Y-24259838D01*
X154590261Y-24248259D01*
X154563229Y-24237899D01*
X154535651Y-24228758D01*
X154507527Y-24220836D01*
X154478857Y-24214132D01*
X154449640Y-24208648D01*
X154419878Y-24204382D01*
X154389570Y-24201335D01*
X154358715Y-24199507D01*
X154327314Y-24198897D01*
X154295560Y-24199507D01*
X154264374Y-24201335D01*
X154233758Y-24204382D01*
X154203710Y-24208648D01*
X154174232Y-24214132D01*
X154145322Y-24220836D01*
X154116981Y-24228758D01*
X154089210Y-24237899D01*
X154062007Y-24248259D01*
X154035373Y-24259838D01*
X154009308Y-24272635D01*
X153983811Y-24286651D01*
X153958884Y-24301887D01*
X153934525Y-24318341D01*
X153910735Y-24336013D01*
X153887514Y-24354905D01*
X153865294Y-24374648D01*
X153844508Y-24394874D01*
X153825155Y-24415584D01*
X153807235Y-24436777D01*
X153790749Y-24458455D01*
X153775697Y-24480616D01*
X153762078Y-24503260D01*
X153749893Y-24526389D01*
X153739142Y-24550001D01*
X153729824Y-24574096D01*
X153721939Y-24598675D01*
X153715488Y-24623738D01*
X153710471Y-24649285D01*
X153706887Y-24675315D01*
X153704736Y-24701828D01*
X153704020Y-24728826D01*
X153704020Y-26313653D01*
X152463259Y-26313653D01*
X152463259Y-24728826D01*
X152464692Y-24674541D01*
G37*
G36*
X137672597Y-30131913D02*
G01*
X137672597Y-28932017D01*
X139339450Y-28932017D01*
X140998489Y-26258571D01*
X140987262Y-26220581D01*
X140975103Y-26183797D01*
X140962012Y-26148219D01*
X140947988Y-26113847D01*
X140933033Y-26080681D01*
X140917144Y-26048721D01*
X140900324Y-26017967D01*
X140882571Y-25988419D01*
X140863885Y-25960077D01*
X140844268Y-25932942D01*
X140823718Y-25907012D01*
X140802235Y-25882288D01*
X140779820Y-25858771D01*
X140756473Y-25836459D01*
X140732194Y-25815354D01*
X140706982Y-25795454D01*
X140680838Y-25776760D01*
X140653762Y-25759273D01*
X140625753Y-25742992D01*
X140596812Y-25727916D01*
X140566938Y-25714047D01*
X140536132Y-25701383D01*
X140504394Y-25689926D01*
X140471724Y-25679675D01*
X140438121Y-25670630D01*
X140403586Y-25662790D01*
X140368118Y-25656157D01*
X140331718Y-25650730D01*
X140294386Y-25646509D01*
X140256121Y-25643494D01*
X140176795Y-25641082D01*
X140134136Y-25641945D01*
X140092241Y-25644535D01*
X140051111Y-25648853D01*
X140010744Y-25654897D01*
X139971142Y-25662667D01*
X139932304Y-25672165D01*
X139894231Y-25683389D01*
X139856921Y-25696341D01*
X139820376Y-25711019D01*
X139784595Y-25727424D01*
X139749579Y-25745556D01*
X139715326Y-25765414D01*
X139681838Y-25787000D01*
X139649114Y-25810312D01*
X139617155Y-25835351D01*
X139585960Y-25862117D01*
X139556109Y-25889650D01*
X139528185Y-25917868D01*
X139502186Y-25946771D01*
X139478113Y-25976360D01*
X139455965Y-26006633D01*
X139435744Y-26037593D01*
X139417448Y-26069237D01*
X139401078Y-26101567D01*
X139386634Y-26134582D01*
X139374116Y-26168282D01*
X139363524Y-26202668D01*
X139354857Y-26237739D01*
X139348117Y-26273495D01*
X139343302Y-26309937D01*
X139340413Y-26347063D01*
X139339450Y-26384875D01*
X139339450Y-28932017D01*
X137672597Y-28932017D01*
X137672597Y-26384875D01*
X137674508Y-26308813D01*
X137680239Y-26234121D01*
X137689792Y-26160800D01*
X137703166Y-26088849D01*
X137720361Y-26018268D01*
X137741377Y-25949059D01*
X137766214Y-25881219D01*
X137794872Y-25814750D01*
X137827351Y-25749652D01*
X137863652Y-25685924D01*
X137903773Y-25623567D01*
X137947716Y-25562580D01*
X137995480Y-25502964D01*
X138047065Y-25444718D01*
X138102471Y-25387842D01*
X138161698Y-25332337D01*
X138224074Y-25278806D01*
X138287947Y-25228728D01*
X138353318Y-25182104D01*
X138420188Y-25138934D01*
X138488555Y-25099217D01*
X138558420Y-25062954D01*
X138629782Y-25030144D01*
X138702643Y-25000788D01*
X138777002Y-24974886D01*
X138852859Y-24952437D01*
X138930213Y-24933442D01*
X139009065Y-24917900D01*
X139089416Y-24905813D01*
X139171264Y-24897178D01*
X139254610Y-24891998D01*
X139339454Y-24890271D01*
X139339454Y-24890273D01*
X141014140Y-24890273D01*
X141098968Y-24892000D01*
X141182268Y-24897180D01*
X141264040Y-24905814D01*
X141344283Y-24917902D01*
X141422997Y-24933443D01*
X141500183Y-24952438D01*
X141575841Y-24974887D01*
X141649970Y-25000789D01*
X141722571Y-25030145D01*
X141793643Y-25062954D01*
X141863187Y-25099217D01*
X141931202Y-25138934D01*
X141997689Y-25182104D01*
X142062647Y-25228728D01*
X142126077Y-25278806D01*
X142187979Y-25332337D01*
X142247680Y-25388253D01*
X142303530Y-25445485D01*
X142355527Y-25504032D01*
X142403674Y-25563896D01*
X142447968Y-25625074D01*
X142488411Y-25687569D01*
X142525002Y-25751379D01*
X142557741Y-25816505D01*
X142586628Y-25882946D01*
X142611664Y-25950704D01*
X142632848Y-26019776D01*
X142650181Y-26090165D01*
X142663662Y-26161869D01*
X142673291Y-26234889D01*
X142679068Y-26309224D01*
X142680994Y-26384875D01*
X142680994Y-30131913D01*
X142679068Y-30207153D01*
X142673291Y-30281132D01*
X142663662Y-30353850D01*
X142650181Y-30425307D01*
X142632848Y-30495504D01*
X142611664Y-30564439D01*
X142586628Y-30632114D01*
X142557741Y-30698528D01*
X142525002Y-30763681D01*
X142488411Y-30827574D01*
X142447968Y-30890205D01*
X142403674Y-30951576D01*
X142355527Y-31011685D01*
X142303530Y-31070534D01*
X142247680Y-31128122D01*
X142187979Y-31184449D01*
X142126077Y-31237980D01*
X142062647Y-31288058D01*
X141997689Y-31334682D01*
X141931202Y-31377853D01*
X141863187Y-31417569D01*
X141793643Y-31453832D01*
X141722571Y-31486642D01*
X141649970Y-31515998D01*
X141575841Y-31541900D01*
X141500183Y-31564348D01*
X141422997Y-31583343D01*
X141344283Y-31598885D01*
X141264040Y-31610972D01*
X141182268Y-31619606D01*
X141098968Y-31624787D01*
X141014140Y-31626513D01*
X139339454Y-31626513D01*
X139254610Y-31624800D01*
X139171264Y-31619661D01*
X139089416Y-31611096D01*
X139009065Y-31599104D01*
X138930213Y-31583686D01*
X138852859Y-31564842D01*
X138777002Y-31542572D01*
X138702643Y-31516875D01*
X138629782Y-31487752D01*
X138558420Y-31455203D01*
X138488555Y-31419228D01*
X138420188Y-31379826D01*
X138353318Y-31336998D01*
X138287947Y-31290744D01*
X138224074Y-31241064D01*
X138161698Y-31187957D01*
X138102471Y-31132027D01*
X138047065Y-31074754D01*
X137995480Y-31016139D01*
X137947716Y-30956180D01*
X137903773Y-30894878D01*
X137863652Y-30832233D01*
X137827351Y-30768245D01*
X137794872Y-30702914D01*
X137766214Y-30636240D01*
X137741377Y-30568222D01*
X137720361Y-30498862D01*
X137703166Y-30428159D01*
X137689792Y-30356112D01*
X137680239Y-30282722D01*
X137677552Y-30247691D01*
X139359019Y-30247691D01*
X139367395Y-30286120D01*
X139376872Y-30323342D01*
X139387448Y-30359359D01*
X139399126Y-30394169D01*
X139411904Y-30427773D01*
X139425782Y-30460172D01*
X139440761Y-30491364D01*
X139456840Y-30521351D01*
X139474019Y-30550131D01*
X139492299Y-30577705D01*
X139511679Y-30604073D01*
X139532160Y-30629236D01*
X139553741Y-30653192D01*
X139576423Y-30675942D01*
X139600205Y-30697486D01*
X139625087Y-30717824D01*
X139651544Y-30736942D01*
X139679071Y-30754827D01*
X139707668Y-30771479D01*
X139737336Y-30786897D01*
X139768073Y-30801081D01*
X139799879Y-30814032D01*
X139832756Y-30825750D01*
X139866703Y-30836234D01*
X139901720Y-30845485D01*
X139937807Y-30853503D01*
X139974963Y-30860287D01*
X140013190Y-30865837D01*
X140052486Y-30870154D01*
X140092853Y-30873238D01*
X140134289Y-30875088D01*
X140176795Y-30875705D01*
X140219912Y-30874841D01*
X140262204Y-30872251D01*
X140303670Y-30867934D01*
X140344312Y-30861890D01*
X140384127Y-30854119D01*
X140423118Y-30844622D01*
X140461283Y-30833397D01*
X140498623Y-30820446D01*
X140535138Y-30805768D01*
X140570827Y-30789363D01*
X140605691Y-30771231D01*
X140639729Y-30751373D01*
X140672943Y-30729788D01*
X140705331Y-30706476D01*
X140736893Y-30681437D01*
X140767631Y-30654672D01*
X140797481Y-30626727D01*
X140825406Y-30598152D01*
X140851404Y-30568947D01*
X140875478Y-30539111D01*
X140897625Y-30508645D01*
X140917846Y-30477549D01*
X140936142Y-30445822D01*
X140952512Y-30413465D01*
X140966956Y-30380477D01*
X140979474Y-30346859D01*
X140990067Y-30312611D01*
X140998733Y-30277732D01*
X141005474Y-30242223D01*
X141010288Y-30206083D01*
X141013177Y-30169313D01*
X141014140Y-30131913D01*
X141014140Y-27588277D01*
X139359019Y-30247691D01*
X137677552Y-30247691D01*
X137674508Y-30207989D01*
X137672597Y-30131913D01*
G37*
D11*
X71120000Y-40640000D02*
X73660000Y-40640000D01*
X110490000Y-160782000D02*
X115570000Y-160782000D01*
X52197000Y-107254000D02*
X101727000Y-107254000D01*
X123190000Y-160782000D02*
X153670000Y-160782000D01*
D10*
X96512190Y-157297380D02*
X96512190Y-156297380D01*
X96893142Y-156297380D01*
X96988380Y-156345000D01*
X97036000Y-156392619D01*
X97083619Y-156487857D01*
X97083619Y-156630714D01*
X97036000Y-156725952D01*
X96988380Y-156773571D01*
X96893142Y-156821190D01*
X96512190Y-156821190D01*
X97512190Y-157297380D02*
X97512190Y-156630714D01*
X97512190Y-156821190D02*
X97559809Y-156725952D01*
X97607428Y-156678333D01*
X97702666Y-156630714D01*
X97797904Y-156630714D01*
X98559809Y-156630714D02*
X98559809Y-157440238D01*
X98512190Y-157535476D01*
X98464571Y-157583095D01*
X98369333Y-157630714D01*
X98226476Y-157630714D01*
X98131238Y-157583095D01*
X98559809Y-157249761D02*
X98464571Y-157297380D01*
X98274095Y-157297380D01*
X98178857Y-157249761D01*
X98131238Y-157202142D01*
X98083619Y-157106904D01*
X98083619Y-156821190D01*
X98131238Y-156725952D01*
X98178857Y-156678333D01*
X98274095Y-156630714D01*
X98464571Y-156630714D01*
X98559809Y-156678333D01*
X116856190Y-166822380D02*
X116856190Y-165822380D01*
X117094285Y-165822380D01*
X117237142Y-165870000D01*
X117332380Y-165965238D01*
X117380000Y-166060476D01*
X117427619Y-166250952D01*
X117427619Y-166393809D01*
X117380000Y-166584285D01*
X117332380Y-166679523D01*
X117237142Y-166774761D01*
X117094285Y-166822380D01*
X116856190Y-166822380D01*
X118237142Y-166774761D02*
X118141904Y-166822380D01*
X117951428Y-166822380D01*
X117856190Y-166774761D01*
X117808571Y-166679523D01*
X117808571Y-166298571D01*
X117856190Y-166203333D01*
X117951428Y-166155714D01*
X118141904Y-166155714D01*
X118237142Y-166203333D01*
X118284761Y-166298571D01*
X118284761Y-166393809D01*
X117808571Y-166489047D01*
X118713333Y-166155714D02*
X118713333Y-167155714D01*
X118713333Y-166203333D02*
X118808571Y-166155714D01*
X118999047Y-166155714D01*
X119094285Y-166203333D01*
X119141904Y-166250952D01*
X119189523Y-166346190D01*
X119189523Y-166631904D01*
X119141904Y-166727142D01*
X119094285Y-166774761D01*
X118999047Y-166822380D01*
X118808571Y-166822380D01*
X118713333Y-166774761D01*
X119760952Y-166822380D02*
X119665714Y-166774761D01*
X119618095Y-166727142D01*
X119570476Y-166631904D01*
X119570476Y-166346190D01*
X119618095Y-166250952D01*
X119665714Y-166203333D01*
X119760952Y-166155714D01*
X119903809Y-166155714D01*
X119999047Y-166203333D01*
X120046666Y-166250952D01*
X120094285Y-166346190D01*
X120094285Y-166631904D01*
X120046666Y-166727142D01*
X119999047Y-166774761D01*
X119903809Y-166822380D01*
X119760952Y-166822380D01*
X120475238Y-166774761D02*
X120570476Y-166822380D01*
X120760952Y-166822380D01*
X120856190Y-166774761D01*
X120903809Y-166679523D01*
X120903809Y-166631904D01*
X120856190Y-166536666D01*
X120760952Y-166489047D01*
X120618095Y-166489047D01*
X120522857Y-166441428D01*
X120475238Y-166346190D01*
X120475238Y-166298571D01*
X120522857Y-166203333D01*
X120618095Y-166155714D01*
X120760952Y-166155714D01*
X120856190Y-166203333D01*
X121332380Y-166822380D02*
X121332380Y-166155714D01*
X121332380Y-165822380D02*
X121284761Y-165870000D01*
X121332380Y-165917619D01*
X121380000Y-165870000D01*
X121332380Y-165822380D01*
X121332380Y-165917619D01*
X121665714Y-166155714D02*
X122046666Y-166155714D01*
X121808571Y-165822380D02*
X121808571Y-166679523D01*
X121856190Y-166774761D01*
X121951428Y-166822380D01*
X122046666Y-166822380D01*
X75217976Y-148994761D02*
X75360833Y-149042380D01*
X75598928Y-149042380D01*
X75694166Y-148994761D01*
X75741785Y-148947142D01*
X75789404Y-148851904D01*
X75789404Y-148756666D01*
X75741785Y-148661428D01*
X75694166Y-148613809D01*
X75598928Y-148566190D01*
X75408452Y-148518571D01*
X75313214Y-148470952D01*
X75265595Y-148423333D01*
X75217976Y-148328095D01*
X75217976Y-148232857D01*
X75265595Y-148137619D01*
X75313214Y-148090000D01*
X75408452Y-148042380D01*
X75646547Y-148042380D01*
X75789404Y-148090000D01*
X76360833Y-149042380D02*
X76265595Y-148994761D01*
X76217976Y-148899523D01*
X76217976Y-148042380D01*
X76884642Y-149042380D02*
X76789404Y-148994761D01*
X76741785Y-148947142D01*
X76694166Y-148851904D01*
X76694166Y-148566190D01*
X76741785Y-148470952D01*
X76789404Y-148423333D01*
X76884642Y-148375714D01*
X77027500Y-148375714D01*
X77122738Y-148423333D01*
X77170357Y-148470952D01*
X77217976Y-148566190D01*
X77217976Y-148851904D01*
X77170357Y-148947142D01*
X77122738Y-148994761D01*
X77027500Y-149042380D01*
X76884642Y-149042380D01*
X77551309Y-148375714D02*
X77741785Y-149042380D01*
X77932261Y-148566190D01*
X78122738Y-149042380D01*
X78313214Y-148375714D01*
X96940761Y-142057380D02*
X96607428Y-141581190D01*
X96369333Y-142057380D02*
X96369333Y-141057380D01*
X96750285Y-141057380D01*
X96845523Y-141105000D01*
X96893142Y-141152619D01*
X96940761Y-141247857D01*
X96940761Y-141390714D01*
X96893142Y-141485952D01*
X96845523Y-141533571D01*
X96750285Y-141581190D01*
X96369333Y-141581190D01*
X97797904Y-141390714D02*
X97797904Y-142057380D01*
X97369333Y-141390714D02*
X97369333Y-141914523D01*
X97416952Y-142009761D01*
X97512190Y-142057380D01*
X97655047Y-142057380D01*
X97750285Y-142009761D01*
X97797904Y-141962142D01*
X98274095Y-141390714D02*
X98274095Y-142057380D01*
X98274095Y-141485952D02*
X98321714Y-141438333D01*
X98416952Y-141390714D01*
X98559809Y-141390714D01*
X98655047Y-141438333D01*
X98702666Y-141533571D01*
X98702666Y-142057380D01*
X138009523Y-40092380D02*
X138247619Y-41092380D01*
X138438095Y-40378095D01*
X138628571Y-41092380D01*
X138866666Y-40092380D01*
X139247619Y-41092380D02*
X139247619Y-40425714D01*
X139247619Y-40616190D02*
X139295238Y-40520952D01*
X139342857Y-40473333D01*
X139438095Y-40425714D01*
X139533333Y-40425714D01*
X139866666Y-41092380D02*
X139866666Y-40425714D01*
X139866666Y-40092380D02*
X139819047Y-40140000D01*
X139866666Y-40187619D01*
X139914285Y-40140000D01*
X139866666Y-40092380D01*
X139866666Y-40187619D01*
X140200000Y-40425714D02*
X140580952Y-40425714D01*
X140342857Y-40092380D02*
X140342857Y-40949523D01*
X140390476Y-41044761D01*
X140485714Y-41092380D01*
X140580952Y-41092380D01*
X141295238Y-41044761D02*
X141200000Y-41092380D01*
X141009523Y-41092380D01*
X140914285Y-41044761D01*
X140866666Y-40949523D01*
X140866666Y-40568571D01*
X140914285Y-40473333D01*
X141009523Y-40425714D01*
X141200000Y-40425714D01*
X141295238Y-40473333D01*
X141342857Y-40568571D01*
X141342857Y-40663809D01*
X140866666Y-40759047D01*
X74771428Y-40092380D02*
X74771428Y-40901904D01*
X74819047Y-40997142D01*
X74866666Y-41044761D01*
X74961904Y-41092380D01*
X75152380Y-41092380D01*
X75247619Y-41044761D01*
X75295238Y-40997142D01*
X75342857Y-40901904D01*
X75342857Y-40092380D01*
X75771428Y-41044761D02*
X75866666Y-41092380D01*
X76057142Y-41092380D01*
X76152380Y-41044761D01*
X76200000Y-40949523D01*
X76200000Y-40901904D01*
X76152380Y-40806666D01*
X76057142Y-40759047D01*
X75914285Y-40759047D01*
X75819047Y-40711428D01*
X75771428Y-40616190D01*
X75771428Y-40568571D01*
X75819047Y-40473333D01*
X75914285Y-40425714D01*
X76057142Y-40425714D01*
X76152380Y-40473333D01*
X77009523Y-41044761D02*
X76914285Y-41092380D01*
X76723809Y-41092380D01*
X76628571Y-41044761D01*
X76580952Y-40949523D01*
X76580952Y-40568571D01*
X76628571Y-40473333D01*
X76723809Y-40425714D01*
X76914285Y-40425714D01*
X77009523Y-40473333D01*
X77057142Y-40568571D01*
X77057142Y-40663809D01*
X76580952Y-40759047D01*
X77485714Y-41092380D02*
X77485714Y-40425714D01*
X77485714Y-40616190D02*
X77533333Y-40520952D01*
X77580952Y-40473333D01*
X77676190Y-40425714D01*
X77771428Y-40425714D01*
X46442380Y-39822380D02*
X46109047Y-39346190D01*
X45870952Y-39822380D02*
X45870952Y-38822380D01*
X46251904Y-38822380D01*
X46347142Y-38870000D01*
X46394761Y-38917619D01*
X46442380Y-39012857D01*
X46442380Y-39155714D01*
X46394761Y-39250952D01*
X46347142Y-39298571D01*
X46251904Y-39346190D01*
X45870952Y-39346190D01*
X46728095Y-38822380D02*
X47299523Y-38822380D01*
X47013809Y-39822380D02*
X47013809Y-38822380D01*
X47585238Y-39774761D02*
X47728095Y-39822380D01*
X47966190Y-39822380D01*
X48061428Y-39774761D01*
X48109047Y-39727142D01*
X48156666Y-39631904D01*
X48156666Y-39536666D01*
X48109047Y-39441428D01*
X48061428Y-39393809D01*
X47966190Y-39346190D01*
X47775714Y-39298571D01*
X47680476Y-39250952D01*
X47632857Y-39203333D01*
X47585238Y-39108095D01*
X47585238Y-39012857D01*
X47632857Y-38917619D01*
X47680476Y-38870000D01*
X47775714Y-38822380D01*
X48013809Y-38822380D01*
X48156666Y-38870000D01*
X63317619Y-141374761D02*
X63460476Y-141422380D01*
X63698571Y-141422380D01*
X63793809Y-141374761D01*
X63841428Y-141327142D01*
X63889047Y-141231904D01*
X63889047Y-141136666D01*
X63841428Y-141041428D01*
X63793809Y-140993809D01*
X63698571Y-140946190D01*
X63508095Y-140898571D01*
X63412857Y-140850952D01*
X63365238Y-140803333D01*
X63317619Y-140708095D01*
X63317619Y-140612857D01*
X63365238Y-140517619D01*
X63412857Y-140470000D01*
X63508095Y-140422380D01*
X63746190Y-140422380D01*
X63889047Y-140470000D01*
X64174761Y-140755714D02*
X64555714Y-140755714D01*
X64317619Y-140422380D02*
X64317619Y-141279523D01*
X64365238Y-141374761D01*
X64460476Y-141422380D01*
X64555714Y-141422380D01*
X65270000Y-141374761D02*
X65174761Y-141422380D01*
X64984285Y-141422380D01*
X64889047Y-141374761D01*
X64841428Y-141279523D01*
X64841428Y-140898571D01*
X64889047Y-140803333D01*
X64984285Y-140755714D01*
X65174761Y-140755714D01*
X65270000Y-140803333D01*
X65317619Y-140898571D01*
X65317619Y-140993809D01*
X64841428Y-141089047D01*
X65746190Y-140755714D02*
X65746190Y-141755714D01*
X65746190Y-140803333D02*
X65841428Y-140755714D01*
X66031904Y-140755714D01*
X66127142Y-140803333D01*
X66174761Y-140850952D01*
X66222380Y-140946190D01*
X66222380Y-141231904D01*
X66174761Y-141327142D01*
X66127142Y-141374761D01*
X66031904Y-141422380D01*
X65841428Y-141422380D01*
X65746190Y-141374761D01*
X136977619Y-180792380D02*
X136977619Y-179792380D01*
X137215714Y-179792380D01*
X137358571Y-179840000D01*
X137453809Y-179935238D01*
X137501428Y-180030476D01*
X137549047Y-180220952D01*
X137549047Y-180363809D01*
X137501428Y-180554285D01*
X137453809Y-180649523D01*
X137358571Y-180744761D01*
X137215714Y-180792380D01*
X136977619Y-180792380D01*
X138406190Y-180792380D02*
X138406190Y-180268571D01*
X138358571Y-180173333D01*
X138263333Y-180125714D01*
X138072857Y-180125714D01*
X137977619Y-180173333D01*
X138406190Y-180744761D02*
X138310952Y-180792380D01*
X138072857Y-180792380D01*
X137977619Y-180744761D01*
X137930000Y-180649523D01*
X137930000Y-180554285D01*
X137977619Y-180459047D01*
X138072857Y-180411428D01*
X138310952Y-180411428D01*
X138406190Y-180363809D01*
X138739523Y-180125714D02*
X139120476Y-180125714D01*
X138882380Y-179792380D02*
X138882380Y-180649523D01*
X138930000Y-180744761D01*
X139025238Y-180792380D01*
X139120476Y-180792380D01*
X139882380Y-180792380D02*
X139882380Y-180268571D01*
X139834761Y-180173333D01*
X139739523Y-180125714D01*
X139549047Y-180125714D01*
X139453809Y-180173333D01*
X139882380Y-180744761D02*
X139787142Y-180792380D01*
X139549047Y-180792380D01*
X139453809Y-180744761D01*
X139406190Y-180649523D01*
X139406190Y-180554285D01*
X139453809Y-180459047D01*
X139549047Y-180411428D01*
X139787142Y-180411428D01*
X139882380Y-180363809D01*
X109251904Y-24582380D02*
X108918571Y-24106190D01*
X108680476Y-24582380D02*
X108680476Y-23582380D01*
X109061428Y-23582380D01*
X109156666Y-23630000D01*
X109204285Y-23677619D01*
X109251904Y-23772857D01*
X109251904Y-23915714D01*
X109204285Y-24010952D01*
X109156666Y-24058571D01*
X109061428Y-24106190D01*
X108680476Y-24106190D01*
X110061428Y-24534761D02*
X109966190Y-24582380D01*
X109775714Y-24582380D01*
X109680476Y-24534761D01*
X109632857Y-24439523D01*
X109632857Y-24058571D01*
X109680476Y-23963333D01*
X109775714Y-23915714D01*
X109966190Y-23915714D01*
X110061428Y-23963333D01*
X110109047Y-24058571D01*
X110109047Y-24153809D01*
X109632857Y-24249047D01*
X110490000Y-24534761D02*
X110585238Y-24582380D01*
X110775714Y-24582380D01*
X110870952Y-24534761D01*
X110918571Y-24439523D01*
X110918571Y-24391904D01*
X110870952Y-24296666D01*
X110775714Y-24249047D01*
X110632857Y-24249047D01*
X110537619Y-24201428D01*
X110490000Y-24106190D01*
X110490000Y-24058571D01*
X110537619Y-23963333D01*
X110632857Y-23915714D01*
X110775714Y-23915714D01*
X110870952Y-23963333D01*
X111728095Y-24534761D02*
X111632857Y-24582380D01*
X111442380Y-24582380D01*
X111347142Y-24534761D01*
X111299523Y-24439523D01*
X111299523Y-24058571D01*
X111347142Y-23963333D01*
X111442380Y-23915714D01*
X111632857Y-23915714D01*
X111728095Y-23963333D01*
X111775714Y-24058571D01*
X111775714Y-24153809D01*
X111299523Y-24249047D01*
X112061428Y-23915714D02*
X112442380Y-23915714D01*
X112204285Y-23582380D02*
X112204285Y-24439523D01*
X112251904Y-24534761D01*
X112347142Y-24582380D01*
X112442380Y-24582380D01*
X53848095Y-38822380D02*
X54419523Y-38822380D01*
X54133809Y-39822380D02*
X54133809Y-38822380D01*
X54657619Y-38822380D02*
X55324285Y-39822380D01*
X55324285Y-38822380D02*
X54657619Y-39822380D01*
X75265595Y-155392380D02*
X75265595Y-154392380D01*
X75598928Y-155106666D01*
X75932261Y-154392380D01*
X75932261Y-155392380D01*
X76837023Y-155392380D02*
X76837023Y-154868571D01*
X76789404Y-154773333D01*
X76694166Y-154725714D01*
X76503690Y-154725714D01*
X76408452Y-154773333D01*
X76837023Y-155344761D02*
X76741785Y-155392380D01*
X76503690Y-155392380D01*
X76408452Y-155344761D01*
X76360833Y-155249523D01*
X76360833Y-155154285D01*
X76408452Y-155059047D01*
X76503690Y-155011428D01*
X76741785Y-155011428D01*
X76837023Y-154963809D01*
X77313214Y-154725714D02*
X77313214Y-155392380D01*
X77313214Y-154820952D02*
X77360833Y-154773333D01*
X77456071Y-154725714D01*
X77598928Y-154725714D01*
X77694166Y-154773333D01*
X77741785Y-154868571D01*
X77741785Y-155392380D01*
X78646547Y-154725714D02*
X78646547Y-155392380D01*
X78217976Y-154725714D02*
X78217976Y-155249523D01*
X78265595Y-155344761D01*
X78360833Y-155392380D01*
X78503690Y-155392380D01*
X78598928Y-155344761D01*
X78646547Y-155297142D01*
X79551309Y-155392380D02*
X79551309Y-154868571D01*
X79503690Y-154773333D01*
X79408452Y-154725714D01*
X79217976Y-154725714D01*
X79122738Y-154773333D01*
X79551309Y-155344761D02*
X79456071Y-155392380D01*
X79217976Y-155392380D01*
X79122738Y-155344761D01*
X79075119Y-155249523D01*
X79075119Y-155154285D01*
X79122738Y-155059047D01*
X79217976Y-155011428D01*
X79456071Y-155011428D01*
X79551309Y-154963809D01*
X80170357Y-155392380D02*
X80075119Y-155344761D01*
X80027500Y-155249523D01*
X80027500Y-154392380D01*
X45696523Y-107420666D02*
X46172714Y-107420666D01*
X45601285Y-107706380D02*
X45934619Y-106706380D01*
X46267952Y-107706380D01*
X47029857Y-107706380D02*
X47029857Y-106706380D01*
X47029857Y-107658761D02*
X46934619Y-107706380D01*
X46744142Y-107706380D01*
X46648904Y-107658761D01*
X46601285Y-107611142D01*
X46553666Y-107515904D01*
X46553666Y-107230190D01*
X46601285Y-107134952D01*
X46648904Y-107087333D01*
X46744142Y-107039714D01*
X46934619Y-107039714D01*
X47029857Y-107087333D01*
X47934619Y-107706380D02*
X47934619Y-106706380D01*
X47934619Y-107658761D02*
X47839380Y-107706380D01*
X47648904Y-107706380D01*
X47553666Y-107658761D01*
X47506047Y-107611142D01*
X47458428Y-107515904D01*
X47458428Y-107230190D01*
X47506047Y-107134952D01*
X47553666Y-107087333D01*
X47648904Y-107039714D01*
X47839380Y-107039714D01*
X47934619Y-107087333D01*
X48410809Y-107706380D02*
X48410809Y-107039714D01*
X48410809Y-107230190D02*
X48458428Y-107134952D01*
X48506047Y-107087333D01*
X48601285Y-107039714D01*
X48696523Y-107039714D01*
X49410809Y-107658761D02*
X49315571Y-107706380D01*
X49125095Y-107706380D01*
X49029857Y-107658761D01*
X48982238Y-107563523D01*
X48982238Y-107182571D01*
X49029857Y-107087333D01*
X49125095Y-107039714D01*
X49315571Y-107039714D01*
X49410809Y-107087333D01*
X49458428Y-107182571D01*
X49458428Y-107277809D01*
X48982238Y-107373047D01*
X49839380Y-107658761D02*
X49934619Y-107706380D01*
X50125095Y-107706380D01*
X50220333Y-107658761D01*
X50267952Y-107563523D01*
X50267952Y-107515904D01*
X50220333Y-107420666D01*
X50125095Y-107373047D01*
X49982238Y-107373047D01*
X49887000Y-107325428D01*
X49839380Y-107230190D01*
X49839380Y-107182571D01*
X49887000Y-107087333D01*
X49982238Y-107039714D01*
X50125095Y-107039714D01*
X50220333Y-107087333D01*
X50648904Y-107658761D02*
X50744142Y-107706380D01*
X50934619Y-107706380D01*
X51029857Y-107658761D01*
X51077476Y-107563523D01*
X51077476Y-107515904D01*
X51029857Y-107420666D01*
X50934619Y-107373047D01*
X50791761Y-107373047D01*
X50696523Y-107325428D01*
X50648904Y-107230190D01*
X50648904Y-107182571D01*
X50696523Y-107087333D01*
X50791761Y-107039714D01*
X50934619Y-107039714D01*
X51029857Y-107087333D01*
X75598928Y-142168571D02*
X75265595Y-142168571D01*
X75265595Y-142692380D02*
X75265595Y-141692380D01*
X75741785Y-141692380D01*
X76551309Y-142025714D02*
X76551309Y-142692380D01*
X76122738Y-142025714D02*
X76122738Y-142549523D01*
X76170357Y-142644761D01*
X76265595Y-142692380D01*
X76408452Y-142692380D01*
X76503690Y-142644761D01*
X76551309Y-142597142D01*
X77170357Y-142692380D02*
X77075119Y-142644761D01*
X77027500Y-142549523D01*
X77027500Y-141692380D01*
X77694166Y-142692380D02*
X77598928Y-142644761D01*
X77551309Y-142549523D01*
X77551309Y-141692380D01*
X39497142Y-39822380D02*
X39497142Y-38822380D01*
X39735238Y-38822380D01*
X39878095Y-38870000D01*
X39973333Y-38965238D01*
X40020952Y-39060476D01*
X40068571Y-39250952D01*
X40068571Y-39393809D01*
X40020952Y-39584285D01*
X39973333Y-39679523D01*
X39878095Y-39774761D01*
X39735238Y-39822380D01*
X39497142Y-39822380D01*
X40354285Y-38822380D02*
X40925714Y-38822380D01*
X40640000Y-39822380D02*
X40640000Y-38822380D01*
X41830476Y-39822380D02*
X41497142Y-39346190D01*
X41259047Y-39822380D02*
X41259047Y-38822380D01*
X41640000Y-38822380D01*
X41735238Y-38870000D01*
X41782857Y-38917619D01*
X41830476Y-39012857D01*
X41830476Y-39155714D01*
X41782857Y-39250952D01*
X41735238Y-39298571D01*
X41640000Y-39346190D01*
X41259047Y-39346190D01*
X116689523Y-160948666D02*
X117165714Y-160948666D01*
X116594285Y-161234380D02*
X116927619Y-160234380D01*
X117260952Y-161234380D01*
X118022857Y-161234380D02*
X118022857Y-160234380D01*
X118022857Y-161186761D02*
X117927619Y-161234380D01*
X117737142Y-161234380D01*
X117641904Y-161186761D01*
X117594285Y-161139142D01*
X117546666Y-161043904D01*
X117546666Y-160758190D01*
X117594285Y-160662952D01*
X117641904Y-160615333D01*
X117737142Y-160567714D01*
X117927619Y-160567714D01*
X118022857Y-160615333D01*
X118927619Y-161234380D02*
X118927619Y-160234380D01*
X118927619Y-161186761D02*
X118832380Y-161234380D01*
X118641904Y-161234380D01*
X118546666Y-161186761D01*
X118499047Y-161139142D01*
X118451428Y-161043904D01*
X118451428Y-160758190D01*
X118499047Y-160662952D01*
X118546666Y-160615333D01*
X118641904Y-160567714D01*
X118832380Y-160567714D01*
X118927619Y-160615333D01*
X119403809Y-161234380D02*
X119403809Y-160567714D01*
X119403809Y-160758190D02*
X119451428Y-160662952D01*
X119499047Y-160615333D01*
X119594285Y-160567714D01*
X119689523Y-160567714D01*
X120403809Y-161186761D02*
X120308571Y-161234380D01*
X120118095Y-161234380D01*
X120022857Y-161186761D01*
X119975238Y-161091523D01*
X119975238Y-160710571D01*
X120022857Y-160615333D01*
X120118095Y-160567714D01*
X120308571Y-160567714D01*
X120403809Y-160615333D01*
X120451428Y-160710571D01*
X120451428Y-160805809D01*
X119975238Y-160901047D01*
X120832380Y-161186761D02*
X120927619Y-161234380D01*
X121118095Y-161234380D01*
X121213333Y-161186761D01*
X121260952Y-161091523D01*
X121260952Y-161043904D01*
X121213333Y-160948666D01*
X121118095Y-160901047D01*
X120975238Y-160901047D01*
X120879999Y-160853428D01*
X120832380Y-160758190D01*
X120832380Y-160710571D01*
X120879999Y-160615333D01*
X120975238Y-160567714D01*
X121118095Y-160567714D01*
X121213333Y-160615333D01*
X121641904Y-161186761D02*
X121737142Y-161234380D01*
X121927619Y-161234380D01*
X122022857Y-161186761D01*
X122070476Y-161091523D01*
X122070476Y-161043904D01*
X122022857Y-160948666D01*
X121927619Y-160901047D01*
X121784761Y-160901047D01*
X121689523Y-160853428D01*
X121641904Y-160758190D01*
X121641904Y-160710571D01*
X121689523Y-160615333D01*
X121784761Y-160567714D01*
X121927619Y-160567714D01*
X122022857Y-160615333D01*
X128944761Y-40997142D02*
X128897142Y-41044761D01*
X128754285Y-41092380D01*
X128659047Y-41092380D01*
X128516190Y-41044761D01*
X128420952Y-40949523D01*
X128373333Y-40854285D01*
X128325714Y-40663809D01*
X128325714Y-40520952D01*
X128373333Y-40330476D01*
X128420952Y-40235238D01*
X128516190Y-40140000D01*
X128659047Y-40092380D01*
X128754285Y-40092380D01*
X128897142Y-40140000D01*
X128944761Y-40187619D01*
X129849523Y-41092380D02*
X129373333Y-41092380D01*
X129373333Y-40092380D01*
X130182857Y-41092380D02*
X130182857Y-40092380D01*
X130754285Y-41092380D02*
X130325714Y-40520952D01*
X130754285Y-40092380D02*
X130182857Y-40663809D01*
X44942380Y-138834761D02*
X45085238Y-138882380D01*
X45323333Y-138882380D01*
X45418571Y-138834761D01*
X45466190Y-138787142D01*
X45513809Y-138691904D01*
X45513809Y-138596666D01*
X45466190Y-138501428D01*
X45418571Y-138453809D01*
X45323333Y-138406190D01*
X45132857Y-138358571D01*
X45037619Y-138310952D01*
X44990000Y-138263333D01*
X44942380Y-138168095D01*
X44942380Y-138072857D01*
X44990000Y-137977619D01*
X45037619Y-137930000D01*
X45132857Y-137882380D01*
X45370952Y-137882380D01*
X45513809Y-137930000D01*
X45942380Y-138215714D02*
X45942380Y-139215714D01*
X45942380Y-138263333D02*
X46037619Y-138215714D01*
X46228095Y-138215714D01*
X46323333Y-138263333D01*
X46370952Y-138310952D01*
X46418571Y-138406190D01*
X46418571Y-138691904D01*
X46370952Y-138787142D01*
X46323333Y-138834761D01*
X46228095Y-138882380D01*
X46037619Y-138882380D01*
X45942380Y-138834761D01*
X47228095Y-138834761D02*
X47132857Y-138882380D01*
X46942380Y-138882380D01*
X46847142Y-138834761D01*
X46799523Y-138739523D01*
X46799523Y-138358571D01*
X46847142Y-138263333D01*
X46942380Y-138215714D01*
X47132857Y-138215714D01*
X47228095Y-138263333D01*
X47275714Y-138358571D01*
X47275714Y-138453809D01*
X46799523Y-138549047D01*
X48085238Y-138834761D02*
X47990000Y-138882380D01*
X47799523Y-138882380D01*
X47704285Y-138834761D01*
X47656666Y-138739523D01*
X47656666Y-138358571D01*
X47704285Y-138263333D01*
X47799523Y-138215714D01*
X47990000Y-138215714D01*
X48085238Y-138263333D01*
X48132857Y-138358571D01*
X48132857Y-138453809D01*
X47656666Y-138549047D01*
X48990000Y-138882380D02*
X48990000Y-137882380D01*
X48990000Y-138834761D02*
X48894761Y-138882380D01*
X48704285Y-138882380D01*
X48609047Y-138834761D01*
X48561428Y-138787142D01*
X48513809Y-138691904D01*
X48513809Y-138406190D01*
X48561428Y-138310952D01*
X48609047Y-138263333D01*
X48704285Y-138215714D01*
X48894761Y-138215714D01*
X48990000Y-138263333D01*
X60793333Y-39822380D02*
X60460000Y-39346190D01*
X60221904Y-39822380D02*
X60221904Y-38822380D01*
X60602857Y-38822380D01*
X60698095Y-38870000D01*
X60745714Y-38917619D01*
X60793333Y-39012857D01*
X60793333Y-39155714D01*
X60745714Y-39250952D01*
X60698095Y-39298571D01*
X60602857Y-39346190D01*
X60221904Y-39346190D01*
X61126666Y-38822380D02*
X61793333Y-39822380D01*
X61793333Y-38822380D02*
X61126666Y-39822380D01*
D13*
G04 #@! TO.C,QG1*
X99759407Y-95830571D02*
X99106264Y-95830571D01*
X99432835Y-95830571D02*
X99432835Y-94687571D01*
X99323978Y-94850857D01*
X99215121Y-94959714D01*
X99106264Y-95014142D01*
D14*
G04 #@! TO.C,IC2*
X130810000Y-131191000D02*
X130810000Y-129286000D01*
X130810000Y-125349000D02*
X130810000Y-127254000D01*
X130810000Y-131191000D02*
X156210000Y-131191000D01*
X156210000Y-125349000D02*
X130810000Y-125349000D01*
X156210000Y-125349000D02*
X156210000Y-131191000D01*
X130810000Y-129286000D02*
G75*
G03*
X130810000Y-127254000I0J1016000D01*
G01*
G04 #@! TO.C,IC15*
X69850000Y-50927000D02*
X95250000Y-50927000D01*
X95250000Y-45085000D02*
X69850000Y-45085000D01*
X69850000Y-50927000D02*
X69850000Y-49022000D01*
X69850000Y-45085000D02*
X69850000Y-46990000D01*
X95250000Y-45085000D02*
X95250000Y-50927000D01*
X69850000Y-49022000D02*
G75*
G03*
X69850000Y-46990000I0J1016000D01*
G01*
G04 #@! TO.C,QG1*
X106934000Y-84201000D02*
X96266000Y-84201000D01*
X100660200Y-86360000D02*
X99060000Y-86360000D01*
D15*
X101904800Y-87630000D02*
X101904800Y-85090000D01*
D14*
X102539800Y-86360000D02*
X104140000Y-86360000D01*
D15*
X102539800Y-85090000D02*
X102539800Y-86360000D01*
D14*
X96266000Y-96139000D02*
X106934000Y-96139000D01*
D16*
X106934000Y-83566000D02*
X96266000Y-83566000D01*
X94996000Y-96774000D02*
X106934000Y-96774000D01*
X108204000Y-95504000D02*
X108204000Y-84836000D01*
D14*
X107569000Y-95504000D02*
X107569000Y-84836000D01*
D15*
X101269800Y-87630000D02*
X101904800Y-87630000D01*
X100660200Y-85090000D02*
X100660200Y-86360000D01*
X102539800Y-86360000D02*
X102539800Y-87630000D01*
D16*
X94996000Y-96774000D02*
X94996000Y-84836000D01*
D15*
X101904800Y-85090000D02*
X101269800Y-85090000D01*
D14*
X95631000Y-84836000D02*
X95631000Y-95504000D01*
D15*
X101269800Y-85090000D02*
X101269800Y-87630000D01*
X100660200Y-86360000D02*
X100660200Y-87630000D01*
D14*
X106934000Y-96139000D02*
G75*
G03*
X107569000Y-95504000I0J635000D01*
G01*
X96266000Y-84201000D02*
G75*
G03*
X95631000Y-84836000I-1J-634999D01*
G01*
X95631000Y-95504000D02*
G75*
G03*
X96266000Y-96139000I634999J-1D01*
G01*
D16*
X108204000Y-84836000D02*
G75*
G03*
X106934000Y-83566000I-1270000J0D01*
G01*
D14*
X107569000Y-84836000D02*
G75*
G03*
X106934000Y-84201000I-635000J0D01*
G01*
D16*
X96266000Y-83566000D02*
G75*
G03*
X94996000Y-84836000I-1J-1269999D01*
G01*
X106934000Y-96774000D02*
G75*
G03*
X108204000Y-95504000I0J1270000D01*
G01*
D14*
G04 #@! TO.C,IC8*
X41910000Y-87249000D02*
X41910000Y-89154000D01*
X59690000Y-87249000D02*
X41910000Y-87249000D01*
X59690000Y-87249000D02*
X59690000Y-93091000D01*
X41910000Y-93091000D02*
X59690000Y-93091000D01*
X41910000Y-93091000D02*
X41910000Y-91186000D01*
X41910000Y-91186000D02*
G75*
G03*
X41910000Y-89154000I0J1016000D01*
G01*
G04 #@! TO.C,IC1*
X154940000Y-45339000D02*
X104140000Y-45339000D01*
X154940000Y-45339000D02*
X154940000Y-58801000D01*
X104140000Y-58801000D02*
X154940000Y-58801000D01*
X104140000Y-58801000D02*
X104140000Y-53213000D01*
X104140000Y-45339000D02*
X104140000Y-51181000D01*
X104140000Y-53213000D02*
G75*
G03*
X104140000Y-51181000I0J1016000D01*
G01*
G04 #@! TO.C,IC3*
X59690000Y-69469000D02*
X41910000Y-69469000D01*
X59690000Y-69469000D02*
X59690000Y-75311000D01*
X41910000Y-69469000D02*
X41910000Y-71374000D01*
X41910000Y-75311000D02*
X59690000Y-75311000D01*
X41910000Y-75311000D02*
X41910000Y-73406000D01*
X41910000Y-73406000D02*
G75*
G03*
X41910000Y-71374000I0J1016000D01*
G01*
G04 #@! TO.C,IC14*
X100330000Y-131191000D02*
X100330000Y-129286000D01*
X125730000Y-125349000D02*
X100330000Y-125349000D01*
X125730000Y-125349000D02*
X125730000Y-131191000D01*
X100330000Y-125349000D02*
X100330000Y-127254000D01*
X100330000Y-131191000D02*
X125730000Y-131191000D01*
X100330000Y-129286000D02*
G75*
G03*
X100330000Y-127254000I0J1016000D01*
G01*
G04 #@! TO.C,IC5*
X85090000Y-69469000D02*
X85090000Y-75311000D01*
X67310000Y-75311000D02*
X67310000Y-73406000D01*
X67310000Y-69469000D02*
X67310000Y-71374000D01*
X85090000Y-69469000D02*
X67310000Y-69469000D01*
X67310000Y-75311000D02*
X85090000Y-75311000D01*
X67310000Y-73406000D02*
G75*
G03*
X67310000Y-71374000I0J1016000D01*
G01*
G04 #@! TO.C,IC4*
X107950000Y-69469000D02*
X90170000Y-69469000D01*
X90170000Y-75311000D02*
X107950000Y-75311000D01*
X90170000Y-75311000D02*
X90170000Y-73406000D01*
X90170000Y-69469000D02*
X90170000Y-71374000D01*
X107950000Y-69469000D02*
X107950000Y-75311000D01*
X90170000Y-73406000D02*
G75*
G03*
X90170000Y-71374000I0J1016000D01*
G01*
G04 #@! TO.C,IC9*
X85090000Y-87249000D02*
X67310000Y-87249000D01*
X67310000Y-87249000D02*
X67310000Y-89154000D01*
X67310000Y-93091000D02*
X67310000Y-91186000D01*
X85090000Y-87249000D02*
X85090000Y-93091000D01*
X67310000Y-93091000D02*
X85090000Y-93091000D01*
X67310000Y-91186000D02*
G75*
G03*
X67310000Y-89154000I0J1016000D01*
G01*
D11*
G04 #@! TO.C,U1*
X151190000Y-90280000D02*
X151190000Y-77360000D01*
X115510000Y-90280000D02*
X151190000Y-90280000D01*
X115510000Y-84820000D02*
X115510000Y-90280000D01*
X115510000Y-77360000D02*
X115510000Y-82820000D01*
X151190000Y-77360000D02*
X115510000Y-77360000D01*
X115510000Y-84820000D02*
G75*
G03*
X115510000Y-82820000I0J1000000D01*
G01*
D17*
G04 #@! TO.C,LED10*
X76216000Y-115406000D02*
X76216000Y-118406000D01*
X78216000Y-118406000D02*
X78216000Y-114881000D01*
G04 #@! TO.C,LED35*
X53610000Y-32790000D02*
X53610000Y-35790000D01*
X55610000Y-35790000D02*
X55610000Y-32265000D01*
G04 #@! TO.C,LED36*
X61960000Y-35790000D02*
X61960000Y-32265000D01*
X59960000Y-32790000D02*
X59960000Y-35790000D01*
G04 #@! TO.C,LED27*
X81010000Y-37060000D02*
X81010000Y-33535000D01*
X79010000Y-34060000D02*
X79010000Y-37060000D01*
G04 #@! TO.C,LED19*
X124476000Y-115340000D02*
X124476000Y-118340000D01*
X126476000Y-118340000D02*
X126476000Y-114815000D01*
D14*
G04 #@! TO.C,SW3*
X154432000Y-171069000D02*
X154432000Y-167767000D01*
X136398000Y-170815000D02*
X137922000Y-170815000D01*
X145542000Y-174625000D02*
X144018000Y-174625000D01*
X154432000Y-171069000D02*
X153924000Y-171069000D01*
X154432000Y-174371000D02*
X154432000Y-171069000D01*
X149098000Y-170815000D02*
X149098000Y-174625000D01*
X146558000Y-170815000D02*
X146558000Y-174625000D01*
X145542000Y-174625000D02*
X145542000Y-170815000D01*
X154432000Y-167767000D02*
X132588000Y-167767000D01*
X132588000Y-177673000D02*
X154432000Y-177673000D01*
X138938000Y-170815000D02*
X138938000Y-174625000D01*
X150622000Y-174625000D02*
X150622000Y-170815000D01*
X140462000Y-174625000D02*
X140462000Y-170815000D01*
X140462000Y-174625000D02*
X138938000Y-174625000D01*
X146558000Y-170815000D02*
X148082000Y-170815000D01*
X138938000Y-170815000D02*
X140462000Y-170815000D01*
X137922000Y-174625000D02*
X136398000Y-174625000D01*
X132588000Y-174371000D02*
X133096000Y-174371000D01*
X144018000Y-170815000D02*
X145542000Y-170815000D01*
X143002000Y-174625000D02*
X141478000Y-174625000D01*
X133096000Y-174371000D02*
X133096000Y-171069000D01*
X148082000Y-174625000D02*
X146558000Y-174625000D01*
X141478000Y-170815000D02*
X141478000Y-174625000D01*
X150622000Y-174625000D02*
X149098000Y-174625000D01*
X151638000Y-170815000D02*
X153162000Y-170815000D01*
X137922000Y-174625000D02*
X137922000Y-170815000D01*
X141478000Y-170815000D02*
X143002000Y-170815000D01*
X144018000Y-170815000D02*
X144018000Y-174625000D01*
X132588000Y-167767000D02*
X132588000Y-171069000D01*
X154432000Y-177673000D02*
X154432000Y-174371000D01*
X149098000Y-170815000D02*
X150622000Y-170815000D01*
X153924000Y-174371000D02*
X154432000Y-174371000D01*
X133858000Y-170815000D02*
X135382000Y-170815000D01*
X153924000Y-171069000D02*
X153924000Y-174371000D01*
X132588000Y-171069000D02*
X132588000Y-174371000D01*
X135382000Y-174625000D02*
X135382000Y-170815000D01*
X133858000Y-170815000D02*
X133858000Y-174625000D01*
X153162000Y-174625000D02*
X153162000Y-170815000D01*
X153162000Y-174625000D02*
X151638000Y-174625000D01*
X143002000Y-174625000D02*
X143002000Y-170815000D01*
X148082000Y-174625000D02*
X148082000Y-170815000D01*
X133096000Y-171069000D02*
X132588000Y-171069000D01*
X151638000Y-170815000D02*
X151638000Y-174625000D01*
X135382000Y-174625000D02*
X133858000Y-174625000D01*
X132588000Y-174371000D02*
X132588000Y-177673000D01*
X136398000Y-170815000D02*
X136398000Y-174625000D01*
G36*
X147828000Y-173736000D02*
G01*
X146812000Y-173736000D01*
X146812000Y-173355000D01*
X147828000Y-173355000D01*
X147828000Y-173736000D01*
G37*
G36*
X135128000Y-173736000D02*
G01*
X134112000Y-173736000D01*
X134112000Y-173355000D01*
X135128000Y-173355000D01*
X135128000Y-173736000D01*
G37*
G36*
X152908000Y-174371000D02*
G01*
X151892000Y-174371000D01*
X151892000Y-173990000D01*
X152908000Y-173990000D01*
X152908000Y-174371000D01*
G37*
G36*
X147828000Y-174371000D02*
G01*
X146812000Y-174371000D01*
X146812000Y-173990000D01*
X147828000Y-173990000D01*
X147828000Y-174371000D01*
G37*
G36*
X152908000Y-173736000D02*
G01*
X151892000Y-173736000D01*
X151892000Y-173355000D01*
X152908000Y-173355000D01*
X152908000Y-173736000D01*
G37*
G36*
X142748000Y-174371000D02*
G01*
X141732000Y-174371000D01*
X141732000Y-173990000D01*
X142748000Y-173990000D01*
X142748000Y-174371000D01*
G37*
G36*
X142748000Y-173101000D02*
G01*
X141732000Y-173101000D01*
X141732000Y-172720000D01*
X142748000Y-172720000D01*
X142748000Y-173101000D01*
G37*
G36*
X150368000Y-173101000D02*
G01*
X149352000Y-173101000D01*
X149352000Y-172720000D01*
X150368000Y-172720000D01*
X150368000Y-173101000D01*
G37*
G36*
X137668000Y-174371000D02*
G01*
X136652000Y-174371000D01*
X136652000Y-173990000D01*
X137668000Y-173990000D01*
X137668000Y-174371000D01*
G37*
G36*
X145288000Y-174371000D02*
G01*
X144272000Y-174371000D01*
X144272000Y-173990000D01*
X145288000Y-173990000D01*
X145288000Y-174371000D01*
G37*
G36*
X140208000Y-173736000D02*
G01*
X139192000Y-173736000D01*
X139192000Y-173355000D01*
X140208000Y-173355000D01*
X140208000Y-173736000D01*
G37*
G36*
X145288000Y-173101000D02*
G01*
X144272000Y-173101000D01*
X144272000Y-172720000D01*
X145288000Y-172720000D01*
X145288000Y-173101000D01*
G37*
G36*
X142748000Y-173736000D02*
G01*
X141732000Y-173736000D01*
X141732000Y-173355000D01*
X142748000Y-173355000D01*
X142748000Y-173736000D01*
G37*
G36*
X135128000Y-174371000D02*
G01*
X134112000Y-174371000D01*
X134112000Y-173990000D01*
X135128000Y-173990000D01*
X135128000Y-174371000D01*
G37*
G36*
X137668000Y-173101000D02*
G01*
X136652000Y-173101000D01*
X136652000Y-172720000D01*
X137668000Y-172720000D01*
X137668000Y-173101000D01*
G37*
G36*
X152908000Y-173101000D02*
G01*
X151892000Y-173101000D01*
X151892000Y-172720000D01*
X152908000Y-172720000D01*
X152908000Y-173101000D01*
G37*
G36*
X150368000Y-173736000D02*
G01*
X149352000Y-173736000D01*
X149352000Y-173355000D01*
X150368000Y-173355000D01*
X150368000Y-173736000D01*
G37*
G36*
X145288000Y-173736000D02*
G01*
X144272000Y-173736000D01*
X144272000Y-173355000D01*
X145288000Y-173355000D01*
X145288000Y-173736000D01*
G37*
G36*
X140208000Y-173101000D02*
G01*
X139192000Y-173101000D01*
X139192000Y-172720000D01*
X140208000Y-172720000D01*
X140208000Y-173101000D01*
G37*
G36*
X147828000Y-173101000D02*
G01*
X146812000Y-173101000D01*
X146812000Y-172720000D01*
X147828000Y-172720000D01*
X147828000Y-173101000D01*
G37*
G36*
X137668000Y-173736000D02*
G01*
X136652000Y-173736000D01*
X136652000Y-173355000D01*
X137668000Y-173355000D01*
X137668000Y-173736000D01*
G37*
G36*
X140208000Y-174371000D02*
G01*
X139192000Y-174371000D01*
X139192000Y-173990000D01*
X140208000Y-173990000D01*
X140208000Y-174371000D01*
G37*
G36*
X135128000Y-173101000D02*
G01*
X134112000Y-173101000D01*
X134112000Y-172720000D01*
X135128000Y-172720000D01*
X135128000Y-173101000D01*
G37*
G36*
X150368000Y-174371000D02*
G01*
X149352000Y-174371000D01*
X149352000Y-173990000D01*
X150368000Y-173990000D01*
X150368000Y-174371000D01*
G37*
D18*
G04 #@! TO.C,S1*
X115880000Y-168945000D02*
X115880000Y-175945000D01*
X122880000Y-168945000D02*
X122880000Y-175945000D01*
D17*
G04 #@! TO.C,LED3*
X49546000Y-115376000D02*
X49546000Y-118376000D01*
X51546000Y-118376000D02*
X51546000Y-114851000D01*
D14*
G04 #@! TO.C,IC10*
X90170000Y-170561000D02*
X100330000Y-170561000D01*
X90170000Y-170561000D02*
X90170000Y-168656000D01*
X90170000Y-164719000D02*
X90170000Y-166624000D01*
X100330000Y-164719000D02*
X90170000Y-164719000D01*
X100330000Y-164719000D02*
X100330000Y-170561000D01*
X90170000Y-168656000D02*
G75*
G03*
X90170000Y-166624000I0J1016000D01*
G01*
G04 #@! TO.C,IC6*
X78740000Y-164719000D02*
X68580000Y-164719000D01*
X78740000Y-164719000D02*
X78740000Y-170561000D01*
X68580000Y-170561000D02*
X68580000Y-168656000D01*
X68580000Y-164719000D02*
X68580000Y-166624000D01*
X68580000Y-170561000D02*
X78740000Y-170561000D01*
X68580000Y-168656000D02*
G75*
G03*
X68580000Y-166624000I0J1016000D01*
G01*
D17*
G04 #@! TO.C,LED12*
X85836000Y-118406000D02*
X85836000Y-114881000D01*
X83836000Y-115406000D02*
X83836000Y-118406000D01*
G04 #@! TO.C,LED31*
X96250000Y-37060000D02*
X96250000Y-33535000D01*
X94250000Y-34060000D02*
X94250000Y-37060000D01*
G04 #@! TO.C,LED18*
X120666000Y-115340000D02*
X120666000Y-118340000D01*
X122666000Y-118340000D02*
X122666000Y-114815000D01*
D14*
G04 #@! TO.C,IC7*
X45720000Y-164719000D02*
X45720000Y-166624000D01*
X45720000Y-170561000D02*
X55880000Y-170561000D01*
X45720000Y-170561000D02*
X45720000Y-168656000D01*
X55880000Y-164719000D02*
X55880000Y-170561000D01*
X55880000Y-164719000D02*
X45720000Y-164719000D01*
X45720000Y-168656000D02*
G75*
G03*
X45720000Y-166624000I0J1016000D01*
G01*
G04 #@! TO.C,SW2*
X132588000Y-155575000D02*
X133096000Y-155575000D01*
X143002000Y-155829000D02*
X143002000Y-152019000D01*
X153162000Y-155829000D02*
X151638000Y-155829000D01*
X146558000Y-152019000D02*
X148082000Y-152019000D01*
X145542000Y-155829000D02*
X145542000Y-152019000D01*
X154432000Y-152273000D02*
X154432000Y-148971000D01*
X153924000Y-152273000D02*
X153924000Y-155575000D01*
X153924000Y-155575000D02*
X154432000Y-155575000D01*
X145542000Y-155829000D02*
X144018000Y-155829000D01*
X136398000Y-152019000D02*
X137922000Y-152019000D01*
X154432000Y-158877000D02*
X154432000Y-155575000D01*
X132588000Y-152273000D02*
X132588000Y-155575000D01*
X148082000Y-155829000D02*
X148082000Y-152019000D01*
X144018000Y-152019000D02*
X145542000Y-152019000D01*
X132588000Y-148971000D02*
X132588000Y-152273000D01*
X153162000Y-155829000D02*
X153162000Y-152019000D01*
X133858000Y-152019000D02*
X133858000Y-155829000D01*
X149098000Y-152019000D02*
X149098000Y-155829000D01*
X133096000Y-152273000D02*
X132588000Y-152273000D01*
X132588000Y-155575000D02*
X132588000Y-158877000D01*
X149098000Y-152019000D02*
X150622000Y-152019000D01*
X137922000Y-155829000D02*
X137922000Y-152019000D01*
X148082000Y-155829000D02*
X146558000Y-155829000D01*
X140462000Y-155829000D02*
X140462000Y-152019000D01*
X141478000Y-152019000D02*
X141478000Y-155829000D01*
X154432000Y-155575000D02*
X154432000Y-152273000D01*
X150622000Y-155829000D02*
X149098000Y-155829000D01*
X144018000Y-152019000D02*
X144018000Y-155829000D01*
X146558000Y-152019000D02*
X146558000Y-155829000D01*
X141478000Y-152019000D02*
X143002000Y-152019000D01*
X137922000Y-155829000D02*
X136398000Y-155829000D01*
X150622000Y-155829000D02*
X150622000Y-152019000D01*
X138938000Y-152019000D02*
X140462000Y-152019000D01*
X140462000Y-155829000D02*
X138938000Y-155829000D01*
X133858000Y-152019000D02*
X135382000Y-152019000D01*
X143002000Y-155829000D02*
X141478000Y-155829000D01*
X138938000Y-152019000D02*
X138938000Y-155829000D01*
X135382000Y-155829000D02*
X133858000Y-155829000D01*
X135382000Y-155829000D02*
X135382000Y-152019000D01*
X136398000Y-152019000D02*
X136398000Y-155829000D01*
X151638000Y-152019000D02*
X151638000Y-155829000D01*
X154432000Y-148971000D02*
X132588000Y-148971000D01*
X133096000Y-155575000D02*
X133096000Y-152273000D01*
X132588000Y-158877000D02*
X154432000Y-158877000D01*
X151638000Y-152019000D02*
X153162000Y-152019000D01*
X154432000Y-152273000D02*
X153924000Y-152273000D01*
G36*
X147828000Y-154305000D02*
G01*
X146812000Y-154305000D01*
X146812000Y-153924000D01*
X147828000Y-153924000D01*
X147828000Y-154305000D01*
G37*
G36*
X147828000Y-154940000D02*
G01*
X146812000Y-154940000D01*
X146812000Y-154559000D01*
X147828000Y-154559000D01*
X147828000Y-154940000D01*
G37*
G36*
X140208000Y-154305000D02*
G01*
X139192000Y-154305000D01*
X139192000Y-153924000D01*
X140208000Y-153924000D01*
X140208000Y-154305000D01*
G37*
G36*
X150368000Y-154305000D02*
G01*
X149352000Y-154305000D01*
X149352000Y-153924000D01*
X150368000Y-153924000D01*
X150368000Y-154305000D01*
G37*
G36*
X142748000Y-155575000D02*
G01*
X141732000Y-155575000D01*
X141732000Y-155194000D01*
X142748000Y-155194000D01*
X142748000Y-155575000D01*
G37*
G36*
X142748000Y-154305000D02*
G01*
X141732000Y-154305000D01*
X141732000Y-153924000D01*
X142748000Y-153924000D01*
X142748000Y-154305000D01*
G37*
G36*
X135128000Y-155575000D02*
G01*
X134112000Y-155575000D01*
X134112000Y-155194000D01*
X135128000Y-155194000D01*
X135128000Y-155575000D01*
G37*
G36*
X137668000Y-154305000D02*
G01*
X136652000Y-154305000D01*
X136652000Y-153924000D01*
X137668000Y-153924000D01*
X137668000Y-154305000D01*
G37*
G36*
X152908000Y-154940000D02*
G01*
X151892000Y-154940000D01*
X151892000Y-154559000D01*
X152908000Y-154559000D01*
X152908000Y-154940000D01*
G37*
G36*
X145288000Y-155575000D02*
G01*
X144272000Y-155575000D01*
X144272000Y-155194000D01*
X145288000Y-155194000D01*
X145288000Y-155575000D01*
G37*
G36*
X140208000Y-155575000D02*
G01*
X139192000Y-155575000D01*
X139192000Y-155194000D01*
X140208000Y-155194000D01*
X140208000Y-155575000D01*
G37*
G36*
X135128000Y-154305000D02*
G01*
X134112000Y-154305000D01*
X134112000Y-153924000D01*
X135128000Y-153924000D01*
X135128000Y-154305000D01*
G37*
G36*
X150368000Y-154940000D02*
G01*
X149352000Y-154940000D01*
X149352000Y-154559000D01*
X150368000Y-154559000D01*
X150368000Y-154940000D01*
G37*
G36*
X142748000Y-154940000D02*
G01*
X141732000Y-154940000D01*
X141732000Y-154559000D01*
X142748000Y-154559000D01*
X142748000Y-154940000D01*
G37*
G36*
X145288000Y-154940000D02*
G01*
X144272000Y-154940000D01*
X144272000Y-154559000D01*
X145288000Y-154559000D01*
X145288000Y-154940000D01*
G37*
G36*
X140208000Y-154940000D02*
G01*
X139192000Y-154940000D01*
X139192000Y-154559000D01*
X140208000Y-154559000D01*
X140208000Y-154940000D01*
G37*
G36*
X137668000Y-155575000D02*
G01*
X136652000Y-155575000D01*
X136652000Y-155194000D01*
X137668000Y-155194000D01*
X137668000Y-155575000D01*
G37*
G36*
X150368000Y-155575000D02*
G01*
X149352000Y-155575000D01*
X149352000Y-155194000D01*
X150368000Y-155194000D01*
X150368000Y-155575000D01*
G37*
G36*
X152908000Y-155575000D02*
G01*
X151892000Y-155575000D01*
X151892000Y-155194000D01*
X152908000Y-155194000D01*
X152908000Y-155575000D01*
G37*
G36*
X135128000Y-154940000D02*
G01*
X134112000Y-154940000D01*
X134112000Y-154559000D01*
X135128000Y-154559000D01*
X135128000Y-154940000D01*
G37*
G36*
X147828000Y-155575000D02*
G01*
X146812000Y-155575000D01*
X146812000Y-155194000D01*
X147828000Y-155194000D01*
X147828000Y-155575000D01*
G37*
G36*
X137668000Y-154940000D02*
G01*
X136652000Y-154940000D01*
X136652000Y-154559000D01*
X137668000Y-154559000D01*
X137668000Y-154940000D01*
G37*
G36*
X145288000Y-154305000D02*
G01*
X144272000Y-154305000D01*
X144272000Y-153924000D01*
X145288000Y-153924000D01*
X145288000Y-154305000D01*
G37*
G36*
X152908000Y-154305000D02*
G01*
X151892000Y-154305000D01*
X151892000Y-153924000D01*
X152908000Y-153924000D01*
X152908000Y-154305000D01*
G37*
D17*
G04 #@! TO.C,LED11*
X80026000Y-115406000D02*
X80026000Y-118406000D01*
X82026000Y-118406000D02*
X82026000Y-114881000D01*
G04 #@! TO.C,LED22*
X135906000Y-115340000D02*
X135906000Y-118340000D01*
X137906000Y-118340000D02*
X137906000Y-114815000D01*
D18*
G04 #@! TO.C,S4*
X88510000Y-144576000D02*
X88510000Y-157176000D01*
X84210000Y-144576000D02*
X84210000Y-157176000D01*
X88960000Y-146876000D02*
X88960000Y-146876000D01*
X88860000Y-146876000D02*
X88860000Y-146876000D01*
X88860000Y-146876000D02*
G75*
G03*
X88960000Y-146876000I50000J0D01*
G01*
X88960000Y-146876000D02*
G75*
G03*
X88860000Y-146876000I-50000J0D01*
G01*
G04 #@! TO.C,S3*
X114720000Y-27020000D02*
X114720000Y-34020000D01*
X107720000Y-27020000D02*
X107720000Y-34020000D01*
D17*
G04 #@! TO.C,LED24*
X145526000Y-118310000D02*
X145526000Y-114785000D01*
X143526000Y-115310000D02*
X143526000Y-118310000D01*
G04 #@! TO.C,LED28*
X84820000Y-37060000D02*
X84820000Y-33535000D01*
X82820000Y-34060000D02*
X82820000Y-37060000D01*
G04 #@! TO.C,LED21*
X134096000Y-118340000D02*
X134096000Y-114815000D01*
X132096000Y-115340000D02*
X132096000Y-118340000D01*
G04 #@! TO.C,LED23*
X139716000Y-115340000D02*
X139716000Y-118340000D01*
X141716000Y-118340000D02*
X141716000Y-114815000D01*
D14*
G04 #@! TO.C,IC11*
X39370000Y-131191000D02*
X64770000Y-131191000D01*
X64770000Y-125349000D02*
X64770000Y-131191000D01*
X39370000Y-131191000D02*
X39370000Y-129286000D01*
X39370000Y-125349000D02*
X39370000Y-127254000D01*
X64770000Y-125349000D02*
X39370000Y-125349000D01*
X39370000Y-129286000D02*
G75*
G03*
X39370000Y-127254000I0J1016000D01*
G01*
D17*
G04 #@! TO.C,LED15*
X95266000Y-115406000D02*
X95266000Y-118406000D01*
X97266000Y-118406000D02*
X97266000Y-114881000D01*
G04 #@! TO.C,LED8*
X74406000Y-118406000D02*
X74406000Y-114881000D01*
X72406000Y-115406000D02*
X72406000Y-118406000D01*
G04 #@! TO.C,LED6*
X62976000Y-118376000D02*
X62976000Y-114851000D01*
X60976000Y-115376000D02*
X60976000Y-118376000D01*
G04 #@! TO.C,LED13*
X89646000Y-118406000D02*
X89646000Y-114881000D01*
X87646000Y-115406000D02*
X87646000Y-118406000D01*
D14*
G04 #@! TO.C,SW4*
X96139000Y-151257000D02*
X95631000Y-151257000D01*
X99441000Y-154559000D02*
X99441000Y-151257000D01*
X98298000Y-154813000D02*
X96774000Y-154813000D01*
X99441000Y-151257000D02*
X98933000Y-151257000D01*
X98933000Y-154559000D02*
X99441000Y-154559000D01*
X95631000Y-154559000D02*
X96139000Y-154559000D01*
X98933000Y-151257000D02*
X98933000Y-154559000D01*
X99441000Y-157861000D02*
X99441000Y-154559000D01*
X99441000Y-147955000D02*
X95631000Y-147955000D01*
X98298000Y-154813000D02*
X98298000Y-151003000D01*
X95631000Y-157861000D02*
X99441000Y-157861000D01*
X95631000Y-147955000D02*
X95631000Y-151257000D01*
X96139000Y-154559000D02*
X96139000Y-151257000D01*
X96774000Y-151003000D02*
X96774000Y-154813000D01*
X95631000Y-154559000D02*
X95631000Y-157861000D01*
X95631000Y-151257000D02*
X95631000Y-154559000D01*
X99441000Y-151257000D02*
X99441000Y-147955000D01*
X96774000Y-151003000D02*
X98298000Y-151003000D01*
G36*
X98044000Y-153924000D02*
G01*
X97028000Y-153924000D01*
X97028000Y-153543000D01*
X98044000Y-153543000D01*
X98044000Y-153924000D01*
G37*
G36*
X98044000Y-153289000D02*
G01*
X97028000Y-153289000D01*
X97028000Y-152908000D01*
X98044000Y-152908000D01*
X98044000Y-153289000D01*
G37*
G36*
X98044000Y-154559000D02*
G01*
X97028000Y-154559000D01*
X97028000Y-154178000D01*
X98044000Y-154178000D01*
X98044000Y-154559000D01*
G37*
D17*
G04 #@! TO.C,LED7*
X64786000Y-115376000D02*
X64786000Y-118376000D01*
X66786000Y-118376000D02*
X66786000Y-114851000D01*
G04 #@! TO.C,LED30*
X90440000Y-34060000D02*
X90440000Y-37060000D01*
X92440000Y-37060000D02*
X92440000Y-33535000D01*
G04 #@! TO.C,LED20*
X130286000Y-118340000D02*
X130286000Y-114815000D01*
X128286000Y-115340000D02*
X128286000Y-118340000D01*
G04 #@! TO.C,LED32*
X98060000Y-34060000D02*
X98060000Y-37060000D01*
X100060000Y-37060000D02*
X100060000Y-33535000D01*
G04 #@! TO.C,LED34*
X138700000Y-34314000D02*
X138700000Y-37314000D01*
X140700000Y-37314000D02*
X140700000Y-33789000D01*
D14*
G04 #@! TO.C,IC12*
X69850000Y-131191000D02*
X95250000Y-131191000D01*
X95250000Y-125349000D02*
X69850000Y-125349000D01*
X69850000Y-125349000D02*
X69850000Y-127254000D01*
X95250000Y-125349000D02*
X95250000Y-131191000D01*
X69850000Y-131191000D02*
X69850000Y-129286000D01*
X69850000Y-129286000D02*
G75*
G03*
X69850000Y-127254000I0J1016000D01*
G01*
D17*
G04 #@! TO.C,LED33*
X128540000Y-34314000D02*
X128540000Y-37314000D01*
X130540000Y-37314000D02*
X130540000Y-33789000D01*
G04 #@! TO.C,LED14*
X91456000Y-115406000D02*
X91456000Y-118406000D01*
X93456000Y-118406000D02*
X93456000Y-114881000D01*
G04 #@! TO.C,LED25*
X71390000Y-34060000D02*
X71390000Y-37060000D01*
X73390000Y-37060000D02*
X73390000Y-33535000D01*
G04 #@! TO.C,LED1*
X43926000Y-118436000D02*
X43926000Y-114911000D01*
X41926000Y-115436000D02*
X41926000Y-118436000D01*
G04 #@! TO.C,LED2*
X47736000Y-118406000D02*
X47736000Y-114881000D01*
X45736000Y-115406000D02*
X45736000Y-118406000D01*
D18*
G04 #@! TO.C,S5*
X68270000Y-146400000D02*
X68270000Y-153400000D01*
X61270000Y-146400000D02*
X61270000Y-153400000D01*
D17*
G04 #@! TO.C,LED37*
X47990000Y-35820000D02*
X47990000Y-32295000D01*
X45990000Y-32820000D02*
X45990000Y-35820000D01*
D18*
G04 #@! TO.C,R60*
X50990000Y-155460000D02*
X51840000Y-155460000D01*
X51840000Y-142960000D02*
X51840000Y-145960000D01*
X42140000Y-155460000D02*
X42990000Y-155460000D01*
X42140000Y-145960000D02*
X42140000Y-142960000D01*
X51840000Y-155460000D02*
X51840000Y-150960000D01*
D17*
X44590000Y-156660000D02*
X44590000Y-156660000D01*
X44390000Y-156660000D02*
X44390000Y-156660000D01*
D18*
X42140000Y-142960000D02*
X51840000Y-142960000D01*
X42140000Y-150960000D02*
X42140000Y-155460000D01*
D17*
X44590000Y-156660000D02*
G75*
G03*
X44390000Y-156660000I-100000J0D01*
G01*
X44390000Y-156660000D02*
G75*
G03*
X44590000Y-156660000I100000J0D01*
G01*
G04 #@! TO.C,LED26*
X77200000Y-37060000D02*
X77200000Y-33535000D01*
X75200000Y-34060000D02*
X75200000Y-37060000D01*
D19*
G04 #@! TO.C,J1*
X41560000Y-47176000D02*
X41560000Y-47176000D01*
X41560000Y-47276000D02*
X41560000Y-47276000D01*
X41560000Y-47176000D02*
G75*
G03*
X41560000Y-47276000I0J-50000D01*
G01*
X41560000Y-47276000D02*
G75*
G03*
X41560000Y-47176000I0J50000D01*
G01*
D17*
G04 #@! TO.C,LED17*
X116856000Y-115340000D02*
X116856000Y-118340000D01*
X118856000Y-118340000D02*
X118856000Y-114815000D01*
G04 #@! TO.C,IC17*
X61260000Y-45900000D02*
X60660000Y-45900000D01*
X62810000Y-45950000D02*
X61610000Y-45950000D01*
X61260000Y-43000000D02*
X61260000Y-45900000D01*
X60660000Y-43000000D02*
X61260000Y-43000000D01*
X60660000Y-45900000D02*
X60660000Y-43000000D01*
G04 #@! TO.C,LED16*
X99076000Y-115406000D02*
X99076000Y-118406000D01*
X101076000Y-118406000D02*
X101076000Y-114881000D01*
G04 #@! TO.C,LED4*
X55356000Y-118376000D02*
X55356000Y-114851000D01*
X53356000Y-115376000D02*
X53356000Y-118376000D01*
G04 #@! TO.C,LED38*
X39640000Y-32820000D02*
X39640000Y-35820000D01*
X41640000Y-35820000D02*
X41640000Y-32295000D01*
G04 #@! TO.C,LED5*
X59166000Y-118376000D02*
X59166000Y-114851000D01*
X57166000Y-115376000D02*
X57166000Y-118376000D01*
D14*
G04 #@! TO.C,SW1*
X127762000Y-155829000D02*
X126238000Y-155829000D01*
X115062000Y-155829000D02*
X115062000Y-152019000D01*
X123698000Y-152019000D02*
X123698000Y-155829000D01*
X125222000Y-155829000D02*
X125222000Y-152019000D01*
X131572000Y-158877000D02*
X131572000Y-155575000D01*
X131064000Y-152273000D02*
X131064000Y-155575000D01*
X115062000Y-155829000D02*
X113538000Y-155829000D01*
X117602000Y-155829000D02*
X117602000Y-152019000D01*
X110236000Y-152273000D02*
X109728000Y-152273000D01*
X131572000Y-155575000D02*
X131572000Y-152273000D01*
X110236000Y-155575000D02*
X110236000Y-152273000D01*
X109728000Y-155575000D02*
X109728000Y-158877000D01*
X131064000Y-155575000D02*
X131572000Y-155575000D01*
X125222000Y-155829000D02*
X123698000Y-155829000D01*
X120142000Y-155829000D02*
X120142000Y-152019000D01*
X112522000Y-155829000D02*
X110998000Y-155829000D01*
X118618000Y-152019000D02*
X118618000Y-155829000D01*
X109728000Y-158877000D02*
X131572000Y-158877000D01*
X113538000Y-152019000D02*
X113538000Y-155829000D01*
X130302000Y-155829000D02*
X130302000Y-152019000D01*
X126238000Y-152019000D02*
X127762000Y-152019000D01*
X128778000Y-152019000D02*
X128778000Y-155829000D01*
X121158000Y-152019000D02*
X122682000Y-152019000D01*
X122682000Y-155829000D02*
X121158000Y-155829000D01*
X131572000Y-148971000D02*
X109728000Y-148971000D01*
X117602000Y-155829000D02*
X116078000Y-155829000D01*
X122682000Y-155829000D02*
X122682000Y-152019000D01*
X109728000Y-148971000D02*
X109728000Y-152273000D01*
X131572000Y-152273000D02*
X131064000Y-152273000D01*
X128778000Y-152019000D02*
X130302000Y-152019000D01*
X118618000Y-152019000D02*
X120142000Y-152019000D01*
X126238000Y-152019000D02*
X126238000Y-155829000D01*
X130302000Y-155829000D02*
X128778000Y-155829000D01*
X113538000Y-152019000D02*
X115062000Y-152019000D01*
X120142000Y-155829000D02*
X118618000Y-155829000D01*
X127762000Y-155829000D02*
X127762000Y-152019000D01*
X110998000Y-152019000D02*
X112522000Y-152019000D01*
X112522000Y-155829000D02*
X112522000Y-152019000D01*
X116078000Y-152019000D02*
X116078000Y-155829000D01*
X109728000Y-152273000D02*
X109728000Y-155575000D01*
X109728000Y-155575000D02*
X110236000Y-155575000D01*
X110998000Y-152019000D02*
X110998000Y-155829000D01*
X116078000Y-152019000D02*
X117602000Y-152019000D01*
X123698000Y-152019000D02*
X125222000Y-152019000D01*
X121158000Y-152019000D02*
X121158000Y-155829000D01*
X131572000Y-152273000D02*
X131572000Y-148971000D01*
G36*
X117348000Y-154940000D02*
G01*
X116332000Y-154940000D01*
X116332000Y-154559000D01*
X117348000Y-154559000D01*
X117348000Y-154940000D01*
G37*
G36*
X124968000Y-154305000D02*
G01*
X123952000Y-154305000D01*
X123952000Y-153924000D01*
X124968000Y-153924000D01*
X124968000Y-154305000D01*
G37*
G36*
X117348000Y-155575000D02*
G01*
X116332000Y-155575000D01*
X116332000Y-155194000D01*
X117348000Y-155194000D01*
X117348000Y-155575000D01*
G37*
G36*
X122428000Y-155575000D02*
G01*
X121412000Y-155575000D01*
X121412000Y-155194000D01*
X122428000Y-155194000D01*
X122428000Y-155575000D01*
G37*
G36*
X112268000Y-154940000D02*
G01*
X111252000Y-154940000D01*
X111252000Y-154559000D01*
X112268000Y-154559000D01*
X112268000Y-154940000D01*
G37*
G36*
X119888000Y-154940000D02*
G01*
X118872000Y-154940000D01*
X118872000Y-154559000D01*
X119888000Y-154559000D01*
X119888000Y-154940000D01*
G37*
G36*
X127508000Y-154940000D02*
G01*
X126492000Y-154940000D01*
X126492000Y-154559000D01*
X127508000Y-154559000D01*
X127508000Y-154940000D01*
G37*
G36*
X130048000Y-155575000D02*
G01*
X129032000Y-155575000D01*
X129032000Y-155194000D01*
X130048000Y-155194000D01*
X130048000Y-155575000D01*
G37*
G36*
X124968000Y-155575000D02*
G01*
X123952000Y-155575000D01*
X123952000Y-155194000D01*
X124968000Y-155194000D01*
X124968000Y-155575000D01*
G37*
G36*
X122428000Y-154940000D02*
G01*
X121412000Y-154940000D01*
X121412000Y-154559000D01*
X122428000Y-154559000D01*
X122428000Y-154940000D01*
G37*
G36*
X114808000Y-154305000D02*
G01*
X113792000Y-154305000D01*
X113792000Y-153924000D01*
X114808000Y-153924000D01*
X114808000Y-154305000D01*
G37*
G36*
X112268000Y-154305000D02*
G01*
X111252000Y-154305000D01*
X111252000Y-153924000D01*
X112268000Y-153924000D01*
X112268000Y-154305000D01*
G37*
G36*
X112268000Y-155575000D02*
G01*
X111252000Y-155575000D01*
X111252000Y-155194000D01*
X112268000Y-155194000D01*
X112268000Y-155575000D01*
G37*
G36*
X114808000Y-154940000D02*
G01*
X113792000Y-154940000D01*
X113792000Y-154559000D01*
X114808000Y-154559000D01*
X114808000Y-154940000D01*
G37*
G36*
X124968000Y-154940000D02*
G01*
X123952000Y-154940000D01*
X123952000Y-154559000D01*
X124968000Y-154559000D01*
X124968000Y-154940000D01*
G37*
G36*
X119888000Y-154305000D02*
G01*
X118872000Y-154305000D01*
X118872000Y-153924000D01*
X119888000Y-153924000D01*
X119888000Y-154305000D01*
G37*
G36*
X119888000Y-155575000D02*
G01*
X118872000Y-155575000D01*
X118872000Y-155194000D01*
X119888000Y-155194000D01*
X119888000Y-155575000D01*
G37*
G36*
X130048000Y-154940000D02*
G01*
X129032000Y-154940000D01*
X129032000Y-154559000D01*
X130048000Y-154559000D01*
X130048000Y-154940000D01*
G37*
G36*
X117348000Y-154305000D02*
G01*
X116332000Y-154305000D01*
X116332000Y-153924000D01*
X117348000Y-153924000D01*
X117348000Y-154305000D01*
G37*
G36*
X127508000Y-155575000D02*
G01*
X126492000Y-155575000D01*
X126492000Y-155194000D01*
X127508000Y-155194000D01*
X127508000Y-155575000D01*
G37*
G36*
X114808000Y-155575000D02*
G01*
X113792000Y-155575000D01*
X113792000Y-155194000D01*
X114808000Y-155194000D01*
X114808000Y-155575000D01*
G37*
G36*
X130048000Y-154305000D02*
G01*
X129032000Y-154305000D01*
X129032000Y-153924000D01*
X130048000Y-153924000D01*
X130048000Y-154305000D01*
G37*
G36*
X127508000Y-154305000D02*
G01*
X126492000Y-154305000D01*
X126492000Y-153924000D01*
X127508000Y-153924000D01*
X127508000Y-154305000D01*
G37*
G36*
X122428000Y-154305000D02*
G01*
X121412000Y-154305000D01*
X121412000Y-153924000D01*
X122428000Y-153924000D01*
X122428000Y-154305000D01*
G37*
D17*
G04 #@! TO.C,LED9*
X68596000Y-115406000D02*
X68596000Y-118406000D01*
X70596000Y-118406000D02*
X70596000Y-114881000D01*
G04 #@! TO.C,LED29*
X86630000Y-34060000D02*
X86630000Y-37060000D01*
X88630000Y-37060000D02*
X88630000Y-33535000D01*
D20*
G04 #@! TO.C,IC16*
X49820000Y-46260000D02*
G75*
G03*
X49820000Y-46260000I-125000J0D01*
G01*
G04 #@! TD*
M02*
