G04 #@! TF.GenerationSoftware,KiCad,Pcbnew,(6.0.9-0)*
G04 #@! TF.CreationDate,2022-12-07T17:47:49-05:00*
G04 #@! TF.ProjectId,6502tor,36353032-746f-4722-9e6b-696361645f70,rev?*
G04 #@! TF.SameCoordinates,Original*
G04 #@! TF.FileFunction,Copper,L2,Bot*
G04 #@! TF.FilePolarity,Positive*
%FSLAX46Y46*%
G04 Gerber Fmt 4.6, Leading zero omitted, Abs format (unit mm)*
G04 Created by KiCad (PCBNEW (6.0.9-0)) date 2022-12-07 17:47:49*
%MOMM*%
%LPD*%
G01*
G04 APERTURE LIST*
G04 #@! TA.AperFunction,ComponentPad*
%ADD10O,1.320800X2.641600*%
G04 #@! TD*
G04 #@! TA.AperFunction,ComponentPad*
%ADD11C,1.320800*%
G04 #@! TD*
G04 #@! TA.AperFunction,ComponentPad*
%ADD12R,1.600000X1.600000*%
G04 #@! TD*
G04 #@! TA.AperFunction,ComponentPad*
%ADD13O,1.600000X1.600000*%
G04 #@! TD*
G04 #@! TA.AperFunction,ComponentPad*
%ADD14C,1.500000*%
G04 #@! TD*
G04 #@! TA.AperFunction,ComponentPad*
%ADD15C,1.270000*%
G04 #@! TD*
G04 #@! TA.AperFunction,ComponentPad*
%ADD16C,1.300000*%
G04 #@! TD*
G04 #@! TA.AperFunction,ComponentPad*
%ADD17C,2.250000*%
G04 #@! TD*
G04 #@! TA.AperFunction,ComponentPad*
%ADD18C,1.800000*%
G04 #@! TD*
G04 #@! TA.AperFunction,ComponentPad*
%ADD19C,4.460000*%
G04 #@! TD*
G04 #@! TA.AperFunction,ViaPad*
%ADD20C,0.800000*%
G04 #@! TD*
G04 #@! TA.AperFunction,Conductor*
%ADD21C,0.250000*%
G04 #@! TD*
G04 APERTURE END LIST*
D10*
G04 #@! TO.P,IC2,1,DIR*
G04 #@! TO.N,VCC*
X132080000Y-132080000D03*
G04 #@! TO.P,IC2,2,A1*
G04 #@! TO.N,Net-(IC14-Pad16)*
X134620000Y-132080000D03*
G04 #@! TO.P,IC2,3,A2*
G04 #@! TO.N,Net-(IC14-Pad14)*
X137160000Y-132080000D03*
G04 #@! TO.P,IC2,4,A3*
G04 #@! TO.N,Net-(IC14-Pad12)*
X139700000Y-132080000D03*
G04 #@! TO.P,IC2,5,A4*
G04 #@! TO.N,Net-(R20-Pad1)*
X142240000Y-132080000D03*
G04 #@! TO.P,IC2,6,A5*
G04 #@! TO.N,Net-(R21-Pad1)*
X144780000Y-132080000D03*
G04 #@! TO.P,IC2,7,A6*
G04 #@! TO.N,Net-(R22-Pad1)*
X147320000Y-132080000D03*
G04 #@! TO.P,IC2,8,A7*
G04 #@! TO.N,Net-(R23-Pad1)*
X149860000Y-132080000D03*
G04 #@! TO.P,IC2,9,A8*
G04 #@! TO.N,Net-(R24-Pad1)*
X152400000Y-132080000D03*
G04 #@! TO.P,IC2,10*
G04 #@! TO.N,0*
X154940000Y-132080000D03*
G04 #@! TO.P,IC2,11,B8*
G04 #@! TO.N,Net-(IC1-Pad33)*
X154940000Y-124460000D03*
G04 #@! TO.P,IC2,12,B7*
G04 #@! TO.N,Net-(IC1-Pad32)*
X152400000Y-124460000D03*
G04 #@! TO.P,IC2,13,B6*
G04 #@! TO.N,Net-(IC1-Pad31)*
X149860000Y-124460000D03*
G04 #@! TO.P,IC2,14,B5*
G04 #@! TO.N,Net-(IC1-Pad30)*
X147320000Y-124460000D03*
G04 #@! TO.P,IC2,15,B4*
G04 #@! TO.N,Net-(IC1-Pad29)*
X144780000Y-124460000D03*
G04 #@! TO.P,IC2,16,B3*
G04 #@! TO.N,Net-(IC1-Pad28)*
X142240000Y-124460000D03*
G04 #@! TO.P,IC2,17,B2*
G04 #@! TO.N,Net-(IC1-Pad27)*
X139700000Y-124460000D03*
G04 #@! TO.P,IC2,18,B1*
G04 #@! TO.N,Net-(IC1-Pad26)*
X137160000Y-124460000D03*
G04 #@! TO.P,IC2,19,G*
G04 #@! TO.N,Net-(IC4-Pad8)*
X134620000Y-124460000D03*
G04 #@! TO.P,IC2,20*
G04 #@! TO.N,VCC*
X132080000Y-124460000D03*
G04 #@! TD*
G04 #@! TO.P,IC15,1,OC*
G04 #@! TO.N,0*
X71120000Y-51816000D03*
G04 #@! TO.P,IC15,2,1D*
G04 #@! TO.N,Net-(IC1-Pad26)*
X73660000Y-51816000D03*
G04 #@! TO.P,IC15,3,2D*
G04 #@! TO.N,Net-(IC1-Pad27)*
X76200000Y-51816000D03*
G04 #@! TO.P,IC15,4,3D*
G04 #@! TO.N,Net-(IC1-Pad28)*
X78740000Y-51816000D03*
G04 #@! TO.P,IC15,5,4D*
G04 #@! TO.N,Net-(IC1-Pad29)*
X81280000Y-51816000D03*
G04 #@! TO.P,IC15,6,5D*
G04 #@! TO.N,Net-(IC1-Pad30)*
X83820000Y-51816000D03*
G04 #@! TO.P,IC15,7,6D*
G04 #@! TO.N,Net-(IC1-Pad31)*
X86360000Y-51816000D03*
G04 #@! TO.P,IC15,8,7D*
G04 #@! TO.N,Net-(IC1-Pad32)*
X88900000Y-51816000D03*
G04 #@! TO.P,IC15,9,8D*
G04 #@! TO.N,Net-(IC1-Pad33)*
X91440000Y-51816000D03*
G04 #@! TO.P,IC15,10*
G04 #@! TO.N,0*
X93980000Y-51816000D03*
G04 #@! TO.P,IC15,11,CLK*
G04 #@! TO.N,Net-(IC15-Pad11)*
X93980000Y-44196000D03*
G04 #@! TO.P,IC15,12,8Q*
G04 #@! TO.N,Net-(IC15-Pad12)*
X91440000Y-44196000D03*
G04 #@! TO.P,IC15,13,7Q*
G04 #@! TO.N,Net-(IC15-Pad13)*
X88900000Y-44196000D03*
G04 #@! TO.P,IC15,14,6Q*
G04 #@! TO.N,Net-(IC15-Pad14)*
X86360000Y-44196000D03*
G04 #@! TO.P,IC15,15,5Q*
G04 #@! TO.N,Net-(IC15-Pad15)*
X83820000Y-44196000D03*
G04 #@! TO.P,IC15,16,4Q*
G04 #@! TO.N,Net-(IC15-Pad16)*
X81280000Y-44196000D03*
G04 #@! TO.P,IC15,17,3Q*
G04 #@! TO.N,Net-(IC15-Pad17)*
X78740000Y-44196000D03*
G04 #@! TO.P,IC15,18,2Q*
G04 #@! TO.N,Net-(IC15-Pad18)*
X76200000Y-44196000D03*
G04 #@! TO.P,IC15,19,1Q*
G04 #@! TO.N,Net-(IC15-Pad19)*
X73660000Y-44196000D03*
G04 #@! TO.P,IC15,20*
G04 #@! TO.N,VCC*
X71120000Y-44196000D03*
G04 #@! TD*
D11*
G04 #@! TO.P,QG1,1*
G04 #@! TO.N,N/C*
X97790000Y-93980000D03*
G04 #@! TO.P,QG1,4,GND*
G04 #@! TO.N,0*
X105410000Y-93980000D03*
G04 #@! TO.P,QG1,5,OUT*
G04 #@! TO.N,Net-(QG1-Pad5)*
X105410000Y-86360000D03*
G04 #@! TO.P,QG1,8,VCC*
G04 #@! TO.N,VCC*
X97790000Y-86360000D03*
G04 #@! TD*
D10*
G04 #@! TO.P,IC8,1,I*
G04 #@! TO.N,Net-(IC1-Pad36)*
X43180000Y-93980000D03*
G04 #@! TO.P,IC8,2,O*
G04 #@! TO.N,Net-(IC14-Pad19)*
X45720000Y-93980000D03*
G04 #@! TO.P,IC8,3,I*
G04 #@! TO.N,Net-(IC3-Pad6)*
X48260000Y-93980000D03*
G04 #@! TO.P,IC8,4,O*
G04 #@! TO.N,Net-(IC4-Pad5)*
X50800000Y-93980000D03*
G04 #@! TO.P,IC8,5,I*
G04 #@! TO.N,Net-(IC3-Pad8)*
X53340000Y-93980000D03*
G04 #@! TO.P,IC8,6,O*
G04 #@! TO.N,Net-(IC3-Pad5)*
X55880000Y-93980000D03*
G04 #@! TO.P,IC8,7*
G04 #@! TO.N,0*
X58420000Y-93980000D03*
G04 #@! TO.P,IC8,8,O*
G04 #@! TO.N,Net-(IC15-Pad11)*
X58420000Y-86360000D03*
G04 #@! TO.P,IC8,9,I*
G04 #@! TO.N,Net-(IC5-Pad11)*
X55880000Y-86360000D03*
G04 #@! TO.P,IC8,10,O*
G04 #@! TO.N,Net-(IC3-Pad13)*
X53340000Y-86360000D03*
G04 #@! TO.P,IC8,11,I*
G04 #@! TO.N,Net-(IC1-Pad34)*
X50800000Y-86360000D03*
G04 #@! TO.P,IC8,12,O*
G04 #@! TO.N,Net-(IC14-Pad2)*
X48260000Y-86360000D03*
G04 #@! TO.P,IC8,13,I*
G04 #@! TO.N,Net-(IC10-Pad3)*
X45720000Y-86360000D03*
G04 #@! TO.P,IC8,14*
G04 #@! TO.N,VCC*
X43180000Y-86360000D03*
G04 #@! TD*
G04 #@! TO.P,IC1,1,~{VPB}*
G04 #@! TO.N,unconnected-(IC1-Pad1)*
X105410000Y-59690000D03*
G04 #@! TO.P,IC1,2,RDY*
G04 #@! TO.N,Net-(IC1-Pad2)*
X107950000Y-59690000D03*
G04 #@! TO.P,IC1,3,PHI1O*
G04 #@! TO.N,unconnected-(IC1-Pad3)*
X110490000Y-59690000D03*
G04 #@! TO.P,IC1,4,~{IRQB}*
G04 #@! TO.N,VCC*
X113030000Y-59690000D03*
G04 #@! TO.P,IC1,5,~{MLB}*
G04 #@! TO.N,unconnected-(IC1-Pad5)*
X115570000Y-59690000D03*
G04 #@! TO.P,IC1,6,~{NMIB}*
G04 #@! TO.N,VCC*
X118110000Y-59690000D03*
G04 #@! TO.P,IC1,7,SYNC*
G04 #@! TO.N,unconnected-(IC1-Pad7)*
X120650000Y-59690000D03*
G04 #@! TO.P,IC1,8*
G04 #@! TO.N,VCC*
X123190000Y-59690000D03*
G04 #@! TO.P,IC1,9,A0*
G04 #@! TO.N,Net-(IC1-Pad9)*
X125730000Y-59690000D03*
G04 #@! TO.P,IC1,10,A1*
G04 #@! TO.N,Net-(IC1-Pad10)*
X128270000Y-59690000D03*
G04 #@! TO.P,IC1,11,A2*
G04 #@! TO.N,Net-(IC1-Pad11)*
X130810000Y-59690000D03*
G04 #@! TO.P,IC1,12,A3*
G04 #@! TO.N,Net-(IC1-Pad12)*
X133350000Y-59690000D03*
G04 #@! TO.P,IC1,13,A4*
G04 #@! TO.N,Net-(IC1-Pad13)*
X135890000Y-59690000D03*
G04 #@! TO.P,IC1,14,A5*
G04 #@! TO.N,Net-(IC1-Pad14)*
X138430000Y-59690000D03*
G04 #@! TO.P,IC1,15,A6*
G04 #@! TO.N,Net-(IC1-Pad15)*
X140970000Y-59690000D03*
G04 #@! TO.P,IC1,16,A7*
G04 #@! TO.N,Net-(IC1-Pad16)*
X143510000Y-59690000D03*
G04 #@! TO.P,IC1,17,A8*
G04 #@! TO.N,Net-(IC1-Pad17)*
X146050000Y-59690000D03*
G04 #@! TO.P,IC1,18,A9*
G04 #@! TO.N,Net-(IC1-Pad18)*
X148590000Y-59690000D03*
G04 #@! TO.P,IC1,19,A10*
G04 #@! TO.N,Net-(IC1-Pad19)*
X151130000Y-59690000D03*
G04 #@! TO.P,IC1,20,A11*
G04 #@! TO.N,Net-(IC1-Pad20)*
X153670000Y-59690000D03*
G04 #@! TO.P,IC1,21*
G04 #@! TO.N,0*
X153670000Y-44450000D03*
G04 #@! TO.P,IC1,22,A12*
G04 #@! TO.N,Net-(IC1-Pad22)*
X151130000Y-44450000D03*
G04 #@! TO.P,IC1,23,A13*
G04 #@! TO.N,Net-(IC1-Pad23)*
X148590000Y-44450000D03*
G04 #@! TO.P,IC1,24,A14*
G04 #@! TO.N,Net-(IC1-Pad24)*
X146050000Y-44450000D03*
G04 #@! TO.P,IC1,25,A15*
G04 #@! TO.N,Net-(IC1-Pad25)*
X143510000Y-44450000D03*
G04 #@! TO.P,IC1,26,D7*
G04 #@! TO.N,Net-(IC1-Pad26)*
X140970000Y-44450000D03*
G04 #@! TO.P,IC1,27,D6*
G04 #@! TO.N,Net-(IC1-Pad27)*
X138430000Y-44450000D03*
G04 #@! TO.P,IC1,28,D5*
G04 #@! TO.N,Net-(IC1-Pad28)*
X135890000Y-44450000D03*
G04 #@! TO.P,IC1,29,D4*
G04 #@! TO.N,Net-(IC1-Pad29)*
X133350000Y-44450000D03*
G04 #@! TO.P,IC1,30,D3*
G04 #@! TO.N,Net-(IC1-Pad30)*
X130810000Y-44450000D03*
G04 #@! TO.P,IC1,31,D2*
G04 #@! TO.N,Net-(IC1-Pad31)*
X128270000Y-44450000D03*
G04 #@! TO.P,IC1,32,D1*
G04 #@! TO.N,Net-(IC1-Pad32)*
X125730000Y-44450000D03*
G04 #@! TO.P,IC1,33,D0*
G04 #@! TO.N,Net-(IC1-Pad33)*
X123190000Y-44450000D03*
G04 #@! TO.P,IC1,34,R~{WB}*
G04 #@! TO.N,Net-(IC1-Pad34)*
X120650000Y-44450000D03*
G04 #@! TO.P,IC1,35,NC*
G04 #@! TO.N,unconnected-(IC1-Pad35)*
X118110000Y-44450000D03*
G04 #@! TO.P,IC1,36,BE*
G04 #@! TO.N,Net-(IC1-Pad36)*
X115570000Y-44450000D03*
G04 #@! TO.P,IC1,37,PHI2*
G04 #@! TO.N,Net-(IC1-Pad37)*
X113030000Y-44450000D03*
G04 #@! TO.P,IC1,38,~{SOB}*
G04 #@! TO.N,VCC*
X110490000Y-44450000D03*
G04 #@! TO.P,IC1,39,PHI2O*
G04 #@! TO.N,unconnected-(IC1-Pad39)*
X107950000Y-44450000D03*
G04 #@! TO.P,IC1,40,~{RESB}*
G04 #@! TO.N,Net-(IC1-Pad40)*
X105410000Y-44450000D03*
G04 #@! TD*
G04 #@! TO.P,IC3,1,I0*
G04 #@! TO.N,Net-(IC1-Pad36)*
X43180000Y-76200000D03*
G04 #@! TO.P,IC3,2,I1*
G04 #@! TO.N,Net-(IC3-Pad2)*
X45720000Y-76200000D03*
G04 #@! TO.P,IC3,3,O*
G04 #@! TO.N,Net-(IC1-Pad37)*
X48260000Y-76200000D03*
G04 #@! TO.P,IC3,4,I0*
G04 #@! TO.N,Net-(IC3-Pad4)*
X50800000Y-76200000D03*
G04 #@! TO.P,IC3,5,I1*
G04 #@! TO.N,Net-(IC3-Pad5)*
X53340000Y-76200000D03*
G04 #@! TO.P,IC3,6,O*
G04 #@! TO.N,Net-(IC3-Pad6)*
X55880000Y-76200000D03*
G04 #@! TO.P,IC3,7*
G04 #@! TO.N,0*
X58420000Y-76200000D03*
G04 #@! TO.P,IC3,8,O*
G04 #@! TO.N,Net-(IC3-Pad8)*
X58420000Y-68580000D03*
G04 #@! TO.P,IC3,9,I0*
G04 #@! TO.N,Net-(IC1-Pad37)*
X55880000Y-68580000D03*
G04 #@! TO.P,IC3,10,I1*
G04 #@! TO.N,Net-(IC1-Pad34)*
X53340000Y-68580000D03*
G04 #@! TO.P,IC3,11,O*
G04 #@! TO.N,Net-(IC3-Pad11)*
X50800000Y-68580000D03*
G04 #@! TO.P,IC3,12,I0*
G04 #@! TO.N,Net-(IC1-Pad37)*
X48260000Y-68580000D03*
G04 #@! TO.P,IC3,13,I1*
G04 #@! TO.N,Net-(IC3-Pad13)*
X45720000Y-68580000D03*
G04 #@! TO.P,IC3,14*
G04 #@! TO.N,VCC*
X43180000Y-68580000D03*
G04 #@! TD*
G04 #@! TO.P,IC14,1,G*
G04 #@! TO.N,Net-(IC1-Pad36)*
X101600000Y-132080000D03*
G04 #@! TO.P,IC14,2,A1*
G04 #@! TO.N,Net-(IC14-Pad2)*
X104140000Y-132080000D03*
G04 #@! TO.P,IC14,3,Y4*
G04 #@! TO.N,unconnected-(IC14-Pad3)*
X106680000Y-132080000D03*
G04 #@! TO.P,IC14,4,A2*
G04 #@! TO.N,Net-(IC14-Pad4)*
X109220000Y-132080000D03*
G04 #@! TO.P,IC14,5,Y3*
G04 #@! TO.N,Net-(IC14-Pad16)*
X111760000Y-132080000D03*
G04 #@! TO.P,IC14,6,A3*
G04 #@! TO.N,Net-(IC14-Pad6)*
X114300000Y-132080000D03*
G04 #@! TO.P,IC14,7,Y2*
G04 #@! TO.N,Net-(IC14-Pad14)*
X116840000Y-132080000D03*
G04 #@! TO.P,IC14,8,A4*
G04 #@! TO.N,Net-(IC14-Pad8)*
X119380000Y-132080000D03*
G04 #@! TO.P,IC14,9,Y1*
G04 #@! TO.N,Net-(IC14-Pad12)*
X121920000Y-132080000D03*
G04 #@! TO.P,IC14,10*
G04 #@! TO.N,0*
X124460000Y-132080000D03*
G04 #@! TO.P,IC14,11,A1*
G04 #@! TO.N,Net-(IC14-Pad11)*
X124460000Y-124460000D03*
G04 #@! TO.P,IC14,12,Y4*
G04 #@! TO.N,Net-(IC14-Pad12)*
X121920000Y-124460000D03*
G04 #@! TO.P,IC14,13,A2*
G04 #@! TO.N,Net-(IC14-Pad13)*
X119380000Y-124460000D03*
G04 #@! TO.P,IC14,14,Y3*
G04 #@! TO.N,Net-(IC14-Pad14)*
X116840000Y-124460000D03*
G04 #@! TO.P,IC14,15,A3*
G04 #@! TO.N,Net-(IC14-Pad15)*
X114300000Y-124460000D03*
G04 #@! TO.P,IC14,16,Y2*
G04 #@! TO.N,Net-(IC14-Pad16)*
X111760000Y-124460000D03*
G04 #@! TO.P,IC14,17,A4*
G04 #@! TO.N,unconnected-(IC14-Pad17)*
X109220000Y-124460000D03*
G04 #@! TO.P,IC14,18,Y1*
G04 #@! TO.N,Net-(IC1-Pad34)*
X106680000Y-124460000D03*
G04 #@! TO.P,IC14,19,G*
G04 #@! TO.N,Net-(IC14-Pad19)*
X104140000Y-124460000D03*
G04 #@! TO.P,IC14,20*
G04 #@! TO.N,VCC*
X101600000Y-124460000D03*
G04 #@! TD*
G04 #@! TO.P,IC5,1,I0*
G04 #@! TO.N,Net-(IC1-Pad25)*
X68580000Y-76200000D03*
G04 #@! TO.P,IC5,2,I1*
G04 #@! TO.N,Net-(IC5-Pad2)*
X71120000Y-76200000D03*
G04 #@! TO.P,IC5,3,O*
G04 #@! TO.N,Net-(IC5-Pad10)*
X73660000Y-76200000D03*
G04 #@! TO.P,IC5,4,I0*
G04 #@! TO.N,Net-(IC5-Pad4)*
X76200000Y-76200000D03*
G04 #@! TO.P,IC5,5,I1*
G04 #@! TO.N,Net-(IC1-Pad24)*
X78740000Y-76200000D03*
G04 #@! TO.P,IC5,6,O*
G04 #@! TO.N,Net-(IC5-Pad6)*
X81280000Y-76200000D03*
G04 #@! TO.P,IC5,7*
G04 #@! TO.N,0*
X83820000Y-76200000D03*
G04 #@! TO.P,IC5,8,O*
G04 #@! TO.N,Net-(IC3-Pad4)*
X83820000Y-68580000D03*
G04 #@! TO.P,IC5,9,I0*
G04 #@! TO.N,Net-(IC5-Pad6)*
X81280000Y-68580000D03*
G04 #@! TO.P,IC5,10,I1*
G04 #@! TO.N,Net-(IC5-Pad10)*
X78740000Y-68580000D03*
G04 #@! TO.P,IC5,11,O*
G04 #@! TO.N,Net-(IC5-Pad11)*
X76200000Y-68580000D03*
G04 #@! TO.P,IC5,12,I0*
G04 #@! TO.N,Net-(IC3-Pad4)*
X73660000Y-68580000D03*
G04 #@! TO.P,IC5,13,I1*
G04 #@! TO.N,Net-(IC5-Pad13)*
X71120000Y-68580000D03*
G04 #@! TO.P,IC5,14*
G04 #@! TO.N,VCC*
X68580000Y-68580000D03*
G04 #@! TD*
G04 #@! TO.P,IC4,1,I0*
G04 #@! TO.N,Net-(IC10-Pad3)*
X91440000Y-76200000D03*
G04 #@! TO.P,IC4,2,I1*
G04 #@! TO.N,Net-(IC14-Pad19)*
X93980000Y-76200000D03*
G04 #@! TO.P,IC4,3,O*
G04 #@! TO.N,Net-(IC4-Pad13)*
X96520000Y-76200000D03*
G04 #@! TO.P,IC4,4,I0*
G04 #@! TO.N,Net-(IC1-Pad36)*
X99060000Y-76200000D03*
G04 #@! TO.P,IC4,5,I1*
G04 #@! TO.N,Net-(IC4-Pad5)*
X101600000Y-76200000D03*
G04 #@! TO.P,IC4,6,O*
G04 #@! TO.N,Net-(IC4-Pad12)*
X104140000Y-76200000D03*
G04 #@! TO.P,IC4,7*
G04 #@! TO.N,0*
X106680000Y-76200000D03*
G04 #@! TO.P,IC4,8,O*
G04 #@! TO.N,Net-(IC4-Pad8)*
X106680000Y-68580000D03*
G04 #@! TO.P,IC4,9,I0*
G04 #@! TO.N,Net-(IC4-Pad10)*
X104140000Y-68580000D03*
G04 #@! TO.P,IC4,10,I1*
X101600000Y-68580000D03*
G04 #@! TO.P,IC4,11,O*
X99060000Y-68580000D03*
G04 #@! TO.P,IC4,12,I0*
G04 #@! TO.N,Net-(IC4-Pad12)*
X96520000Y-68580000D03*
G04 #@! TO.P,IC4,13,I1*
G04 #@! TO.N,Net-(IC4-Pad13)*
X93980000Y-68580000D03*
G04 #@! TO.P,IC4,14*
G04 #@! TO.N,VCC*
X91440000Y-68580000D03*
G04 #@! TD*
G04 #@! TO.P,IC9,1,I*
G04 #@! TO.N,Net-(IC3-Pad11)*
X68580000Y-93980000D03*
G04 #@! TO.P,IC9,2,O*
G04 #@! TO.N,Net-(IC5-Pad13)*
X71120000Y-93980000D03*
G04 #@! TO.P,IC9,3,I*
G04 #@! TO.N,Net-(IC1-Pad24)*
X73660000Y-93980000D03*
G04 #@! TO.P,IC9,4,O*
G04 #@! TO.N,Net-(IC5-Pad2)*
X76200000Y-93980000D03*
G04 #@! TO.P,IC9,5,I*
G04 #@! TO.N,Net-(IC1-Pad25)*
X78740000Y-93980000D03*
G04 #@! TO.P,IC9,6,O*
G04 #@! TO.N,Net-(IC5-Pad4)*
X81280000Y-93980000D03*
G04 #@! TO.P,IC9,7*
G04 #@! TO.N,0*
X83820000Y-93980000D03*
G04 #@! TO.P,IC9,8,O*
G04 #@! TO.N,unconnected-(IC9-Pad8)*
X83820000Y-86360000D03*
G04 #@! TO.P,IC9,9,I*
G04 #@! TO.N,0*
X81280000Y-86360000D03*
G04 #@! TO.P,IC9,10,O*
G04 #@! TO.N,unconnected-(IC9-Pad10)*
X78740000Y-86360000D03*
G04 #@! TO.P,IC9,11,I*
G04 #@! TO.N,0*
X76200000Y-86360000D03*
G04 #@! TO.P,IC9,12,O*
G04 #@! TO.N,unconnected-(IC9-Pad12)*
X73660000Y-86360000D03*
G04 #@! TO.P,IC9,13,I*
G04 #@! TO.N,0*
X71120000Y-86360000D03*
G04 #@! TO.P,IC9,14*
G04 #@! TO.N,VCC*
X68580000Y-86360000D03*
G04 #@! TD*
D12*
G04 #@! TO.P,U1,1,A14*
G04 #@! TO.N,Net-(IC1-Pad18)*
X116840000Y-91440000D03*
D13*
G04 #@! TO.P,U1,2,A12*
G04 #@! TO.N,Net-(IC1-Pad17)*
X119380000Y-91440000D03*
G04 #@! TO.P,U1,3,A7*
G04 #@! TO.N,Net-(IC1-Pad16)*
X121920000Y-91440000D03*
G04 #@! TO.P,U1,4,A6*
G04 #@! TO.N,Net-(IC1-Pad15)*
X124460000Y-91440000D03*
G04 #@! TO.P,U1,5,A5*
G04 #@! TO.N,Net-(IC1-Pad14)*
X127000000Y-91440000D03*
G04 #@! TO.P,U1,6,A4*
G04 #@! TO.N,Net-(IC1-Pad13)*
X129540000Y-91440000D03*
G04 #@! TO.P,U1,7,A3*
G04 #@! TO.N,Net-(IC1-Pad12)*
X132080000Y-91440000D03*
G04 #@! TO.P,U1,8,A2*
G04 #@! TO.N,Net-(IC1-Pad11)*
X134620000Y-91440000D03*
G04 #@! TO.P,U1,9,A1*
G04 #@! TO.N,Net-(IC1-Pad10)*
X137160000Y-91440000D03*
G04 #@! TO.P,U1,10,A0*
G04 #@! TO.N,Net-(IC1-Pad9)*
X139700000Y-91440000D03*
G04 #@! TO.P,U1,11,Q0*
G04 #@! TO.N,Net-(IC1-Pad33)*
X142240000Y-91440000D03*
G04 #@! TO.P,U1,12,Q1*
G04 #@! TO.N,Net-(IC1-Pad31)*
X144780000Y-91440000D03*
G04 #@! TO.P,U1,13,Q2*
G04 #@! TO.N,Net-(IC1-Pad29)*
X147320000Y-91440000D03*
G04 #@! TO.P,U1,14,GND*
G04 #@! TO.N,0*
X149860000Y-91440000D03*
G04 #@! TO.P,U1,15,Q3*
G04 #@! TO.N,unconnected-(U1-Pad15)*
X149860000Y-76200000D03*
G04 #@! TO.P,U1,16,Q4*
G04 #@! TO.N,unconnected-(U1-Pad16)*
X147320000Y-76200000D03*
G04 #@! TO.P,U1,17,Q5*
G04 #@! TO.N,unconnected-(U1-Pad17)*
X144780000Y-76200000D03*
G04 #@! TO.P,U1,18,Q6*
G04 #@! TO.N,unconnected-(U1-Pad18)*
X142240000Y-76200000D03*
G04 #@! TO.P,U1,19,Q7*
G04 #@! TO.N,unconnected-(U1-Pad19)*
X139700000Y-76200000D03*
G04 #@! TO.P,U1,20,~{CS}*
G04 #@! TO.N,Net-(IC3-Pad4)*
X137160000Y-76200000D03*
G04 #@! TO.P,U1,21,A10*
G04 #@! TO.N,Net-(IC1-Pad19)*
X134620000Y-76200000D03*
G04 #@! TO.P,U1,22,~{OE}*
G04 #@! TO.N,Net-(IC3-Pad8)*
X132080000Y-76200000D03*
G04 #@! TO.P,U1,23,A11*
G04 #@! TO.N,Net-(IC1-Pad20)*
X129540000Y-76200000D03*
G04 #@! TO.P,U1,24,A9*
G04 #@! TO.N,Net-(IC1-Pad22)*
X127000000Y-76200000D03*
G04 #@! TO.P,U1,25,A8*
G04 #@! TO.N,Net-(IC1-Pad23)*
X124460000Y-76200000D03*
G04 #@! TO.P,U1,26,A13*
G04 #@! TO.N,Net-(IC1-Pad25)*
X121920000Y-76200000D03*
G04 #@! TO.P,U1,27,~{WE}*
G04 #@! TO.N,Net-(IC3-Pad11)*
X119380000Y-76200000D03*
G04 #@! TO.P,U1,28,VCC*
G04 #@! TO.N,VCC*
X116840000Y-76200000D03*
G04 #@! TD*
D10*
G04 #@! TO.P,SW3,1,1*
G04 #@! TO.N,VCC*
X134620000Y-176530000D03*
G04 #@! TO.P,SW3,2,2*
X137160000Y-176530000D03*
G04 #@! TO.P,SW3,3,3*
X139700000Y-176530000D03*
G04 #@! TO.P,SW3,4,4*
X142240000Y-176530000D03*
G04 #@! TO.P,SW3,5,5*
X144780000Y-176530000D03*
G04 #@! TO.P,SW3,6,6*
X147320000Y-176530000D03*
G04 #@! TO.P,SW3,7,7*
X149860000Y-176530000D03*
G04 #@! TO.P,SW3,8,8*
X152400000Y-176530000D03*
G04 #@! TO.P,SW3,9,9*
G04 #@! TO.N,Net-(R24-Pad1)*
X152400000Y-168910000D03*
G04 #@! TO.P,SW3,10,10*
G04 #@! TO.N,Net-(R23-Pad1)*
X149860000Y-168910000D03*
G04 #@! TO.P,SW3,11,11*
G04 #@! TO.N,Net-(R22-Pad1)*
X147320000Y-168910000D03*
G04 #@! TO.P,SW3,12,12*
G04 #@! TO.N,Net-(R21-Pad1)*
X144780000Y-168910000D03*
G04 #@! TO.P,SW3,13,13*
G04 #@! TO.N,Net-(R20-Pad1)*
X142240000Y-168910000D03*
G04 #@! TO.P,SW3,14,14*
G04 #@! TO.N,Net-(IC14-Pad4)*
X139700000Y-168910000D03*
G04 #@! TO.P,SW3,15,15*
G04 #@! TO.N,Net-(IC14-Pad6)*
X137160000Y-168910000D03*
G04 #@! TO.P,SW3,16,16*
G04 #@! TO.N,Net-(IC14-Pad8)*
X134620000Y-168910000D03*
G04 #@! TD*
D14*
G04 #@! TO.P,S1,A1,NC_1*
G04 #@! TO.N,unconnected-(S1-PadA1)*
X117380000Y-174945000D03*
G04 #@! TO.P,S1,A2,NO_1*
G04 #@! TO.N,Net-(IC10-Pad2)*
X121380000Y-174945000D03*
G04 #@! TO.P,S1,B1,NC_2*
G04 #@! TO.N,unconnected-(S1-PadB1)*
X117380000Y-169945000D03*
G04 #@! TO.P,S1,B2,NO_2*
G04 #@! TO.N,unconnected-(S1-PadB2)*
X121380000Y-169945000D03*
G04 #@! TO.P,S1,C1,COM_1*
G04 #@! TO.N,0*
X119380000Y-174945000D03*
G04 #@! TO.P,S1,C2,COM_2*
G04 #@! TO.N,unconnected-(S1-PadC2)*
X119380000Y-169945000D03*
G04 #@! TD*
D15*
G04 #@! TO.P,IC10,1,GND*
G04 #@! TO.N,0*
X91440000Y-171450000D03*
G04 #@! TO.P,IC10,2,TR*
G04 #@! TO.N,Net-(IC10-Pad2)*
X93980000Y-171450000D03*
G04 #@! TO.P,IC10,3,Q*
G04 #@! TO.N,Net-(IC10-Pad3)*
X96520000Y-171450000D03*
G04 #@! TO.P,IC10,4,R*
G04 #@! TO.N,VCC*
X99060000Y-171450000D03*
G04 #@! TO.P,IC10,5,CV*
G04 #@! TO.N,Net-(C6-Pad2)*
X99060000Y-163830000D03*
G04 #@! TO.P,IC10,6,THR*
G04 #@! TO.N,Net-(C5-Pad2)*
X96520000Y-163830000D03*
G04 #@! TO.P,IC10,7,DIS*
X93980000Y-163830000D03*
G04 #@! TO.P,IC10,8,V+*
G04 #@! TO.N,VCC*
X91440000Y-163830000D03*
G04 #@! TD*
G04 #@! TO.P,IC6,1,GND*
G04 #@! TO.N,0*
X69850000Y-171450000D03*
G04 #@! TO.P,IC6,2,TR*
G04 #@! TO.N,Net-(IC6-Pad2)*
X72390000Y-171450000D03*
G04 #@! TO.P,IC6,3,Q*
G04 #@! TO.N,Net-(IC6-Pad3)*
X74930000Y-171450000D03*
G04 #@! TO.P,IC6,4,R*
G04 #@! TO.N,VCC*
X77470000Y-171450000D03*
G04 #@! TO.P,IC6,5,CV*
G04 #@! TO.N,Net-(C3-Pad2)*
X77470000Y-163830000D03*
G04 #@! TO.P,IC6,6,THR*
G04 #@! TO.N,Net-(C4-Pad2)*
X74930000Y-163830000D03*
G04 #@! TO.P,IC6,7,DIS*
X72390000Y-163830000D03*
G04 #@! TO.P,IC6,8,V+*
G04 #@! TO.N,VCC*
X69850000Y-163830000D03*
G04 #@! TD*
G04 #@! TO.P,IC7,1,GND*
G04 #@! TO.N,0*
X46990000Y-171450000D03*
G04 #@! TO.P,IC7,2,TR*
G04 #@! TO.N,Net-(C2-Pad2)*
X49530000Y-171450000D03*
G04 #@! TO.P,IC7,3,Q*
G04 #@! TO.N,Net-(IC7-Pad3)*
X52070000Y-171450000D03*
G04 #@! TO.P,IC7,4,R*
G04 #@! TO.N,VCC*
X54610000Y-171450000D03*
G04 #@! TO.P,IC7,5,CV*
G04 #@! TO.N,Net-(C1-Pad2)*
X54610000Y-163830000D03*
G04 #@! TO.P,IC7,6,THR*
G04 #@! TO.N,Net-(C2-Pad2)*
X52070000Y-163830000D03*
G04 #@! TO.P,IC7,7,DIS*
G04 #@! TO.N,Net-(IC7-Pad7)*
X49530000Y-163830000D03*
G04 #@! TO.P,IC7,8,V+*
G04 #@! TO.N,VCC*
X46990000Y-163830000D03*
G04 #@! TD*
D10*
G04 #@! TO.P,SW2,1,1*
G04 #@! TO.N,VCC*
X134620000Y-157734000D03*
G04 #@! TO.P,SW2,2,2*
X137160000Y-157734000D03*
G04 #@! TO.P,SW2,3,3*
X139700000Y-157734000D03*
G04 #@! TO.P,SW2,4,4*
X142240000Y-157734000D03*
G04 #@! TO.P,SW2,5,5*
X144780000Y-157734000D03*
G04 #@! TO.P,SW2,6,6*
X147320000Y-157734000D03*
G04 #@! TO.P,SW2,7,7*
X149860000Y-157734000D03*
G04 #@! TO.P,SW2,8,8*
X152400000Y-157734000D03*
G04 #@! TO.P,SW2,9,9*
G04 #@! TO.N,Net-(IC12-Pad9)*
X152400000Y-150114000D03*
G04 #@! TO.P,SW2,10,10*
G04 #@! TO.N,Net-(IC12-Pad8)*
X149860000Y-150114000D03*
G04 #@! TO.P,SW2,11,11*
G04 #@! TO.N,Net-(IC12-Pad7)*
X147320000Y-150114000D03*
G04 #@! TO.P,SW2,12,12*
G04 #@! TO.N,Net-(IC12-Pad6)*
X144780000Y-150114000D03*
G04 #@! TO.P,SW2,13,13*
G04 #@! TO.N,Net-(IC12-Pad5)*
X142240000Y-150114000D03*
G04 #@! TO.P,SW2,14,14*
G04 #@! TO.N,Net-(IC12-Pad4)*
X139700000Y-150114000D03*
G04 #@! TO.P,SW2,15,15*
G04 #@! TO.N,Net-(IC12-Pad3)*
X137160000Y-150114000D03*
G04 #@! TO.P,SW2,16,16*
G04 #@! TO.N,Net-(IC12-Pad2)*
X134620000Y-150114000D03*
G04 #@! TD*
D16*
G04 #@! TO.P,S4,1,1*
G04 #@! TO.N,Net-(QG1-Pad5)*
X86360000Y-146876000D03*
G04 #@! TO.P,S4,2,2*
G04 #@! TO.N,Net-(IC3-Pad2)*
X86360000Y-150876000D03*
G04 #@! TO.P,S4,3,3*
G04 #@! TO.N,Net-(IC7-Pad3)*
X86360000Y-152876000D03*
G04 #@! TO.P,S4,4,4*
G04 #@! TO.N,Net-(IC6-Pad3)*
X86360000Y-154876000D03*
D17*
G04 #@! TO.P,S4,5,5*
G04 #@! TO.N,0*
X86360000Y-144776000D03*
G04 #@! TO.P,S4,6,6*
X86360000Y-156976000D03*
G04 #@! TD*
D14*
G04 #@! TO.P,S3,A1,NC_1*
G04 #@! TO.N,unconnected-(S3-PadA1)*
X109220000Y-33020000D03*
G04 #@! TO.P,S3,A2,NO_1*
G04 #@! TO.N,0*
X113220000Y-33020000D03*
G04 #@! TO.P,S3,B1,NC_2*
G04 #@! TO.N,unconnected-(S3-PadB1)*
X109220000Y-28020000D03*
G04 #@! TO.P,S3,B2,NO_2*
G04 #@! TO.N,unconnected-(S3-PadB2)*
X113220000Y-28020000D03*
G04 #@! TO.P,S3,C1,COM_1*
G04 #@! TO.N,Net-(IC1-Pad40)*
X111220000Y-33020000D03*
G04 #@! TO.P,S3,C2,COM_2*
G04 #@! TO.N,unconnected-(S3-PadC2)*
X111220000Y-28020000D03*
G04 #@! TD*
D10*
G04 #@! TO.P,IC11,1,DIR*
G04 #@! TO.N,VCC*
X40640000Y-132080000D03*
G04 #@! TO.P,IC11,2,A1*
G04 #@! TO.N,Net-(IC11-Pad2)*
X43180000Y-132080000D03*
G04 #@! TO.P,IC11,3,A2*
G04 #@! TO.N,Net-(IC11-Pad3)*
X45720000Y-132080000D03*
G04 #@! TO.P,IC11,4,A3*
G04 #@! TO.N,Net-(IC11-Pad4)*
X48260000Y-132080000D03*
G04 #@! TO.P,IC11,5,A4*
G04 #@! TO.N,Net-(IC11-Pad5)*
X50800000Y-132080000D03*
G04 #@! TO.P,IC11,6,A5*
G04 #@! TO.N,Net-(IC11-Pad6)*
X53340000Y-132080000D03*
G04 #@! TO.P,IC11,7,A6*
G04 #@! TO.N,Net-(IC11-Pad7)*
X55880000Y-132080000D03*
G04 #@! TO.P,IC11,8,A7*
G04 #@! TO.N,Net-(IC11-Pad8)*
X58420000Y-132080000D03*
G04 #@! TO.P,IC11,9,A8*
G04 #@! TO.N,Net-(IC11-Pad9)*
X60960000Y-132080000D03*
G04 #@! TO.P,IC11,10*
G04 #@! TO.N,0*
X63500000Y-132080000D03*
G04 #@! TO.P,IC11,11,B8*
G04 #@! TO.N,Net-(IC1-Pad17)*
X63500000Y-124460000D03*
G04 #@! TO.P,IC11,12,B7*
G04 #@! TO.N,Net-(IC1-Pad18)*
X60960000Y-124460000D03*
G04 #@! TO.P,IC11,13,B6*
G04 #@! TO.N,Net-(IC1-Pad19)*
X58420000Y-124460000D03*
G04 #@! TO.P,IC11,14,B5*
G04 #@! TO.N,Net-(IC1-Pad20)*
X55880000Y-124460000D03*
G04 #@! TO.P,IC11,15,B4*
G04 #@! TO.N,Net-(IC1-Pad22)*
X53340000Y-124460000D03*
G04 #@! TO.P,IC11,16,B3*
G04 #@! TO.N,Net-(IC1-Pad23)*
X50800000Y-124460000D03*
G04 #@! TO.P,IC11,17,B2*
G04 #@! TO.N,Net-(IC1-Pad24)*
X48260000Y-124460000D03*
G04 #@! TO.P,IC11,18,B1*
G04 #@! TO.N,Net-(IC1-Pad25)*
X45720000Y-124460000D03*
G04 #@! TO.P,IC11,19,G*
G04 #@! TO.N,Net-(IC1-Pad36)*
X43180000Y-124460000D03*
G04 #@! TO.P,IC11,20*
G04 #@! TO.N,VCC*
X40640000Y-124460000D03*
G04 #@! TD*
G04 #@! TO.P,SW4,1,1*
G04 #@! TO.N,VCC*
X97536000Y-156718000D03*
G04 #@! TO.P,SW4,2,2*
G04 #@! TO.N,Net-(IC1-Pad36)*
X97536000Y-149098000D03*
G04 #@! TD*
G04 #@! TO.P,IC12,1,DIR*
G04 #@! TO.N,VCC*
X71120000Y-132080000D03*
G04 #@! TO.P,IC12,2,A1*
G04 #@! TO.N,Net-(IC12-Pad2)*
X73660000Y-132080000D03*
G04 #@! TO.P,IC12,3,A2*
G04 #@! TO.N,Net-(IC12-Pad3)*
X76200000Y-132080000D03*
G04 #@! TO.P,IC12,4,A3*
G04 #@! TO.N,Net-(IC12-Pad4)*
X78740000Y-132080000D03*
G04 #@! TO.P,IC12,5,A4*
G04 #@! TO.N,Net-(IC12-Pad5)*
X81280000Y-132080000D03*
G04 #@! TO.P,IC12,6,A5*
G04 #@! TO.N,Net-(IC12-Pad6)*
X83820000Y-132080000D03*
G04 #@! TO.P,IC12,7,A6*
G04 #@! TO.N,Net-(IC12-Pad7)*
X86360000Y-132080000D03*
G04 #@! TO.P,IC12,8,A7*
G04 #@! TO.N,Net-(IC12-Pad8)*
X88900000Y-132080000D03*
G04 #@! TO.P,IC12,9,A8*
G04 #@! TO.N,Net-(IC12-Pad9)*
X91440000Y-132080000D03*
G04 #@! TO.P,IC12,10*
G04 #@! TO.N,0*
X93980000Y-132080000D03*
G04 #@! TO.P,IC12,11,B8*
G04 #@! TO.N,Net-(IC1-Pad9)*
X93980000Y-124460000D03*
G04 #@! TO.P,IC12,12,B7*
G04 #@! TO.N,Net-(IC1-Pad10)*
X91440000Y-124460000D03*
G04 #@! TO.P,IC12,13,B6*
G04 #@! TO.N,Net-(IC1-Pad11)*
X88900000Y-124460000D03*
G04 #@! TO.P,IC12,14,B5*
G04 #@! TO.N,Net-(IC1-Pad12)*
X86360000Y-124460000D03*
G04 #@! TO.P,IC12,15,B4*
G04 #@! TO.N,Net-(IC1-Pad13)*
X83820000Y-124460000D03*
G04 #@! TO.P,IC12,16,B3*
G04 #@! TO.N,Net-(IC1-Pad14)*
X81280000Y-124460000D03*
G04 #@! TO.P,IC12,17,B2*
G04 #@! TO.N,Net-(IC1-Pad15)*
X78740000Y-124460000D03*
G04 #@! TO.P,IC12,18,B1*
G04 #@! TO.N,Net-(IC1-Pad16)*
X76200000Y-124460000D03*
G04 #@! TO.P,IC12,19,G*
G04 #@! TO.N,Net-(IC1-Pad36)*
X73660000Y-124460000D03*
G04 #@! TO.P,IC12,20*
G04 #@! TO.N,VCC*
X71120000Y-124460000D03*
G04 #@! TD*
D14*
G04 #@! TO.P,S5,A1,NC_1*
G04 #@! TO.N,unconnected-(S5-PadA1)*
X62770000Y-152400000D03*
G04 #@! TO.P,S5,A2,NO_1*
G04 #@! TO.N,unconnected-(S5-PadA2)*
X66770000Y-152400000D03*
G04 #@! TO.P,S5,B1,NC_2*
G04 #@! TO.N,unconnected-(S5-PadB1)*
X62770000Y-147400000D03*
G04 #@! TO.P,S5,B2,NO_2*
G04 #@! TO.N,0*
X66770000Y-147400000D03*
G04 #@! TO.P,S5,C1,COM_1*
G04 #@! TO.N,unconnected-(S5-PadC1)*
X64770000Y-152400000D03*
G04 #@! TO.P,S5,C2,COM_2*
G04 #@! TO.N,Net-(IC6-Pad2)*
X64770000Y-147400000D03*
G04 #@! TD*
D18*
G04 #@! TO.P,R60,1,1*
G04 #@! TO.N,unconnected-(R60-Pad1)*
X44490000Y-155460000D03*
G04 #@! TO.P,R60,2,2*
G04 #@! TO.N,Net-(R60-Pad2)*
X46990000Y-155460000D03*
G04 #@! TO.P,R60,3,3*
G04 #@! TO.N,Net-(C2-Pad2)*
X49490000Y-155460000D03*
D19*
G04 #@! TO.P,R60,4,MH1*
G04 #@! TO.N,0*
X42590000Y-148460000D03*
G04 #@! TO.P,R60,5,MH2*
X51390000Y-148460000D03*
G04 #@! TD*
D10*
G04 #@! TO.P,SW1,1,1*
G04 #@! TO.N,VCC*
X111760000Y-157734000D03*
G04 #@! TO.P,SW1,2,2*
X114300000Y-157734000D03*
G04 #@! TO.P,SW1,3,3*
X116840000Y-157734000D03*
G04 #@! TO.P,SW1,4,4*
X119380000Y-157734000D03*
G04 #@! TO.P,SW1,5,5*
X121920000Y-157734000D03*
G04 #@! TO.P,SW1,6,6*
X124460000Y-157734000D03*
G04 #@! TO.P,SW1,7,7*
X127000000Y-157734000D03*
G04 #@! TO.P,SW1,8,8*
X129540000Y-157734000D03*
G04 #@! TO.P,SW1,9,9*
G04 #@! TO.N,Net-(IC11-Pad9)*
X129540000Y-150114000D03*
G04 #@! TO.P,SW1,10,10*
G04 #@! TO.N,Net-(IC11-Pad8)*
X127000000Y-150114000D03*
G04 #@! TO.P,SW1,11,11*
G04 #@! TO.N,Net-(IC11-Pad7)*
X124460000Y-150114000D03*
G04 #@! TO.P,SW1,12,12*
G04 #@! TO.N,Net-(IC11-Pad6)*
X121920000Y-150114000D03*
G04 #@! TO.P,SW1,13,13*
G04 #@! TO.N,Net-(IC11-Pad5)*
X119380000Y-150114000D03*
G04 #@! TO.P,SW1,14,14*
G04 #@! TO.N,Net-(IC11-Pad4)*
X116840000Y-150114000D03*
G04 #@! TO.P,SW1,15,15*
G04 #@! TO.N,Net-(IC11-Pad3)*
X114300000Y-150114000D03*
G04 #@! TO.P,SW1,16,16*
G04 #@! TO.N,Net-(IC11-Pad2)*
X111760000Y-150114000D03*
G04 #@! TD*
D20*
G04 #@! TO.N,VCC*
X116840000Y-80264000D03*
G04 #@! TO.N,Net-(IC4-Pad8)*
X148082000Y-117856000D03*
X112522000Y-88900000D03*
G04 #@! TO.N,VCC*
X55814000Y-55560000D03*
X69850000Y-48768000D03*
G04 #@! TO.N,0*
X61468000Y-79502000D03*
X64770000Y-74422000D03*
X104902000Y-108712000D03*
X64770000Y-94742000D03*
G04 #@! TO.N,Net-(IC3-Pad8)*
X121666000Y-81026000D03*
G04 #@! TO.N,Net-(IC3-Pad4)*
X51816000Y-90170000D03*
G04 #@! TO.N,VCC*
X65408000Y-124330000D03*
G04 #@! TO.N,Net-(IC14-Pad15)*
X52324000Y-43180000D03*
G04 #@! TO.N,Net-(IC1-Pad11)*
X130810000Y-88646000D03*
G04 #@! TO.N,Net-(IC1-Pad19)*
X151130000Y-81026000D03*
G04 #@! TO.N,Net-(IC1-Pad17)*
X146050000Y-81280000D03*
G04 #@! TO.N,Net-(IC1-Pad18)*
X148590000Y-80264000D03*
G04 #@! TO.N,0*
X46736000Y-108778000D03*
X50546000Y-108748000D03*
X130302000Y-143002000D03*
X140716000Y-108712000D03*
X123190000Y-143002000D03*
X118110000Y-143002000D03*
X61976000Y-108748000D03*
X121666000Y-108712000D03*
X143510000Y-143068000D03*
X81026000Y-108778000D03*
X151130000Y-143068000D03*
X65786000Y-108748000D03*
X54356000Y-108748000D03*
X146050000Y-143068000D03*
X135890000Y-143068000D03*
X133350000Y-143068000D03*
X120650000Y-143002000D03*
X100076000Y-108778000D03*
X113030000Y-143002000D03*
X110490000Y-143002000D03*
X140970000Y-143068000D03*
X88646000Y-108778000D03*
X96266000Y-108778000D03*
X129286000Y-108712000D03*
X69596000Y-108778000D03*
X92456000Y-108778000D03*
X115570000Y-143002000D03*
X128270000Y-143002000D03*
X42926000Y-108808000D03*
X77216000Y-108778000D03*
X117856000Y-108712000D03*
X138430000Y-143068000D03*
X153416000Y-143002000D03*
X133096000Y-108712000D03*
X125730000Y-143002000D03*
X73406000Y-108778000D03*
X125476000Y-108712000D03*
X136906000Y-108712000D03*
X148590000Y-143068000D03*
X58166000Y-108748000D03*
X144526000Y-108712000D03*
X84836000Y-108778000D03*
G04 #@! TO.N,Net-(C4-Pad2)*
X63500000Y-171704000D03*
G04 #@! TO.N,Net-(C7-Pad2)*
X50800000Y-52324000D03*
X57150000Y-45466000D03*
G04 #@! TO.N,Net-(IC1-Pad9)*
X125730000Y-84328000D03*
G04 #@! TO.N,Net-(IC1-Pad10)*
X128270000Y-86360000D03*
G04 #@! TO.N,Net-(IC1-Pad13)*
X135890000Y-87376000D03*
G04 #@! TO.N,Net-(IC1-Pad14)*
X138430000Y-85344000D03*
G04 #@! TO.N,Net-(IC1-Pad15)*
X140970000Y-83312000D03*
G04 #@! TO.N,Net-(IC1-Pad16)*
X143510000Y-82296000D03*
G04 #@! TO.N,Net-(IC14-Pad11)*
X40640000Y-38354000D03*
X48514000Y-44450000D03*
G04 #@! TO.N,Net-(IC14-Pad13)*
X55626000Y-44450000D03*
X46990000Y-38354000D03*
G04 #@! TO.N,Net-(IC15-Pad18)*
X57404000Y-41402000D03*
G04 #@! TO.N,Net-(IC15-Pad19)*
X57150000Y-46990000D03*
G04 #@! TO.N,Net-(IC16-Pad3)*
X44958000Y-50292000D03*
X44958000Y-46482000D03*
G04 #@! TO.N,Net-(IC16-Pad13)*
X58674000Y-50038000D03*
X54610000Y-38354000D03*
G04 #@! TO.N,Net-(IC16-Pad14)*
X59944000Y-48514000D03*
X61722000Y-40808900D03*
G04 #@! TD*
D21*
G04 #@! TO.N,Net-(IC6-Pad3)*
X74930000Y-171450000D02*
X74930000Y-167386000D01*
X82042000Y-154940000D02*
X86296000Y-154940000D01*
X75946000Y-166370000D02*
X80264000Y-166370000D01*
X81280000Y-165354000D02*
X81280000Y-155702000D01*
X74930000Y-167386000D02*
X75946000Y-166370000D01*
X80264000Y-166370000D02*
X81280000Y-165354000D01*
X81280000Y-155702000D02*
X82042000Y-154940000D01*
X86296000Y-154940000D02*
X86360000Y-154876000D01*
G04 #@! TO.N,0*
X63500000Y-132080000D02*
X63500000Y-135890000D01*
X66802000Y-139192000D02*
X66770000Y-139224000D01*
X63500000Y-135890000D02*
X66802000Y-139192000D01*
X66770000Y-139224000D02*
X66770000Y-147400000D01*
G04 #@! TO.N,Net-(IC10-Pad3)*
X46990000Y-125730000D02*
X46228000Y-126492000D01*
X93726000Y-167386000D02*
X92710000Y-166370000D01*
X40894000Y-74676000D02*
X41656000Y-73914000D01*
X92710000Y-166370000D02*
X92710000Y-150114000D01*
X92710000Y-150114000D02*
X91948000Y-149352000D01*
X44450000Y-74676000D02*
X44450000Y-83312000D01*
X46228000Y-126492000D02*
X42672000Y-126492000D01*
X91948000Y-149352000D02*
X83820000Y-149352000D01*
X95504000Y-167386000D02*
X93726000Y-167386000D01*
X68326000Y-121412000D02*
X48006000Y-121412000D01*
X69342000Y-122428000D02*
X68326000Y-121412000D01*
X83820000Y-149352000D02*
X69342000Y-134874000D01*
X96520000Y-171450000D02*
X96520000Y-168402000D01*
X41656000Y-73914000D02*
X43688000Y-73914000D01*
X41910000Y-121920000D02*
X40237600Y-120247600D01*
X69342000Y-134874000D02*
X69342000Y-122428000D01*
X96520000Y-168402000D02*
X95504000Y-167386000D01*
X48006000Y-121412000D02*
X46990000Y-122428000D01*
X42672000Y-126492000D02*
X41910000Y-125730000D01*
X41910000Y-125730000D02*
X41910000Y-121920000D01*
X40237600Y-120247600D02*
X40237600Y-108291320D01*
X40237600Y-108291320D02*
X40894000Y-107634920D01*
X40894000Y-107634920D02*
X40894000Y-74676000D01*
X46990000Y-122428000D02*
X46990000Y-125730000D01*
X43688000Y-73914000D02*
X44450000Y-74676000D01*
X44450000Y-83312000D02*
X45212000Y-84074000D01*
X45212000Y-84074000D02*
X46736000Y-84074000D01*
G04 #@! TO.N,Net-(IC14-Pad2)*
X104140000Y-132080000D02*
X104140000Y-157988000D01*
X73660000Y-120396000D02*
X42418000Y-120396000D01*
X41402000Y-108458000D02*
X44450000Y-105410000D01*
X103378000Y-158750000D02*
X95392270Y-158750000D01*
X95392270Y-158750000D02*
X93218000Y-156575730D01*
X84074000Y-148844000D02*
X74930000Y-139700000D01*
X93218000Y-156575730D02*
X93218000Y-149606000D01*
X104140000Y-157988000D02*
X103378000Y-158750000D01*
X93218000Y-149606000D02*
X92456000Y-148844000D01*
X92456000Y-148844000D02*
X84074000Y-148844000D01*
X74930000Y-139700000D02*
X74930000Y-121666000D01*
X74930000Y-121666000D02*
X73660000Y-120396000D01*
X42418000Y-120396000D02*
X41402000Y-119380000D01*
X41402000Y-119380000D02*
X41402000Y-108458000D01*
X44450000Y-91186000D02*
X45720000Y-89916000D01*
X44450000Y-105410000D02*
X44450000Y-91186000D01*
X45720000Y-89916000D02*
X46990000Y-89916000D01*
X46990000Y-89916000D02*
X48260000Y-88646000D01*
X48260000Y-88646000D02*
X48260000Y-86360000D01*
G04 #@! TO.N,Net-(IC1-Pad36)*
X44958000Y-120904000D02*
X44069000Y-120904000D01*
X44069000Y-120904000D02*
X43180000Y-121793000D01*
X43180000Y-121793000D02*
X43180000Y-124460000D01*
X72390000Y-120904000D02*
X44958000Y-120904000D01*
X41656000Y-120904000D02*
X44958000Y-120904000D01*
X40640000Y-119888000D02*
X41656000Y-120904000D01*
X73660000Y-124460000D02*
X73660000Y-122174000D01*
X73660000Y-122174000D02*
X72390000Y-120904000D01*
G04 #@! TO.N,Net-(IC1-Pad34)*
X106680000Y-124460000D02*
X106680000Y-125476000D01*
X42248600Y-108204000D02*
X42248600Y-108180480D01*
X103378000Y-128778000D02*
X100330000Y-128778000D01*
X106680000Y-125476000D02*
X103378000Y-128778000D01*
X100330000Y-128778000D02*
X99314000Y-129794000D01*
X99314000Y-129794000D02*
X99314000Y-144272000D01*
X50800000Y-88646000D02*
X50800000Y-86360000D01*
X99314000Y-144272000D02*
X95250000Y-148336000D01*
X95250000Y-148336000D02*
X84328000Y-148336000D01*
X76200000Y-119888000D02*
X42672000Y-119888000D01*
X84328000Y-148336000D02*
X77470000Y-141478000D01*
X77470000Y-141478000D02*
X77470000Y-121158000D01*
X77470000Y-121158000D02*
X76200000Y-119888000D01*
X41910000Y-119126000D02*
X41910000Y-108542600D01*
X42248600Y-108180480D02*
X46990000Y-103439080D01*
X42672000Y-119888000D02*
X41910000Y-119126000D01*
X41910000Y-108542600D02*
X42248600Y-108204000D01*
X46990000Y-103439080D02*
X46990000Y-92456000D01*
X46990000Y-92456000D02*
X50800000Y-88646000D01*
G04 #@! TO.N,Net-(IC7-Pad3)*
X52070000Y-171450000D02*
X52070000Y-170053000D01*
X52070000Y-170053000D02*
X53213000Y-168910000D01*
X86328000Y-152908000D02*
X86360000Y-152876000D01*
X53213000Y-168910000D02*
X65024000Y-168910000D01*
X65024000Y-168910000D02*
X68326000Y-165608000D01*
X70612000Y-152908000D02*
X86328000Y-152908000D01*
X68326000Y-165608000D02*
X68326000Y-155194000D01*
X68326000Y-155194000D02*
X70612000Y-152908000D01*
G04 #@! TO.N,Net-(C4-Pad2)*
X72390000Y-167132000D02*
X72390000Y-163830000D01*
X67056000Y-168148000D02*
X71374000Y-168148000D01*
X71374000Y-168148000D02*
X72390000Y-167132000D01*
X63500000Y-171704000D02*
X67056000Y-168148000D01*
G04 #@! TO.N,Net-(QG1-Pad5)*
X86360000Y-146876000D02*
X86424000Y-146812000D01*
X95631000Y-145669000D02*
X95631000Y-124841000D01*
X102362000Y-89408000D02*
X105410000Y-86360000D01*
X95631000Y-124841000D02*
X102362000Y-118110000D01*
X86424000Y-146812000D02*
X94488000Y-146812000D01*
X94488000Y-146812000D02*
X95631000Y-145669000D01*
X102362000Y-118110000D02*
X102362000Y-89408000D01*
G04 #@! TO.N,Net-(IC1-Pad33)*
X123190000Y-44450000D02*
X123190000Y-50546000D01*
X123190000Y-50546000D02*
X121920000Y-51816000D01*
X121920000Y-51816000D02*
X114808000Y-51816000D01*
X114808000Y-51816000D02*
X113030000Y-53594000D01*
X113030000Y-53594000D02*
X92202000Y-53594000D01*
X92202000Y-53594000D02*
X91440000Y-52832000D01*
X91440000Y-52832000D02*
X91440000Y-51816000D01*
G04 #@! TO.N,Net-(IC1-Pad32)*
X125730000Y-44450000D02*
X125730000Y-51054000D01*
X89662000Y-54102000D02*
X88900000Y-53340000D01*
X125730000Y-51054000D02*
X124460000Y-52324000D01*
X113284000Y-54102000D02*
X89662000Y-54102000D01*
X124460000Y-52324000D02*
X115062000Y-52324000D01*
X88900000Y-53340000D02*
X88900000Y-51816000D01*
X115062000Y-52324000D02*
X113284000Y-54102000D01*
G04 #@! TO.N,Net-(IC1-Pad31)*
X128270000Y-51816000D02*
X127254000Y-52832000D01*
X127254000Y-52832000D02*
X115316000Y-52832000D01*
X115316000Y-52832000D02*
X113538000Y-54610000D01*
X128270000Y-44450000D02*
X128270000Y-51816000D01*
X87122000Y-54610000D02*
X86360000Y-53848000D01*
X113538000Y-54610000D02*
X87122000Y-54610000D01*
X86360000Y-53848000D02*
X86360000Y-51816000D01*
G04 #@! TO.N,Net-(IC1-Pad30)*
X130810000Y-52324000D02*
X129794000Y-53340000D01*
X83820000Y-54356000D02*
X83820000Y-51816000D01*
X129794000Y-53340000D02*
X115570000Y-53340000D01*
X84582000Y-55118000D02*
X83820000Y-54356000D01*
X115570000Y-53340000D02*
X113792000Y-55118000D01*
X113792000Y-55118000D02*
X84582000Y-55118000D01*
X130810000Y-44450000D02*
X130810000Y-52324000D01*
G04 #@! TO.N,Net-(IC1-Pad36)*
X99060000Y-76200000D02*
X99060000Y-82296000D01*
X115570000Y-42926000D02*
X115570000Y-44450000D01*
X99060000Y-82296000D02*
X99822000Y-83058000D01*
X121920000Y-83058000D02*
X122682000Y-82296000D01*
X142240000Y-55118000D02*
X142240000Y-43180000D01*
X122682000Y-82296000D02*
X122682000Y-80010000D01*
X117602000Y-55880000D02*
X141478000Y-55880000D01*
X99822000Y-83058000D02*
X121920000Y-83058000D01*
X116332000Y-42164000D02*
X115570000Y-42926000D01*
X119126000Y-79248000D02*
X118364000Y-80010000D01*
X122682000Y-80010000D02*
X121920000Y-79248000D01*
X141478000Y-55880000D02*
X142240000Y-55118000D01*
X118364000Y-80010000D02*
X118364000Y-80772000D01*
X118364000Y-80772000D02*
X117856000Y-81280000D01*
X121920000Y-79248000D02*
X119126000Y-79248000D01*
X117856000Y-81280000D02*
X116332000Y-81280000D01*
X116332000Y-81280000D02*
X115316000Y-80264000D01*
X115316000Y-80264000D02*
X115316000Y-65024000D01*
X115316000Y-65024000D02*
X116840000Y-63500000D01*
X116840000Y-63500000D02*
X116840000Y-56642000D01*
X142240000Y-43180000D02*
X141224000Y-42164000D01*
X116840000Y-56642000D02*
X117602000Y-55880000D01*
X141224000Y-42164000D02*
X116332000Y-42164000D01*
G04 #@! TO.N,0*
X149860000Y-91440000D02*
X154432000Y-91440000D01*
X154432000Y-91440000D02*
X155194000Y-90678000D01*
X155194000Y-90678000D02*
X155194000Y-51816000D01*
X153670000Y-50292000D02*
X153670000Y-44450000D01*
X155194000Y-51816000D02*
X153670000Y-50292000D01*
G04 #@! TO.N,VCC*
X123190000Y-59690000D02*
X123190000Y-66548000D01*
X123190000Y-66548000D02*
X116840000Y-72898000D01*
X116840000Y-72898000D02*
X116840000Y-76200000D01*
G04 #@! TO.N,Net-(IC3-Pad8)*
X121666000Y-81026000D02*
X120650000Y-82042000D01*
X114300000Y-80264000D02*
X114300000Y-58420000D01*
X116078000Y-82042000D02*
X114300000Y-80264000D01*
X120650000Y-82042000D02*
X116078000Y-82042000D01*
X114300000Y-58420000D02*
X113538000Y-57658000D01*
X113538000Y-57658000D02*
X60452000Y-57658000D01*
X60452000Y-57658000D02*
X58420000Y-59690000D01*
X58420000Y-59690000D02*
X58420000Y-68580000D01*
G04 #@! TO.N,Net-(IC1-Pad29)*
X133350000Y-44450000D02*
X133350000Y-52832000D01*
X133350000Y-52832000D02*
X132334000Y-53848000D01*
X115824000Y-53848000D02*
X114046000Y-55626000D01*
X114046000Y-55626000D02*
X82042000Y-55626000D01*
X132334000Y-53848000D02*
X115824000Y-53848000D01*
X82042000Y-55626000D02*
X81280000Y-54864000D01*
X81280000Y-54864000D02*
X81280000Y-51816000D01*
G04 #@! TO.N,Net-(IC1-Pad28)*
X135890000Y-44450000D02*
X135890000Y-53340000D01*
X135890000Y-53340000D02*
X134874000Y-54356000D01*
X134874000Y-54356000D02*
X116078000Y-54356000D01*
X116078000Y-54356000D02*
X114300000Y-56134000D01*
X114300000Y-56134000D02*
X79502000Y-56134000D01*
X79502000Y-56134000D02*
X78740000Y-55372000D01*
X78740000Y-55372000D02*
X78740000Y-51816000D01*
G04 #@! TO.N,Net-(IC1-Pad27)*
X138430000Y-44450000D02*
X138430000Y-53848000D01*
X138430000Y-53848000D02*
X137414000Y-54864000D01*
X114554000Y-56642000D02*
X76962000Y-56642000D01*
X137414000Y-54864000D02*
X116332000Y-54864000D01*
X116332000Y-54864000D02*
X114554000Y-56642000D01*
X76962000Y-56642000D02*
X76200000Y-55880000D01*
X76200000Y-55880000D02*
X76200000Y-51816000D01*
G04 #@! TO.N,Net-(IC1-Pad26)*
X140970000Y-44450000D02*
X140970000Y-54610000D01*
X74422000Y-57150000D02*
X73660000Y-56388000D01*
X140970000Y-54610000D02*
X140208000Y-55372000D01*
X140208000Y-55372000D02*
X116586000Y-55372000D01*
X114808000Y-57150000D02*
X74422000Y-57150000D01*
X116586000Y-55372000D02*
X114808000Y-57150000D01*
X73660000Y-56388000D02*
X73660000Y-51816000D01*
G04 #@! TO.N,Net-(IC1-Pad23)*
X124460000Y-76200000D02*
X124460000Y-57277000D01*
X124460000Y-57277000D02*
X125349000Y-56388000D01*
X125349000Y-56388000D02*
X147828000Y-56388000D01*
X147828000Y-56388000D02*
X148590000Y-55626000D01*
X148590000Y-55626000D02*
X148590000Y-44450000D01*
G04 #@! TO.N,Net-(IC1-Pad22)*
X127000000Y-76200000D02*
X127000000Y-57658000D01*
X127000000Y-57658000D02*
X127762000Y-56896000D01*
X127762000Y-56896000D02*
X150368000Y-56896000D01*
X150368000Y-56896000D02*
X151130000Y-56134000D01*
X151130000Y-56134000D02*
X151130000Y-44450000D01*
G04 #@! TO.N,Net-(IC10-Pad3)*
X46736000Y-84074000D02*
X51054000Y-84074000D01*
X107950000Y-77470000D02*
X107188000Y-78232000D01*
X53086000Y-97536000D02*
X85534500Y-97536000D01*
X107188000Y-78232000D02*
X101092000Y-78232000D01*
X52070000Y-96520000D02*
X53086000Y-97536000D01*
X51054000Y-84074000D02*
X52070000Y-85090000D01*
X52070000Y-85090000D02*
X52070000Y-88392000D01*
X52070000Y-88392000D02*
X50546000Y-89916000D01*
X87376000Y-95694500D02*
X87376000Y-59690000D01*
X50546000Y-89916000D02*
X50546000Y-90932000D01*
X50546000Y-90932000D02*
X52070000Y-92456000D01*
X52070000Y-92456000D02*
X52070000Y-96520000D01*
X87376000Y-59690000D02*
X88392000Y-58674000D01*
X85534500Y-97536000D02*
X87376000Y-95694500D01*
X101092000Y-78232000D02*
X100330000Y-77470000D01*
X88392000Y-58674000D02*
X100076000Y-58674000D01*
X100076000Y-58674000D02*
X107950000Y-66548000D01*
X107950000Y-66548000D02*
X107950000Y-77470000D01*
X100330000Y-77470000D02*
X100330000Y-74676000D01*
X100330000Y-74676000D02*
X99314000Y-73660000D01*
X99314000Y-73660000D02*
X92456000Y-73660000D01*
X92456000Y-73660000D02*
X91440000Y-74676000D01*
X91440000Y-74676000D02*
X91440000Y-76200000D01*
G04 #@! TO.N,Net-(IC3-Pad4)*
X51816000Y-90170000D02*
X53848000Y-90170000D01*
X55626000Y-97028000D02*
X85344000Y-97028000D01*
X85344000Y-70612000D02*
X82296000Y-70612000D01*
X54610000Y-90932000D02*
X54610000Y-96012000D01*
X53848000Y-90170000D02*
X54610000Y-90932000D01*
X54610000Y-96012000D02*
X55626000Y-97028000D01*
X85344000Y-97028000D02*
X86868000Y-95504000D01*
X86868000Y-95504000D02*
X86868000Y-72136000D01*
X86868000Y-72136000D02*
X85344000Y-70612000D01*
G04 #@! TO.N,0*
X76200000Y-86360000D02*
X76200000Y-87884000D01*
X76200000Y-87884000D02*
X77216000Y-88900000D01*
X77216000Y-88900000D02*
X80264000Y-88900000D01*
X80264000Y-88900000D02*
X81280000Y-87884000D01*
X81280000Y-87884000D02*
X81280000Y-86360000D01*
G04 #@! TO.N,VCC*
X69850000Y-48768000D02*
X109474000Y-48768000D01*
X109474000Y-48768000D02*
X110490000Y-47752000D01*
X110490000Y-47752000D02*
X110490000Y-44450000D01*
G04 #@! TO.N,0*
X106934000Y-85598000D02*
X106934000Y-88138000D01*
X100076000Y-85598000D02*
X100838000Y-84836000D01*
X100838000Y-84836000D02*
X106172000Y-84836000D01*
X106172000Y-84836000D02*
X106934000Y-85598000D01*
X100076000Y-108778000D02*
X100076000Y-85598000D01*
X106934000Y-88138000D02*
X105410000Y-89662000D01*
X105410000Y-89662000D02*
X105410000Y-93980000D01*
G04 #@! TO.N,Net-(IC14-Pad19)*
X104140000Y-124460000D02*
X104140000Y-121412000D01*
X104140000Y-121412000D02*
X103378000Y-120650000D01*
X103378000Y-120650000D02*
X103378000Y-99060000D01*
X103378000Y-99060000D02*
X107738801Y-94699199D01*
X107738801Y-94699199D02*
X107738801Y-84624801D01*
X107738801Y-84624801D02*
X106680000Y-83566000D01*
X106680000Y-83566000D02*
X94742000Y-83566000D01*
X93980000Y-82804000D02*
X93980000Y-76200000D01*
X94742000Y-83566000D02*
X93980000Y-82804000D01*
G04 #@! TO.N,Net-(IC1-Pad36)*
X99060000Y-76200000D02*
X99060000Y-74676000D01*
X92710000Y-83312000D02*
X93472000Y-84074000D01*
X103124000Y-126492000D02*
X104648000Y-126492000D01*
X93472000Y-74168000D02*
X92710000Y-74930000D01*
X107336400Y-94339600D02*
X102870000Y-98806000D01*
X107188000Y-122428000D02*
X107950000Y-123190000D01*
X92710000Y-74930000D02*
X92710000Y-83312000D01*
X99060000Y-74676000D02*
X98552000Y-74168000D01*
X98552000Y-74168000D02*
X93472000Y-74168000D01*
X93472000Y-84074000D02*
X106426000Y-84074000D01*
X102870000Y-98806000D02*
X102870000Y-126238000D01*
X106426000Y-84074000D02*
X107336400Y-84984400D01*
X104648000Y-126492000D02*
X105410000Y-125730000D01*
X107336400Y-84984400D02*
X107336400Y-94339600D01*
X105410000Y-125730000D02*
X105410000Y-123190000D01*
X102870000Y-126238000D02*
X103124000Y-126492000D01*
X105410000Y-123190000D02*
X106172000Y-122428000D01*
X106172000Y-122428000D02*
X107188000Y-122428000D01*
X107950000Y-123190000D02*
X107950000Y-127000000D01*
X107950000Y-127000000D02*
X105410000Y-129540000D01*
X105410000Y-129540000D02*
X102616000Y-129540000D01*
X102616000Y-129540000D02*
X101600000Y-130556000D01*
X101600000Y-130556000D02*
X101600000Y-132080000D01*
G04 #@! TO.N,Net-(IC4-Pad5)*
X50800000Y-93980000D02*
X50800000Y-97282000D01*
X50800000Y-97282000D02*
X51562000Y-98044000D01*
X51562000Y-98044000D02*
X85725000Y-98044000D01*
X87884000Y-95885000D02*
X87884000Y-73914000D01*
X100584000Y-73152000D02*
X101600000Y-74168000D01*
X85725000Y-98044000D02*
X87884000Y-95885000D01*
X87884000Y-73914000D02*
X88646000Y-73152000D01*
X88646000Y-73152000D02*
X100584000Y-73152000D01*
X101600000Y-74168000D02*
X101600000Y-76200000D01*
G04 #@! TO.N,Net-(IC5-Pad13)*
X71882000Y-96012000D02*
X84805460Y-96012000D01*
X84805460Y-96012000D02*
X85852000Y-94965460D01*
X71120000Y-95250000D02*
X71882000Y-96012000D01*
X85852000Y-94965460D02*
X85852000Y-72644000D01*
X71120000Y-93980000D02*
X71120000Y-95250000D01*
X85852000Y-72644000D02*
X84836000Y-71628000D01*
X84836000Y-71628000D02*
X71628000Y-71628000D01*
X71628000Y-71628000D02*
X71120000Y-71120000D01*
X71120000Y-71120000D02*
X71120000Y-68580000D01*
G04 #@! TO.N,Net-(IC5-Pad11)*
X55880000Y-88392000D02*
X59944000Y-92456000D01*
X85090000Y-96520000D02*
X86360000Y-95250000D01*
X55880000Y-86360000D02*
X55880000Y-88392000D01*
X86360000Y-72293540D02*
X85186460Y-71120000D01*
X72390000Y-67310000D02*
X73152000Y-66548000D01*
X64770000Y-92456000D02*
X68834000Y-96520000D01*
X68834000Y-96520000D02*
X85090000Y-96520000D01*
X72898000Y-71120000D02*
X72390000Y-70612000D01*
X85186460Y-71120000D02*
X72898000Y-71120000D01*
X59944000Y-92456000D02*
X64770000Y-92456000D01*
X72390000Y-70612000D02*
X72390000Y-67310000D01*
X86360000Y-95250000D02*
X86360000Y-72293540D01*
X73152000Y-66548000D02*
X75692000Y-66548000D01*
X75692000Y-66548000D02*
X76200000Y-67056000D01*
X76200000Y-67056000D02*
X76200000Y-68580000D01*
G04 #@! TO.N,Net-(IC3-Pad4)*
X82296000Y-70612000D02*
X74168000Y-70612000D01*
X74168000Y-70612000D02*
X73660000Y-70104000D01*
X73660000Y-70104000D02*
X73660000Y-68580000D01*
G04 #@! TO.N,0*
X63500000Y-79502000D02*
X64008000Y-79502000D01*
X64008000Y-79502000D02*
X64770000Y-78740000D01*
X64770000Y-78740000D02*
X64770000Y-74422000D01*
X70612000Y-79502000D02*
X63500000Y-79502000D01*
X61468000Y-79502000D02*
X63500000Y-79502000D01*
X71120000Y-86360000D02*
X71120000Y-80010000D01*
X71120000Y-80010000D02*
X70612000Y-79502000D01*
G04 #@! TO.N,Net-(IC4-Pad8)*
X112522000Y-88900000D02*
X112522000Y-105664000D01*
X112522000Y-105664000D02*
X113792000Y-106934000D01*
X113792000Y-106934000D02*
X145542000Y-106934000D01*
X145542000Y-106934000D02*
X148082000Y-109474000D01*
X148082000Y-109474000D02*
X148082000Y-117856000D01*
G04 #@! TO.N,VCC*
X116840000Y-80264000D02*
X116840000Y-76200000D01*
G04 #@! TO.N,0*
X144526000Y-108712000D02*
X145796000Y-108712000D01*
X145796000Y-108712000D02*
X146558000Y-109474000D01*
X146558000Y-109474000D02*
X146558000Y-119126000D01*
X146558000Y-119126000D02*
X147320000Y-119888000D01*
X147320000Y-119888000D02*
X149098000Y-119888000D01*
X149098000Y-119888000D02*
X149860000Y-119126000D01*
X149860000Y-119126000D02*
X149860000Y-91440000D01*
G04 #@! TO.N,VCC*
X113030000Y-59690000D02*
X113030000Y-60960000D01*
X113030000Y-60960000D02*
X112268000Y-61722000D01*
X68580000Y-59182000D02*
X68580000Y-68580000D01*
X103886000Y-61722000D02*
X100330000Y-58166000D01*
X112268000Y-61722000D02*
X103886000Y-61722000D01*
X100330000Y-58166000D02*
X69596000Y-58166000D01*
X69596000Y-58166000D02*
X68580000Y-59182000D01*
G04 #@! TO.N,Net-(IC1-Pad37)*
X113030000Y-48768000D02*
X112014000Y-49784000D01*
X112014000Y-49784000D02*
X73406000Y-49784000D01*
X72390000Y-50800000D02*
X72390000Y-55626000D01*
X73406000Y-49784000D02*
X72390000Y-50800000D01*
X113030000Y-44450000D02*
X113030000Y-48768000D01*
X72390000Y-55626000D02*
X71628000Y-56388000D01*
X71628000Y-56388000D02*
X60960000Y-56388000D01*
X60960000Y-56388000D02*
X55880000Y-61468000D01*
X55880000Y-61468000D02*
X55880000Y-68580000D01*
G04 #@! TO.N,VCC*
X65408000Y-124330000D02*
X65408000Y-125854000D01*
X65408000Y-125854000D02*
X64262000Y-127000000D01*
X64262000Y-127000000D02*
X41656000Y-127000000D01*
X41656000Y-127000000D02*
X40640000Y-125984000D01*
X40640000Y-125984000D02*
X40640000Y-124460000D01*
X49022000Y-172974000D02*
X53594000Y-172974000D01*
X53594000Y-172974000D02*
X77470000Y-172974000D01*
X54610000Y-172212000D02*
X53848000Y-172974000D01*
X53848000Y-172974000D02*
X53594000Y-172974000D01*
X46990000Y-165100000D02*
X48260000Y-166370000D01*
X48260000Y-166370000D02*
X48260000Y-172212000D01*
X46990000Y-163830000D02*
X46990000Y-165100000D01*
X48260000Y-172212000D02*
X49022000Y-172974000D01*
X77470000Y-172974000D02*
X77470000Y-171450000D01*
X54610000Y-171450000D02*
X54610000Y-172212000D01*
G04 #@! TO.N,Net-(IC10-Pad2)*
X121380000Y-174945000D02*
X121380000Y-175800000D01*
X120396000Y-176784000D02*
X94996000Y-176784000D01*
X121380000Y-175800000D02*
X120396000Y-176784000D01*
X94996000Y-176784000D02*
X93980000Y-175768000D01*
X93980000Y-175768000D02*
X93980000Y-171450000D01*
G04 #@! TO.N,Net-(C7-Pad2)*
X50800000Y-52324000D02*
X55372000Y-52324000D01*
X56134000Y-51562000D02*
X56134000Y-46482000D01*
X55372000Y-52324000D02*
X56134000Y-51562000D01*
X56134000Y-46482000D02*
X57150000Y-45466000D01*
G04 #@! TO.N,Net-(IC15-Pad18)*
X76200000Y-40640000D02*
X76200000Y-44196000D01*
X75184000Y-39624000D02*
X76200000Y-40640000D01*
X58928000Y-41402000D02*
X60706000Y-39624000D01*
X60706000Y-39624000D02*
X75184000Y-39624000D01*
X57404000Y-41402000D02*
X58928000Y-41402000D01*
G04 #@! TO.N,Net-(IC14-Pad11)*
X124460000Y-124460000D02*
X124460000Y-122428000D01*
X155702000Y-29718000D02*
X44196000Y-29718000D01*
X124460000Y-122428000D02*
X124968000Y-121920000D01*
X158750000Y-32766000D02*
X155702000Y-29718000D01*
X156972000Y-121920000D02*
X158750000Y-120142000D01*
X158750000Y-120142000D02*
X158750000Y-32766000D01*
X124968000Y-121920000D02*
X156972000Y-121920000D01*
X43434000Y-30480000D02*
X43434000Y-37592000D01*
X44196000Y-29718000D02*
X43434000Y-30480000D01*
X42672000Y-38354000D02*
X40640000Y-38354000D01*
X43434000Y-37592000D02*
X42672000Y-38354000D01*
G04 #@! TO.N,Net-(IC14-Pad13)*
X119380000Y-124460000D02*
X119380000Y-122428000D01*
X156718000Y-121412000D02*
X158242000Y-119888000D01*
X158242000Y-119888000D02*
X158242000Y-33020000D01*
X158242000Y-33020000D02*
X155448000Y-30226000D01*
X49530000Y-38354000D02*
X46990000Y-38354000D01*
X119380000Y-122428000D02*
X120396000Y-121412000D01*
X120396000Y-121412000D02*
X156718000Y-121412000D01*
X50292000Y-30988000D02*
X50292000Y-37592000D01*
X155448000Y-30226000D02*
X51054000Y-30226000D01*
X51054000Y-30226000D02*
X50292000Y-30988000D01*
X50292000Y-37592000D02*
X49530000Y-38354000D01*
G04 #@! TO.N,Net-(IC14-Pad15)*
X114300000Y-124460000D02*
X114300000Y-121666000D01*
X114300000Y-121666000D02*
X115062000Y-120904000D01*
X115062000Y-120904000D02*
X156464000Y-120904000D01*
X156464000Y-120904000D02*
X157734000Y-119634000D01*
X157734000Y-119634000D02*
X157734000Y-33274000D01*
X157734000Y-33274000D02*
X155194000Y-30734000D01*
X155194000Y-30734000D02*
X53086000Y-30734000D01*
X52324000Y-31496000D02*
X52324000Y-43180000D01*
X53086000Y-30734000D02*
X52324000Y-31496000D01*
G04 #@! TO.N,VCC*
X55814000Y-55560000D02*
X44008000Y-55560000D01*
X44008000Y-55560000D02*
X43180000Y-56388000D01*
X43180000Y-56388000D02*
X43180000Y-68580000D01*
G04 #@! TO.N,Net-(IC16-Pad3)*
X44958000Y-46482000D02*
X44958000Y-50292000D01*
G04 #@! TO.N,Net-(IC15-Pad11)*
X58420000Y-86360000D02*
X58420000Y-84074000D01*
X65786000Y-47244000D02*
X93218000Y-47244000D01*
X60198000Y-82296000D02*
X60198000Y-74676000D01*
X59182000Y-73660000D02*
X52832000Y-73660000D01*
X58420000Y-84074000D02*
X60198000Y-82296000D01*
X60198000Y-74676000D02*
X59182000Y-73660000D01*
X52832000Y-73660000D02*
X52070000Y-72898000D01*
X93980000Y-46482000D02*
X93980000Y-44196000D01*
X65024000Y-48006000D02*
X65786000Y-47244000D01*
X52070000Y-63754000D02*
X65024000Y-50800000D01*
X52070000Y-72898000D02*
X52070000Y-63754000D01*
X65024000Y-50800000D02*
X65024000Y-48006000D01*
X93218000Y-47244000D02*
X93980000Y-46482000D01*
G04 #@! TO.N,Net-(IC1-Pad24)*
X144526000Y-41148000D02*
X78232000Y-41148000D01*
X60452000Y-91948000D02*
X73660000Y-91948000D01*
X78232000Y-41148000D02*
X77470000Y-41910000D01*
X77470000Y-41910000D02*
X77470000Y-45974000D01*
X146050000Y-42672000D02*
X144526000Y-41148000D01*
X146050000Y-44450000D02*
X146050000Y-42672000D01*
X77470000Y-45974000D02*
X76708000Y-46736000D01*
X76708000Y-46736000D02*
X65532000Y-46736000D01*
X65532000Y-46736000D02*
X64516000Y-47752000D01*
X64516000Y-50546000D02*
X49530000Y-65532000D01*
X49530000Y-65532000D02*
X49530000Y-73406000D01*
X64516000Y-47752000D02*
X64516000Y-50546000D01*
X49530000Y-73406000D02*
X50292000Y-74168000D01*
X50292000Y-74168000D02*
X58928000Y-74168000D01*
X58928000Y-74168000D02*
X59690000Y-74930000D01*
X59690000Y-74930000D02*
X59690000Y-82042000D01*
X59690000Y-82042000D02*
X57150000Y-84582000D01*
X57150000Y-84582000D02*
X57150000Y-88646000D01*
X57150000Y-88646000D02*
X60452000Y-91948000D01*
G04 #@! TO.N,Net-(IC1-Pad25)*
X54610000Y-72390000D02*
X54610000Y-61976000D01*
X112522000Y-41656000D02*
X142494000Y-41656000D01*
X54610000Y-61976000D02*
X66548000Y-50038000D01*
X70104000Y-73152000D02*
X55372000Y-73152000D01*
X143510000Y-42672000D02*
X143510000Y-44450000D01*
X72898000Y-49276000D02*
X110744000Y-49276000D01*
X110744000Y-49276000D02*
X111698920Y-48321080D01*
X55372000Y-73152000D02*
X54610000Y-72390000D01*
X72136000Y-50038000D02*
X72898000Y-49276000D01*
X66548000Y-50038000D02*
X72136000Y-50038000D01*
X111698920Y-48321080D02*
X111698920Y-42479080D01*
X111698920Y-42479080D02*
X112522000Y-41656000D01*
X142494000Y-41656000D02*
X143510000Y-42672000D01*
X70104000Y-73152000D02*
X69596000Y-73152000D01*
X69596000Y-73152000D02*
X68580000Y-74168000D01*
X68580000Y-74168000D02*
X68580000Y-76200000D01*
X78740000Y-93980000D02*
X78740000Y-91948000D01*
X82550000Y-88138000D02*
X82550000Y-75438000D01*
X78740000Y-91948000D02*
X82550000Y-88138000D01*
X82550000Y-75438000D02*
X80264000Y-73152000D01*
X80264000Y-73152000D02*
X70104000Y-73152000D01*
G04 #@! TO.N,Net-(IC5-Pad2)*
X71120000Y-74676000D02*
X71882000Y-73914000D01*
X71882000Y-73914000D02*
X79248000Y-73914000D01*
X79248000Y-73914000D02*
X80010000Y-74676000D01*
X80010000Y-74676000D02*
X80010000Y-78740000D01*
X71120000Y-76200000D02*
X71120000Y-74676000D01*
X74930000Y-90678000D02*
X76200000Y-91948000D01*
X80010000Y-78740000D02*
X74930000Y-83820000D01*
X74930000Y-83820000D02*
X74930000Y-90678000D01*
X76200000Y-91948000D02*
X76200000Y-93980000D01*
G04 #@! TO.N,Net-(IC15-Pad19)*
X64008000Y-50292000D02*
X64008000Y-43180000D01*
X63246000Y-51054000D02*
X64008000Y-50292000D01*
G04 #@! TO.N,0*
X71120000Y-52832000D02*
X71120000Y-51816000D01*
G04 #@! TO.N,Net-(IC15-Pad19)*
X73660000Y-43180000D02*
X73660000Y-44196000D01*
X57150000Y-50292000D02*
X57912000Y-51054000D01*
X64770000Y-42418000D02*
X72898000Y-42418000D01*
X57150000Y-46990000D02*
X57150000Y-50292000D01*
X57912000Y-51054000D02*
X63246000Y-51054000D01*
X64008000Y-43180000D02*
X64770000Y-42418000D01*
X72898000Y-42418000D02*
X73660000Y-43180000D01*
G04 #@! TO.N,Net-(IC1-Pad36)*
X43180000Y-93980000D02*
X42164000Y-93980000D01*
X42164000Y-93980000D02*
X41402000Y-93218000D01*
X41402000Y-93218000D02*
X41402000Y-76962000D01*
X41402000Y-76962000D02*
X42164000Y-76200000D01*
X42164000Y-76200000D02*
X43180000Y-76200000D01*
G04 #@! TO.N,0*
X64008000Y-96520000D02*
X59182000Y-96520000D01*
X58420000Y-95758000D02*
X58420000Y-93980000D01*
X64770000Y-94742000D02*
X64770000Y-95758000D01*
X64770000Y-95758000D02*
X64008000Y-96520000D01*
X59182000Y-96520000D02*
X58420000Y-95758000D01*
G04 #@! TO.N,Net-(IC16-Pad14)*
X59944000Y-48514000D02*
X61722000Y-46736000D01*
X61722000Y-46736000D02*
X61722000Y-40808900D01*
G04 #@! TO.N,Net-(IC16-Pad13)*
X58674000Y-50038000D02*
X58674000Y-45212000D01*
X58674000Y-45212000D02*
X54610000Y-41148000D01*
X54610000Y-41148000D02*
X54610000Y-38354000D01*
G04 #@! TO.N,Net-(IC10-Pad3)*
X45720000Y-85090000D02*
X45720000Y-86360000D01*
X46736000Y-84074000D02*
X45720000Y-85090000D01*
G04 #@! TO.N,0*
X117856000Y-108712000D02*
X104902000Y-108712000D01*
X86360000Y-156976000D02*
X86360000Y-163830000D01*
X86360000Y-163830000D02*
X91440000Y-168910000D01*
X91440000Y-168910000D02*
X91440000Y-171450000D01*
X153416000Y-143002000D02*
X151196000Y-143002000D01*
X151196000Y-143002000D02*
X151130000Y-143068000D01*
X151130000Y-143068000D02*
X148590000Y-143068000D01*
X148590000Y-143068000D02*
X146050000Y-143068000D01*
X146050000Y-143068000D02*
X143510000Y-143068000D01*
X143510000Y-143068000D02*
X140970000Y-143068000D01*
X140970000Y-143068000D02*
X138430000Y-143068000D01*
X138430000Y-143068000D02*
X135890000Y-143068000D01*
X135890000Y-143068000D02*
X133350000Y-143068000D01*
X131064000Y-134112000D02*
X124968000Y-134112000D01*
X124968000Y-134112000D02*
X124460000Y-133604000D01*
X133350000Y-143068000D02*
X133350000Y-136398000D01*
X133350000Y-136398000D02*
X131064000Y-134112000D01*
X124460000Y-133604000D02*
X124460000Y-132080000D01*
X130302000Y-143002000D02*
X128270000Y-143002000D01*
X128270000Y-143002000D02*
X125730000Y-143002000D01*
X125730000Y-143002000D02*
X123190000Y-143002000D01*
X123190000Y-143002000D02*
X120650000Y-143002000D01*
X120650000Y-143002000D02*
X118110000Y-143002000D01*
X118110000Y-143002000D02*
X115570000Y-143002000D01*
X115570000Y-143002000D02*
X113030000Y-143002000D01*
X113030000Y-143002000D02*
X110490000Y-143002000D01*
G04 #@! TO.N,Net-(IC1-Pad24)*
X78740000Y-76200000D02*
X78740000Y-78486000D01*
X78740000Y-78486000D02*
X72390000Y-84836000D01*
X72390000Y-84836000D02*
X72390000Y-90678000D01*
X72390000Y-90678000D02*
X73660000Y-91948000D01*
G04 #@! TO.N,Net-(IC3-Pad5)*
X53340000Y-76200000D02*
X53340000Y-83058000D01*
X53340000Y-83058000D02*
X54610000Y-84328000D01*
X54610000Y-84328000D02*
X54610000Y-88392000D01*
X54610000Y-88392000D02*
X55880000Y-89662000D01*
X55880000Y-89662000D02*
X55880000Y-93980000D01*
G04 #@! TO.N,Net-(IC3-Pad4)*
X82804000Y-70612000D02*
X82296000Y-70612000D01*
X83820000Y-68580000D02*
X83820000Y-69596000D01*
X83820000Y-69596000D02*
X82804000Y-70612000D01*
G04 #@! TO.N,Net-(IC1-Pad37)*
X48260000Y-68580000D02*
X48260000Y-76200000D01*
G04 #@! TO.N,Net-(IC1-Pad24)*
X73660000Y-91948000D02*
X73660000Y-93980000D01*
G04 #@! TO.N,Net-(IC1-Pad12)*
X132080000Y-78740000D02*
X133350000Y-77470000D01*
X132080000Y-91440000D02*
X132080000Y-78740000D01*
X133350000Y-77470000D02*
X133350000Y-59690000D01*
G04 #@! TO.N,Net-(IC1-Pad11)*
X130810000Y-83566000D02*
X130810000Y-88646000D01*
G04 #@! TO.N,Net-(IC1-Pad13)*
X135890000Y-59690000D02*
X135890000Y-87376000D01*
G04 #@! TO.N,Net-(IC1-Pad10)*
X128270000Y-86360000D02*
X128270000Y-59690000D01*
G04 #@! TO.N,Net-(IC1-Pad14)*
X138430000Y-85344000D02*
X138430000Y-59690000D01*
G04 #@! TO.N,Net-(IC1-Pad9)*
X125730000Y-59690000D02*
X125730000Y-84328000D01*
G04 #@! TO.N,Net-(IC1-Pad15)*
X140970000Y-59690000D02*
X140970000Y-83312000D01*
G04 #@! TO.N,Net-(IC1-Pad16)*
X143510000Y-59690000D02*
X143510000Y-82296000D01*
G04 #@! TO.N,Net-(IC1-Pad17)*
X146050000Y-81280000D02*
X146050000Y-59690000D01*
G04 #@! TO.N,Net-(IC1-Pad18)*
X148590000Y-80264000D02*
X148590000Y-59690000D01*
G04 #@! TO.N,Net-(IC14-Pad2)*
X48260000Y-86360000D02*
X48260000Y-85598000D01*
G04 #@! TO.N,Net-(IC3-Pad11)*
X68580000Y-93980000D02*
X68580000Y-94996000D01*
G04 #@! TO.N,VCC*
X71120000Y-124460000D02*
X71120000Y-126238000D01*
X71120000Y-126238000D02*
X71120000Y-132080000D01*
G04 #@! TO.N,Net-(IC1-Pad36)*
X43180000Y-93980000D02*
X43180000Y-105918000D01*
X43180000Y-105918000D02*
X40640000Y-108458000D01*
X40640000Y-108458000D02*
X40640000Y-119888000D01*
G04 #@! TO.N,Net-(IC3-Pad2)*
X45720000Y-76200000D02*
X45720000Y-77216000D01*
G04 #@! TO.N,0*
X81280000Y-86360000D02*
X81280000Y-85090000D01*
G04 #@! TO.N,Net-(IC1-Pad36)*
X99060000Y-76200000D02*
X99060000Y-75438000D01*
G04 #@! TO.N,Net-(IC1-Pad20)*
X129540000Y-57912000D02*
X130048000Y-57404000D01*
X129540000Y-76200000D02*
X129540000Y-57912000D01*
G04 #@! TO.N,Net-(IC1-Pad19)*
X151130000Y-59690000D02*
X151130000Y-81026000D01*
G04 #@! TO.N,Net-(IC1-Pad20)*
X130048000Y-57404000D02*
X152908000Y-57404000D01*
G04 #@! TO.N,Net-(IC1-Pad11)*
X130810000Y-83566000D02*
X130810000Y-59690000D01*
G04 #@! TO.N,Net-(IC1-Pad20)*
X152908000Y-57404000D02*
X153670000Y-58166000D01*
X153670000Y-58166000D02*
X153670000Y-59690000D01*
G04 #@! TO.N,0*
X61976000Y-108748000D02*
X58166000Y-108748000D01*
X50546000Y-108748000D02*
X46766000Y-108748000D01*
X96266000Y-108778000D02*
X100076000Y-108778000D01*
X77216000Y-108778000D02*
X81026000Y-108778000D01*
X84836000Y-108778000D02*
X88646000Y-108778000D01*
X69596000Y-108778000D02*
X73406000Y-108778000D01*
X117856000Y-108712000D02*
X121666000Y-108712000D01*
X136906000Y-108712000D02*
X140716000Y-108712000D01*
X129286000Y-108712000D02*
X133096000Y-108712000D01*
X46736000Y-108778000D02*
X42956000Y-108778000D01*
X46766000Y-108748000D02*
X46736000Y-108778000D01*
X54356000Y-108748000D02*
X50546000Y-108748000D01*
X81026000Y-108778000D02*
X84836000Y-108778000D01*
X125476000Y-108712000D02*
X129286000Y-108712000D01*
X65786000Y-108748000D02*
X61976000Y-108748000D01*
X69596000Y-108778000D02*
X65816000Y-108778000D01*
X65816000Y-108778000D02*
X65786000Y-108748000D01*
X42956000Y-108778000D02*
X42926000Y-108808000D01*
X88646000Y-108778000D02*
X92456000Y-108778000D01*
X121666000Y-108712000D02*
X125476000Y-108712000D01*
X73406000Y-108778000D02*
X77216000Y-108778000D01*
X92456000Y-108778000D02*
X96266000Y-108778000D01*
X133096000Y-108712000D02*
X136906000Y-108712000D01*
X140716000Y-108712000D02*
X144526000Y-108712000D01*
X58166000Y-108748000D02*
X54356000Y-108748000D01*
G04 #@! TO.N,Net-(C2-Pad2)*
X52070000Y-166370000D02*
X49530000Y-168910000D01*
X52070000Y-163830000D02*
X52070000Y-166370000D01*
X49530000Y-168910000D02*
X49530000Y-171450000D01*
G04 #@! TO.N,Net-(IC1-Pad36)*
X101600000Y-147574000D02*
X101600000Y-132080000D01*
X100076000Y-149098000D02*
X101600000Y-147574000D01*
X97536000Y-149098000D02*
X100076000Y-149098000D01*
G04 #@! TO.N,Net-(IC14-Pad16)*
X111760000Y-124460000D02*
X111760000Y-132080000D01*
G04 #@! TO.N,Net-(IC14-Pad14)*
X116840000Y-124460000D02*
X116840000Y-132080000D01*
G04 #@! TO.N,Net-(IC14-Pad12)*
X121920000Y-124460000D02*
X121920000Y-132080000D01*
G04 #@! TO.N,Net-(R20-Pad1)*
X155194000Y-164846000D02*
X155448000Y-164592000D01*
X154686000Y-136144000D02*
X143510000Y-136144000D01*
X142240000Y-134874000D02*
X142240000Y-132080000D01*
X155448000Y-164592000D02*
X155448000Y-136906000D01*
X144272000Y-164846000D02*
X155194000Y-164846000D01*
X142240000Y-166878000D02*
X144272000Y-164846000D01*
X142240000Y-168910000D02*
X142240000Y-166878000D01*
X155448000Y-136906000D02*
X154686000Y-136144000D01*
X143510000Y-136144000D02*
X142240000Y-134874000D01*
G04 #@! TO.N,Net-(R21-Pad1)*
X155956000Y-136652000D02*
X154940000Y-135636000D01*
X155448000Y-165354000D02*
X155956000Y-164846000D01*
X144780000Y-168910000D02*
X144780000Y-166878000D01*
X145796000Y-135636000D02*
X144780000Y-134620000D01*
X146304000Y-165354000D02*
X155448000Y-165354000D01*
X155956000Y-164846000D02*
X155956000Y-136652000D01*
X144780000Y-166878000D02*
X146304000Y-165354000D01*
X144780000Y-134620000D02*
X144780000Y-132080000D01*
X154940000Y-135636000D02*
X145796000Y-135636000D01*
G04 #@! TO.N,Net-(R22-Pad1)*
X149098000Y-165862000D02*
X155702000Y-165862000D01*
X155702000Y-165862000D02*
X156464000Y-165100000D01*
X147320000Y-167640000D02*
X149098000Y-165862000D01*
X155194000Y-135128000D02*
X148082000Y-135128000D01*
X147320000Y-168910000D02*
X147320000Y-167640000D01*
X148082000Y-135128000D02*
X147320000Y-134366000D01*
X147320000Y-134366000D02*
X147320000Y-132080000D01*
X156464000Y-136398000D02*
X155194000Y-135128000D01*
X156464000Y-165100000D02*
X156464000Y-136398000D01*
G04 #@! TO.N,Net-(R23-Pad1)*
X149860000Y-134112000D02*
X149860000Y-132080000D01*
X155448000Y-134620000D02*
X150368000Y-134620000D01*
X150368000Y-134620000D02*
X149860000Y-134112000D01*
X156972000Y-136144000D02*
X155448000Y-134620000D01*
X155956000Y-166370000D02*
X156972000Y-165354000D01*
X156972000Y-165354000D02*
X156972000Y-136144000D01*
X149860000Y-168910000D02*
X149860000Y-167386000D01*
X150876000Y-166370000D02*
X155956000Y-166370000D01*
X149860000Y-167386000D02*
X150876000Y-166370000D01*
G04 #@! TO.N,Net-(R24-Pad1)*
X153416000Y-166878000D02*
X156210000Y-166878000D01*
X152400000Y-133350000D02*
X152400000Y-132080000D01*
X155702000Y-134112000D02*
X153162000Y-134112000D01*
X153162000Y-134112000D02*
X152400000Y-133350000D01*
X152400000Y-168910000D02*
X152400000Y-167894000D01*
X157480000Y-135890000D02*
X155702000Y-134112000D01*
X156210000Y-166878000D02*
X157480000Y-165608000D01*
X157480000Y-165608000D02*
X157480000Y-135890000D01*
X152400000Y-167894000D02*
X153416000Y-166878000D01*
G04 #@! TO.N,Net-(IC14-Pad4)*
X130048000Y-135636000D02*
X110236000Y-135636000D01*
X139192000Y-171196000D02*
X132588000Y-171196000D01*
X139700000Y-168910000D02*
X139700000Y-170688000D01*
X139700000Y-170688000D02*
X139192000Y-171196000D01*
X110236000Y-135636000D02*
X109220000Y-134620000D01*
X132588000Y-171196000D02*
X131318000Y-169926000D01*
X131318000Y-169926000D02*
X131318000Y-136906000D01*
X109220000Y-134620000D02*
X109220000Y-132080000D01*
X131318000Y-136906000D02*
X130048000Y-135636000D01*
G04 #@! TO.N,Net-(IC14-Pad6)*
X136652000Y-170688000D02*
X132842000Y-170688000D01*
X131826000Y-169672000D02*
X131826000Y-136652000D01*
X131826000Y-136652000D02*
X130302000Y-135128000D01*
X132842000Y-170688000D02*
X131826000Y-169672000D01*
X115316000Y-135128000D02*
X114300000Y-134112000D01*
X137160000Y-170180000D02*
X136652000Y-170688000D01*
X114300000Y-130810000D02*
X114300000Y-132080000D01*
X114300000Y-134112000D02*
X114300000Y-132080000D01*
X137160000Y-168910000D02*
X137160000Y-170180000D01*
X130302000Y-135128000D02*
X115316000Y-135128000D01*
G04 #@! TO.N,Net-(IC14-Pad8)*
X130556000Y-134620000D02*
X120142000Y-134620000D01*
X132334000Y-136398000D02*
X130556000Y-134620000D01*
X134620000Y-168910000D02*
X132588000Y-168910000D01*
X119380000Y-133858000D02*
X119380000Y-132080000D01*
X132334000Y-168656000D02*
X132334000Y-136398000D01*
X120142000Y-134620000D02*
X119380000Y-133858000D01*
X132588000Y-168910000D02*
X132334000Y-168656000D01*
G04 #@! TO.N,Net-(IC14-Pad11)*
X40640000Y-41656000D02*
X40640000Y-38354000D01*
X43434000Y-44450000D02*
X40640000Y-41656000D01*
X48514000Y-44450000D02*
X43434000Y-44450000D01*
G04 #@! TO.N,Net-(IC14-Pad13)*
X46990000Y-40640000D02*
X46990000Y-38354000D01*
X50800000Y-44450000D02*
X46990000Y-40640000D01*
X55626000Y-44450000D02*
X50800000Y-44450000D01*
G04 #@! TO.N,VCC*
X132080000Y-130048000D02*
X132080000Y-132080000D01*
X90424000Y-172720000D02*
X92202000Y-172720000D01*
X40640000Y-124460000D02*
X40640000Y-132080000D01*
X132080000Y-124460000D02*
X132080000Y-132080000D01*
X91440000Y-166116000D02*
X91440000Y-163830000D01*
X92202000Y-172720000D02*
X92710000Y-172212000D01*
X99060000Y-171450000D02*
X105410000Y-171450000D01*
X92710000Y-167386000D02*
X91440000Y-166116000D01*
X111760000Y-165100000D02*
X111760000Y-157734000D01*
X92710000Y-172212000D02*
X92710000Y-167386000D01*
X77470000Y-171450000D02*
X89154000Y-171450000D01*
X105410000Y-171450000D02*
X111760000Y-165100000D01*
X89154000Y-171450000D02*
X90424000Y-172720000D01*
G04 #@! TD*
M02*
