G04 #@! TF.GenerationSoftware,KiCad,Pcbnew,(6.0.9-0)*
G04 #@! TF.CreationDate,2022-12-07T17:47:50-05:00*
G04 #@! TF.ProjectId,6502tor,36353032-746f-4722-9e6b-696361645f70,rev?*
G04 #@! TF.SameCoordinates,Original*
G04 #@! TF.FileFunction,Soldermask,Bot*
G04 #@! TF.FilePolarity,Negative*
%FSLAX46Y46*%
G04 Gerber Fmt 4.6, Leading zero omitted, Abs format (unit mm)*
G04 Created by KiCad (PCBNEW (6.0.9-0)) date 2022-12-07 17:47:50*
%MOMM*%
%LPD*%
G01*
G04 APERTURE LIST*
%ADD10O,1.524000X2.844800*%
%ADD11C,1.524000*%
%ADD12R,1.600000X1.600000*%
%ADD13O,1.600000X1.600000*%
%ADD14C,1.703200*%
%ADD15C,1.473200*%
%ADD16C,1.503200*%
%ADD17C,2.453200*%
%ADD18C,2.003200*%
%ADD19C,4.663200*%
G04 APERTURE END LIST*
D10*
G04 #@! TO.C,IC2*
X132080000Y-132080000D03*
X134620000Y-132080000D03*
X137160000Y-132080000D03*
X139700000Y-132080000D03*
X142240000Y-132080000D03*
X144780000Y-132080000D03*
X147320000Y-132080000D03*
X149860000Y-132080000D03*
X152400000Y-132080000D03*
X154940000Y-132080000D03*
X154940000Y-124460000D03*
X152400000Y-124460000D03*
X149860000Y-124460000D03*
X147320000Y-124460000D03*
X144780000Y-124460000D03*
X142240000Y-124460000D03*
X139700000Y-124460000D03*
X137160000Y-124460000D03*
X134620000Y-124460000D03*
X132080000Y-124460000D03*
G04 #@! TD*
G04 #@! TO.C,IC15*
X71120000Y-51816000D03*
X73660000Y-51816000D03*
X76200000Y-51816000D03*
X78740000Y-51816000D03*
X81280000Y-51816000D03*
X83820000Y-51816000D03*
X86360000Y-51816000D03*
X88900000Y-51816000D03*
X91440000Y-51816000D03*
X93980000Y-51816000D03*
X93980000Y-44196000D03*
X91440000Y-44196000D03*
X88900000Y-44196000D03*
X86360000Y-44196000D03*
X83820000Y-44196000D03*
X81280000Y-44196000D03*
X78740000Y-44196000D03*
X76200000Y-44196000D03*
X73660000Y-44196000D03*
X71120000Y-44196000D03*
G04 #@! TD*
D11*
G04 #@! TO.C,QG1*
X97790000Y-93980000D03*
X105410000Y-93980000D03*
X105410000Y-86360000D03*
X97790000Y-86360000D03*
G04 #@! TD*
D10*
G04 #@! TO.C,IC8*
X43180000Y-93980000D03*
X45720000Y-93980000D03*
X48260000Y-93980000D03*
X50800000Y-93980000D03*
X53340000Y-93980000D03*
X55880000Y-93980000D03*
X58420000Y-93980000D03*
X58420000Y-86360000D03*
X55880000Y-86360000D03*
X53340000Y-86360000D03*
X50800000Y-86360000D03*
X48260000Y-86360000D03*
X45720000Y-86360000D03*
X43180000Y-86360000D03*
G04 #@! TD*
G04 #@! TO.C,IC1*
X105410000Y-59690000D03*
X107950000Y-59690000D03*
X110490000Y-59690000D03*
X113030000Y-59690000D03*
X115570000Y-59690000D03*
X118110000Y-59690000D03*
X120650000Y-59690000D03*
X123190000Y-59690000D03*
X125730000Y-59690000D03*
X128270000Y-59690000D03*
X130810000Y-59690000D03*
X133350000Y-59690000D03*
X135890000Y-59690000D03*
X138430000Y-59690000D03*
X140970000Y-59690000D03*
X143510000Y-59690000D03*
X146050000Y-59690000D03*
X148590000Y-59690000D03*
X151130000Y-59690000D03*
X153670000Y-59690000D03*
X153670000Y-44450000D03*
X151130000Y-44450000D03*
X148590000Y-44450000D03*
X146050000Y-44450000D03*
X143510000Y-44450000D03*
X140970000Y-44450000D03*
X138430000Y-44450000D03*
X135890000Y-44450000D03*
X133350000Y-44450000D03*
X130810000Y-44450000D03*
X128270000Y-44450000D03*
X125730000Y-44450000D03*
X123190000Y-44450000D03*
X120650000Y-44450000D03*
X118110000Y-44450000D03*
X115570000Y-44450000D03*
X113030000Y-44450000D03*
X110490000Y-44450000D03*
X107950000Y-44450000D03*
X105410000Y-44450000D03*
G04 #@! TD*
G04 #@! TO.C,IC3*
X43180000Y-76200000D03*
X45720000Y-76200000D03*
X48260000Y-76200000D03*
X50800000Y-76200000D03*
X53340000Y-76200000D03*
X55880000Y-76200000D03*
X58420000Y-76200000D03*
X58420000Y-68580000D03*
X55880000Y-68580000D03*
X53340000Y-68580000D03*
X50800000Y-68580000D03*
X48260000Y-68580000D03*
X45720000Y-68580000D03*
X43180000Y-68580000D03*
G04 #@! TD*
G04 #@! TO.C,IC14*
X101600000Y-132080000D03*
X104140000Y-132080000D03*
X106680000Y-132080000D03*
X109220000Y-132080000D03*
X111760000Y-132080000D03*
X114300000Y-132080000D03*
X116840000Y-132080000D03*
X119380000Y-132080000D03*
X121920000Y-132080000D03*
X124460000Y-132080000D03*
X124460000Y-124460000D03*
X121920000Y-124460000D03*
X119380000Y-124460000D03*
X116840000Y-124460000D03*
X114300000Y-124460000D03*
X111760000Y-124460000D03*
X109220000Y-124460000D03*
X106680000Y-124460000D03*
X104140000Y-124460000D03*
X101600000Y-124460000D03*
G04 #@! TD*
G04 #@! TO.C,IC5*
X68580000Y-76200000D03*
X71120000Y-76200000D03*
X73660000Y-76200000D03*
X76200000Y-76200000D03*
X78740000Y-76200000D03*
X81280000Y-76200000D03*
X83820000Y-76200000D03*
X83820000Y-68580000D03*
X81280000Y-68580000D03*
X78740000Y-68580000D03*
X76200000Y-68580000D03*
X73660000Y-68580000D03*
X71120000Y-68580000D03*
X68580000Y-68580000D03*
G04 #@! TD*
G04 #@! TO.C,IC4*
X91440000Y-76200000D03*
X93980000Y-76200000D03*
X96520000Y-76200000D03*
X99060000Y-76200000D03*
X101600000Y-76200000D03*
X104140000Y-76200000D03*
X106680000Y-76200000D03*
X106680000Y-68580000D03*
X104140000Y-68580000D03*
X101600000Y-68580000D03*
X99060000Y-68580000D03*
X96520000Y-68580000D03*
X93980000Y-68580000D03*
X91440000Y-68580000D03*
G04 #@! TD*
G04 #@! TO.C,IC9*
X68580000Y-93980000D03*
X71120000Y-93980000D03*
X73660000Y-93980000D03*
X76200000Y-93980000D03*
X78740000Y-93980000D03*
X81280000Y-93980000D03*
X83820000Y-93980000D03*
X83820000Y-86360000D03*
X81280000Y-86360000D03*
X78740000Y-86360000D03*
X76200000Y-86360000D03*
X73660000Y-86360000D03*
X71120000Y-86360000D03*
X68580000Y-86360000D03*
G04 #@! TD*
D12*
G04 #@! TO.C,U1*
X116840000Y-91440000D03*
D13*
X119380000Y-91440000D03*
X121920000Y-91440000D03*
X124460000Y-91440000D03*
X127000000Y-91440000D03*
X129540000Y-91440000D03*
X132080000Y-91440000D03*
X134620000Y-91440000D03*
X137160000Y-91440000D03*
X139700000Y-91440000D03*
X142240000Y-91440000D03*
X144780000Y-91440000D03*
X147320000Y-91440000D03*
X149860000Y-91440000D03*
X149860000Y-76200000D03*
X147320000Y-76200000D03*
X144780000Y-76200000D03*
X142240000Y-76200000D03*
X139700000Y-76200000D03*
X137160000Y-76200000D03*
X134620000Y-76200000D03*
X132080000Y-76200000D03*
X129540000Y-76200000D03*
X127000000Y-76200000D03*
X124460000Y-76200000D03*
X121920000Y-76200000D03*
X119380000Y-76200000D03*
X116840000Y-76200000D03*
G04 #@! TD*
D10*
G04 #@! TO.C,SW3*
X134620000Y-176530000D03*
X137160000Y-176530000D03*
X139700000Y-176530000D03*
X142240000Y-176530000D03*
X144780000Y-176530000D03*
X147320000Y-176530000D03*
X149860000Y-176530000D03*
X152400000Y-176530000D03*
X152400000Y-168910000D03*
X149860000Y-168910000D03*
X147320000Y-168910000D03*
X144780000Y-168910000D03*
X142240000Y-168910000D03*
X139700000Y-168910000D03*
X137160000Y-168910000D03*
X134620000Y-168910000D03*
G04 #@! TD*
D14*
G04 #@! TO.C,S1*
X117380000Y-174945000D03*
X121380000Y-174945000D03*
X117380000Y-169945000D03*
X121380000Y-169945000D03*
X119380000Y-174945000D03*
X119380000Y-169945000D03*
G04 #@! TD*
D15*
G04 #@! TO.C,IC10*
X91440000Y-171450000D03*
X93980000Y-171450000D03*
X96520000Y-171450000D03*
X99060000Y-171450000D03*
X99060000Y-163830000D03*
X96520000Y-163830000D03*
X93980000Y-163830000D03*
X91440000Y-163830000D03*
G04 #@! TD*
G04 #@! TO.C,IC6*
X69850000Y-171450000D03*
X72390000Y-171450000D03*
X74930000Y-171450000D03*
X77470000Y-171450000D03*
X77470000Y-163830000D03*
X74930000Y-163830000D03*
X72390000Y-163830000D03*
X69850000Y-163830000D03*
G04 #@! TD*
G04 #@! TO.C,IC7*
X46990000Y-171450000D03*
X49530000Y-171450000D03*
X52070000Y-171450000D03*
X54610000Y-171450000D03*
X54610000Y-163830000D03*
X52070000Y-163830000D03*
X49530000Y-163830000D03*
X46990000Y-163830000D03*
G04 #@! TD*
D10*
G04 #@! TO.C,SW2*
X134620000Y-157734000D03*
X137160000Y-157734000D03*
X139700000Y-157734000D03*
X142240000Y-157734000D03*
X144780000Y-157734000D03*
X147320000Y-157734000D03*
X149860000Y-157734000D03*
X152400000Y-157734000D03*
X152400000Y-150114000D03*
X149860000Y-150114000D03*
X147320000Y-150114000D03*
X144780000Y-150114000D03*
X142240000Y-150114000D03*
X139700000Y-150114000D03*
X137160000Y-150114000D03*
X134620000Y-150114000D03*
G04 #@! TD*
D16*
G04 #@! TO.C,S4*
X86360000Y-146876000D03*
X86360000Y-150876000D03*
X86360000Y-152876000D03*
X86360000Y-154876000D03*
D17*
X86360000Y-144776000D03*
X86360000Y-156976000D03*
G04 #@! TD*
D14*
G04 #@! TO.C,S3*
X109220000Y-33020000D03*
X113220000Y-33020000D03*
X109220000Y-28020000D03*
X113220000Y-28020000D03*
X111220000Y-33020000D03*
X111220000Y-28020000D03*
G04 #@! TD*
D10*
G04 #@! TO.C,IC11*
X40640000Y-132080000D03*
X43180000Y-132080000D03*
X45720000Y-132080000D03*
X48260000Y-132080000D03*
X50800000Y-132080000D03*
X53340000Y-132080000D03*
X55880000Y-132080000D03*
X58420000Y-132080000D03*
X60960000Y-132080000D03*
X63500000Y-132080000D03*
X63500000Y-124460000D03*
X60960000Y-124460000D03*
X58420000Y-124460000D03*
X55880000Y-124460000D03*
X53340000Y-124460000D03*
X50800000Y-124460000D03*
X48260000Y-124460000D03*
X45720000Y-124460000D03*
X43180000Y-124460000D03*
X40640000Y-124460000D03*
G04 #@! TD*
G04 #@! TO.C,SW4*
X97536000Y-156718000D03*
X97536000Y-149098000D03*
G04 #@! TD*
G04 #@! TO.C,IC12*
X71120000Y-132080000D03*
X73660000Y-132080000D03*
X76200000Y-132080000D03*
X78740000Y-132080000D03*
X81280000Y-132080000D03*
X83820000Y-132080000D03*
X86360000Y-132080000D03*
X88900000Y-132080000D03*
X91440000Y-132080000D03*
X93980000Y-132080000D03*
X93980000Y-124460000D03*
X91440000Y-124460000D03*
X88900000Y-124460000D03*
X86360000Y-124460000D03*
X83820000Y-124460000D03*
X81280000Y-124460000D03*
X78740000Y-124460000D03*
X76200000Y-124460000D03*
X73660000Y-124460000D03*
X71120000Y-124460000D03*
G04 #@! TD*
D14*
G04 #@! TO.C,S5*
X62770000Y-152400000D03*
X66770000Y-152400000D03*
X62770000Y-147400000D03*
X66770000Y-147400000D03*
X64770000Y-152400000D03*
X64770000Y-147400000D03*
G04 #@! TD*
D18*
G04 #@! TO.C,R60*
X44490000Y-155460000D03*
X46990000Y-155460000D03*
X49490000Y-155460000D03*
D19*
X42590000Y-148460000D03*
X51390000Y-148460000D03*
G04 #@! TD*
D10*
G04 #@! TO.C,SW1*
X111760000Y-157734000D03*
X114300000Y-157734000D03*
X116840000Y-157734000D03*
X119380000Y-157734000D03*
X121920000Y-157734000D03*
X124460000Y-157734000D03*
X127000000Y-157734000D03*
X129540000Y-157734000D03*
X129540000Y-150114000D03*
X127000000Y-150114000D03*
X124460000Y-150114000D03*
X121920000Y-150114000D03*
X119380000Y-150114000D03*
X116840000Y-150114000D03*
X114300000Y-150114000D03*
X111760000Y-150114000D03*
G04 #@! TD*
M02*
