G04 #@! TF.GenerationSoftware,KiCad,Pcbnew,(6.0.9-0)*
G04 #@! TF.CreationDate,2022-12-07T17:47:49-05:00*
G04 #@! TF.ProjectId,6502tor,36353032-746f-4722-9e6b-696361645f70,rev?*
G04 #@! TF.SameCoordinates,Original*
G04 #@! TF.FileFunction,Copper,L1,Top*
G04 #@! TF.FilePolarity,Positive*
%FSLAX46Y46*%
G04 Gerber Fmt 4.6, Leading zero omitted, Abs format (unit mm)*
G04 Created by KiCad (PCBNEW (6.0.9-0)) date 2022-12-07 17:47:49*
%MOMM*%
%LPD*%
G01*
G04 APERTURE LIST*
G04 #@! TA.AperFunction,ComponentPad*
%ADD10O,1.320800X2.641600*%
G04 #@! TD*
G04 #@! TA.AperFunction,SMDPad,CuDef*
%ADD11R,1.800000X1.600000*%
G04 #@! TD*
G04 #@! TA.AperFunction,ComponentPad*
%ADD12C,1.320800*%
G04 #@! TD*
G04 #@! TA.AperFunction,ComponentPad*
%ADD13R,1.600000X1.600000*%
G04 #@! TD*
G04 #@! TA.AperFunction,ComponentPad*
%ADD14O,1.600000X1.600000*%
G04 #@! TD*
G04 #@! TA.AperFunction,SMDPad,CuDef*
%ADD15R,1.450000X1.550000*%
G04 #@! TD*
G04 #@! TA.AperFunction,SMDPad,CuDef*
%ADD16R,1.600000X1.800000*%
G04 #@! TD*
G04 #@! TA.AperFunction,SMDPad,CuDef*
%ADD17R,1.500000X1.300000*%
G04 #@! TD*
G04 #@! TA.AperFunction,ComponentPad*
%ADD18C,1.500000*%
G04 #@! TD*
G04 #@! TA.AperFunction,SMDPad,CuDef*
%ADD19R,1.300000X1.500000*%
G04 #@! TD*
G04 #@! TA.AperFunction,ComponentPad*
%ADD20C,1.270000*%
G04 #@! TD*
G04 #@! TA.AperFunction,ComponentPad*
%ADD21C,1.300000*%
G04 #@! TD*
G04 #@! TA.AperFunction,ComponentPad*
%ADD22C,2.250000*%
G04 #@! TD*
G04 #@! TA.AperFunction,ComponentPad*
%ADD23C,1.800000*%
G04 #@! TD*
G04 #@! TA.AperFunction,ComponentPad*
%ADD24C,4.460000*%
G04 #@! TD*
G04 #@! TA.AperFunction,SMDPad,CuDef*
%ADD25R,2.500000X0.500000*%
G04 #@! TD*
G04 #@! TA.AperFunction,SMDPad,CuDef*
%ADD26R,2.500000X2.000000*%
G04 #@! TD*
G04 #@! TA.AperFunction,SMDPad,CuDef*
%ADD27R,1.200000X0.600000*%
G04 #@! TD*
G04 #@! TA.AperFunction,SMDPad,CuDef*
%ADD28R,0.850000X0.300000*%
G04 #@! TD*
G04 #@! TA.AperFunction,SMDPad,CuDef*
%ADD29R,0.300000X0.850000*%
G04 #@! TD*
G04 #@! TA.AperFunction,SMDPad,CuDef*
%ADD30R,2.550000X2.550000*%
G04 #@! TD*
G04 #@! TA.AperFunction,ViaPad*
%ADD31C,0.800000*%
G04 #@! TD*
G04 #@! TA.AperFunction,Conductor*
%ADD32C,0.250000*%
G04 #@! TD*
G04 APERTURE END LIST*
D10*
G04 #@! TO.P,IC2,1,DIR*
G04 #@! TO.N,VCC*
X132080000Y-132080000D03*
G04 #@! TO.P,IC2,2,A1*
G04 #@! TO.N,Net-(IC14-Pad16)*
X134620000Y-132080000D03*
G04 #@! TO.P,IC2,3,A2*
G04 #@! TO.N,Net-(IC14-Pad14)*
X137160000Y-132080000D03*
G04 #@! TO.P,IC2,4,A3*
G04 #@! TO.N,Net-(IC14-Pad12)*
X139700000Y-132080000D03*
G04 #@! TO.P,IC2,5,A4*
G04 #@! TO.N,Net-(R20-Pad1)*
X142240000Y-132080000D03*
G04 #@! TO.P,IC2,6,A5*
G04 #@! TO.N,Net-(R21-Pad1)*
X144780000Y-132080000D03*
G04 #@! TO.P,IC2,7,A6*
G04 #@! TO.N,Net-(R22-Pad1)*
X147320000Y-132080000D03*
G04 #@! TO.P,IC2,8,A7*
G04 #@! TO.N,Net-(R23-Pad1)*
X149860000Y-132080000D03*
G04 #@! TO.P,IC2,9,A8*
G04 #@! TO.N,Net-(R24-Pad1)*
X152400000Y-132080000D03*
G04 #@! TO.P,IC2,10*
G04 #@! TO.N,0*
X154940000Y-132080000D03*
G04 #@! TO.P,IC2,11,B8*
G04 #@! TO.N,Net-(IC1-Pad33)*
X154940000Y-124460000D03*
G04 #@! TO.P,IC2,12,B7*
G04 #@! TO.N,Net-(IC1-Pad32)*
X152400000Y-124460000D03*
G04 #@! TO.P,IC2,13,B6*
G04 #@! TO.N,Net-(IC1-Pad31)*
X149860000Y-124460000D03*
G04 #@! TO.P,IC2,14,B5*
G04 #@! TO.N,Net-(IC1-Pad30)*
X147320000Y-124460000D03*
G04 #@! TO.P,IC2,15,B4*
G04 #@! TO.N,Net-(IC1-Pad29)*
X144780000Y-124460000D03*
G04 #@! TO.P,IC2,16,B3*
G04 #@! TO.N,Net-(IC1-Pad28)*
X142240000Y-124460000D03*
G04 #@! TO.P,IC2,17,B2*
G04 #@! TO.N,Net-(IC1-Pad27)*
X139700000Y-124460000D03*
G04 #@! TO.P,IC2,18,B1*
G04 #@! TO.N,Net-(IC1-Pad26)*
X137160000Y-124460000D03*
G04 #@! TO.P,IC2,19,G*
G04 #@! TO.N,Net-(IC4-Pad8)*
X134620000Y-124460000D03*
G04 #@! TO.P,IC2,20*
G04 #@! TO.N,VCC*
X132080000Y-124460000D03*
G04 #@! TD*
D11*
G04 #@! TO.P,C7,1,1*
G04 #@! TO.N,0*
X48260000Y-57280000D03*
G04 #@! TO.P,C7,2,2*
G04 #@! TO.N,Net-(C7-Pad2)*
X48260000Y-54480000D03*
G04 #@! TD*
D10*
G04 #@! TO.P,IC15,1,OC*
G04 #@! TO.N,0*
X71120000Y-51816000D03*
G04 #@! TO.P,IC15,2,1D*
G04 #@! TO.N,Net-(IC1-Pad26)*
X73660000Y-51816000D03*
G04 #@! TO.P,IC15,3,2D*
G04 #@! TO.N,Net-(IC1-Pad27)*
X76200000Y-51816000D03*
G04 #@! TO.P,IC15,4,3D*
G04 #@! TO.N,Net-(IC1-Pad28)*
X78740000Y-51816000D03*
G04 #@! TO.P,IC15,5,4D*
G04 #@! TO.N,Net-(IC1-Pad29)*
X81280000Y-51816000D03*
G04 #@! TO.P,IC15,6,5D*
G04 #@! TO.N,Net-(IC1-Pad30)*
X83820000Y-51816000D03*
G04 #@! TO.P,IC15,7,6D*
G04 #@! TO.N,Net-(IC1-Pad31)*
X86360000Y-51816000D03*
G04 #@! TO.P,IC15,8,7D*
G04 #@! TO.N,Net-(IC1-Pad32)*
X88900000Y-51816000D03*
G04 #@! TO.P,IC15,9,8D*
G04 #@! TO.N,Net-(IC1-Pad33)*
X91440000Y-51816000D03*
G04 #@! TO.P,IC15,10*
G04 #@! TO.N,0*
X93980000Y-51816000D03*
G04 #@! TO.P,IC15,11,CLK*
G04 #@! TO.N,Net-(IC15-Pad11)*
X93980000Y-44196000D03*
G04 #@! TO.P,IC15,12,8Q*
G04 #@! TO.N,Net-(IC15-Pad12)*
X91440000Y-44196000D03*
G04 #@! TO.P,IC15,13,7Q*
G04 #@! TO.N,Net-(IC15-Pad13)*
X88900000Y-44196000D03*
G04 #@! TO.P,IC15,14,6Q*
G04 #@! TO.N,Net-(IC15-Pad14)*
X86360000Y-44196000D03*
G04 #@! TO.P,IC15,15,5Q*
G04 #@! TO.N,Net-(IC15-Pad15)*
X83820000Y-44196000D03*
G04 #@! TO.P,IC15,16,4Q*
G04 #@! TO.N,Net-(IC15-Pad16)*
X81280000Y-44196000D03*
G04 #@! TO.P,IC15,17,3Q*
G04 #@! TO.N,Net-(IC15-Pad17)*
X78740000Y-44196000D03*
G04 #@! TO.P,IC15,18,2Q*
G04 #@! TO.N,Net-(IC15-Pad18)*
X76200000Y-44196000D03*
G04 #@! TO.P,IC15,19,1Q*
G04 #@! TO.N,Net-(IC15-Pad19)*
X73660000Y-44196000D03*
G04 #@! TO.P,IC15,20*
G04 #@! TO.N,VCC*
X71120000Y-44196000D03*
G04 #@! TD*
D12*
G04 #@! TO.P,QG1,1*
G04 #@! TO.N,N/C*
X97790000Y-93980000D03*
G04 #@! TO.P,QG1,4,GND*
G04 #@! TO.N,0*
X105410000Y-93980000D03*
G04 #@! TO.P,QG1,5,OUT*
G04 #@! TO.N,Net-(QG1-Pad5)*
X105410000Y-86360000D03*
G04 #@! TO.P,QG1,8,VCC*
G04 #@! TO.N,VCC*
X97790000Y-86360000D03*
G04 #@! TD*
D10*
G04 #@! TO.P,IC8,1,I*
G04 #@! TO.N,Net-(IC1-Pad36)*
X43180000Y-93980000D03*
G04 #@! TO.P,IC8,2,O*
G04 #@! TO.N,Net-(IC14-Pad19)*
X45720000Y-93980000D03*
G04 #@! TO.P,IC8,3,I*
G04 #@! TO.N,Net-(IC3-Pad6)*
X48260000Y-93980000D03*
G04 #@! TO.P,IC8,4,O*
G04 #@! TO.N,Net-(IC4-Pad5)*
X50800000Y-93980000D03*
G04 #@! TO.P,IC8,5,I*
G04 #@! TO.N,Net-(IC3-Pad8)*
X53340000Y-93980000D03*
G04 #@! TO.P,IC8,6,O*
G04 #@! TO.N,Net-(IC3-Pad5)*
X55880000Y-93980000D03*
G04 #@! TO.P,IC8,7*
G04 #@! TO.N,0*
X58420000Y-93980000D03*
G04 #@! TO.P,IC8,8,O*
G04 #@! TO.N,Net-(IC15-Pad11)*
X58420000Y-86360000D03*
G04 #@! TO.P,IC8,9,I*
G04 #@! TO.N,Net-(IC5-Pad11)*
X55880000Y-86360000D03*
G04 #@! TO.P,IC8,10,O*
G04 #@! TO.N,Net-(IC3-Pad13)*
X53340000Y-86360000D03*
G04 #@! TO.P,IC8,11,I*
G04 #@! TO.N,Net-(IC1-Pad34)*
X50800000Y-86360000D03*
G04 #@! TO.P,IC8,12,O*
G04 #@! TO.N,Net-(IC14-Pad2)*
X48260000Y-86360000D03*
G04 #@! TO.P,IC8,13,I*
G04 #@! TO.N,Net-(IC10-Pad3)*
X45720000Y-86360000D03*
G04 #@! TO.P,IC8,14*
G04 #@! TO.N,VCC*
X43180000Y-86360000D03*
G04 #@! TD*
G04 #@! TO.P,IC1,1,~{VPB}*
G04 #@! TO.N,unconnected-(IC1-Pad1)*
X105410000Y-59690000D03*
G04 #@! TO.P,IC1,2,RDY*
G04 #@! TO.N,Net-(IC1-Pad2)*
X107950000Y-59690000D03*
G04 #@! TO.P,IC1,3,PHI1O*
G04 #@! TO.N,unconnected-(IC1-Pad3)*
X110490000Y-59690000D03*
G04 #@! TO.P,IC1,4,~{IRQB}*
G04 #@! TO.N,VCC*
X113030000Y-59690000D03*
G04 #@! TO.P,IC1,5,~{MLB}*
G04 #@! TO.N,unconnected-(IC1-Pad5)*
X115570000Y-59690000D03*
G04 #@! TO.P,IC1,6,~{NMIB}*
G04 #@! TO.N,VCC*
X118110000Y-59690000D03*
G04 #@! TO.P,IC1,7,SYNC*
G04 #@! TO.N,unconnected-(IC1-Pad7)*
X120650000Y-59690000D03*
G04 #@! TO.P,IC1,8*
G04 #@! TO.N,VCC*
X123190000Y-59690000D03*
G04 #@! TO.P,IC1,9,A0*
G04 #@! TO.N,Net-(IC1-Pad9)*
X125730000Y-59690000D03*
G04 #@! TO.P,IC1,10,A1*
G04 #@! TO.N,Net-(IC1-Pad10)*
X128270000Y-59690000D03*
G04 #@! TO.P,IC1,11,A2*
G04 #@! TO.N,Net-(IC1-Pad11)*
X130810000Y-59690000D03*
G04 #@! TO.P,IC1,12,A3*
G04 #@! TO.N,Net-(IC1-Pad12)*
X133350000Y-59690000D03*
G04 #@! TO.P,IC1,13,A4*
G04 #@! TO.N,Net-(IC1-Pad13)*
X135890000Y-59690000D03*
G04 #@! TO.P,IC1,14,A5*
G04 #@! TO.N,Net-(IC1-Pad14)*
X138430000Y-59690000D03*
G04 #@! TO.P,IC1,15,A6*
G04 #@! TO.N,Net-(IC1-Pad15)*
X140970000Y-59690000D03*
G04 #@! TO.P,IC1,16,A7*
G04 #@! TO.N,Net-(IC1-Pad16)*
X143510000Y-59690000D03*
G04 #@! TO.P,IC1,17,A8*
G04 #@! TO.N,Net-(IC1-Pad17)*
X146050000Y-59690000D03*
G04 #@! TO.P,IC1,18,A9*
G04 #@! TO.N,Net-(IC1-Pad18)*
X148590000Y-59690000D03*
G04 #@! TO.P,IC1,19,A10*
G04 #@! TO.N,Net-(IC1-Pad19)*
X151130000Y-59690000D03*
G04 #@! TO.P,IC1,20,A11*
G04 #@! TO.N,Net-(IC1-Pad20)*
X153670000Y-59690000D03*
G04 #@! TO.P,IC1,21*
G04 #@! TO.N,0*
X153670000Y-44450000D03*
G04 #@! TO.P,IC1,22,A12*
G04 #@! TO.N,Net-(IC1-Pad22)*
X151130000Y-44450000D03*
G04 #@! TO.P,IC1,23,A13*
G04 #@! TO.N,Net-(IC1-Pad23)*
X148590000Y-44450000D03*
G04 #@! TO.P,IC1,24,A14*
G04 #@! TO.N,Net-(IC1-Pad24)*
X146050000Y-44450000D03*
G04 #@! TO.P,IC1,25,A15*
G04 #@! TO.N,Net-(IC1-Pad25)*
X143510000Y-44450000D03*
G04 #@! TO.P,IC1,26,D7*
G04 #@! TO.N,Net-(IC1-Pad26)*
X140970000Y-44450000D03*
G04 #@! TO.P,IC1,27,D6*
G04 #@! TO.N,Net-(IC1-Pad27)*
X138430000Y-44450000D03*
G04 #@! TO.P,IC1,28,D5*
G04 #@! TO.N,Net-(IC1-Pad28)*
X135890000Y-44450000D03*
G04 #@! TO.P,IC1,29,D4*
G04 #@! TO.N,Net-(IC1-Pad29)*
X133350000Y-44450000D03*
G04 #@! TO.P,IC1,30,D3*
G04 #@! TO.N,Net-(IC1-Pad30)*
X130810000Y-44450000D03*
G04 #@! TO.P,IC1,31,D2*
G04 #@! TO.N,Net-(IC1-Pad31)*
X128270000Y-44450000D03*
G04 #@! TO.P,IC1,32,D1*
G04 #@! TO.N,Net-(IC1-Pad32)*
X125730000Y-44450000D03*
G04 #@! TO.P,IC1,33,D0*
G04 #@! TO.N,Net-(IC1-Pad33)*
X123190000Y-44450000D03*
G04 #@! TO.P,IC1,34,R~{WB}*
G04 #@! TO.N,Net-(IC1-Pad34)*
X120650000Y-44450000D03*
G04 #@! TO.P,IC1,35,NC*
G04 #@! TO.N,unconnected-(IC1-Pad35)*
X118110000Y-44450000D03*
G04 #@! TO.P,IC1,36,BE*
G04 #@! TO.N,Net-(IC1-Pad36)*
X115570000Y-44450000D03*
G04 #@! TO.P,IC1,37,PHI2*
G04 #@! TO.N,Net-(IC1-Pad37)*
X113030000Y-44450000D03*
G04 #@! TO.P,IC1,38,~{SOB}*
G04 #@! TO.N,VCC*
X110490000Y-44450000D03*
G04 #@! TO.P,IC1,39,PHI2O*
G04 #@! TO.N,unconnected-(IC1-Pad39)*
X107950000Y-44450000D03*
G04 #@! TO.P,IC1,40,~{RESB}*
G04 #@! TO.N,Net-(IC1-Pad40)*
X105410000Y-44450000D03*
G04 #@! TD*
G04 #@! TO.P,IC3,1,I0*
G04 #@! TO.N,Net-(IC1-Pad36)*
X43180000Y-76200000D03*
G04 #@! TO.P,IC3,2,I1*
G04 #@! TO.N,Net-(IC3-Pad2)*
X45720000Y-76200000D03*
G04 #@! TO.P,IC3,3,O*
G04 #@! TO.N,Net-(IC1-Pad37)*
X48260000Y-76200000D03*
G04 #@! TO.P,IC3,4,I0*
G04 #@! TO.N,Net-(IC3-Pad4)*
X50800000Y-76200000D03*
G04 #@! TO.P,IC3,5,I1*
G04 #@! TO.N,Net-(IC3-Pad5)*
X53340000Y-76200000D03*
G04 #@! TO.P,IC3,6,O*
G04 #@! TO.N,Net-(IC3-Pad6)*
X55880000Y-76200000D03*
G04 #@! TO.P,IC3,7*
G04 #@! TO.N,0*
X58420000Y-76200000D03*
G04 #@! TO.P,IC3,8,O*
G04 #@! TO.N,Net-(IC3-Pad8)*
X58420000Y-68580000D03*
G04 #@! TO.P,IC3,9,I0*
G04 #@! TO.N,Net-(IC1-Pad37)*
X55880000Y-68580000D03*
G04 #@! TO.P,IC3,10,I1*
G04 #@! TO.N,Net-(IC1-Pad34)*
X53340000Y-68580000D03*
G04 #@! TO.P,IC3,11,O*
G04 #@! TO.N,Net-(IC3-Pad11)*
X50800000Y-68580000D03*
G04 #@! TO.P,IC3,12,I0*
G04 #@! TO.N,Net-(IC1-Pad37)*
X48260000Y-68580000D03*
G04 #@! TO.P,IC3,13,I1*
G04 #@! TO.N,Net-(IC3-Pad13)*
X45720000Y-68580000D03*
G04 #@! TO.P,IC3,14*
G04 #@! TO.N,VCC*
X43180000Y-68580000D03*
G04 #@! TD*
G04 #@! TO.P,IC14,1,G*
G04 #@! TO.N,Net-(IC1-Pad36)*
X101600000Y-132080000D03*
G04 #@! TO.P,IC14,2,A1*
G04 #@! TO.N,Net-(IC14-Pad2)*
X104140000Y-132080000D03*
G04 #@! TO.P,IC14,3,Y4*
G04 #@! TO.N,unconnected-(IC14-Pad3)*
X106680000Y-132080000D03*
G04 #@! TO.P,IC14,4,A2*
G04 #@! TO.N,Net-(IC14-Pad4)*
X109220000Y-132080000D03*
G04 #@! TO.P,IC14,5,Y3*
G04 #@! TO.N,Net-(IC14-Pad16)*
X111760000Y-132080000D03*
G04 #@! TO.P,IC14,6,A3*
G04 #@! TO.N,Net-(IC14-Pad6)*
X114300000Y-132080000D03*
G04 #@! TO.P,IC14,7,Y2*
G04 #@! TO.N,Net-(IC14-Pad14)*
X116840000Y-132080000D03*
G04 #@! TO.P,IC14,8,A4*
G04 #@! TO.N,Net-(IC14-Pad8)*
X119380000Y-132080000D03*
G04 #@! TO.P,IC14,9,Y1*
G04 #@! TO.N,Net-(IC14-Pad12)*
X121920000Y-132080000D03*
G04 #@! TO.P,IC14,10*
G04 #@! TO.N,0*
X124460000Y-132080000D03*
G04 #@! TO.P,IC14,11,A1*
G04 #@! TO.N,Net-(IC14-Pad11)*
X124460000Y-124460000D03*
G04 #@! TO.P,IC14,12,Y4*
G04 #@! TO.N,Net-(IC14-Pad12)*
X121920000Y-124460000D03*
G04 #@! TO.P,IC14,13,A2*
G04 #@! TO.N,Net-(IC14-Pad13)*
X119380000Y-124460000D03*
G04 #@! TO.P,IC14,14,Y3*
G04 #@! TO.N,Net-(IC14-Pad14)*
X116840000Y-124460000D03*
G04 #@! TO.P,IC14,15,A3*
G04 #@! TO.N,Net-(IC14-Pad15)*
X114300000Y-124460000D03*
G04 #@! TO.P,IC14,16,Y2*
G04 #@! TO.N,Net-(IC14-Pad16)*
X111760000Y-124460000D03*
G04 #@! TO.P,IC14,17,A4*
G04 #@! TO.N,unconnected-(IC14-Pad17)*
X109220000Y-124460000D03*
G04 #@! TO.P,IC14,18,Y1*
G04 #@! TO.N,Net-(IC1-Pad34)*
X106680000Y-124460000D03*
G04 #@! TO.P,IC14,19,G*
G04 #@! TO.N,Net-(IC14-Pad19)*
X104140000Y-124460000D03*
G04 #@! TO.P,IC14,20*
G04 #@! TO.N,VCC*
X101600000Y-124460000D03*
G04 #@! TD*
D11*
G04 #@! TO.P,C11,1,1*
G04 #@! TO.N,0*
X64770000Y-72012000D03*
G04 #@! TO.P,C11,2,2*
G04 #@! TO.N,VCC*
X64770000Y-69212000D03*
G04 #@! TD*
D10*
G04 #@! TO.P,IC5,1,I0*
G04 #@! TO.N,Net-(IC1-Pad25)*
X68580000Y-76200000D03*
G04 #@! TO.P,IC5,2,I1*
G04 #@! TO.N,Net-(IC5-Pad2)*
X71120000Y-76200000D03*
G04 #@! TO.P,IC5,3,O*
G04 #@! TO.N,Net-(IC5-Pad10)*
X73660000Y-76200000D03*
G04 #@! TO.P,IC5,4,I0*
G04 #@! TO.N,Net-(IC5-Pad4)*
X76200000Y-76200000D03*
G04 #@! TO.P,IC5,5,I1*
G04 #@! TO.N,Net-(IC1-Pad24)*
X78740000Y-76200000D03*
G04 #@! TO.P,IC5,6,O*
G04 #@! TO.N,Net-(IC5-Pad6)*
X81280000Y-76200000D03*
G04 #@! TO.P,IC5,7*
G04 #@! TO.N,0*
X83820000Y-76200000D03*
G04 #@! TO.P,IC5,8,O*
G04 #@! TO.N,Net-(IC3-Pad4)*
X83820000Y-68580000D03*
G04 #@! TO.P,IC5,9,I0*
G04 #@! TO.N,Net-(IC5-Pad6)*
X81280000Y-68580000D03*
G04 #@! TO.P,IC5,10,I1*
G04 #@! TO.N,Net-(IC5-Pad10)*
X78740000Y-68580000D03*
G04 #@! TO.P,IC5,11,O*
G04 #@! TO.N,Net-(IC5-Pad11)*
X76200000Y-68580000D03*
G04 #@! TO.P,IC5,12,I0*
G04 #@! TO.N,Net-(IC3-Pad4)*
X73660000Y-68580000D03*
G04 #@! TO.P,IC5,13,I1*
G04 #@! TO.N,Net-(IC5-Pad13)*
X71120000Y-68580000D03*
G04 #@! TO.P,IC5,14*
G04 #@! TO.N,VCC*
X68580000Y-68580000D03*
G04 #@! TD*
G04 #@! TO.P,IC4,1,I0*
G04 #@! TO.N,Net-(IC10-Pad3)*
X91440000Y-76200000D03*
G04 #@! TO.P,IC4,2,I1*
G04 #@! TO.N,Net-(IC14-Pad19)*
X93980000Y-76200000D03*
G04 #@! TO.P,IC4,3,O*
G04 #@! TO.N,Net-(IC4-Pad13)*
X96520000Y-76200000D03*
G04 #@! TO.P,IC4,4,I0*
G04 #@! TO.N,Net-(IC1-Pad36)*
X99060000Y-76200000D03*
G04 #@! TO.P,IC4,5,I1*
G04 #@! TO.N,Net-(IC4-Pad5)*
X101600000Y-76200000D03*
G04 #@! TO.P,IC4,6,O*
G04 #@! TO.N,Net-(IC4-Pad12)*
X104140000Y-76200000D03*
G04 #@! TO.P,IC4,7*
G04 #@! TO.N,0*
X106680000Y-76200000D03*
G04 #@! TO.P,IC4,8,O*
G04 #@! TO.N,Net-(IC4-Pad8)*
X106680000Y-68580000D03*
G04 #@! TO.P,IC4,9,I0*
G04 #@! TO.N,Net-(IC4-Pad10)*
X104140000Y-68580000D03*
G04 #@! TO.P,IC4,10,I1*
X101600000Y-68580000D03*
G04 #@! TO.P,IC4,11,O*
X99060000Y-68580000D03*
G04 #@! TO.P,IC4,12,I0*
G04 #@! TO.N,Net-(IC4-Pad12)*
X96520000Y-68580000D03*
G04 #@! TO.P,IC4,13,I1*
G04 #@! TO.N,Net-(IC4-Pad13)*
X93980000Y-68580000D03*
G04 #@! TO.P,IC4,14*
G04 #@! TO.N,VCC*
X91440000Y-68580000D03*
G04 #@! TD*
G04 #@! TO.P,IC9,1,I*
G04 #@! TO.N,Net-(IC3-Pad11)*
X68580000Y-93980000D03*
G04 #@! TO.P,IC9,2,O*
G04 #@! TO.N,Net-(IC5-Pad13)*
X71120000Y-93980000D03*
G04 #@! TO.P,IC9,3,I*
G04 #@! TO.N,Net-(IC1-Pad24)*
X73660000Y-93980000D03*
G04 #@! TO.P,IC9,4,O*
G04 #@! TO.N,Net-(IC5-Pad2)*
X76200000Y-93980000D03*
G04 #@! TO.P,IC9,5,I*
G04 #@! TO.N,Net-(IC1-Pad25)*
X78740000Y-93980000D03*
G04 #@! TO.P,IC9,6,O*
G04 #@! TO.N,Net-(IC5-Pad4)*
X81280000Y-93980000D03*
G04 #@! TO.P,IC9,7*
G04 #@! TO.N,0*
X83820000Y-93980000D03*
G04 #@! TO.P,IC9,8,O*
G04 #@! TO.N,unconnected-(IC9-Pad8)*
X83820000Y-86360000D03*
G04 #@! TO.P,IC9,9,I*
G04 #@! TO.N,0*
X81280000Y-86360000D03*
G04 #@! TO.P,IC9,10,O*
G04 #@! TO.N,unconnected-(IC9-Pad10)*
X78740000Y-86360000D03*
G04 #@! TO.P,IC9,11,I*
G04 #@! TO.N,0*
X76200000Y-86360000D03*
G04 #@! TO.P,IC9,12,O*
G04 #@! TO.N,unconnected-(IC9-Pad12)*
X73660000Y-86360000D03*
G04 #@! TO.P,IC9,13,I*
G04 #@! TO.N,0*
X71120000Y-86360000D03*
G04 #@! TO.P,IC9,14*
G04 #@! TO.N,VCC*
X68580000Y-86360000D03*
G04 #@! TD*
D13*
G04 #@! TO.P,U1,1,A14*
G04 #@! TO.N,Net-(IC1-Pad18)*
X116840000Y-91440000D03*
D14*
G04 #@! TO.P,U1,2,A12*
G04 #@! TO.N,Net-(IC1-Pad17)*
X119380000Y-91440000D03*
G04 #@! TO.P,U1,3,A7*
G04 #@! TO.N,Net-(IC1-Pad16)*
X121920000Y-91440000D03*
G04 #@! TO.P,U1,4,A6*
G04 #@! TO.N,Net-(IC1-Pad15)*
X124460000Y-91440000D03*
G04 #@! TO.P,U1,5,A5*
G04 #@! TO.N,Net-(IC1-Pad14)*
X127000000Y-91440000D03*
G04 #@! TO.P,U1,6,A4*
G04 #@! TO.N,Net-(IC1-Pad13)*
X129540000Y-91440000D03*
G04 #@! TO.P,U1,7,A3*
G04 #@! TO.N,Net-(IC1-Pad12)*
X132080000Y-91440000D03*
G04 #@! TO.P,U1,8,A2*
G04 #@! TO.N,Net-(IC1-Pad11)*
X134620000Y-91440000D03*
G04 #@! TO.P,U1,9,A1*
G04 #@! TO.N,Net-(IC1-Pad10)*
X137160000Y-91440000D03*
G04 #@! TO.P,U1,10,A0*
G04 #@! TO.N,Net-(IC1-Pad9)*
X139700000Y-91440000D03*
G04 #@! TO.P,U1,11,Q0*
G04 #@! TO.N,Net-(IC1-Pad33)*
X142240000Y-91440000D03*
G04 #@! TO.P,U1,12,Q1*
G04 #@! TO.N,Net-(IC1-Pad31)*
X144780000Y-91440000D03*
G04 #@! TO.P,U1,13,Q2*
G04 #@! TO.N,Net-(IC1-Pad29)*
X147320000Y-91440000D03*
G04 #@! TO.P,U1,14,GND*
G04 #@! TO.N,0*
X149860000Y-91440000D03*
G04 #@! TO.P,U1,15,Q3*
G04 #@! TO.N,unconnected-(U1-Pad15)*
X149860000Y-76200000D03*
G04 #@! TO.P,U1,16,Q4*
G04 #@! TO.N,unconnected-(U1-Pad16)*
X147320000Y-76200000D03*
G04 #@! TO.P,U1,17,Q5*
G04 #@! TO.N,unconnected-(U1-Pad17)*
X144780000Y-76200000D03*
G04 #@! TO.P,U1,18,Q6*
G04 #@! TO.N,unconnected-(U1-Pad18)*
X142240000Y-76200000D03*
G04 #@! TO.P,U1,19,Q7*
G04 #@! TO.N,unconnected-(U1-Pad19)*
X139700000Y-76200000D03*
G04 #@! TO.P,U1,20,~{CS}*
G04 #@! TO.N,Net-(IC3-Pad4)*
X137160000Y-76200000D03*
G04 #@! TO.P,U1,21,A10*
G04 #@! TO.N,Net-(IC1-Pad19)*
X134620000Y-76200000D03*
G04 #@! TO.P,U1,22,~{OE}*
G04 #@! TO.N,Net-(IC3-Pad8)*
X132080000Y-76200000D03*
G04 #@! TO.P,U1,23,A11*
G04 #@! TO.N,Net-(IC1-Pad20)*
X129540000Y-76200000D03*
G04 #@! TO.P,U1,24,A9*
G04 #@! TO.N,Net-(IC1-Pad22)*
X127000000Y-76200000D03*
G04 #@! TO.P,U1,25,A8*
G04 #@! TO.N,Net-(IC1-Pad23)*
X124460000Y-76200000D03*
G04 #@! TO.P,U1,26,A13*
G04 #@! TO.N,Net-(IC1-Pad25)*
X121920000Y-76200000D03*
G04 #@! TO.P,U1,27,~{WE}*
G04 #@! TO.N,Net-(IC3-Pad11)*
X119380000Y-76200000D03*
G04 #@! TO.P,U1,28,VCC*
G04 #@! TO.N,VCC*
X116840000Y-76200000D03*
G04 #@! TD*
D15*
G04 #@! TO.P,LED10,1,K*
G04 #@! TO.N,Net-(LED10-Pad1)*
X77216000Y-115606000D03*
G04 #@! TO.P,LED10,2,A*
G04 #@! TO.N,Net-(IC1-Pad15)*
X77216000Y-118206000D03*
G04 #@! TD*
G04 #@! TO.P,LED35,1,K*
G04 #@! TO.N,Net-(LED35-Pad1)*
X54610000Y-32990000D03*
G04 #@! TO.P,LED35,2,A*
G04 #@! TO.N,Net-(IC16-Pad13)*
X54610000Y-35590000D03*
G04 #@! TD*
G04 #@! TO.P,LED36,1,K*
G04 #@! TO.N,Net-(LED36-Pad1)*
X60960000Y-32990000D03*
G04 #@! TO.P,LED36,2,A*
G04 #@! TO.N,Net-(IC16-Pad14)*
X60960000Y-35590000D03*
G04 #@! TD*
G04 #@! TO.P,LED27,1,K*
G04 #@! TO.N,Net-(LED27-Pad1)*
X80010000Y-34260000D03*
G04 #@! TO.P,LED27,2,A*
G04 #@! TO.N,Net-(IC15-Pad17)*
X80010000Y-36860000D03*
G04 #@! TD*
D16*
G04 #@! TO.P,C2,1,1*
G04 #@! TO.N,0*
X46990000Y-176530000D03*
G04 #@! TO.P,C2,2,2*
G04 #@! TO.N,Net-(C2-Pad2)*
X49790000Y-176530000D03*
G04 #@! TD*
D17*
G04 #@! TO.P,R46,1,1*
G04 #@! TO.N,Net-(LED21-Pad1)*
X133096000Y-112492000D03*
G04 #@! TO.P,R46,2,2*
G04 #@! TO.N,0*
X133096000Y-110592000D03*
G04 #@! TD*
G04 #@! TO.P,R5,1,1*
G04 #@! TO.N,Net-(IC11-Pad6)*
X120650000Y-146492000D03*
G04 #@! TO.P,R5,2,2*
G04 #@! TO.N,0*
X120650000Y-144592000D03*
G04 #@! TD*
G04 #@! TO.P,R48,1,1*
G04 #@! TO.N,Net-(LED23-Pad1)*
X140716000Y-112492000D03*
G04 #@! TO.P,R48,2,2*
G04 #@! TO.N,0*
X140716000Y-110592000D03*
G04 #@! TD*
D11*
G04 #@! TO.P,C14,1,1*
G04 #@! TO.N,0*
X39370000Y-91570000D03*
G04 #@! TO.P,C14,2,2*
G04 #@! TO.N,VCC*
X39370000Y-88770000D03*
G04 #@! TD*
D15*
G04 #@! TO.P,LED19,1,K*
G04 #@! TO.N,Net-(LED19-Pad1)*
X125476000Y-115540000D03*
G04 #@! TO.P,LED19,2,A*
G04 #@! TO.N,Net-(IC1-Pad28)*
X125476000Y-118140000D03*
G04 #@! TD*
D17*
G04 #@! TO.P,R36,1,1*
G04 #@! TO.N,Net-(LED11-Pad1)*
X81026000Y-112522000D03*
G04 #@! TO.P,R36,2,2*
G04 #@! TO.N,0*
X81026000Y-110622000D03*
G04 #@! TD*
D10*
G04 #@! TO.P,SW3,1,1*
G04 #@! TO.N,VCC*
X134620000Y-176530000D03*
G04 #@! TO.P,SW3,2,2*
X137160000Y-176530000D03*
G04 #@! TO.P,SW3,3,3*
X139700000Y-176530000D03*
G04 #@! TO.P,SW3,4,4*
X142240000Y-176530000D03*
G04 #@! TO.P,SW3,5,5*
X144780000Y-176530000D03*
G04 #@! TO.P,SW3,6,6*
X147320000Y-176530000D03*
G04 #@! TO.P,SW3,7,7*
X149860000Y-176530000D03*
G04 #@! TO.P,SW3,8,8*
X152400000Y-176530000D03*
G04 #@! TO.P,SW3,9,9*
G04 #@! TO.N,Net-(R24-Pad1)*
X152400000Y-168910000D03*
G04 #@! TO.P,SW3,10,10*
G04 #@! TO.N,Net-(R23-Pad1)*
X149860000Y-168910000D03*
G04 #@! TO.P,SW3,11,11*
G04 #@! TO.N,Net-(R22-Pad1)*
X147320000Y-168910000D03*
G04 #@! TO.P,SW3,12,12*
G04 #@! TO.N,Net-(R21-Pad1)*
X144780000Y-168910000D03*
G04 #@! TO.P,SW3,13,13*
G04 #@! TO.N,Net-(R20-Pad1)*
X142240000Y-168910000D03*
G04 #@! TO.P,SW3,14,14*
G04 #@! TO.N,Net-(IC14-Pad4)*
X139700000Y-168910000D03*
G04 #@! TO.P,SW3,15,15*
G04 #@! TO.N,Net-(IC14-Pad6)*
X137160000Y-168910000D03*
G04 #@! TO.P,SW3,16,16*
G04 #@! TO.N,Net-(IC14-Pad8)*
X134620000Y-168910000D03*
G04 #@! TD*
D18*
G04 #@! TO.P,S1,A1,NC_1*
G04 #@! TO.N,unconnected-(S1-PadA1)*
X117380000Y-174945000D03*
G04 #@! TO.P,S1,A2,NO_1*
G04 #@! TO.N,Net-(IC10-Pad2)*
X121380000Y-174945000D03*
G04 #@! TO.P,S1,B1,NC_2*
G04 #@! TO.N,unconnected-(S1-PadB1)*
X117380000Y-169945000D03*
G04 #@! TO.P,S1,B2,NO_2*
G04 #@! TO.N,unconnected-(S1-PadB2)*
X121380000Y-169945000D03*
G04 #@! TO.P,S1,C1,COM_1*
G04 #@! TO.N,0*
X119380000Y-174945000D03*
G04 #@! TO.P,S1,C2,COM_2*
G04 #@! TO.N,unconnected-(S1-PadC2)*
X119380000Y-169945000D03*
G04 #@! TD*
D17*
G04 #@! TO.P,R8,1,1*
G04 #@! TO.N,Net-(IC11-Pad9)*
X128270000Y-146492000D03*
G04 #@! TO.P,R8,2,2*
G04 #@! TO.N,0*
X128270000Y-144592000D03*
G04 #@! TD*
D15*
G04 #@! TO.P,LED3,1,K*
G04 #@! TO.N,Net-(LED3-Pad1)*
X50546000Y-115576000D03*
G04 #@! TO.P,LED3,2,A*
G04 #@! TO.N,Net-(IC1-Pad23)*
X50546000Y-118176000D03*
G04 #@! TD*
D17*
G04 #@! TO.P,R39,1,1*
G04 #@! TO.N,Net-(LED14-Pad1)*
X92456000Y-112522000D03*
G04 #@! TO.P,R39,2,2*
G04 #@! TO.N,0*
X92456000Y-110622000D03*
G04 #@! TD*
G04 #@! TO.P,R21,1,1*
G04 #@! TO.N,Net-(R21-Pad1)*
X144780000Y-164780000D03*
G04 #@! TO.P,R21,2,2*
G04 #@! TO.N,0*
X144780000Y-162880000D03*
G04 #@! TD*
D16*
G04 #@! TO.P,C4,1,1*
G04 #@! TO.N,0*
X64900000Y-176530000D03*
G04 #@! TO.P,C4,2,2*
G04 #@! TO.N,Net-(C4-Pad2)*
X62100000Y-176530000D03*
G04 #@! TD*
D17*
G04 #@! TO.P,R1,1,1*
G04 #@! TO.N,Net-(IC11-Pad2)*
X110490000Y-146492000D03*
G04 #@! TO.P,R1,2,2*
G04 #@! TO.N,0*
X110490000Y-144592000D03*
G04 #@! TD*
G04 #@! TO.P,R72,1,1*
G04 #@! TO.N,Net-(LED35-Pad1)*
X54610000Y-27620000D03*
G04 #@! TO.P,R72,2,2*
G04 #@! TO.N,0*
X54610000Y-25720000D03*
G04 #@! TD*
D19*
G04 #@! TO.P,R62,1,1*
G04 #@! TO.N,Net-(IC7-Pad7)*
X39690000Y-170180000D03*
G04 #@! TO.P,R62,2,2*
G04 #@! TO.N,VCC*
X41590000Y-170180000D03*
G04 #@! TD*
D17*
G04 #@! TO.P,R38,1,1*
G04 #@! TO.N,Net-(LED13-Pad1)*
X88646000Y-112522000D03*
G04 #@! TO.P,R38,2,2*
G04 #@! TO.N,0*
X88646000Y-110622000D03*
G04 #@! TD*
G04 #@! TO.P,R35,1,1*
G04 #@! TO.N,Net-(LED10-Pad1)*
X77216000Y-112522000D03*
G04 #@! TO.P,R35,2,2*
G04 #@! TO.N,0*
X77216000Y-110622000D03*
G04 #@! TD*
D20*
G04 #@! TO.P,IC10,1,GND*
G04 #@! TO.N,0*
X91440000Y-171450000D03*
G04 #@! TO.P,IC10,2,TR*
G04 #@! TO.N,Net-(IC10-Pad2)*
X93980000Y-171450000D03*
G04 #@! TO.P,IC10,3,Q*
G04 #@! TO.N,Net-(IC10-Pad3)*
X96520000Y-171450000D03*
G04 #@! TO.P,IC10,4,R*
G04 #@! TO.N,VCC*
X99060000Y-171450000D03*
G04 #@! TO.P,IC10,5,CV*
G04 #@! TO.N,Net-(C6-Pad2)*
X99060000Y-163830000D03*
G04 #@! TO.P,IC10,6,THR*
G04 #@! TO.N,Net-(C5-Pad2)*
X96520000Y-163830000D03*
G04 #@! TO.P,IC10,7,DIS*
X93980000Y-163830000D03*
G04 #@! TO.P,IC10,8,V+*
G04 #@! TO.N,VCC*
X91440000Y-163830000D03*
G04 #@! TD*
D11*
G04 #@! TO.P,C12,1,1*
G04 #@! TO.N,0*
X87630000Y-73790000D03*
G04 #@! TO.P,C12,2,2*
G04 #@! TO.N,VCC*
X87630000Y-70990000D03*
G04 #@! TD*
G04 #@! TO.P,C10,1,1*
G04 #@! TO.N,0*
X38862000Y-73790000D03*
G04 #@! TO.P,C10,2,2*
G04 #@! TO.N,VCC*
X38862000Y-70990000D03*
G04 #@! TD*
D17*
G04 #@! TO.P,R43,1,1*
G04 #@! TO.N,Net-(LED18-Pad1)*
X121666000Y-112492000D03*
G04 #@! TO.P,R43,2,2*
G04 #@! TO.N,0*
X121666000Y-110592000D03*
G04 #@! TD*
G04 #@! TO.P,R13,1,1*
G04 #@! TO.N,Net-(IC12-Pad6)*
X143510000Y-146558000D03*
G04 #@! TO.P,R13,2,2*
G04 #@! TO.N,0*
X143510000Y-144658000D03*
G04 #@! TD*
D20*
G04 #@! TO.P,IC6,1,GND*
G04 #@! TO.N,0*
X69850000Y-171450000D03*
G04 #@! TO.P,IC6,2,TR*
G04 #@! TO.N,Net-(IC6-Pad2)*
X72390000Y-171450000D03*
G04 #@! TO.P,IC6,3,Q*
G04 #@! TO.N,Net-(IC6-Pad3)*
X74930000Y-171450000D03*
G04 #@! TO.P,IC6,4,R*
G04 #@! TO.N,VCC*
X77470000Y-171450000D03*
G04 #@! TO.P,IC6,5,CV*
G04 #@! TO.N,Net-(C3-Pad2)*
X77470000Y-163830000D03*
G04 #@! TO.P,IC6,6,THR*
G04 #@! TO.N,Net-(C4-Pad2)*
X74930000Y-163830000D03*
G04 #@! TO.P,IC6,7,DIS*
X72390000Y-163830000D03*
G04 #@! TO.P,IC6,8,V+*
G04 #@! TO.N,VCC*
X69850000Y-163830000D03*
G04 #@! TD*
D15*
G04 #@! TO.P,LED12,1,K*
G04 #@! TO.N,Net-(LED12-Pad1)*
X84836000Y-115606000D03*
G04 #@! TO.P,LED12,2,A*
G04 #@! TO.N,Net-(IC1-Pad13)*
X84836000Y-118206000D03*
G04 #@! TD*
G04 #@! TO.P,LED31,1,K*
G04 #@! TO.N,Net-(LED31-Pad1)*
X95250000Y-34260000D03*
G04 #@! TO.P,LED31,2,A*
G04 #@! TO.N,Net-(IC15-Pad13)*
X95250000Y-36860000D03*
G04 #@! TD*
D11*
G04 #@! TO.P,C8,1,1*
G04 #@! TO.N,0*
X53340000Y-57280000D03*
G04 #@! TO.P,C8,2,2*
G04 #@! TO.N,Net-(C7-Pad2)*
X53340000Y-54480000D03*
G04 #@! TD*
D15*
G04 #@! TO.P,LED18,1,K*
G04 #@! TO.N,Net-(LED18-Pad1)*
X121666000Y-115540000D03*
G04 #@! TO.P,LED18,2,A*
G04 #@! TO.N,Net-(IC1-Pad27)*
X121666000Y-118140000D03*
G04 #@! TD*
D20*
G04 #@! TO.P,IC7,1,GND*
G04 #@! TO.N,0*
X46990000Y-171450000D03*
G04 #@! TO.P,IC7,2,TR*
G04 #@! TO.N,Net-(C2-Pad2)*
X49530000Y-171450000D03*
G04 #@! TO.P,IC7,3,Q*
G04 #@! TO.N,Net-(IC7-Pad3)*
X52070000Y-171450000D03*
G04 #@! TO.P,IC7,4,R*
G04 #@! TO.N,VCC*
X54610000Y-171450000D03*
G04 #@! TO.P,IC7,5,CV*
G04 #@! TO.N,Net-(C1-Pad2)*
X54610000Y-163830000D03*
G04 #@! TO.P,IC7,6,THR*
G04 #@! TO.N,Net-(C2-Pad2)*
X52070000Y-163830000D03*
G04 #@! TO.P,IC7,7,DIS*
G04 #@! TO.N,Net-(IC7-Pad7)*
X49530000Y-163830000D03*
G04 #@! TO.P,IC7,8,V+*
G04 #@! TO.N,VCC*
X46990000Y-163830000D03*
G04 #@! TD*
D17*
G04 #@! TO.P,R44,1,1*
G04 #@! TO.N,Net-(LED19-Pad1)*
X125476000Y-112492000D03*
G04 #@! TO.P,R44,2,2*
G04 #@! TO.N,0*
X125476000Y-110592000D03*
G04 #@! TD*
G04 #@! TO.P,R68,1,1*
G04 #@! TO.N,Net-(LED34-Pad1)*
X144370000Y-36510000D03*
G04 #@! TO.P,R68,2,2*
G04 #@! TO.N,0*
X144370000Y-34610000D03*
G04 #@! TD*
D10*
G04 #@! TO.P,SW2,1,1*
G04 #@! TO.N,VCC*
X134620000Y-157734000D03*
G04 #@! TO.P,SW2,2,2*
X137160000Y-157734000D03*
G04 #@! TO.P,SW2,3,3*
X139700000Y-157734000D03*
G04 #@! TO.P,SW2,4,4*
X142240000Y-157734000D03*
G04 #@! TO.P,SW2,5,5*
X144780000Y-157734000D03*
G04 #@! TO.P,SW2,6,6*
X147320000Y-157734000D03*
G04 #@! TO.P,SW2,7,7*
X149860000Y-157734000D03*
G04 #@! TO.P,SW2,8,8*
X152400000Y-157734000D03*
G04 #@! TO.P,SW2,9,9*
G04 #@! TO.N,Net-(IC12-Pad9)*
X152400000Y-150114000D03*
G04 #@! TO.P,SW2,10,10*
G04 #@! TO.N,Net-(IC12-Pad8)*
X149860000Y-150114000D03*
G04 #@! TO.P,SW2,11,11*
G04 #@! TO.N,Net-(IC12-Pad7)*
X147320000Y-150114000D03*
G04 #@! TO.P,SW2,12,12*
G04 #@! TO.N,Net-(IC12-Pad6)*
X144780000Y-150114000D03*
G04 #@! TO.P,SW2,13,13*
G04 #@! TO.N,Net-(IC12-Pad5)*
X142240000Y-150114000D03*
G04 #@! TO.P,SW2,14,14*
G04 #@! TO.N,Net-(IC12-Pad4)*
X139700000Y-150114000D03*
G04 #@! TO.P,SW2,15,15*
G04 #@! TO.N,Net-(IC12-Pad3)*
X137160000Y-150114000D03*
G04 #@! TO.P,SW2,16,16*
G04 #@! TO.N,Net-(IC12-Pad2)*
X134620000Y-150114000D03*
G04 #@! TD*
D11*
G04 #@! TO.P,C18,1,1*
G04 #@! TO.N,0*
X100584000Y-48638000D03*
G04 #@! TO.P,C18,2,2*
G04 #@! TO.N,VCC*
X100584000Y-51438000D03*
G04 #@! TD*
D16*
G04 #@! TO.P,C3,1,1*
G04 #@! TO.N,0*
X80140000Y-176530000D03*
G04 #@! TO.P,C3,2,2*
G04 #@! TO.N,Net-(C3-Pad2)*
X77340000Y-176530000D03*
G04 #@! TD*
D17*
G04 #@! TO.P,R56,1,1*
G04 #@! TO.N,Net-(LED31-Pad1)*
X95250000Y-27620000D03*
G04 #@! TO.P,R56,2,2*
G04 #@! TO.N,0*
X95250000Y-25720000D03*
G04 #@! TD*
D11*
G04 #@! TO.P,C19,1,1*
G04 #@! TO.N,0*
X110236000Y-81156000D03*
G04 #@! TO.P,C19,2,2*
G04 #@! TO.N,VCC*
X110236000Y-78356000D03*
G04 #@! TD*
D17*
G04 #@! TO.P,R3,1,1*
G04 #@! TO.N,Net-(IC11-Pad4)*
X115570000Y-146492000D03*
G04 #@! TO.P,R3,2,2*
G04 #@! TO.N,0*
X115570000Y-144592000D03*
G04 #@! TD*
G04 #@! TO.P,R18,1,1*
G04 #@! TO.N,Net-(IC14-Pad6)*
X137160000Y-164780000D03*
G04 #@! TO.P,R18,2,2*
G04 #@! TO.N,0*
X137160000Y-162880000D03*
G04 #@! TD*
D15*
G04 #@! TO.P,LED11,1,K*
G04 #@! TO.N,Net-(LED11-Pad1)*
X81026000Y-115606000D03*
G04 #@! TO.P,LED11,2,A*
G04 #@! TO.N,Net-(IC1-Pad14)*
X81026000Y-118206000D03*
G04 #@! TD*
D11*
G04 #@! TO.P,C13,1,1*
G04 #@! TO.N,0*
X64770000Y-91570000D03*
G04 #@! TO.P,C13,2,2*
G04 #@! TO.N,VCC*
X64770000Y-88770000D03*
G04 #@! TD*
D17*
G04 #@! TO.P,R51,1,1*
G04 #@! TO.N,Net-(LED26-Pad1)*
X76200000Y-27620000D03*
G04 #@! TO.P,R51,2,2*
G04 #@! TO.N,0*
X76200000Y-25720000D03*
G04 #@! TD*
D15*
G04 #@! TO.P,LED22,1,K*
G04 #@! TO.N,Net-(LED22-Pad1)*
X136906000Y-115540000D03*
G04 #@! TO.P,LED22,2,A*
G04 #@! TO.N,Net-(IC1-Pad31)*
X136906000Y-118140000D03*
G04 #@! TD*
D21*
G04 #@! TO.P,S4,1,1*
G04 #@! TO.N,Net-(QG1-Pad5)*
X86360000Y-146876000D03*
G04 #@! TO.P,S4,2,2*
G04 #@! TO.N,Net-(IC3-Pad2)*
X86360000Y-150876000D03*
G04 #@! TO.P,S4,3,3*
G04 #@! TO.N,Net-(IC7-Pad3)*
X86360000Y-152876000D03*
G04 #@! TO.P,S4,4,4*
G04 #@! TO.N,Net-(IC6-Pad3)*
X86360000Y-154876000D03*
D22*
G04 #@! TO.P,S4,5,5*
G04 #@! TO.N,0*
X86360000Y-144776000D03*
G04 #@! TO.P,S4,6,6*
X86360000Y-156976000D03*
G04 #@! TD*
D17*
G04 #@! TO.P,R15,1,1*
G04 #@! TO.N,Net-(IC12-Pad8)*
X148590000Y-146558000D03*
G04 #@! TO.P,R15,2,2*
G04 #@! TO.N,0*
X148590000Y-144658000D03*
G04 #@! TD*
D18*
G04 #@! TO.P,S3,A1,NC_1*
G04 #@! TO.N,unconnected-(S3-PadA1)*
X109220000Y-33020000D03*
G04 #@! TO.P,S3,A2,NO_1*
G04 #@! TO.N,0*
X113220000Y-33020000D03*
G04 #@! TO.P,S3,B1,NC_2*
G04 #@! TO.N,unconnected-(S3-PadB1)*
X109220000Y-28020000D03*
G04 #@! TO.P,S3,B2,NO_2*
G04 #@! TO.N,unconnected-(S3-PadB2)*
X113220000Y-28020000D03*
G04 #@! TO.P,S3,C1,COM_1*
G04 #@! TO.N,Net-(IC1-Pad40)*
X111220000Y-33020000D03*
G04 #@! TO.P,S3,C2,COM_2*
G04 #@! TO.N,unconnected-(S3-PadC2)*
X111220000Y-28020000D03*
G04 #@! TD*
D15*
G04 #@! TO.P,LED24,1,K*
G04 #@! TO.N,Net-(LED24-Pad1)*
X144526000Y-115510000D03*
G04 #@! TO.P,LED24,2,A*
G04 #@! TO.N,Net-(IC1-Pad33)*
X144526000Y-118110000D03*
G04 #@! TD*
D17*
G04 #@! TO.P,R33,1,1*
G04 #@! TO.N,Net-(LED9-Pad1)*
X69596000Y-112522000D03*
G04 #@! TO.P,R33,2,2*
G04 #@! TO.N,0*
X69596000Y-110622000D03*
G04 #@! TD*
D15*
G04 #@! TO.P,LED28,1,K*
G04 #@! TO.N,Net-(LED28-Pad1)*
X83820000Y-34260000D03*
G04 #@! TO.P,LED28,2,A*
G04 #@! TO.N,Net-(IC15-Pad16)*
X83820000Y-36860000D03*
G04 #@! TD*
G04 #@! TO.P,LED21,1,K*
G04 #@! TO.N,Net-(LED21-Pad1)*
X133096000Y-115540000D03*
G04 #@! TO.P,LED21,2,A*
G04 #@! TO.N,Net-(IC1-Pad30)*
X133096000Y-118140000D03*
G04 #@! TD*
G04 #@! TO.P,LED23,1,K*
G04 #@! TO.N,Net-(LED23-Pad1)*
X140716000Y-115540000D03*
G04 #@! TO.P,LED23,2,A*
G04 #@! TO.N,Net-(IC1-Pad32)*
X140716000Y-118140000D03*
G04 #@! TD*
D17*
G04 #@! TO.P,R45,1,1*
G04 #@! TO.N,Net-(LED20-Pad1)*
X129286000Y-112492000D03*
G04 #@! TO.P,R45,2,2*
G04 #@! TO.N,0*
X129286000Y-110592000D03*
G04 #@! TD*
G04 #@! TO.P,R41,1,1*
G04 #@! TO.N,Net-(LED16-Pad1)*
X100076000Y-112522000D03*
G04 #@! TO.P,R41,2,2*
G04 #@! TO.N,0*
X100076000Y-110622000D03*
G04 #@! TD*
G04 #@! TO.P,R11,1,1*
G04 #@! TO.N,Net-(IC12-Pad4)*
X138430000Y-146558000D03*
G04 #@! TO.P,R11,2,2*
G04 #@! TO.N,0*
X138430000Y-144658000D03*
G04 #@! TD*
G04 #@! TO.P,R30,1,1*
G04 #@! TO.N,Net-(LED5-Pad1)*
X58166000Y-112492000D03*
G04 #@! TO.P,R30,2,2*
G04 #@! TO.N,0*
X58166000Y-110592000D03*
G04 #@! TD*
G04 #@! TO.P,R14,1,1*
G04 #@! TO.N,Net-(IC12-Pad7)*
X146050000Y-146558000D03*
G04 #@! TO.P,R14,2,2*
G04 #@! TO.N,0*
X146050000Y-144658000D03*
G04 #@! TD*
G04 #@! TO.P,R70,1,1*
G04 #@! TO.N,Net-(LED37-Pad1)*
X46990000Y-27650000D03*
G04 #@! TO.P,R70,2,2*
G04 #@! TO.N,0*
X46990000Y-25750000D03*
G04 #@! TD*
G04 #@! TO.P,R69,1,1*
G04 #@! TO.N,Net-(LED33-Pad1)*
X134210000Y-36510000D03*
G04 #@! TO.P,R69,2,2*
G04 #@! TO.N,0*
X134210000Y-34610000D03*
G04 #@! TD*
D19*
G04 #@! TO.P,R58,1,1*
G04 #@! TO.N,Net-(IC1-Pad2)*
X109286000Y-64008000D03*
G04 #@! TO.P,R58,2,2*
G04 #@! TO.N,VCC*
X111186000Y-64008000D03*
G04 #@! TD*
D17*
G04 #@! TO.P,R10,1,1*
G04 #@! TO.N,Net-(IC12-Pad3)*
X135890000Y-146558000D03*
G04 #@! TO.P,R10,2,2*
G04 #@! TO.N,0*
X135890000Y-144658000D03*
G04 #@! TD*
G04 #@! TO.P,R19,1,1*
G04 #@! TO.N,Net-(IC14-Pad4)*
X139700000Y-164780000D03*
G04 #@! TO.P,R19,2,2*
G04 #@! TO.N,0*
X139700000Y-162880000D03*
G04 #@! TD*
G04 #@! TO.P,R9,1,1*
G04 #@! TO.N,Net-(IC12-Pad2)*
X133350000Y-146558000D03*
G04 #@! TO.P,R9,2,2*
G04 #@! TO.N,0*
X133350000Y-144658000D03*
G04 #@! TD*
D19*
G04 #@! TO.P,R63,1,1*
G04 #@! TO.N,Net-(IC6-Pad2)*
X70170000Y-176530000D03*
G04 #@! TO.P,R63,2,2*
G04 #@! TO.N,VCC*
X72070000Y-176530000D03*
G04 #@! TD*
D11*
G04 #@! TO.P,C20,1,1*
G04 #@! TO.N,0*
X66294000Y-51438000D03*
G04 #@! TO.P,C20,2,2*
G04 #@! TO.N,VCC*
X66294000Y-48638000D03*
G04 #@! TD*
D17*
G04 #@! TO.P,R42,1,1*
G04 #@! TO.N,Net-(LED17-Pad1)*
X117856000Y-112492000D03*
G04 #@! TO.P,R42,2,2*
G04 #@! TO.N,0*
X117856000Y-110592000D03*
G04 #@! TD*
G04 #@! TO.P,R55,1,1*
G04 #@! TO.N,Net-(LED30-Pad1)*
X91440000Y-27620000D03*
G04 #@! TO.P,R55,2,2*
G04 #@! TO.N,0*
X91440000Y-25720000D03*
G04 #@! TD*
G04 #@! TO.P,R67,1,1*
G04 #@! TO.N,VCC*
X57912000Y-55560000D03*
G04 #@! TO.P,R67,2,2*
G04 #@! TO.N,Net-(IC16-Pad9)*
X57912000Y-53660000D03*
G04 #@! TD*
D10*
G04 #@! TO.P,IC11,1,DIR*
G04 #@! TO.N,VCC*
X40640000Y-132080000D03*
G04 #@! TO.P,IC11,2,A1*
G04 #@! TO.N,Net-(IC11-Pad2)*
X43180000Y-132080000D03*
G04 #@! TO.P,IC11,3,A2*
G04 #@! TO.N,Net-(IC11-Pad3)*
X45720000Y-132080000D03*
G04 #@! TO.P,IC11,4,A3*
G04 #@! TO.N,Net-(IC11-Pad4)*
X48260000Y-132080000D03*
G04 #@! TO.P,IC11,5,A4*
G04 #@! TO.N,Net-(IC11-Pad5)*
X50800000Y-132080000D03*
G04 #@! TO.P,IC11,6,A5*
G04 #@! TO.N,Net-(IC11-Pad6)*
X53340000Y-132080000D03*
G04 #@! TO.P,IC11,7,A6*
G04 #@! TO.N,Net-(IC11-Pad7)*
X55880000Y-132080000D03*
G04 #@! TO.P,IC11,8,A7*
G04 #@! TO.N,Net-(IC11-Pad8)*
X58420000Y-132080000D03*
G04 #@! TO.P,IC11,9,A8*
G04 #@! TO.N,Net-(IC11-Pad9)*
X60960000Y-132080000D03*
G04 #@! TO.P,IC11,10*
G04 #@! TO.N,0*
X63500000Y-132080000D03*
G04 #@! TO.P,IC11,11,B8*
G04 #@! TO.N,Net-(IC1-Pad17)*
X63500000Y-124460000D03*
G04 #@! TO.P,IC11,12,B7*
G04 #@! TO.N,Net-(IC1-Pad18)*
X60960000Y-124460000D03*
G04 #@! TO.P,IC11,13,B6*
G04 #@! TO.N,Net-(IC1-Pad19)*
X58420000Y-124460000D03*
G04 #@! TO.P,IC11,14,B5*
G04 #@! TO.N,Net-(IC1-Pad20)*
X55880000Y-124460000D03*
G04 #@! TO.P,IC11,15,B4*
G04 #@! TO.N,Net-(IC1-Pad22)*
X53340000Y-124460000D03*
G04 #@! TO.P,IC11,16,B3*
G04 #@! TO.N,Net-(IC1-Pad23)*
X50800000Y-124460000D03*
G04 #@! TO.P,IC11,17,B2*
G04 #@! TO.N,Net-(IC1-Pad24)*
X48260000Y-124460000D03*
G04 #@! TO.P,IC11,18,B1*
G04 #@! TO.N,Net-(IC1-Pad25)*
X45720000Y-124460000D03*
G04 #@! TO.P,IC11,19,G*
G04 #@! TO.N,Net-(IC1-Pad36)*
X43180000Y-124460000D03*
G04 #@! TO.P,IC11,20*
G04 #@! TO.N,VCC*
X40640000Y-124460000D03*
G04 #@! TD*
D17*
G04 #@! TO.P,R22,1,1*
G04 #@! TO.N,Net-(R22-Pad1)*
X147320000Y-164780000D03*
G04 #@! TO.P,R22,2,2*
G04 #@! TO.N,0*
X147320000Y-162880000D03*
G04 #@! TD*
G04 #@! TO.P,R71,1,1*
G04 #@! TO.N,Net-(LED38-Pad1)*
X40640000Y-27650000D03*
G04 #@! TO.P,R71,2,2*
G04 #@! TO.N,0*
X40640000Y-25750000D03*
G04 #@! TD*
D15*
G04 #@! TO.P,LED15,1,K*
G04 #@! TO.N,Net-(LED15-Pad1)*
X96266000Y-115606000D03*
G04 #@! TO.P,LED15,2,A*
G04 #@! TO.N,Net-(IC1-Pad10)*
X96266000Y-118206000D03*
G04 #@! TD*
G04 #@! TO.P,LED8,1,K*
G04 #@! TO.N,Net-(LED8-Pad1)*
X73406000Y-115606000D03*
G04 #@! TO.P,LED8,2,A*
G04 #@! TO.N,Net-(IC1-Pad16)*
X73406000Y-118206000D03*
G04 #@! TD*
D17*
G04 #@! TO.P,R2,1,1*
G04 #@! TO.N,Net-(IC11-Pad3)*
X113030000Y-146492000D03*
G04 #@! TO.P,R2,2,2*
G04 #@! TO.N,0*
X113030000Y-144592000D03*
G04 #@! TD*
G04 #@! TO.P,R40,1,1*
G04 #@! TO.N,Net-(LED15-Pad1)*
X96266000Y-112522000D03*
G04 #@! TO.P,R40,2,2*
G04 #@! TO.N,0*
X96266000Y-110622000D03*
G04 #@! TD*
D15*
G04 #@! TO.P,LED6,1,K*
G04 #@! TO.N,Net-(LED6-Pad1)*
X61976000Y-115576000D03*
G04 #@! TO.P,LED6,2,A*
G04 #@! TO.N,Net-(IC1-Pad19)*
X61976000Y-118176000D03*
G04 #@! TD*
G04 #@! TO.P,LED13,1,K*
G04 #@! TO.N,Net-(LED13-Pad1)*
X88646000Y-115606000D03*
G04 #@! TO.P,LED13,2,A*
G04 #@! TO.N,Net-(IC1-Pad12)*
X88646000Y-118206000D03*
G04 #@! TD*
D19*
G04 #@! TO.P,R66,1,1*
G04 #@! TO.N,Net-(C5-Pad2)*
X103510000Y-163830000D03*
G04 #@! TO.P,R66,2,2*
G04 #@! TO.N,VCC*
X105410000Y-163830000D03*
G04 #@! TD*
D10*
G04 #@! TO.P,SW4,1,1*
G04 #@! TO.N,VCC*
X97536000Y-156718000D03*
G04 #@! TO.P,SW4,2,2*
G04 #@! TO.N,Net-(IC1-Pad36)*
X97536000Y-149098000D03*
G04 #@! TD*
D15*
G04 #@! TO.P,LED7,1,K*
G04 #@! TO.N,Net-(LED7-Pad1)*
X65786000Y-115576000D03*
G04 #@! TO.P,LED7,2,A*
G04 #@! TO.N,Net-(IC1-Pad18)*
X65786000Y-118176000D03*
G04 #@! TD*
D17*
G04 #@! TO.P,R57,1,1*
G04 #@! TO.N,Net-(LED32-Pad1)*
X99060000Y-27620000D03*
G04 #@! TO.P,R57,2,2*
G04 #@! TO.N,0*
X99060000Y-25720000D03*
G04 #@! TD*
D19*
G04 #@! TO.P,R59,1,1*
G04 #@! TO.N,Net-(IC1-Pad40)*
X107000000Y-39370000D03*
G04 #@! TO.P,R59,2,2*
G04 #@! TO.N,VCC*
X108900000Y-39370000D03*
G04 #@! TD*
D15*
G04 #@! TO.P,LED30,1,K*
G04 #@! TO.N,Net-(LED30-Pad1)*
X91440000Y-34260000D03*
G04 #@! TO.P,LED30,2,A*
G04 #@! TO.N,Net-(IC15-Pad14)*
X91440000Y-36860000D03*
G04 #@! TD*
G04 #@! TO.P,LED20,1,K*
G04 #@! TO.N,Net-(LED20-Pad1)*
X129286000Y-115540000D03*
G04 #@! TO.P,LED20,2,A*
G04 #@! TO.N,Net-(IC1-Pad29)*
X129286000Y-118140000D03*
G04 #@! TD*
D17*
G04 #@! TO.P,R7,1,1*
G04 #@! TO.N,Net-(IC11-Pad8)*
X125730000Y-146492000D03*
G04 #@! TO.P,R7,2,2*
G04 #@! TO.N,0*
X125730000Y-144592000D03*
G04 #@! TD*
D15*
G04 #@! TO.P,LED32,1,K*
G04 #@! TO.N,Net-(LED32-Pad1)*
X99060000Y-34260000D03*
G04 #@! TO.P,LED32,2,A*
G04 #@! TO.N,Net-(IC15-Pad12)*
X99060000Y-36860000D03*
G04 #@! TD*
G04 #@! TO.P,LED34,1,K*
G04 #@! TO.N,Net-(LED34-Pad1)*
X139700000Y-34514000D03*
G04 #@! TO.P,LED34,2,A*
G04 #@! TO.N,Net-(IC1-Pad34)*
X139700000Y-37114000D03*
G04 #@! TD*
D17*
G04 #@! TO.P,R47,1,1*
G04 #@! TO.N,Net-(LED22-Pad1)*
X136906000Y-112492000D03*
G04 #@! TO.P,R47,2,2*
G04 #@! TO.N,0*
X136906000Y-110592000D03*
G04 #@! TD*
G04 #@! TO.P,R12,1,1*
G04 #@! TO.N,Net-(IC12-Pad5)*
X140970000Y-146558000D03*
G04 #@! TO.P,R12,2,2*
G04 #@! TO.N,0*
X140970000Y-144658000D03*
G04 #@! TD*
D10*
G04 #@! TO.P,IC12,1,DIR*
G04 #@! TO.N,VCC*
X71120000Y-132080000D03*
G04 #@! TO.P,IC12,2,A1*
G04 #@! TO.N,Net-(IC12-Pad2)*
X73660000Y-132080000D03*
G04 #@! TO.P,IC12,3,A2*
G04 #@! TO.N,Net-(IC12-Pad3)*
X76200000Y-132080000D03*
G04 #@! TO.P,IC12,4,A3*
G04 #@! TO.N,Net-(IC12-Pad4)*
X78740000Y-132080000D03*
G04 #@! TO.P,IC12,5,A4*
G04 #@! TO.N,Net-(IC12-Pad5)*
X81280000Y-132080000D03*
G04 #@! TO.P,IC12,6,A5*
G04 #@! TO.N,Net-(IC12-Pad6)*
X83820000Y-132080000D03*
G04 #@! TO.P,IC12,7,A6*
G04 #@! TO.N,Net-(IC12-Pad7)*
X86360000Y-132080000D03*
G04 #@! TO.P,IC12,8,A7*
G04 #@! TO.N,Net-(IC12-Pad8)*
X88900000Y-132080000D03*
G04 #@! TO.P,IC12,9,A8*
G04 #@! TO.N,Net-(IC12-Pad9)*
X91440000Y-132080000D03*
G04 #@! TO.P,IC12,10*
G04 #@! TO.N,0*
X93980000Y-132080000D03*
G04 #@! TO.P,IC12,11,B8*
G04 #@! TO.N,Net-(IC1-Pad9)*
X93980000Y-124460000D03*
G04 #@! TO.P,IC12,12,B7*
G04 #@! TO.N,Net-(IC1-Pad10)*
X91440000Y-124460000D03*
G04 #@! TO.P,IC12,13,B6*
G04 #@! TO.N,Net-(IC1-Pad11)*
X88900000Y-124460000D03*
G04 #@! TO.P,IC12,14,B5*
G04 #@! TO.N,Net-(IC1-Pad12)*
X86360000Y-124460000D03*
G04 #@! TO.P,IC12,15,B4*
G04 #@! TO.N,Net-(IC1-Pad13)*
X83820000Y-124460000D03*
G04 #@! TO.P,IC12,16,B3*
G04 #@! TO.N,Net-(IC1-Pad14)*
X81280000Y-124460000D03*
G04 #@! TO.P,IC12,17,B2*
G04 #@! TO.N,Net-(IC1-Pad15)*
X78740000Y-124460000D03*
G04 #@! TO.P,IC12,18,B1*
G04 #@! TO.N,Net-(IC1-Pad16)*
X76200000Y-124460000D03*
G04 #@! TO.P,IC12,19,G*
G04 #@! TO.N,Net-(IC1-Pad36)*
X73660000Y-124460000D03*
G04 #@! TO.P,IC12,20*
G04 #@! TO.N,VCC*
X71120000Y-124460000D03*
G04 #@! TD*
D15*
G04 #@! TO.P,LED33,1,K*
G04 #@! TO.N,Net-(LED33-Pad1)*
X129540000Y-34514000D03*
G04 #@! TO.P,LED33,2,A*
G04 #@! TO.N,Net-(IC1-Pad37)*
X129540000Y-37114000D03*
G04 #@! TD*
G04 #@! TO.P,LED14,1,K*
G04 #@! TO.N,Net-(LED14-Pad1)*
X92456000Y-115606000D03*
G04 #@! TO.P,LED14,2,A*
G04 #@! TO.N,Net-(IC1-Pad11)*
X92456000Y-118206000D03*
G04 #@! TD*
D17*
G04 #@! TO.P,R29,1,1*
G04 #@! TO.N,Net-(LED4-Pad1)*
X54356000Y-112492000D03*
G04 #@! TO.P,R29,2,2*
G04 #@! TO.N,0*
X54356000Y-110592000D03*
G04 #@! TD*
G04 #@! TO.P,R23,1,1*
G04 #@! TO.N,Net-(R23-Pad1)*
X149860000Y-164780000D03*
G04 #@! TO.P,R23,2,2*
G04 #@! TO.N,0*
X149860000Y-162880000D03*
G04 #@! TD*
G04 #@! TO.P,R24,1,1*
G04 #@! TO.N,Net-(R24-Pad1)*
X152400000Y-164780000D03*
G04 #@! TO.P,R24,2,2*
G04 #@! TO.N,0*
X152400000Y-162880000D03*
G04 #@! TD*
D15*
G04 #@! TO.P,LED25,1,K*
G04 #@! TO.N,Net-(LED25-Pad1)*
X72390000Y-34260000D03*
G04 #@! TO.P,LED25,2,A*
G04 #@! TO.N,Net-(IC15-Pad19)*
X72390000Y-36860000D03*
G04 #@! TD*
D17*
G04 #@! TO.P,R25,1,1*
G04 #@! TO.N,Net-(IC1-Pad36)*
X67310000Y-132268000D03*
G04 #@! TO.P,R25,2,2*
G04 #@! TO.N,0*
X67310000Y-130368000D03*
G04 #@! TD*
D15*
G04 #@! TO.P,LED1,1,K*
G04 #@! TO.N,Net-(LED1-Pad1)*
X42926000Y-115636000D03*
G04 #@! TO.P,LED1,2,A*
G04 #@! TO.N,Net-(IC1-Pad25)*
X42926000Y-118236000D03*
G04 #@! TD*
D17*
G04 #@! TO.P,R17,1,1*
G04 #@! TO.N,Net-(IC14-Pad8)*
X134620000Y-164780000D03*
G04 #@! TO.P,R17,2,2*
G04 #@! TO.N,0*
X134620000Y-162880000D03*
G04 #@! TD*
G04 #@! TO.P,R53,1,1*
G04 #@! TO.N,Net-(LED28-Pad1)*
X83820000Y-27620000D03*
G04 #@! TO.P,R53,2,2*
G04 #@! TO.N,0*
X83820000Y-25720000D03*
G04 #@! TD*
G04 #@! TO.P,R20,1,1*
G04 #@! TO.N,Net-(R20-Pad1)*
X142240000Y-164780000D03*
G04 #@! TO.P,R20,2,2*
G04 #@! TO.N,0*
X142240000Y-162880000D03*
G04 #@! TD*
D15*
G04 #@! TO.P,LED2,1,K*
G04 #@! TO.N,Net-(LED2-Pad1)*
X46736000Y-115606000D03*
G04 #@! TO.P,LED2,2,A*
G04 #@! TO.N,Net-(IC1-Pad24)*
X46736000Y-118206000D03*
G04 #@! TD*
D19*
G04 #@! TO.P,R61,1,1*
G04 #@! TO.N,Net-(IC7-Pad7)*
X41590000Y-165100000D03*
G04 #@! TO.P,R61,2,2*
G04 #@! TO.N,Net-(R60-Pad2)*
X39690000Y-165100000D03*
G04 #@! TD*
D18*
G04 #@! TO.P,S5,A1,NC_1*
G04 #@! TO.N,unconnected-(S5-PadA1)*
X62770000Y-152400000D03*
G04 #@! TO.P,S5,A2,NO_1*
G04 #@! TO.N,unconnected-(S5-PadA2)*
X66770000Y-152400000D03*
G04 #@! TO.P,S5,B1,NC_2*
G04 #@! TO.N,unconnected-(S5-PadB1)*
X62770000Y-147400000D03*
G04 #@! TO.P,S5,B2,NO_2*
G04 #@! TO.N,0*
X66770000Y-147400000D03*
G04 #@! TO.P,S5,C1,COM_1*
G04 #@! TO.N,unconnected-(S5-PadC1)*
X64770000Y-152400000D03*
G04 #@! TO.P,S5,C2,COM_2*
G04 #@! TO.N,Net-(IC6-Pad2)*
X64770000Y-147400000D03*
G04 #@! TD*
D11*
G04 #@! TO.P,C9,1,1*
G04 #@! TO.N,0*
X128270000Y-131194000D03*
G04 #@! TO.P,C9,2,2*
G04 #@! TO.N,VCC*
X128270000Y-128394000D03*
G04 #@! TD*
G04 #@! TO.P,C17,1,1*
G04 #@! TO.N,0*
X36830000Y-129540000D03*
G04 #@! TO.P,C17,2,2*
G04 #@! TO.N,VCC*
X36830000Y-126740000D03*
G04 #@! TD*
G04 #@! TO.P,C1,1,1*
G04 #@! TO.N,0*
X60960000Y-165230000D03*
G04 #@! TO.P,C1,2,2*
G04 #@! TO.N,Net-(C1-Pad2)*
X60960000Y-162430000D03*
G04 #@! TD*
G04 #@! TO.P,C16,1,1*
G04 #@! TO.N,0*
X67310000Y-127130000D03*
G04 #@! TO.P,C16,2,2*
G04 #@! TO.N,VCC*
X67310000Y-124330000D03*
G04 #@! TD*
D15*
G04 #@! TO.P,LED37,1,K*
G04 #@! TO.N,Net-(LED37-Pad1)*
X46990000Y-33020000D03*
G04 #@! TO.P,LED37,2,A*
G04 #@! TO.N,Net-(IC14-Pad13)*
X46990000Y-35620000D03*
G04 #@! TD*
D23*
G04 #@! TO.P,R60,1,1*
G04 #@! TO.N,unconnected-(R60-Pad1)*
X44490000Y-155460000D03*
G04 #@! TO.P,R60,2,2*
G04 #@! TO.N,Net-(R60-Pad2)*
X46990000Y-155460000D03*
G04 #@! TO.P,R60,3,3*
G04 #@! TO.N,Net-(C2-Pad2)*
X49490000Y-155460000D03*
D24*
G04 #@! TO.P,R60,4,MH1*
G04 #@! TO.N,0*
X42590000Y-148460000D03*
G04 #@! TO.P,R60,5,MH2*
X51390000Y-148460000D03*
G04 #@! TD*
D17*
G04 #@! TO.P,R26,1,1*
G04 #@! TO.N,Net-(LED1-Pad1)*
X42926000Y-112552000D03*
G04 #@! TO.P,R26,2,2*
G04 #@! TO.N,0*
X42926000Y-110652000D03*
G04 #@! TD*
D15*
G04 #@! TO.P,LED26,1,K*
G04 #@! TO.N,Net-(LED26-Pad1)*
X76200000Y-34260000D03*
G04 #@! TO.P,LED26,2,A*
G04 #@! TO.N,Net-(IC15-Pad18)*
X76200000Y-36860000D03*
G04 #@! TD*
D25*
G04 #@! TO.P,J1,1,1*
G04 #@! TO.N,VCC*
X39965000Y-47676000D03*
G04 #@! TO.P,J1,2,2*
G04 #@! TO.N,Net-(IC16-Pad4)*
X39965000Y-48476000D03*
G04 #@! TO.P,J1,3,3*
G04 #@! TO.N,Net-(IC16-Pad3)*
X39965000Y-49276000D03*
G04 #@! TO.P,J1,4,4*
G04 #@! TO.N,unconnected-(J1-Pad4)*
X39965000Y-50076000D03*
G04 #@! TO.P,J1,5,5*
G04 #@! TO.N,0*
X39965000Y-50876000D03*
D26*
G04 #@! TO.P,J1,MP1,MP1*
X39965000Y-44416000D03*
G04 #@! TO.P,J1,MP2,MP2*
X39965000Y-54136000D03*
G04 #@! TO.P,J1,MP3,MP3*
X34125000Y-44416000D03*
G04 #@! TO.P,J1,MP4,MP4*
X34125000Y-54136000D03*
G04 #@! TD*
D17*
G04 #@! TO.P,R54,1,1*
G04 #@! TO.N,Net-(LED29-Pad1)*
X87630000Y-27620000D03*
G04 #@! TO.P,R54,2,2*
G04 #@! TO.N,0*
X87630000Y-25720000D03*
G04 #@! TD*
G04 #@! TO.P,R4,1,1*
G04 #@! TO.N,Net-(IC11-Pad5)*
X118110000Y-146492000D03*
G04 #@! TO.P,R4,2,2*
G04 #@! TO.N,0*
X118110000Y-144592000D03*
G04 #@! TD*
G04 #@! TO.P,R32,1,1*
G04 #@! TO.N,Net-(LED7-Pad1)*
X65786000Y-112492000D03*
G04 #@! TO.P,R32,2,2*
G04 #@! TO.N,0*
X65786000Y-110592000D03*
G04 #@! TD*
G04 #@! TO.P,R28,1,1*
G04 #@! TO.N,Net-(LED3-Pad1)*
X50546000Y-112492000D03*
G04 #@! TO.P,R28,2,2*
G04 #@! TO.N,0*
X50546000Y-110592000D03*
G04 #@! TD*
G04 #@! TO.P,R6,1,1*
G04 #@! TO.N,Net-(IC11-Pad7)*
X123190000Y-146492000D03*
G04 #@! TO.P,R6,2,2*
G04 #@! TO.N,0*
X123190000Y-144592000D03*
G04 #@! TD*
D15*
G04 #@! TO.P,LED17,1,K*
G04 #@! TO.N,Net-(LED17-Pad1)*
X117856000Y-115540000D03*
G04 #@! TO.P,LED17,2,A*
G04 #@! TO.N,Net-(IC1-Pad26)*
X117856000Y-118140000D03*
G04 #@! TD*
D17*
G04 #@! TO.P,R73,1,1*
G04 #@! TO.N,Net-(LED36-Pad1)*
X60960000Y-27351600D03*
G04 #@! TO.P,R73,2,2*
G04 #@! TO.N,0*
X60960000Y-25451600D03*
G04 #@! TD*
D16*
G04 #@! TO.P,C5,1,1*
G04 #@! TO.N,0*
X90300000Y-176530000D03*
G04 #@! TO.P,C5,2,2*
G04 #@! TO.N,Net-(C5-Pad2)*
X87500000Y-176530000D03*
G04 #@! TD*
D17*
G04 #@! TO.P,R16,1,1*
G04 #@! TO.N,Net-(IC12-Pad9)*
X151130000Y-146558000D03*
G04 #@! TO.P,R16,2,2*
G04 #@! TO.N,0*
X151130000Y-144658000D03*
G04 #@! TD*
D16*
G04 #@! TO.P,C6,1,1*
G04 #@! TO.N,0*
X101470000Y-176530000D03*
G04 #@! TO.P,C6,2,2*
G04 #@! TO.N,Net-(C6-Pad2)*
X104270000Y-176530000D03*
G04 #@! TD*
D17*
G04 #@! TO.P,R52,1,1*
G04 #@! TO.N,Net-(LED27-Pad1)*
X80010000Y-27620000D03*
G04 #@! TO.P,R52,2,2*
G04 #@! TO.N,0*
X80010000Y-25720000D03*
G04 #@! TD*
G04 #@! TO.P,R34,1,1*
G04 #@! TO.N,Net-(LED8-Pad1)*
X73406000Y-112522000D03*
G04 #@! TO.P,R34,2,2*
G04 #@! TO.N,0*
X73406000Y-110622000D03*
G04 #@! TD*
D27*
G04 #@! TO.P,IC17,1,IN*
G04 #@! TO.N,VCC*
X62210000Y-45400000D03*
G04 #@! TO.P,IC17,2,GND*
G04 #@! TO.N,0*
X62210000Y-44450000D03*
G04 #@! TO.P,IC17,3,EN*
G04 #@! TO.N,VCC*
X62210000Y-43500000D03*
G04 #@! TO.P,IC17,4,N/C*
G04 #@! TO.N,unconnected-(IC17-Pad4)*
X59710000Y-43500000D03*
G04 #@! TO.P,IC17,5,OUT*
G04 #@! TO.N,Net-(C7-Pad2)*
X59710000Y-45400000D03*
G04 #@! TD*
D19*
G04 #@! TO.P,R65,1,1*
G04 #@! TO.N,Net-(IC10-Pad2)*
X95120000Y-176530000D03*
G04 #@! TO.P,R65,2,2*
G04 #@! TO.N,VCC*
X97020000Y-176530000D03*
G04 #@! TD*
D17*
G04 #@! TO.P,R49,1,1*
G04 #@! TO.N,Net-(LED24-Pad1)*
X144526000Y-112462000D03*
G04 #@! TO.P,R49,2,2*
G04 #@! TO.N,0*
X144526000Y-110562000D03*
G04 #@! TD*
D19*
G04 #@! TO.P,R64,1,1*
G04 #@! TO.N,Net-(C4-Pad2)*
X82616000Y-163830000D03*
G04 #@! TO.P,R64,2,2*
G04 #@! TO.N,VCC*
X84516000Y-163830000D03*
G04 #@! TD*
D15*
G04 #@! TO.P,LED16,1,K*
G04 #@! TO.N,Net-(LED16-Pad1)*
X100076000Y-115606000D03*
G04 #@! TO.P,LED16,2,A*
G04 #@! TO.N,Net-(IC1-Pad9)*
X100076000Y-118206000D03*
G04 #@! TD*
D17*
G04 #@! TO.P,R50,1,1*
G04 #@! TO.N,Net-(LED25-Pad1)*
X72390000Y-27620000D03*
G04 #@! TO.P,R50,2,2*
G04 #@! TO.N,0*
X72390000Y-25720000D03*
G04 #@! TD*
D15*
G04 #@! TO.P,LED4,1,K*
G04 #@! TO.N,Net-(LED4-Pad1)*
X54356000Y-115576000D03*
G04 #@! TO.P,LED4,2,A*
G04 #@! TO.N,Net-(IC1-Pad22)*
X54356000Y-118176000D03*
G04 #@! TD*
D17*
G04 #@! TO.P,R27,1,1*
G04 #@! TO.N,Net-(LED2-Pad1)*
X46736000Y-112522000D03*
G04 #@! TO.P,R27,2,2*
G04 #@! TO.N,0*
X46736000Y-110622000D03*
G04 #@! TD*
D15*
G04 #@! TO.P,LED38,1,K*
G04 #@! TO.N,Net-(LED38-Pad1)*
X40640000Y-33020000D03*
G04 #@! TO.P,LED38,2,A*
G04 #@! TO.N,Net-(IC14-Pad11)*
X40640000Y-35620000D03*
G04 #@! TD*
D17*
G04 #@! TO.P,R37,1,1*
G04 #@! TO.N,Net-(LED12-Pad1)*
X84836000Y-112522000D03*
G04 #@! TO.P,R37,2,2*
G04 #@! TO.N,0*
X84836000Y-110622000D03*
G04 #@! TD*
D15*
G04 #@! TO.P,LED5,1,K*
G04 #@! TO.N,Net-(LED5-Pad1)*
X58166000Y-115576000D03*
G04 #@! TO.P,LED5,2,A*
G04 #@! TO.N,Net-(IC1-Pad20)*
X58166000Y-118176000D03*
G04 #@! TD*
D10*
G04 #@! TO.P,SW1,1,1*
G04 #@! TO.N,VCC*
X111760000Y-157734000D03*
G04 #@! TO.P,SW1,2,2*
X114300000Y-157734000D03*
G04 #@! TO.P,SW1,3,3*
X116840000Y-157734000D03*
G04 #@! TO.P,SW1,4,4*
X119380000Y-157734000D03*
G04 #@! TO.P,SW1,5,5*
X121920000Y-157734000D03*
G04 #@! TO.P,SW1,6,6*
X124460000Y-157734000D03*
G04 #@! TO.P,SW1,7,7*
X127000000Y-157734000D03*
G04 #@! TO.P,SW1,8,8*
X129540000Y-157734000D03*
G04 #@! TO.P,SW1,9,9*
G04 #@! TO.N,Net-(IC11-Pad9)*
X129540000Y-150114000D03*
G04 #@! TO.P,SW1,10,10*
G04 #@! TO.N,Net-(IC11-Pad8)*
X127000000Y-150114000D03*
G04 #@! TO.P,SW1,11,11*
G04 #@! TO.N,Net-(IC11-Pad7)*
X124460000Y-150114000D03*
G04 #@! TO.P,SW1,12,12*
G04 #@! TO.N,Net-(IC11-Pad6)*
X121920000Y-150114000D03*
G04 #@! TO.P,SW1,13,13*
G04 #@! TO.N,Net-(IC11-Pad5)*
X119380000Y-150114000D03*
G04 #@! TO.P,SW1,14,14*
G04 #@! TO.N,Net-(IC11-Pad4)*
X116840000Y-150114000D03*
G04 #@! TO.P,SW1,15,15*
G04 #@! TO.N,Net-(IC11-Pad3)*
X114300000Y-150114000D03*
G04 #@! TO.P,SW1,16,16*
G04 #@! TO.N,Net-(IC11-Pad2)*
X111760000Y-150114000D03*
G04 #@! TD*
D15*
G04 #@! TO.P,LED9,1,K*
G04 #@! TO.N,Net-(LED9-Pad1)*
X69596000Y-115606000D03*
G04 #@! TO.P,LED9,2,A*
G04 #@! TO.N,Net-(IC1-Pad17)*
X69596000Y-118206000D03*
G04 #@! TD*
D11*
G04 #@! TO.P,C15,1,1*
G04 #@! TO.N,0*
X97536000Y-129670000D03*
G04 #@! TO.P,C15,2,2*
G04 #@! TO.N,VCC*
X97536000Y-126870000D03*
G04 #@! TD*
D17*
G04 #@! TO.P,R31,1,1*
G04 #@! TO.N,Net-(LED6-Pad1)*
X61976000Y-112492000D03*
G04 #@! TO.P,R31,2,2*
G04 #@! TO.N,0*
X61976000Y-110592000D03*
G04 #@! TD*
D15*
G04 #@! TO.P,LED29,1,K*
G04 #@! TO.N,Net-(LED29-Pad1)*
X87630000Y-34260000D03*
G04 #@! TO.P,LED29,2,A*
G04 #@! TO.N,Net-(IC15-Pad15)*
X87630000Y-36860000D03*
G04 #@! TD*
D28*
G04 #@! TO.P,IC16,1,RI_/_CLK*
G04 #@! TO.N,unconnected-(IC16-Pad1)*
X50120000Y-47010000D03*
G04 #@! TO.P,IC16,2,GND_1*
G04 #@! TO.N,0*
X50120000Y-47510000D03*
G04 #@! TO.P,IC16,3,D+*
G04 #@! TO.N,Net-(IC16-Pad3)*
X50120000Y-48010000D03*
G04 #@! TO.P,IC16,4,D-*
G04 #@! TO.N,Net-(IC16-Pad4)*
X50120000Y-48510000D03*
G04 #@! TO.P,IC16,5,VIO*
G04 #@! TO.N,Net-(C7-Pad2)*
X50120000Y-49010000D03*
G04 #@! TO.P,IC16,6,VDD*
X50120000Y-49510000D03*
D29*
G04 #@! TO.P,IC16,7,VREGIN*
X50820000Y-50210000D03*
G04 #@! TO.P,IC16,8,VBUS*
X51320000Y-50210000D03*
G04 #@! TO.P,IC16,9,RSTB*
G04 #@! TO.N,Net-(IC16-Pad9)*
X51820000Y-50210000D03*
G04 #@! TO.P,IC16,10,NC_1*
G04 #@! TO.N,unconnected-(IC16-Pad10)*
X52320000Y-50210000D03*
G04 #@! TO.P,IC16,11,GPIO.3_/_WAKEUP*
G04 #@! TO.N,unconnected-(IC16-Pad11)*
X52820000Y-50210000D03*
G04 #@! TO.P,IC16,12,GPIO.2_/_RS485*
G04 #@! TO.N,unconnected-(IC16-Pad12)*
X53320000Y-50210000D03*
D28*
G04 #@! TO.P,IC16,13,GPIO.1_/_RXT*
G04 #@! TO.N,Net-(IC16-Pad13)*
X54020000Y-49510000D03*
G04 #@! TO.P,IC16,14,GPIO.0_/_TXT*
G04 #@! TO.N,Net-(IC16-Pad14)*
X54020000Y-49010000D03*
G04 #@! TO.P,IC16,15,SUSPENDB*
G04 #@! TO.N,unconnected-(IC16-Pad15)*
X54020000Y-48510000D03*
G04 #@! TO.P,IC16,16,NC_2*
G04 #@! TO.N,unconnected-(IC16-Pad16)*
X54020000Y-48010000D03*
G04 #@! TO.P,IC16,17,SUSPEND*
G04 #@! TO.N,unconnected-(IC16-Pad17)*
X54020000Y-47510000D03*
G04 #@! TO.P,IC16,18,CTS*
G04 #@! TO.N,Net-(IC15-Pad19)*
X54020000Y-47010000D03*
D29*
G04 #@! TO.P,IC16,19,RTS*
G04 #@! TO.N,Net-(IC14-Pad13)*
X53320000Y-46310000D03*
G04 #@! TO.P,IC16,20,RXD*
G04 #@! TO.N,Net-(IC15-Pad18)*
X52820000Y-46310000D03*
G04 #@! TO.P,IC16,21,TXD*
G04 #@! TO.N,Net-(IC14-Pad15)*
X52320000Y-46310000D03*
G04 #@! TO.P,IC16,22,DSR*
G04 #@! TO.N,unconnected-(IC16-Pad22)*
X51820000Y-46310000D03*
G04 #@! TO.P,IC16,23,DTR*
G04 #@! TO.N,Net-(IC14-Pad11)*
X51320000Y-46310000D03*
G04 #@! TO.P,IC16,24,DCD*
G04 #@! TO.N,unconnected-(IC16-Pad24)*
X50820000Y-46310000D03*
D30*
G04 #@! TO.P,IC16,25,GND_2*
G04 #@! TO.N,0*
X52070000Y-48260000D03*
G04 #@! TD*
D31*
G04 #@! TO.N,VCC*
X116840000Y-80264000D03*
G04 #@! TO.N,Net-(IC4-Pad8)*
X148082000Y-117856000D03*
X112522000Y-88900000D03*
G04 #@! TO.N,VCC*
X55814000Y-55560000D03*
X69850000Y-48768000D03*
G04 #@! TO.N,0*
X61468000Y-79502000D03*
X64770000Y-74422000D03*
X104902000Y-108712000D03*
X64770000Y-94742000D03*
G04 #@! TO.N,Net-(IC3-Pad8)*
X121666000Y-81026000D03*
G04 #@! TO.N,Net-(IC3-Pad4)*
X51816000Y-90170000D03*
G04 #@! TO.N,VCC*
X65408000Y-124330000D03*
G04 #@! TO.N,Net-(IC14-Pad15)*
X52324000Y-43180000D03*
G04 #@! TO.N,Net-(IC1-Pad11)*
X130810000Y-88646000D03*
G04 #@! TO.N,Net-(IC1-Pad19)*
X151130000Y-81026000D03*
G04 #@! TO.N,Net-(IC1-Pad17)*
X146050000Y-81280000D03*
G04 #@! TO.N,Net-(IC1-Pad18)*
X148590000Y-80264000D03*
G04 #@! TO.N,0*
X46736000Y-108778000D03*
X50546000Y-108748000D03*
X130302000Y-143002000D03*
X140716000Y-108712000D03*
X123190000Y-143002000D03*
X118110000Y-143002000D03*
X61976000Y-108748000D03*
X121666000Y-108712000D03*
X143510000Y-143068000D03*
X81026000Y-108778000D03*
X151130000Y-143068000D03*
X65786000Y-108748000D03*
X54356000Y-108748000D03*
X146050000Y-143068000D03*
X135890000Y-143068000D03*
X133350000Y-143068000D03*
X120650000Y-143002000D03*
X100076000Y-108778000D03*
X113030000Y-143002000D03*
X110490000Y-143002000D03*
X140970000Y-143068000D03*
X88646000Y-108778000D03*
X96266000Y-108778000D03*
X129286000Y-108712000D03*
X69596000Y-108778000D03*
X92456000Y-108778000D03*
X115570000Y-143002000D03*
X128270000Y-143002000D03*
X42926000Y-108808000D03*
X77216000Y-108778000D03*
X117856000Y-108712000D03*
X138430000Y-143068000D03*
X153416000Y-143002000D03*
X133096000Y-108712000D03*
X125730000Y-143002000D03*
X73406000Y-108778000D03*
X125476000Y-108712000D03*
X136906000Y-108712000D03*
X148590000Y-143068000D03*
X58166000Y-108748000D03*
X144526000Y-108712000D03*
X84836000Y-108778000D03*
G04 #@! TO.N,Net-(C4-Pad2)*
X63500000Y-171704000D03*
G04 #@! TO.N,Net-(C7-Pad2)*
X50800000Y-52324000D03*
X57150000Y-45466000D03*
G04 #@! TO.N,Net-(IC1-Pad9)*
X125730000Y-84328000D03*
G04 #@! TO.N,Net-(IC1-Pad10)*
X128270000Y-86360000D03*
G04 #@! TO.N,Net-(IC1-Pad13)*
X135890000Y-87376000D03*
G04 #@! TO.N,Net-(IC1-Pad14)*
X138430000Y-85344000D03*
G04 #@! TO.N,Net-(IC1-Pad15)*
X140970000Y-83312000D03*
G04 #@! TO.N,Net-(IC1-Pad16)*
X143510000Y-82296000D03*
G04 #@! TO.N,Net-(IC14-Pad11)*
X40640000Y-38354000D03*
X48514000Y-44450000D03*
G04 #@! TO.N,Net-(IC14-Pad13)*
X55626000Y-44450000D03*
X46990000Y-38354000D03*
G04 #@! TO.N,Net-(IC15-Pad18)*
X57404000Y-41402000D03*
G04 #@! TO.N,Net-(IC15-Pad19)*
X57150000Y-46990000D03*
G04 #@! TO.N,Net-(IC16-Pad3)*
X44958000Y-50292000D03*
X44958000Y-46482000D03*
G04 #@! TO.N,Net-(IC16-Pad13)*
X58674000Y-50038000D03*
X54610000Y-38354000D03*
G04 #@! TO.N,Net-(IC16-Pad14)*
X59944000Y-48514000D03*
X61722000Y-40808900D03*
G04 #@! TD*
D32*
G04 #@! TO.N,0*
X52832000Y-144780000D02*
X43688000Y-144780000D01*
X43688000Y-144780000D02*
X42590000Y-145878000D01*
X42590000Y-145878000D02*
X42590000Y-148460000D01*
X69342000Y-144780000D02*
X52832000Y-144780000D01*
X52832000Y-144780000D02*
X52578000Y-144780000D01*
X52578000Y-144780000D02*
X51390000Y-145968000D01*
X51390000Y-145968000D02*
X51390000Y-148460000D01*
X66770000Y-147400000D02*
X66770000Y-146082000D01*
X66770000Y-146082000D02*
X68072000Y-144780000D01*
X68072000Y-144780000D02*
X69342000Y-144780000D01*
X69342000Y-144780000D02*
X83312000Y-144780000D01*
X83312000Y-144780000D02*
X84074000Y-145542000D01*
X83312000Y-144780000D02*
X86356000Y-144780000D01*
X86356000Y-144780000D02*
X86360000Y-144776000D01*
X86360000Y-156976000D02*
X85856000Y-156976000D01*
X85856000Y-156976000D02*
X84074000Y-155194000D01*
X84074000Y-155194000D02*
X84074000Y-145542000D01*
X42590000Y-148460000D02*
X38224000Y-148460000D01*
X38224000Y-148460000D02*
X36830000Y-147066000D01*
X36830000Y-147066000D02*
X36830000Y-129540000D01*
G04 #@! TO.N,Net-(C2-Pad2)*
X49490000Y-155460000D02*
X49490000Y-157440000D01*
X49490000Y-157440000D02*
X52070000Y-160020000D01*
G04 #@! TO.N,Net-(R60-Pad2)*
X46990000Y-155460000D02*
X46990000Y-157988000D01*
X46228000Y-158750000D02*
X40640000Y-158750000D01*
X46990000Y-157988000D02*
X46228000Y-158750000D01*
X39690000Y-159700000D02*
X39690000Y-165100000D01*
X40640000Y-158750000D02*
X39690000Y-159700000D01*
G04 #@! TO.N,Net-(C2-Pad2)*
X52070000Y-160020000D02*
X52070000Y-163830000D01*
G04 #@! TO.N,Net-(IC6-Pad2)*
X72390000Y-171450000D02*
X72390000Y-168910000D01*
X65532000Y-149098000D02*
X64770000Y-148336000D01*
X72390000Y-168910000D02*
X69850000Y-166370000D01*
X66040000Y-165100000D02*
X66040000Y-157480000D01*
X66040000Y-157480000D02*
X67310000Y-156210000D01*
X69342000Y-149098000D02*
X65532000Y-149098000D01*
X67310000Y-156210000D02*
X69342000Y-156210000D01*
X67310000Y-166370000D02*
X66040000Y-165100000D01*
X69342000Y-156210000D02*
X70104000Y-155448000D01*
X70104000Y-155448000D02*
X70104000Y-149860000D01*
X70104000Y-149860000D02*
X69342000Y-149098000D01*
X69850000Y-166370000D02*
X67310000Y-166370000D01*
X64770000Y-148336000D02*
X64770000Y-147400000D01*
G04 #@! TO.N,Net-(C4-Pad2)*
X62230000Y-172974000D02*
X62230000Y-176400000D01*
X63500000Y-171704000D02*
X62230000Y-172974000D01*
X62230000Y-176400000D02*
X62100000Y-176530000D01*
G04 #@! TO.N,Net-(IC14-Pad16)*
X134620000Y-132080000D02*
X134620000Y-130556000D01*
X134620000Y-130556000D02*
X134112000Y-130048000D01*
X125984000Y-127762000D02*
X112522000Y-127762000D01*
X133096000Y-130048000D02*
X129794000Y-126746000D01*
X111760000Y-127000000D02*
X111760000Y-124460000D01*
X129794000Y-126746000D02*
X127000000Y-126746000D01*
X134112000Y-130048000D02*
X133096000Y-130048000D01*
X127000000Y-126746000D02*
X125984000Y-127762000D01*
X112522000Y-127762000D02*
X111760000Y-127000000D01*
G04 #@! TO.N,Net-(IC14-Pad14)*
X116840000Y-126746000D02*
X117348000Y-127254000D01*
X133350000Y-129540000D02*
X136398000Y-129540000D01*
X117348000Y-127254000D02*
X125730000Y-127254000D01*
X126746000Y-126238000D02*
X130048000Y-126238000D01*
X116840000Y-124460000D02*
X116840000Y-126746000D01*
X125730000Y-127254000D02*
X126746000Y-126238000D01*
X130048000Y-126238000D02*
X133350000Y-129540000D01*
X136398000Y-129540000D02*
X137160000Y-130302000D01*
X137160000Y-130302000D02*
X137160000Y-132080000D01*
G04 #@! TO.N,Net-(IC14-Pad12)*
X121920000Y-124460000D02*
X121920000Y-126492000D01*
X121920000Y-126492000D02*
X122174000Y-126746000D01*
X122174000Y-126746000D02*
X125476000Y-126746000D01*
X138938000Y-129032000D02*
X139700000Y-129794000D01*
X125476000Y-126746000D02*
X126492000Y-125730000D01*
X126492000Y-125730000D02*
X130317270Y-125730000D01*
X130317270Y-125730000D02*
X133619270Y-129032000D01*
X133619270Y-129032000D02*
X138938000Y-129032000D01*
X139700000Y-129794000D02*
X139700000Y-132080000D01*
G04 #@! TO.N,Net-(IC1-Pad19)*
X133604000Y-79248000D02*
X149352000Y-79248000D01*
X149352000Y-79248000D02*
X151130000Y-81026000D01*
G04 #@! TO.N,Net-(IC3-Pad11)*
X63500000Y-65024000D02*
X56642000Y-65024000D01*
X54610000Y-67056000D02*
X54610000Y-69850000D01*
X53594000Y-70866000D02*
X51562000Y-70866000D01*
X54610000Y-69850000D02*
X53594000Y-70866000D01*
X56642000Y-65024000D02*
X54610000Y-67056000D01*
X51562000Y-70866000D02*
X50800000Y-70104000D01*
X50800000Y-70104000D02*
X50800000Y-68580000D01*
X107188000Y-65024000D02*
X63500000Y-65024000D01*
X63500000Y-65024000D02*
X62992000Y-65024000D01*
G04 #@! TO.N,Net-(IC1-Pad40)*
X105410000Y-44450000D02*
X105410000Y-40132000D01*
X105410000Y-40132000D02*
X106172000Y-39370000D01*
X106172000Y-39370000D02*
X107000000Y-39370000D01*
G04 #@! TO.N,Net-(IC1-Pad29)*
X133350000Y-44450000D02*
X133350000Y-55626000D01*
X143510000Y-76962000D02*
X144272000Y-77724000D01*
X144272000Y-77724000D02*
X152654000Y-77724000D01*
X135382000Y-70358000D02*
X141732000Y-70358000D01*
X133350000Y-55626000D02*
X134620000Y-56896000D01*
X134620000Y-56896000D02*
X134620000Y-69596000D01*
X134620000Y-69596000D02*
X135382000Y-70358000D01*
X143510000Y-72136000D02*
X143510000Y-76962000D01*
X141732000Y-70358000D02*
X143510000Y-72136000D01*
X152654000Y-77724000D02*
X154178000Y-79248000D01*
X154178000Y-79248000D02*
X154178000Y-87884000D01*
X154178000Y-87884000D02*
X152908000Y-89154000D01*
X152908000Y-89154000D02*
X147828000Y-89154000D01*
X147828000Y-89154000D02*
X147320000Y-89662000D01*
X147320000Y-89662000D02*
X147320000Y-91440000D01*
G04 #@! TO.N,Net-(IC1-Pad31)*
X128270000Y-56134000D02*
X129540000Y-57404000D01*
X130302000Y-71882000D02*
X140462000Y-71882000D01*
X129540000Y-71120000D02*
X130302000Y-71882000D01*
X140462000Y-71882000D02*
X140970000Y-72390000D01*
X141732000Y-78232000D02*
X151638000Y-78232000D01*
X140970000Y-77470000D02*
X141732000Y-78232000D01*
X129540000Y-57404000D02*
X129540000Y-71120000D01*
X140970000Y-72390000D02*
X140970000Y-77470000D01*
X151638000Y-78232000D02*
X153416000Y-80010000D01*
X153416000Y-80010000D02*
X153416000Y-87630000D01*
X128270000Y-44450000D02*
X128270000Y-56134000D01*
X153416000Y-87630000D02*
X152908000Y-88138000D01*
X152908000Y-88138000D02*
X145542000Y-88138000D01*
X145542000Y-88138000D02*
X144780000Y-88900000D01*
X144780000Y-88900000D02*
X144780000Y-91440000D01*
G04 #@! TO.N,Net-(IC1-Pad33)*
X123190000Y-44450000D02*
X123190000Y-56642000D01*
X138430000Y-74422000D02*
X138430000Y-77978000D01*
X124460000Y-72898000D02*
X125476000Y-73914000D01*
X123190000Y-56642000D02*
X124460000Y-57912000D01*
X124460000Y-57912000D02*
X124460000Y-72898000D01*
X125476000Y-73914000D02*
X137922000Y-73914000D01*
X137922000Y-73914000D02*
X138430000Y-74422000D01*
X151130000Y-87122000D02*
X143571080Y-87122000D01*
X138430000Y-77978000D02*
X139192000Y-78740000D01*
X152400000Y-80772000D02*
X152400000Y-85852000D01*
X139192000Y-78740000D02*
X150368000Y-78740000D01*
X150368000Y-78740000D02*
X152400000Y-80772000D01*
X152400000Y-85852000D02*
X151130000Y-87122000D01*
X142240000Y-88392000D02*
X142240000Y-91440000D01*
X143571080Y-87122000D02*
X143540540Y-87091460D01*
X143540540Y-87091460D02*
X142240000Y-88392000D01*
G04 #@! TO.N,Net-(IC1-Pad34)*
X48514000Y-64516000D02*
X54864000Y-64516000D01*
X54864000Y-64516000D02*
X107442000Y-64516000D01*
X53340000Y-68580000D02*
X53340000Y-65786000D01*
X54610000Y-64516000D02*
X54864000Y-64516000D01*
X53340000Y-65786000D02*
X54610000Y-64516000D01*
G04 #@! TO.N,Net-(IC3-Pad8)*
X122936000Y-81026000D02*
X124714000Y-79248000D01*
X131064000Y-79248000D02*
X132080000Y-78232000D01*
X124714000Y-79248000D02*
X131064000Y-79248000D01*
X132080000Y-78232000D02*
X132080000Y-76200000D01*
X121666000Y-81026000D02*
X122936000Y-81026000D01*
G04 #@! TO.N,Net-(IC1-Pad9)*
X101854000Y-121412000D02*
X101854000Y-118110000D01*
X101758000Y-118206000D02*
X101854000Y-118110000D01*
X101854000Y-118110000D02*
X101854000Y-110744000D01*
X100076000Y-118206000D02*
X101758000Y-118206000D01*
G04 #@! TO.N,0*
X111252000Y-83058000D02*
X107950000Y-83058000D01*
X107950000Y-83058000D02*
X106934000Y-84074000D01*
X106934000Y-84074000D02*
X106934000Y-93218000D01*
X106934000Y-93218000D02*
X106172000Y-93980000D01*
X106172000Y-93980000D02*
X105410000Y-93980000D01*
X111252000Y-83058000D02*
X110998000Y-83058000D01*
X116332000Y-83058000D02*
X111252000Y-83058000D01*
X87630000Y-73790000D02*
X94364000Y-73790000D01*
X94364000Y-73790000D02*
X95250000Y-74676000D01*
X95250000Y-74676000D02*
X95250000Y-88138000D01*
X101092000Y-93980000D02*
X105410000Y-93980000D01*
X95250000Y-88138000D02*
X101092000Y-93980000D01*
G04 #@! TO.N,VCC*
X107826000Y-78356000D02*
X98682000Y-78356000D01*
X98682000Y-78356000D02*
X97790000Y-79248000D01*
X97790000Y-79248000D02*
X97790000Y-86360000D01*
X110236000Y-78356000D02*
X107826000Y-78356000D01*
X107826000Y-78356000D02*
X106296000Y-78356000D01*
G04 #@! TO.N,0*
X106680000Y-76200000D02*
X111506000Y-76200000D01*
X111506000Y-76200000D02*
X114342801Y-79036801D01*
X114342801Y-79036801D02*
X117121531Y-79036801D01*
X110998000Y-83058000D02*
X110236000Y-82296000D01*
X110236000Y-82296000D02*
X110236000Y-81156000D01*
X117121531Y-79036801D02*
X118110000Y-80025270D01*
X118110000Y-80025270D02*
X118110000Y-81280000D01*
X118110000Y-81280000D02*
X116332000Y-83058000D01*
G04 #@! TO.N,VCC*
X128146000Y-128270000D02*
X100838000Y-128270000D01*
X100838000Y-128270000D02*
X100076000Y-128270000D01*
X101600000Y-124460000D02*
X101600000Y-127508000D01*
X101600000Y-127508000D02*
X100838000Y-128270000D01*
G04 #@! TO.N,Net-(IC4-Pad8)*
X112522000Y-88900000D02*
X112522000Y-87630000D01*
X114523460Y-78486000D02*
X106680000Y-70642540D01*
X117348000Y-78486000D02*
X114523460Y-78486000D01*
X112522000Y-87630000D02*
X118618000Y-81534000D01*
X118618000Y-79756000D02*
X117348000Y-78486000D01*
X118618000Y-81534000D02*
X118618000Y-79756000D01*
X106680000Y-70642540D02*
X106680000Y-68580000D01*
G04 #@! TO.N,VCC*
X106296000Y-78356000D02*
X105410000Y-77470000D01*
X105410000Y-67564000D02*
X104394000Y-66548000D01*
X105410000Y-77470000D02*
X105410000Y-67564000D01*
X104394000Y-66548000D02*
X92202000Y-66548000D01*
X92202000Y-66548000D02*
X91440000Y-67310000D01*
X91440000Y-67310000D02*
X91440000Y-68580000D01*
G04 #@! TO.N,Net-(IC3-Pad4)*
X83820000Y-67310000D02*
X85090000Y-66040000D01*
X85090000Y-66040000D02*
X106553000Y-66040000D01*
X107950000Y-67437000D02*
X107950000Y-71120000D01*
X136906000Y-74676000D02*
X137160000Y-74930000D01*
X106553000Y-66040000D02*
X107950000Y-67437000D01*
X83820000Y-68580000D02*
X83820000Y-67310000D01*
X107950000Y-71120000D02*
X114808000Y-77978000D01*
X114808000Y-77978000D02*
X122428000Y-77978000D01*
X122428000Y-77978000D02*
X123190000Y-77216000D01*
X123190000Y-77216000D02*
X123190000Y-75438000D01*
X123190000Y-75438000D02*
X123952000Y-74676000D01*
X123952000Y-74676000D02*
X136906000Y-74676000D01*
X137160000Y-74930000D02*
X137160000Y-76200000D01*
G04 #@! TO.N,Net-(IC1-Pad25)*
X121920000Y-76200000D02*
X121920000Y-77216000D01*
X106934000Y-65532000D02*
X63246000Y-65532000D01*
X121920000Y-77216000D02*
X121666000Y-77470000D01*
X62992000Y-76200000D02*
X68580000Y-76200000D01*
X121666000Y-77470000D02*
X115062000Y-77470000D01*
X108458000Y-70866000D02*
X108458000Y-67056000D01*
X115062000Y-77470000D02*
X108458000Y-70866000D01*
X108458000Y-67056000D02*
X106934000Y-65532000D01*
X63246000Y-65532000D02*
X62230000Y-66548000D01*
X62230000Y-66548000D02*
X62230000Y-75438000D01*
X62230000Y-75438000D02*
X62992000Y-76200000D01*
G04 #@! TO.N,Net-(IC3-Pad11)*
X119380000Y-76200000D02*
X119380000Y-75184000D01*
X113030000Y-74676000D02*
X108966000Y-70612000D01*
X118872000Y-74676000D02*
X113030000Y-74676000D01*
X108966000Y-70612000D02*
X108966000Y-66802000D01*
X119380000Y-75184000D02*
X118872000Y-74676000D01*
X108966000Y-66802000D02*
X107188000Y-65024000D01*
X62992000Y-65024000D02*
X62484000Y-65532000D01*
G04 #@! TO.N,Net-(IC1-Pad34)*
X50800000Y-86360000D02*
X50800000Y-78994000D01*
X117856000Y-66802000D02*
X119380000Y-65278000D01*
X119380000Y-65278000D02*
X119380000Y-58420000D01*
X52070000Y-72644000D02*
X51308000Y-71882000D01*
X50800000Y-78994000D02*
X52070000Y-77724000D01*
X107442000Y-64516000D02*
X109728000Y-66802000D01*
X52070000Y-77724000D02*
X52070000Y-72644000D01*
X119380000Y-58420000D02*
X120650000Y-57150000D01*
X51308000Y-71882000D02*
X47498000Y-71882000D01*
X47498000Y-71882000D02*
X46990000Y-71374000D01*
X46990000Y-71374000D02*
X46990000Y-66040000D01*
X46990000Y-66040000D02*
X48514000Y-64516000D01*
X109728000Y-66802000D02*
X117856000Y-66802000D01*
X120650000Y-57150000D02*
X120650000Y-44450000D01*
G04 #@! TO.N,Net-(IC3-Pad8)*
X58420000Y-68580000D02*
X58420000Y-70866000D01*
X53340000Y-91694000D02*
X53340000Y-93980000D01*
X58420000Y-70866000D02*
X54610000Y-74676000D01*
X54610000Y-74676000D02*
X54610000Y-90424000D01*
X54610000Y-90424000D02*
X53340000Y-91694000D01*
G04 #@! TO.N,Net-(IC1-Pad37)*
X48260000Y-68580000D02*
X48260000Y-70866000D01*
X48260000Y-70866000D02*
X48768000Y-71374000D01*
X55880000Y-70612000D02*
X55880000Y-68580000D01*
X48768000Y-71374000D02*
X55118000Y-71374000D01*
X55118000Y-71374000D02*
X55880000Y-70612000D01*
G04 #@! TO.N,VCC*
X69850000Y-48768000D02*
X70358000Y-48768000D01*
X70358000Y-48768000D02*
X71120000Y-48006000D01*
X71120000Y-48006000D02*
X71120000Y-44196000D01*
X69850000Y-48768000D02*
X66424000Y-48768000D01*
X66424000Y-48768000D02*
X66294000Y-48638000D01*
G04 #@! TO.N,Net-(IC15-Pad13)*
X95250000Y-36860000D02*
X95250000Y-38354000D01*
X95250000Y-38354000D02*
X93218000Y-40386000D01*
X90678000Y-40386000D02*
X88900000Y-42164000D01*
X93218000Y-40386000D02*
X90678000Y-40386000D01*
X88900000Y-42164000D02*
X88900000Y-44196000D01*
G04 #@! TO.N,Net-(IC15-Pad14)*
X91440000Y-36860000D02*
X91440000Y-37846000D01*
X91440000Y-37846000D02*
X86360000Y-42926000D01*
X86360000Y-42926000D02*
X86360000Y-44196000D01*
G04 #@! TO.N,Net-(IC15-Pad15)*
X87630000Y-36860000D02*
X87630000Y-38354000D01*
X83820000Y-42164000D02*
X83820000Y-44196000D01*
X87630000Y-38354000D02*
X83820000Y-42164000D01*
G04 #@! TO.N,Net-(IC15-Pad12)*
X99060000Y-36860000D02*
X99060000Y-38100000D01*
X99060000Y-38100000D02*
X95504000Y-41656000D01*
X95504000Y-41656000D02*
X92329000Y-41656000D01*
X92329000Y-41656000D02*
X91440000Y-42545000D01*
X91440000Y-42545000D02*
X91440000Y-44196000D01*
G04 #@! TO.N,Net-(IC1-Pad37)*
X129540000Y-37114000D02*
X113508000Y-37114000D01*
X113508000Y-37114000D02*
X113030000Y-37592000D01*
X113030000Y-37592000D02*
X113030000Y-44450000D01*
G04 #@! TO.N,Net-(IC1-Pad34)*
X139700000Y-37114000D02*
X136368000Y-37114000D01*
X136368000Y-37114000D02*
X135128000Y-38354000D01*
X135128000Y-38354000D02*
X121158000Y-38354000D01*
X120650000Y-38862000D02*
X120650000Y-44450000D01*
X121158000Y-38354000D02*
X120650000Y-38862000D01*
G04 #@! TO.N,Net-(IC1-Pad33)*
X144526000Y-118110000D02*
X146050000Y-118110000D01*
X159258000Y-41402000D02*
X156718000Y-38862000D01*
X146050000Y-118110000D02*
X148336000Y-115824000D01*
X123190000Y-39370000D02*
X123190000Y-44450000D01*
X148336000Y-115824000D02*
X148336000Y-105410000D01*
X148336000Y-105410000D02*
X149352000Y-104394000D01*
X149352000Y-104394000D02*
X158242000Y-104394000D01*
X159258000Y-103378000D02*
X159258000Y-41402000D01*
X156718000Y-38862000D02*
X123698000Y-38862000D01*
X158242000Y-104394000D02*
X159258000Y-103378000D01*
X123698000Y-38862000D02*
X123190000Y-39370000D01*
G04 #@! TO.N,Net-(IC1-Pad32)*
X140716000Y-118140000D02*
X141956000Y-118140000D01*
X143510000Y-103886000D02*
X157734000Y-103886000D01*
X158750000Y-41656000D02*
X156464000Y-39370000D01*
X141956000Y-118140000D02*
X142494000Y-117602000D01*
X158750000Y-102870000D02*
X158750000Y-41656000D01*
X142494000Y-104902000D02*
X143510000Y-103886000D01*
X156464000Y-39370000D02*
X126365000Y-39370000D01*
X142494000Y-117602000D02*
X142494000Y-104902000D01*
X157734000Y-103886000D02*
X158750000Y-102870000D01*
X125730000Y-40005000D02*
X125730000Y-44450000D01*
X126365000Y-39370000D02*
X125730000Y-40005000D01*
G04 #@! TO.N,Net-(IC1-Pad31)*
X136906000Y-118140000D02*
X138146000Y-118140000D01*
X138146000Y-118140000D02*
X138938000Y-117348000D01*
X156210000Y-39878000D02*
X129032000Y-39878000D01*
X138938000Y-104140000D02*
X139700000Y-103378000D01*
X138938000Y-117348000D02*
X138938000Y-104140000D01*
X128270000Y-40640000D02*
X128270000Y-44450000D01*
X139700000Y-103378000D02*
X157226000Y-103378000D01*
X157226000Y-103378000D02*
X158242000Y-102362000D01*
X158242000Y-102362000D02*
X158242000Y-41910000D01*
X158242000Y-41910000D02*
X156210000Y-39878000D01*
X129032000Y-39878000D02*
X128270000Y-40640000D01*
G04 #@! TO.N,Net-(IC1-Pad30)*
X133096000Y-118140000D02*
X134082000Y-118140000D01*
X134082000Y-118140000D02*
X134874000Y-117348000D01*
X134874000Y-117348000D02*
X134874000Y-103632000D01*
X157734000Y-101854000D02*
X157734000Y-42164000D01*
X135636000Y-102870000D02*
X156718000Y-102870000D01*
X134874000Y-103632000D02*
X135636000Y-102870000D01*
X130810000Y-41148000D02*
X130810000Y-44450000D01*
X156718000Y-102870000D02*
X157734000Y-101854000D01*
X157734000Y-42164000D02*
X155956000Y-40386000D01*
X155956000Y-40386000D02*
X131572000Y-40386000D01*
X131572000Y-40386000D02*
X130810000Y-41148000D01*
G04 #@! TO.N,Net-(IC1-Pad29)*
X129286000Y-118140000D02*
X130780000Y-118140000D01*
X155702000Y-40894000D02*
X134112000Y-40894000D01*
X131318000Y-103124000D02*
X132080000Y-102362000D01*
X157226000Y-42418000D02*
X155702000Y-40894000D01*
X130780000Y-118140000D02*
X131318000Y-117602000D01*
X131318000Y-117602000D02*
X131318000Y-103124000D01*
X132080000Y-102362000D02*
X156210000Y-102362000D01*
X156210000Y-102362000D02*
X157226000Y-101346000D01*
X157226000Y-101346000D02*
X157226000Y-42418000D01*
X134112000Y-40894000D02*
X133350000Y-41656000D01*
X133350000Y-41656000D02*
X133350000Y-44450000D01*
G04 #@! TO.N,Net-(IC1-Pad27)*
X121666000Y-118140000D02*
X122906000Y-118140000D01*
X124460000Y-101346000D02*
X155194000Y-101346000D01*
X123698000Y-117348000D02*
X123698000Y-102108000D01*
X122906000Y-118140000D02*
X123698000Y-117348000D01*
X155194000Y-41910000D02*
X139192000Y-41910000D01*
X123698000Y-102108000D02*
X124460000Y-101346000D01*
X155194000Y-101346000D02*
X156210000Y-100330000D01*
X156210000Y-100330000D02*
X156210000Y-42926000D01*
X156210000Y-42926000D02*
X155194000Y-41910000D01*
X139192000Y-41910000D02*
X138430000Y-42672000D01*
X138430000Y-42672000D02*
X138430000Y-44450000D01*
G04 #@! TO.N,Net-(IC1-Pad28)*
X125476000Y-118140000D02*
X126462000Y-118140000D01*
X126462000Y-118140000D02*
X127508000Y-117094000D01*
X136525000Y-41402000D02*
X135890000Y-42037000D01*
X127508000Y-117094000D02*
X127508000Y-102616000D01*
X127508000Y-102616000D02*
X128270000Y-101854000D01*
X156718000Y-100838000D02*
X156718000Y-42672000D01*
X128270000Y-101854000D02*
X155702000Y-101854000D01*
X155448000Y-41402000D02*
X136525000Y-41402000D01*
X155702000Y-101854000D02*
X156718000Y-100838000D01*
X156718000Y-42672000D02*
X155448000Y-41402000D01*
X135890000Y-42037000D02*
X135890000Y-44450000D01*
G04 #@! TO.N,Net-(IC1-Pad26)*
X117856000Y-118140000D02*
X118842000Y-118140000D01*
X118842000Y-118140000D02*
X119888000Y-117094000D01*
X140970000Y-42926000D02*
X140970000Y-44450000D01*
X119888000Y-101600000D02*
X120650000Y-100838000D01*
X119888000Y-117094000D02*
X119888000Y-101600000D01*
X154686000Y-100838000D02*
X155702000Y-99822000D01*
X155702000Y-99822000D02*
X155702000Y-43180000D01*
X155702000Y-43180000D02*
X154940000Y-42418000D01*
X120650000Y-100838000D02*
X154686000Y-100838000D01*
X154940000Y-42418000D02*
X141478000Y-42418000D01*
X141478000Y-42418000D02*
X140970000Y-42926000D01*
G04 #@! TO.N,Net-(IC3-Pad11)*
X62738000Y-76708000D02*
X62738000Y-98552000D01*
G04 #@! TO.N,0*
X61468000Y-79502000D02*
X59690000Y-79502000D01*
X59182000Y-78994000D02*
X59690000Y-79502000D01*
X58420000Y-93980000D02*
X58420000Y-90424000D01*
X58420000Y-90424000D02*
X59690000Y-89154000D01*
X59690000Y-89154000D02*
X59690000Y-79502000D01*
X59690000Y-79502000D02*
X58420000Y-78232000D01*
X58420000Y-78232000D02*
X58420000Y-76200000D01*
G04 #@! TO.N,Net-(IC3-Pad11)*
X61722000Y-66294000D02*
X62484000Y-65532000D01*
X61722000Y-66294000D02*
X61722000Y-75692000D01*
X67818000Y-99314000D02*
X68580000Y-98552000D01*
X61722000Y-75692000D02*
X62738000Y-76708000D01*
X62738000Y-98552000D02*
X63500000Y-99314000D01*
X63500000Y-99314000D02*
X67818000Y-99314000D01*
X68580000Y-98552000D02*
X68580000Y-93980000D01*
G04 #@! TO.N,Net-(IC1-Pad22)*
X56134000Y-102870000D02*
X57150000Y-101854000D01*
X124206000Y-78232000D02*
X124968000Y-78232000D01*
X57150000Y-101854000D02*
X103378000Y-101854000D01*
X114300000Y-90932000D02*
X114300000Y-88900000D01*
X119634000Y-83566000D02*
X119634000Y-80006931D01*
X103378000Y-101854000D02*
X114300000Y-90932000D01*
X56134000Y-115570000D02*
X56134000Y-102870000D01*
X114300000Y-88900000D02*
X119634000Y-83566000D01*
X120646931Y-78994000D02*
X123444000Y-78994000D01*
X123444000Y-78994000D02*
X124206000Y-78232000D01*
X119634000Y-80006931D02*
X120646931Y-78994000D01*
X124968000Y-78232000D02*
X127000000Y-76200000D01*
G04 #@! TO.N,Net-(IC1-Pad23)*
X124460000Y-76200000D02*
X124460000Y-77216000D01*
X124460000Y-77216000D02*
X123190000Y-78486000D01*
X113792000Y-90678000D02*
X103124000Y-101346000D01*
X52324000Y-102362000D02*
X52324000Y-115316000D01*
X123190000Y-78486000D02*
X120363925Y-78486000D01*
X120363925Y-78486000D02*
X119167800Y-79682125D01*
X119167800Y-79682125D02*
X119167800Y-83239660D01*
X119167800Y-83239660D02*
X113792000Y-88615460D01*
X103124000Y-101346000D02*
X53340000Y-101346000D01*
X53340000Y-101346000D02*
X52324000Y-102362000D01*
X113792000Y-88615460D02*
X113792000Y-90678000D01*
G04 #@! TO.N,Net-(IC1-Pad20)*
X59944000Y-103378000D02*
X60960000Y-102362000D01*
X120142000Y-83820000D02*
X120142000Y-80293006D01*
X103632000Y-102362000D02*
X114808000Y-91186000D01*
X114808000Y-91186000D02*
X114808000Y-89154000D01*
X59944000Y-118110000D02*
X59944000Y-103378000D01*
X60960000Y-102362000D02*
X103632000Y-102362000D01*
X114808000Y-89154000D02*
X120142000Y-83820000D01*
X123760800Y-79439200D02*
X124460000Y-78740000D01*
X120142000Y-80293006D02*
X120995806Y-79439200D01*
X120995806Y-79439200D02*
X123760800Y-79439200D01*
X124460000Y-78740000D02*
X128524000Y-78740000D01*
X128524000Y-78740000D02*
X129540000Y-77724000D01*
X129540000Y-77724000D02*
X129540000Y-76200000D01*
G04 #@! TO.N,Net-(IC1-Pad19)*
X63754000Y-118110000D02*
X63754000Y-103886000D01*
X124968000Y-79756000D02*
X133096000Y-79756000D01*
X63754000Y-103886000D02*
X64770000Y-102870000D01*
X103886000Y-102870000D02*
X115316000Y-91440000D01*
X64770000Y-102870000D02*
X103886000Y-102870000D01*
X115316000Y-91440000D02*
X115316000Y-89408000D01*
X115316000Y-89408000D02*
X124968000Y-79756000D01*
G04 #@! TO.N,Net-(IC1-Pad18)*
X116840000Y-91440000D02*
X116840000Y-92456000D01*
X116840000Y-92456000D02*
X116078000Y-93218000D01*
X68580000Y-103378000D02*
X67564000Y-104394000D01*
X116078000Y-93218000D02*
X114300000Y-93218000D01*
X104140000Y-103378000D02*
X68580000Y-103378000D01*
X67564000Y-104394000D02*
X67564000Y-118110000D01*
X114300000Y-93218000D02*
X104140000Y-103378000D01*
G04 #@! TO.N,Net-(IC1-Pad9)*
X94742000Y-122174000D02*
X101092000Y-122174000D01*
X93980000Y-122936000D02*
X94742000Y-122174000D01*
X105918000Y-109982000D02*
X106553000Y-109347000D01*
X106553000Y-107823000D02*
X116586000Y-97790000D01*
X102616000Y-109982000D02*
X105918000Y-109982000D01*
X101854000Y-110744000D02*
X102616000Y-109982000D01*
X101092000Y-122174000D02*
X101854000Y-121412000D01*
X93980000Y-124460000D02*
X93980000Y-122936000D01*
X116586000Y-97790000D02*
X138938000Y-97790000D01*
X106553000Y-109347000D02*
X106553000Y-107823000D01*
X138938000Y-97790000D02*
X139700000Y-97028000D01*
X139700000Y-97028000D02*
X139700000Y-91440000D01*
G04 #@! TO.N,Net-(IC1-Pad10)*
X98044000Y-118110000D02*
X98044000Y-108712000D01*
X98044000Y-108712000D02*
X99314000Y-107442000D01*
X99314000Y-107442000D02*
X106172000Y-107442000D01*
X116332000Y-97282000D02*
X136398000Y-97282000D01*
X136398000Y-97282000D02*
X137160000Y-96520000D01*
X106172000Y-107442000D02*
X116332000Y-97282000D01*
X137160000Y-96520000D02*
X137160000Y-91440000D01*
G04 #@! TO.N,Net-(IC1-Pad11)*
X94234000Y-118110000D02*
X94234000Y-108204000D01*
X94234000Y-108204000D02*
X95504000Y-106934000D01*
X105918000Y-106934000D02*
X116078000Y-96774000D01*
X116078000Y-96774000D02*
X133858000Y-96774000D01*
X95504000Y-106934000D02*
X105918000Y-106934000D01*
X133858000Y-96774000D02*
X134620000Y-96012000D01*
X134620000Y-96012000D02*
X134620000Y-91440000D01*
G04 #@! TO.N,Net-(IC1-Pad14)*
X82804000Y-115570000D02*
X82804000Y-106680000D01*
X82804000Y-106680000D02*
X84074000Y-105410000D01*
X84074000Y-105410000D02*
X105156000Y-105410000D01*
X105156000Y-105410000D02*
X115316000Y-95250000D01*
X115316000Y-95250000D02*
X126238000Y-95250000D01*
X126238000Y-95250000D02*
X127000000Y-94488000D01*
X127000000Y-94488000D02*
X127000000Y-91440000D01*
G04 #@! TO.N,Net-(IC1-Pad13)*
X86614000Y-118110000D02*
X86614000Y-107188000D01*
X129540000Y-94996000D02*
X129540000Y-91440000D01*
X86614000Y-107188000D02*
X87884000Y-105918000D01*
X87884000Y-105918000D02*
X105410000Y-105918000D01*
X105410000Y-105918000D02*
X115570000Y-95758000D01*
X115570000Y-95758000D02*
X128778000Y-95758000D01*
X128778000Y-95758000D02*
X129540000Y-94996000D01*
G04 #@! TO.N,Net-(IC1-Pad12)*
X88646000Y-118206000D02*
X90074000Y-118206000D01*
X90424000Y-117856000D02*
X90424000Y-107696000D01*
X132080000Y-95504000D02*
X132080000Y-91440000D01*
X90424000Y-107696000D02*
X91694000Y-106426000D01*
X91694000Y-106426000D02*
X105664000Y-106426000D01*
X90074000Y-118206000D02*
X90424000Y-117856000D01*
X105664000Y-106426000D02*
X115824000Y-96266000D01*
X115824000Y-96266000D02*
X131318000Y-96266000D01*
X131318000Y-96266000D02*
X132080000Y-95504000D01*
G04 #@! TO.N,Net-(IC1-Pad15)*
X78994000Y-118364000D02*
X78994000Y-106168085D01*
X78994000Y-106168085D02*
X80260085Y-104902000D01*
X80260085Y-104902000D02*
X104902000Y-104902000D01*
X115062000Y-94742000D02*
X123698000Y-94742000D01*
X104902000Y-104902000D02*
X115062000Y-94742000D01*
X123698000Y-94742000D02*
X124460000Y-93980000D01*
X124460000Y-93980000D02*
X124460000Y-91440000D01*
G04 #@! TO.N,Net-(IC1-Pad16)*
X75184000Y-118110000D02*
X75184000Y-105664000D01*
X120904000Y-94234000D02*
X121920000Y-93218000D01*
X75184000Y-105664000D02*
X76454000Y-104394000D01*
X76454000Y-104394000D02*
X104648000Y-104394000D01*
X104648000Y-104394000D02*
X114808000Y-94234000D01*
X114808000Y-94234000D02*
X120904000Y-94234000D01*
X121920000Y-93218000D02*
X121920000Y-91440000D01*
G04 #@! TO.N,Net-(IC1-Pad17)*
X71374000Y-118364000D02*
X71374000Y-104902000D01*
X71374000Y-104902000D02*
X72390000Y-103886000D01*
X72390000Y-103886000D02*
X104394000Y-103886000D01*
X104394000Y-103886000D02*
X114554000Y-93726000D01*
X114554000Y-93726000D02*
X118237000Y-93726000D01*
X118237000Y-93726000D02*
X119380000Y-92583000D01*
X119380000Y-92583000D02*
X119380000Y-91440000D01*
G04 #@! TO.N,VCC*
X43180000Y-86360000D02*
X43180000Y-81280000D01*
X43180000Y-81280000D02*
X41148000Y-79248000D01*
X41148000Y-79248000D02*
X41148000Y-71628000D01*
X41148000Y-71628000D02*
X40510000Y-70990000D01*
X116840000Y-80264000D02*
X113792000Y-80264000D01*
X113792000Y-80264000D02*
X111884000Y-78356000D01*
X111884000Y-78356000D02*
X110236000Y-78356000D01*
X68580000Y-68580000D02*
X68580000Y-67056000D01*
X68580000Y-67056000D02*
X69088000Y-66548000D01*
X69088000Y-66548000D02*
X81788000Y-66548000D01*
X81788000Y-66548000D02*
X82550000Y-67310000D01*
X82550000Y-67310000D02*
X82550000Y-69850000D01*
X82550000Y-69850000D02*
X83690000Y-70990000D01*
X83690000Y-70990000D02*
X87630000Y-70990000D01*
X43180000Y-88900000D02*
X40894000Y-91186000D01*
X40894000Y-91186000D02*
X40894000Y-99568000D01*
X40894000Y-99568000D02*
X39878000Y-100584000D01*
X39878000Y-100584000D02*
X39878000Y-121666000D01*
X39878000Y-121666000D02*
X40640000Y-122428000D01*
X40640000Y-122428000D02*
X40640000Y-124460000D01*
X40894000Y-91186000D02*
X40894000Y-89408000D01*
X40256000Y-88770000D02*
X39370000Y-88770000D01*
X40894000Y-89408000D02*
X40256000Y-88770000D01*
X43180000Y-88900000D02*
X43180000Y-86360000D01*
X36830000Y-126740000D02*
X39630000Y-126740000D01*
X39630000Y-126740000D02*
X40640000Y-125730000D01*
X40640000Y-125730000D02*
X40640000Y-124460000D01*
G04 #@! TO.N,Net-(IC3-Pad2)*
X40386000Y-121412000D02*
X40386000Y-100838000D01*
X40386000Y-100838000D02*
X41402000Y-99822000D01*
X86868000Y-142748000D02*
X42926000Y-142748000D01*
X87376000Y-150876000D02*
X88392000Y-149860000D01*
X88392000Y-149860000D02*
X88392000Y-144272000D01*
X86360000Y-150876000D02*
X87376000Y-150876000D01*
X41402000Y-99822000D02*
X41402000Y-91948000D01*
X45720000Y-79756000D02*
X45720000Y-76200000D01*
X42926000Y-142748000D02*
X41910000Y-141732000D01*
X88392000Y-144272000D02*
X86868000Y-142748000D01*
X44450000Y-81026000D02*
X45720000Y-79756000D01*
X41910000Y-122936000D02*
X40386000Y-121412000D01*
X41910000Y-141732000D02*
X41910000Y-122936000D01*
X41402000Y-91948000D02*
X44450000Y-88900000D01*
X44450000Y-88900000D02*
X44450000Y-81026000D01*
G04 #@! TO.N,Net-(IC1-Pad25)*
X44704000Y-120650000D02*
X44704000Y-118110000D01*
X44704000Y-118110000D02*
X44704000Y-101092000D01*
X42926000Y-118236000D02*
X44578000Y-118236000D01*
X44578000Y-118236000D02*
X44704000Y-118110000D01*
G04 #@! TO.N,Net-(IC1-Pad23)*
X50800000Y-124460000D02*
X50800000Y-121412000D01*
X50800000Y-121412000D02*
X52324000Y-119888000D01*
X52324000Y-119888000D02*
X52324000Y-118110000D01*
G04 #@! TO.N,Net-(IC1-Pad22)*
X56134000Y-118110000D02*
X56134000Y-119380000D01*
X56134000Y-119380000D02*
X53340000Y-122174000D01*
X53340000Y-122174000D02*
X53340000Y-124460000D01*
G04 #@! TO.N,Net-(IC1-Pad20)*
X55880000Y-124460000D02*
X55880000Y-121666000D01*
X55880000Y-121666000D02*
X56896000Y-120650000D01*
X56896000Y-120650000D02*
X58928000Y-120650000D01*
X58928000Y-120650000D02*
X59944000Y-119634000D01*
X59944000Y-119634000D02*
X59944000Y-118110000D01*
G04 #@! TO.N,Net-(IC1-Pad19)*
X61214000Y-121158000D02*
X62738000Y-121158000D01*
X62738000Y-121158000D02*
X63754000Y-120142000D01*
X63754000Y-120142000D02*
X63754000Y-118110000D01*
G04 #@! TO.N,Net-(IC1-Pad18)*
X65024000Y-121666000D02*
X66548000Y-121666000D01*
X66548000Y-121666000D02*
X67564000Y-120650000D01*
X67564000Y-120650000D02*
X67564000Y-118110000D01*
G04 #@! TO.N,Net-(IC1-Pad17)*
X63500000Y-124460000D02*
X63500000Y-122936000D01*
X63500000Y-122936000D02*
X64262000Y-122174000D01*
X70358000Y-122174000D02*
X71374000Y-121158000D01*
X64262000Y-122174000D02*
X70358000Y-122174000D01*
X71374000Y-121158000D02*
X71374000Y-118364000D01*
G04 #@! TO.N,Net-(IC1-Pad16)*
X76200000Y-124460000D02*
X76200000Y-121666000D01*
X76200000Y-121666000D02*
X75184000Y-120650000D01*
X75184000Y-120650000D02*
X75184000Y-118110000D01*
G04 #@! TO.N,Net-(IC1-Pad14)*
X81280000Y-124460000D02*
X81280000Y-121920000D01*
X81280000Y-121920000D02*
X82804000Y-120396000D01*
X82804000Y-120396000D02*
X82804000Y-118110000D01*
G04 #@! TO.N,Net-(IC1-Pad13)*
X83820000Y-124460000D02*
X83820000Y-121793000D01*
X86614000Y-118999000D02*
X86614000Y-118110000D01*
X83820000Y-121793000D02*
X86614000Y-118999000D01*
G04 #@! TO.N,Net-(IC1-Pad12)*
X86360000Y-124460000D02*
X86360000Y-122174000D01*
X86360000Y-122174000D02*
X88646000Y-119888000D01*
X88646000Y-119888000D02*
X88646000Y-118206000D01*
G04 #@! TO.N,Net-(IC1-Pad11)*
X88900000Y-124460000D02*
X88900000Y-122047000D01*
X88900000Y-122047000D02*
X89789000Y-121158000D01*
X89789000Y-121158000D02*
X91694000Y-121158000D01*
G04 #@! TO.N,Net-(IC1-Pad10)*
X91440000Y-124460000D02*
X91440000Y-122682000D01*
X91440000Y-122682000D02*
X92456000Y-121666000D01*
X92456000Y-121666000D02*
X95504000Y-121666000D01*
G04 #@! TO.N,Net-(IC1-Pad11)*
X91694000Y-121158000D02*
X93218000Y-121158000D01*
X93218000Y-121158000D02*
X94234000Y-120142000D01*
X94234000Y-120142000D02*
X94234000Y-118110000D01*
G04 #@! TO.N,Net-(IC1-Pad10)*
X95504000Y-121666000D02*
X97028000Y-121666000D01*
X97028000Y-121666000D02*
X98044000Y-120650000D01*
X98044000Y-120650000D02*
X98044000Y-118110000D01*
G04 #@! TO.N,Net-(IC4-Pad8)*
X148082000Y-117856000D02*
X148844000Y-118618000D01*
X148844000Y-118618000D02*
X155448000Y-118618000D01*
X155448000Y-118618000D02*
X156210000Y-119380000D01*
X156210000Y-119380000D02*
X156210000Y-125984000D01*
X156210000Y-125984000D02*
X155448000Y-126746000D01*
X155448000Y-126746000D02*
X135382000Y-126746000D01*
X135382000Y-126746000D02*
X134620000Y-125984000D01*
X134620000Y-125984000D02*
X134620000Y-124460000D01*
G04 #@! TO.N,VCC*
X156210000Y-160528000D02*
X156210000Y-128270000D01*
X156210000Y-128270000D02*
X155448000Y-127508000D01*
X155448000Y-127508000D02*
X133096000Y-127508000D01*
X133096000Y-127508000D02*
X132080000Y-126492000D01*
X132080000Y-126492000D02*
X132080000Y-124460000D01*
G04 #@! TO.N,Net-(IC1-Pad27)*
X139700000Y-124460000D02*
X139700000Y-122936000D01*
X139700000Y-122936000D02*
X138938000Y-122174000D01*
X138938000Y-122174000D02*
X122428000Y-122174000D01*
X122428000Y-122174000D02*
X121666000Y-121412000D01*
X121666000Y-121412000D02*
X121666000Y-118140000D01*
G04 #@! TO.N,Net-(IC1-Pad28)*
X142240000Y-124460000D02*
X142240000Y-122428000D01*
X141478000Y-121666000D02*
X126238000Y-121666000D01*
X142240000Y-122428000D02*
X141478000Y-121666000D01*
X126238000Y-121666000D02*
X125476000Y-120904000D01*
X125476000Y-120904000D02*
X125476000Y-118140000D01*
G04 #@! TO.N,Net-(IC1-Pad29)*
X144780000Y-124460000D02*
X144780000Y-121920000D01*
X129286000Y-120396000D02*
X129286000Y-118140000D01*
X144780000Y-121920000D02*
X144018000Y-121158000D01*
X130048000Y-121158000D02*
X129286000Y-120396000D01*
X144018000Y-121158000D02*
X130048000Y-121158000D01*
G04 #@! TO.N,Net-(IC1-Pad33)*
X144526000Y-118110000D02*
X144526000Y-118872000D01*
X154940000Y-119888000D02*
X154940000Y-124460000D01*
X144526000Y-118872000D02*
X144780000Y-119126000D01*
X144780000Y-119126000D02*
X154178000Y-119126000D01*
X154178000Y-119126000D02*
X154940000Y-119888000D01*
G04 #@! TO.N,VCC*
X128270000Y-128394000D02*
X129410000Y-128394000D01*
X129410000Y-128394000D02*
X130302000Y-129286000D01*
X130302000Y-129286000D02*
X130302000Y-131572000D01*
X130302000Y-131572000D02*
X130810000Y-132080000D01*
X130810000Y-132080000D02*
X132080000Y-132080000D01*
X128270000Y-128394000D02*
X128146000Y-128270000D01*
X100076000Y-128270000D02*
X98676000Y-126870000D01*
X98676000Y-126870000D02*
X97536000Y-126870000D01*
G04 #@! TO.N,Net-(IC12-Pad9)*
X152400000Y-146050000D02*
X152400000Y-135128000D01*
X152400000Y-135128000D02*
X151892000Y-134620000D01*
X151892000Y-134620000D02*
X92265500Y-134620000D01*
X92265500Y-134620000D02*
X91440000Y-133794500D01*
X91440000Y-133794500D02*
X91440000Y-132080000D01*
G04 #@! TO.N,Net-(IC12-Pad8)*
X149860000Y-146050000D02*
X149860000Y-135382000D01*
X149860000Y-135382000D02*
X149606000Y-135128000D01*
X89662000Y-135128000D02*
X88900000Y-134366000D01*
X149606000Y-135128000D02*
X89662000Y-135128000D01*
X88900000Y-134366000D02*
X88900000Y-132080000D01*
G04 #@! TO.N,Net-(IC12-Pad7)*
X147320000Y-150114000D02*
X147320000Y-135890000D01*
X147066000Y-135636000D02*
X87122000Y-135636000D01*
X87122000Y-135636000D02*
X86360000Y-134874000D01*
X147320000Y-135890000D02*
X147066000Y-135636000D01*
X86360000Y-134874000D02*
X86360000Y-132080000D01*
G04 #@! TO.N,Net-(IC12-Pad6)*
X144780000Y-150114000D02*
X144780000Y-136398000D01*
X144780000Y-136398000D02*
X144526000Y-136144000D01*
X144526000Y-136144000D02*
X84836000Y-136144000D01*
X84836000Y-136144000D02*
X83820000Y-135128000D01*
X83820000Y-135128000D02*
X83820000Y-132080000D01*
G04 #@! TO.N,Net-(IC12-Pad5)*
X142240000Y-146050000D02*
X142240000Y-136906000D01*
X141986000Y-136652000D02*
X82296000Y-136652000D01*
X142240000Y-136906000D02*
X141986000Y-136652000D01*
X81280000Y-135636000D02*
X81280000Y-132080000D01*
X82296000Y-136652000D02*
X81280000Y-135636000D01*
G04 #@! TO.N,Net-(IC12-Pad4)*
X139700000Y-146050000D02*
X139700000Y-137414000D01*
X139700000Y-137414000D02*
X139446000Y-137160000D01*
X139446000Y-137160000D02*
X79756000Y-137160000D01*
X79756000Y-137160000D02*
X78740000Y-136144000D01*
X78740000Y-136144000D02*
X78740000Y-132080000D01*
G04 #@! TO.N,Net-(IC12-Pad3)*
X137160000Y-146050000D02*
X137160000Y-137922000D01*
X137160000Y-137922000D02*
X136906000Y-137668000D01*
X136906000Y-137668000D02*
X77216000Y-137668000D01*
X77216000Y-137668000D02*
X76200000Y-136652000D01*
X76200000Y-136652000D02*
X76200000Y-132080000D01*
G04 #@! TO.N,Net-(IC12-Pad2)*
X134620000Y-146050000D02*
X134620000Y-138430000D01*
X134620000Y-138430000D02*
X134366000Y-138176000D01*
X73660000Y-137160000D02*
X73660000Y-132080000D01*
X134366000Y-138176000D02*
X74676000Y-138176000D01*
X74676000Y-138176000D02*
X73660000Y-137160000D01*
G04 #@! TO.N,Net-(IC11-Pad9)*
X129540000Y-150114000D02*
X129540000Y-139446000D01*
X129540000Y-139446000D02*
X128778000Y-138684000D01*
X60960000Y-137668000D02*
X60960000Y-132080000D01*
X128778000Y-138684000D02*
X61976000Y-138684000D01*
X61976000Y-138684000D02*
X60960000Y-137668000D01*
G04 #@! TO.N,Net-(IC11-Pad8)*
X127000000Y-146050000D02*
X127000000Y-139700000D01*
X59436000Y-139192000D02*
X58420000Y-138176000D01*
X127000000Y-139700000D02*
X126492000Y-139192000D01*
X126492000Y-139192000D02*
X59436000Y-139192000D01*
X58420000Y-138176000D02*
X58420000Y-132080000D01*
G04 #@! TO.N,Net-(IC11-Pad7)*
X124460000Y-146050000D02*
X124460000Y-140208000D01*
X124460000Y-140208000D02*
X123952000Y-139700000D01*
X123952000Y-139700000D02*
X56896000Y-139700000D01*
X56896000Y-139700000D02*
X55880000Y-138684000D01*
X55880000Y-138684000D02*
X55880000Y-132080000D01*
G04 #@! TO.N,Net-(IC11-Pad6)*
X121920000Y-146050000D02*
X121920000Y-140462000D01*
X121920000Y-140462000D02*
X121666000Y-140208000D01*
X121666000Y-140208000D02*
X54356000Y-140208000D01*
X54356000Y-140208000D02*
X53340000Y-139192000D01*
X53340000Y-139192000D02*
X53340000Y-132080000D01*
G04 #@! TO.N,Net-(IC11-Pad5)*
X119380000Y-146050000D02*
X119380000Y-140970000D01*
X119126000Y-140716000D02*
X51816000Y-140716000D01*
X119380000Y-140970000D02*
X119126000Y-140716000D01*
X51816000Y-140716000D02*
X50800000Y-139700000D01*
X50800000Y-139700000D02*
X50800000Y-132080000D01*
G04 #@! TO.N,Net-(IC11-Pad4)*
X116840000Y-146050000D02*
X116840000Y-141478000D01*
X49276000Y-141224000D02*
X48260000Y-140208000D01*
X116840000Y-141478000D02*
X116586000Y-141224000D01*
X116586000Y-141224000D02*
X49276000Y-141224000D01*
X48260000Y-140208000D02*
X48260000Y-132080000D01*
G04 #@! TO.N,Net-(IC11-Pad3)*
X114300000Y-146050000D02*
X114300000Y-141986000D01*
X45720000Y-140716000D02*
X45720000Y-132080000D01*
X114300000Y-141986000D02*
X114046000Y-141732000D01*
X114046000Y-141732000D02*
X46736000Y-141732000D01*
X46736000Y-141732000D02*
X45720000Y-140716000D01*
G04 #@! TO.N,Net-(IC11-Pad2)*
X111760000Y-146050000D02*
X111760000Y-142494000D01*
X44196000Y-142240000D02*
X43180000Y-141224000D01*
X43180000Y-141224000D02*
X43180000Y-132080000D01*
X111760000Y-142494000D02*
X111506000Y-142240000D01*
X111506000Y-142240000D02*
X44196000Y-142240000D01*
G04 #@! TO.N,VCC*
X76200000Y-165608000D02*
X76200000Y-163068000D01*
X76200000Y-163068000D02*
X76708000Y-162560000D01*
X75438000Y-166370000D02*
X76200000Y-165608000D01*
X76708000Y-162560000D02*
X78486000Y-162560000D01*
X78486000Y-162560000D02*
X81788000Y-165862000D01*
X81788000Y-165862000D02*
X83942000Y-165862000D01*
X83942000Y-165862000D02*
X84516000Y-165288000D01*
X84516000Y-165288000D02*
X84516000Y-163830000D01*
G04 #@! TO.N,Net-(C4-Pad2)*
X74930000Y-163830000D02*
X74930000Y-162306000D01*
X74930000Y-162306000D02*
X75946000Y-161290000D01*
X75946000Y-161290000D02*
X82042000Y-161290000D01*
X82042000Y-161290000D02*
X82616000Y-161864000D01*
X82616000Y-161864000D02*
X82616000Y-163830000D01*
G04 #@! TO.N,VCC*
X41590000Y-170180000D02*
X44450000Y-170180000D01*
X44450000Y-170180000D02*
X46990000Y-167640000D01*
X46990000Y-167640000D02*
X46990000Y-163830000D01*
G04 #@! TO.N,0*
X46990000Y-171450000D02*
X46990000Y-168402000D01*
X46990000Y-168402000D02*
X47752000Y-167640000D01*
X47752000Y-167640000D02*
X60960000Y-167640000D01*
G04 #@! TO.N,Net-(IC7-Pad7)*
X49530000Y-163830000D02*
X49530000Y-163068000D01*
X49530000Y-163068000D02*
X48768000Y-162306000D01*
X48768000Y-162306000D02*
X42418000Y-162306000D01*
X42418000Y-162306000D02*
X41590000Y-163134000D01*
X41590000Y-163134000D02*
X41590000Y-165100000D01*
G04 #@! TO.N,Net-(C1-Pad2)*
X60960000Y-162430000D02*
X55248000Y-162430000D01*
X55248000Y-162430000D02*
X54610000Y-163068000D01*
X54610000Y-163068000D02*
X54610000Y-163830000D01*
G04 #@! TO.N,VCC*
X72070000Y-176530000D02*
X72070000Y-175072000D01*
X72070000Y-175072000D02*
X73152000Y-173990000D01*
X76454000Y-173990000D02*
X77470000Y-172974000D01*
X77470000Y-172974000D02*
X77470000Y-171450000D01*
X73152000Y-173990000D02*
X76454000Y-173990000D01*
G04 #@! TO.N,0*
X152400000Y-162880000D02*
X134940000Y-162880000D01*
X134940000Y-162880000D02*
X134874000Y-162814000D01*
X134874000Y-162814000D02*
X129032000Y-162814000D01*
X128270000Y-171958000D02*
X127508000Y-172720000D01*
X119380000Y-173482000D02*
X119380000Y-174945000D01*
X129032000Y-162814000D02*
X128270000Y-163576000D01*
X128270000Y-163576000D02*
X128270000Y-171958000D01*
X127508000Y-172720000D02*
X120142000Y-172720000D01*
X120142000Y-172720000D02*
X119380000Y-173482000D01*
G04 #@! TO.N,VCC*
X156210000Y-160528000D02*
X156210000Y-159004000D01*
X156210000Y-159004000D02*
X154940000Y-157734000D01*
X154940000Y-157734000D02*
X152400000Y-157734000D01*
X134620000Y-176530000D02*
X154178000Y-176530000D01*
X154178000Y-176530000D02*
X156210000Y-174498000D01*
X156210000Y-174498000D02*
X156210000Y-160528000D01*
G04 #@! TO.N,0*
X153416000Y-143002000D02*
X154305000Y-143002000D01*
X154305000Y-143002000D02*
X154940000Y-142367000D01*
X154940000Y-142367000D02*
X154940000Y-132080000D01*
X123828000Y-129670000D02*
X126746000Y-129670000D01*
X126746000Y-129670000D02*
X128270000Y-131194000D01*
X102870000Y-30480000D02*
X112268000Y-30480000D01*
X112268000Y-30480000D02*
X113220000Y-31432000D01*
X113220000Y-31432000D02*
X113220000Y-33020000D01*
G04 #@! TO.N,Net-(C7-Pad2)*
X50800000Y-52324000D02*
X50820000Y-52304000D01*
X50820000Y-52304000D02*
X50820000Y-50210000D01*
G04 #@! TO.N,Net-(IC15-Pad18)*
X57404000Y-41402000D02*
X56134000Y-41402000D01*
X56134000Y-41402000D02*
X52820000Y-44716000D01*
X52820000Y-44716000D02*
X52820000Y-46310000D01*
G04 #@! TO.N,0*
X45466000Y-44450000D02*
X45466000Y-41148000D01*
X45466000Y-41148000D02*
X46228000Y-40386000D01*
X46228000Y-40386000D02*
X59182000Y-40386000D01*
X59182000Y-40386000D02*
X60960000Y-42164000D01*
X60960000Y-42164000D02*
X63500000Y-42164000D01*
X34125000Y-44416000D02*
X34125000Y-26835000D01*
X34125000Y-26835000D02*
X35210000Y-25750000D01*
X35210000Y-25750000D02*
X40640000Y-25750000D01*
G04 #@! TO.N,VCC*
X39965000Y-47676000D02*
X37414000Y-47676000D01*
X36576000Y-48514000D02*
X36576000Y-63500000D01*
X36576000Y-63500000D02*
X37846000Y-64770000D01*
X37846000Y-64770000D02*
X42418000Y-64770000D01*
X37414000Y-47676000D02*
X36576000Y-48514000D01*
X42418000Y-64770000D02*
X43180000Y-65532000D01*
X43180000Y-65532000D02*
X43180000Y-68580000D01*
G04 #@! TO.N,Net-(IC16-Pad4)*
X39965000Y-48476000D02*
X39999000Y-48510000D01*
X39999000Y-48510000D02*
X50120000Y-48510000D01*
G04 #@! TO.N,Net-(IC16-Pad3)*
X39965000Y-49276000D02*
X43942000Y-49276000D01*
X43942000Y-49276000D02*
X44958000Y-50292000D01*
G04 #@! TO.N,0*
X35086000Y-54136000D02*
X36068000Y-55118000D01*
X40219000Y-44670000D02*
X45246000Y-44670000D01*
X34125000Y-44416000D02*
X34125000Y-54136000D01*
X39965000Y-50876000D02*
X39965000Y-54136000D01*
X39965000Y-44416000D02*
X34125000Y-44416000D01*
X44580000Y-57280000D02*
X48260000Y-57280000D01*
X39965000Y-54390000D02*
X39965000Y-54136000D01*
X36068000Y-55118000D02*
X36068000Y-74676000D01*
X39965000Y-44416000D02*
X40219000Y-44670000D01*
X45246000Y-44670000D02*
X45466000Y-44450000D01*
X39370000Y-54985000D02*
X39965000Y-54390000D01*
X39965000Y-54136000D02*
X41436000Y-54136000D01*
X41436000Y-54136000D02*
X44580000Y-57280000D01*
X34125000Y-54136000D02*
X35086000Y-54136000D01*
X39370000Y-91570000D02*
X36960000Y-91570000D01*
X36960000Y-91570000D02*
X36068000Y-90678000D01*
X36068000Y-90678000D02*
X36068000Y-74676000D01*
X38862000Y-73790000D02*
X36954000Y-73790000D01*
X36954000Y-73790000D02*
X36068000Y-74676000D01*
G04 #@! TO.N,VCC*
X55814000Y-55560000D02*
X55626000Y-55372000D01*
X57912000Y-55560000D02*
X55814000Y-55560000D01*
G04 #@! TO.N,Net-(IC16-Pad3)*
X44958000Y-46482000D02*
X45212000Y-46482000D01*
X45212000Y-46482000D02*
X46740000Y-48010000D01*
X46740000Y-48010000D02*
X50120000Y-48010000D01*
G04 #@! TO.N,Net-(IC16-Pad9)*
X57912000Y-53660000D02*
X57912000Y-52832000D01*
X57912000Y-52832000D02*
X57150000Y-52070000D01*
X57150000Y-52070000D02*
X52832000Y-52070000D01*
X51816000Y-51054000D02*
X51820000Y-51050000D01*
X52832000Y-52070000D02*
X51816000Y-51054000D01*
X51820000Y-51050000D02*
X51820000Y-50210000D01*
G04 #@! TO.N,VCC*
X57912000Y-55560000D02*
X60264000Y-55560000D01*
X60264000Y-55560000D02*
X60960000Y-54864000D01*
G04 #@! TO.N,Net-(IC15-Pad19)*
X72390000Y-40640000D02*
X73660000Y-41910000D01*
G04 #@! TO.N,0*
X71120000Y-51816000D02*
X71120000Y-50292000D01*
X68456000Y-51438000D02*
X68834000Y-51816000D01*
X70866000Y-52324000D02*
X71120000Y-52070000D01*
X98682000Y-48638000D02*
X95504000Y-51816000D01*
X71120000Y-50292000D02*
X72390000Y-49022000D01*
X71120000Y-52070000D02*
X71120000Y-51816000D01*
X72390000Y-42926000D02*
X71628000Y-42164000D01*
X71628000Y-42164000D02*
X64516000Y-42164000D01*
X66294000Y-51438000D02*
X68456000Y-51438000D01*
X95504000Y-51816000D02*
X93980000Y-51816000D01*
X68834000Y-51816000D02*
X71120000Y-51816000D01*
G04 #@! TO.N,Net-(IC15-Pad16)*
X81280000Y-43180000D02*
X81280000Y-44196000D01*
G04 #@! TO.N,Net-(IC15-Pad17)*
X78740000Y-41910000D02*
X78740000Y-44196000D01*
G04 #@! TO.N,0*
X72390000Y-49022000D02*
X72390000Y-42926000D01*
G04 #@! TO.N,Net-(IC15-Pad16)*
X83820000Y-40640000D02*
X81280000Y-43180000D01*
G04 #@! TO.N,Net-(IC15-Pad18)*
X76200000Y-36860000D02*
X76200000Y-44196000D01*
G04 #@! TO.N,0*
X100584000Y-48638000D02*
X98682000Y-48638000D01*
G04 #@! TO.N,VCC*
X67376000Y-45400000D02*
X68072000Y-44704000D01*
G04 #@! TO.N,Net-(IC15-Pad16)*
X83820000Y-36860000D02*
X83820000Y-40640000D01*
G04 #@! TO.N,Net-(IC15-Pad17)*
X80010000Y-36860000D02*
X80010000Y-40640000D01*
G04 #@! TO.N,VCC*
X70612000Y-44704000D02*
X71120000Y-44196000D01*
G04 #@! TO.N,Net-(IC15-Pad17)*
X80010000Y-40640000D02*
X78740000Y-41910000D01*
G04 #@! TO.N,VCC*
X68072000Y-44704000D02*
X70612000Y-44704000D01*
G04 #@! TO.N,Net-(IC15-Pad19)*
X72390000Y-36860000D02*
X72390000Y-40640000D01*
X73660000Y-41910000D02*
X73660000Y-44196000D01*
G04 #@! TO.N,VCC*
X62210000Y-45400000D02*
X67376000Y-45400000D01*
X103378000Y-51562000D02*
X100708000Y-51562000D01*
X113030000Y-59690000D02*
X113030000Y-52324000D01*
X112268000Y-51562000D02*
X109220000Y-51562000D01*
X113030000Y-52324000D02*
X112268000Y-51562000D01*
X118110000Y-59690000D02*
X118110000Y-52324000D01*
X118110000Y-52324000D02*
X117348000Y-51562000D01*
X117348000Y-51562000D02*
X109220000Y-51562000D01*
X110490000Y-44450000D02*
X110490000Y-50800000D01*
X110490000Y-50800000D02*
X109728000Y-51562000D01*
X109728000Y-51562000D02*
X108966000Y-51562000D01*
X109220000Y-51562000D02*
X103378000Y-51562000D01*
X100708000Y-51562000D02*
X100584000Y-51438000D01*
G04 #@! TO.N,0*
X102870000Y-30480000D02*
X102870000Y-40640000D01*
X102870000Y-40640000D02*
X100330000Y-43180000D01*
X100330000Y-43180000D02*
X100330000Y-48384000D01*
X100330000Y-48384000D02*
X100584000Y-48638000D01*
G04 #@! TO.N,VCC*
X60960000Y-54864000D02*
X60960000Y-45334000D01*
X61026000Y-45400000D02*
X60960000Y-45334000D01*
X60960000Y-45334000D02*
X60960000Y-43900000D01*
X60960000Y-43900000D02*
X61360000Y-43500000D01*
X61360000Y-43500000D02*
X62210000Y-43500000D01*
G04 #@! TO.N,0*
X64770000Y-91570000D02*
X64770000Y-94742000D01*
G04 #@! TO.N,Net-(IC3-Pad13)*
X45720000Y-68580000D02*
X45720000Y-73152000D01*
X53340000Y-90678000D02*
X53340000Y-86360000D01*
X47752000Y-91440000D02*
X52578000Y-91440000D01*
X45720000Y-73152000D02*
X46990000Y-74422000D01*
X46990000Y-74422000D02*
X46990000Y-90678000D01*
X46990000Y-90678000D02*
X47752000Y-91440000D01*
X52578000Y-91440000D02*
X53340000Y-90678000D01*
G04 #@! TO.N,Net-(IC16-Pad14)*
X59944000Y-48514000D02*
X59448000Y-49010000D01*
X59448000Y-49010000D02*
X54020000Y-49010000D01*
G04 #@! TO.N,Net-(IC16-Pad13)*
X58674000Y-50038000D02*
X58146000Y-49510000D01*
X58146000Y-49510000D02*
X54020000Y-49510000D01*
G04 #@! TO.N,0*
X53340000Y-57280000D02*
X54994000Y-57280000D01*
X54994000Y-57280000D02*
X56896000Y-59182000D01*
X66294000Y-58166000D02*
X66294000Y-51438000D01*
X56896000Y-59182000D02*
X65278000Y-59182000D01*
X65278000Y-59182000D02*
X66294000Y-58166000D01*
X64770000Y-72012000D02*
X64770000Y-74422000D01*
G04 #@! TO.N,VCC*
X69850000Y-73660000D02*
X69850000Y-71628000D01*
X69850000Y-71628000D02*
X68580000Y-70358000D01*
X68580000Y-70358000D02*
X68580000Y-68580000D01*
X66802000Y-68580000D02*
X68580000Y-68580000D01*
X64770000Y-69212000D02*
X66170000Y-69212000D01*
X66170000Y-69212000D02*
X66802000Y-68580000D01*
X69850000Y-73406000D02*
X69850000Y-73660000D01*
X69850000Y-73660000D02*
X69850000Y-81534000D01*
G04 #@! TO.N,0*
X83820000Y-76200000D02*
X83820000Y-74422000D01*
X83820000Y-74422000D02*
X84452000Y-73790000D01*
X84452000Y-73790000D02*
X87630000Y-73790000D01*
G04 #@! TO.N,Net-(IC5-Pad4)*
X76200000Y-76200000D02*
X76200000Y-83058000D01*
X81280000Y-91440000D02*
X81280000Y-93980000D01*
X76200000Y-83058000D02*
X77470000Y-84328000D01*
X77470000Y-84328000D02*
X77470000Y-89916000D01*
X77470000Y-89916000D02*
X78232000Y-90678000D01*
X80518000Y-90678000D02*
X81280000Y-91440000D01*
X78232000Y-90678000D02*
X80518000Y-90678000D01*
G04 #@! TO.N,VCC*
X95250000Y-72136000D02*
X94104000Y-70990000D01*
X94104000Y-70990000D02*
X90554000Y-70990000D01*
G04 #@! TO.N,Net-(IC4-Pad12)*
X96520000Y-68580000D02*
X96520000Y-71120000D01*
X97790000Y-72390000D02*
X103124000Y-72390000D01*
X96520000Y-71120000D02*
X97790000Y-72390000D01*
X104140000Y-73406000D02*
X104140000Y-76200000D01*
X103124000Y-72390000D02*
X104140000Y-73406000D01*
G04 #@! TO.N,Net-(IC4-Pad13)*
X93980000Y-68580000D02*
X93980000Y-70104000D01*
X93980000Y-70104000D02*
X96520000Y-72644000D01*
X96520000Y-72644000D02*
X96520000Y-76200000D01*
G04 #@! TO.N,VCC*
X91440000Y-68580000D02*
X91440000Y-70104000D01*
X91440000Y-70104000D02*
X90554000Y-70990000D01*
X90554000Y-70990000D02*
X87630000Y-70990000D01*
G04 #@! TO.N,Net-(IC5-Pad10)*
X78740000Y-68580000D02*
X78740000Y-71374000D01*
X78740000Y-71374000D02*
X77724000Y-72390000D01*
X74422000Y-72390000D02*
X73660000Y-73152000D01*
X77724000Y-72390000D02*
X74422000Y-72390000D01*
X73660000Y-73152000D02*
X73660000Y-76200000D01*
G04 #@! TO.N,0*
X81280000Y-86360000D02*
X81280000Y-88646000D01*
X81280000Y-88646000D02*
X83820000Y-91186000D01*
X83820000Y-91186000D02*
X83820000Y-93980000D01*
G04 #@! TO.N,Net-(IC14-Pad19)*
X93980000Y-76200000D02*
X93980000Y-80010000D01*
X45720000Y-98806000D02*
X45720000Y-93980000D01*
X93980000Y-80010000D02*
X93218000Y-80772000D01*
X93218000Y-80772000D02*
X86106000Y-80772000D01*
X86106000Y-80772000D02*
X85344000Y-81534000D01*
X85344000Y-81534000D02*
X85344000Y-95250000D01*
X85344000Y-95250000D02*
X84582000Y-96012000D01*
X84582000Y-96012000D02*
X80772000Y-96012000D01*
X80772000Y-96012000D02*
X80010000Y-95250000D01*
X80010000Y-95250000D02*
X80010000Y-91948000D01*
X80010000Y-91948000D02*
X79248000Y-91186000D01*
X79248000Y-91186000D02*
X70866000Y-91186000D01*
X70866000Y-91186000D02*
X69850000Y-92202000D01*
X69850000Y-92202000D02*
X69850000Y-99060000D01*
X69850000Y-99060000D02*
X69088000Y-99822000D01*
X69088000Y-99822000D02*
X46736000Y-99822000D01*
X46736000Y-99822000D02*
X45720000Y-98806000D01*
G04 #@! TO.N,Net-(IC1-Pad25)*
X77978000Y-91694000D02*
X78740000Y-92456000D01*
X72390000Y-99568000D02*
X72390000Y-92456000D01*
X45466000Y-100330000D02*
X71628000Y-100330000D01*
X44704000Y-101092000D02*
X45466000Y-100330000D01*
X71628000Y-100330000D02*
X72390000Y-99568000D01*
X72390000Y-92456000D02*
X73152000Y-91694000D01*
X73152000Y-91694000D02*
X77978000Y-91694000D01*
X78740000Y-92456000D02*
X78740000Y-93980000D01*
G04 #@! TO.N,Net-(IC1-Pad24)*
X48514000Y-118364000D02*
X48514000Y-101854000D01*
X48514000Y-101854000D02*
X49530000Y-100838000D01*
X49530000Y-100838000D02*
X72898000Y-100838000D01*
X72898000Y-100838000D02*
X73660000Y-100076000D01*
X73660000Y-100076000D02*
X73660000Y-93980000D01*
G04 #@! TO.N,0*
X40894000Y-109474000D02*
X40894000Y-101092000D01*
X57658000Y-96774000D02*
X58420000Y-96012000D01*
X40894000Y-101092000D02*
X41910000Y-100076000D01*
X41910000Y-100076000D02*
X41910000Y-92456000D01*
X46990000Y-95758000D02*
X48006000Y-96774000D01*
X41910000Y-92456000D02*
X42418000Y-91948000D01*
X48006000Y-96774000D02*
X57658000Y-96774000D01*
X42418000Y-91948000D02*
X46228000Y-91948000D01*
X46228000Y-91948000D02*
X46990000Y-92710000D01*
X46990000Y-92710000D02*
X46990000Y-95758000D01*
X58420000Y-96012000D02*
X58420000Y-93980000D01*
G04 #@! TO.N,VCC*
X42548000Y-70990000D02*
X43180000Y-70358000D01*
X40510000Y-70990000D02*
X42548000Y-70990000D01*
X40510000Y-70990000D02*
X38862000Y-70990000D01*
X43180000Y-70358000D02*
X43180000Y-68580000D01*
X43180000Y-88138000D02*
X43180000Y-86360000D01*
G04 #@! TO.N,0*
X72644000Y-88900000D02*
X75438000Y-88900000D01*
X72136000Y-88900000D02*
X72644000Y-88900000D01*
X69596000Y-88900000D02*
X72644000Y-88900000D01*
X64770000Y-91570000D02*
X66926000Y-91570000D01*
X66926000Y-91570000D02*
X69596000Y-88900000D01*
G04 #@! TO.N,VCC*
X68580000Y-86360000D02*
X68580000Y-88138000D01*
X68580000Y-88138000D02*
X67948000Y-88770000D01*
X67948000Y-88770000D02*
X64770000Y-88770000D01*
G04 #@! TO.N,0*
X104902000Y-108712000D02*
X104836000Y-108778000D01*
X104836000Y-108778000D02*
X100076000Y-108778000D01*
X93980000Y-132080000D02*
X93980000Y-133350000D01*
X124460000Y-133350000D02*
X124460000Y-132080000D01*
X93980000Y-133350000D02*
X94742000Y-134112000D01*
X94742000Y-134112000D02*
X123698000Y-134112000D01*
X123698000Y-134112000D02*
X124460000Y-133350000D01*
X86360000Y-156464000D02*
X86360000Y-156976000D01*
X133284000Y-143002000D02*
X130302000Y-143002000D01*
X133350000Y-143068000D02*
X133284000Y-143002000D01*
X128270000Y-143002000D02*
X128270000Y-144592000D01*
G04 #@! TO.N,Net-(IC11-Pad2)*
X111760000Y-146050000D02*
X111760000Y-146492000D01*
X111760000Y-146492000D02*
X110490000Y-146492000D01*
G04 #@! TO.N,Net-(IC11-Pad3)*
X114300000Y-146050000D02*
X114300000Y-146492000D01*
X114300000Y-146492000D02*
X113030000Y-146492000D01*
G04 #@! TO.N,Net-(IC11-Pad4)*
X116840000Y-146050000D02*
X116840000Y-146558000D01*
X116840000Y-146558000D02*
X116774000Y-146492000D01*
X116774000Y-146492000D02*
X115570000Y-146492000D01*
G04 #@! TO.N,Net-(IC11-Pad5)*
X119380000Y-146050000D02*
X119380000Y-146492000D01*
X119380000Y-146492000D02*
X118110000Y-146492000D01*
G04 #@! TO.N,Net-(IC11-Pad6)*
X121920000Y-146050000D02*
X121920000Y-146558000D01*
X121920000Y-146558000D02*
X121854000Y-146492000D01*
X121854000Y-146492000D02*
X120650000Y-146492000D01*
G04 #@! TO.N,Net-(IC11-Pad7)*
X124460000Y-146050000D02*
X124460000Y-146492000D01*
X124460000Y-146492000D02*
X123190000Y-146492000D01*
G04 #@! TO.N,Net-(IC11-Pad8)*
X127000000Y-146050000D02*
X127000000Y-146492000D01*
X127000000Y-146492000D02*
X125730000Y-146492000D01*
G04 #@! TO.N,Net-(IC11-Pad9)*
X129540000Y-146558000D02*
X129474000Y-146492000D01*
X129474000Y-146492000D02*
X128270000Y-146492000D01*
G04 #@! TO.N,0*
X125730000Y-143002000D02*
X125730000Y-144592000D01*
X123190000Y-143002000D02*
X123190000Y-144592000D01*
G04 #@! TO.N,Net-(IC11-Pad7)*
X123190000Y-146492000D02*
X123190000Y-146238000D01*
G04 #@! TO.N,0*
X120650000Y-143002000D02*
X120650000Y-144592000D01*
X118110000Y-143002000D02*
X118110000Y-144592000D01*
X115570000Y-143002000D02*
X115570000Y-144592000D01*
X113030000Y-143002000D02*
X113030000Y-144592000D01*
X110490000Y-143002000D02*
X110490000Y-144592000D01*
X83820000Y-79502000D02*
X81280000Y-82042000D01*
X83820000Y-76200000D02*
X83820000Y-79502000D01*
X81280000Y-82042000D02*
X81280000Y-86360000D01*
G04 #@! TO.N,Net-(IC1-Pad19)*
X133096000Y-79756000D02*
X133604000Y-79248000D01*
G04 #@! TO.N,VCC*
X68580000Y-82804000D02*
X68580000Y-86360000D01*
X69850000Y-81534000D02*
X68580000Y-82804000D01*
G04 #@! TO.N,0*
X71628000Y-88900000D02*
X72136000Y-88900000D01*
G04 #@! TO.N,Net-(IC3-Pad4)*
X51054000Y-90170000D02*
X51816000Y-90170000D01*
X49530000Y-88646000D02*
X51054000Y-90170000D01*
X49530000Y-88138000D02*
X49530000Y-88646000D01*
X50800000Y-77470000D02*
X49530000Y-78740000D01*
X50800000Y-76200000D02*
X50800000Y-77470000D01*
X49530000Y-78740000D02*
X49530000Y-88138000D01*
G04 #@! TO.N,0*
X71120000Y-86360000D02*
X71120000Y-88392000D01*
X71120000Y-88392000D02*
X71628000Y-88900000D01*
X75438000Y-88900000D02*
X76200000Y-88138000D01*
X76200000Y-88138000D02*
X76200000Y-86360000D01*
G04 #@! TO.N,Net-(IC3-Pad6)*
X55880000Y-76200000D02*
X55880000Y-83566000D01*
X56388000Y-96266000D02*
X49022000Y-96266000D01*
X55880000Y-83566000D02*
X57150000Y-84836000D01*
X57150000Y-84836000D02*
X57150000Y-95504000D01*
X48260000Y-95504000D02*
X48260000Y-93980000D01*
X57150000Y-95504000D02*
X56388000Y-96266000D01*
X49022000Y-96266000D02*
X48260000Y-95504000D01*
G04 #@! TO.N,Net-(IC3-Pad4)*
X83820000Y-68580000D02*
X83820000Y-67818000D01*
G04 #@! TO.N,Net-(IC5-Pad6)*
X81280000Y-68580000D02*
X81280000Y-76200000D01*
G04 #@! TO.N,0*
X45466000Y-44704000D02*
X45466000Y-44450000D01*
G04 #@! TO.N,VCC*
X60960000Y-54864000D02*
X60960000Y-51816000D01*
G04 #@! TO.N,0*
X62210000Y-44450000D02*
X63500000Y-44450000D01*
X63500000Y-44450000D02*
X64008000Y-43942000D01*
X64008000Y-43942000D02*
X64008000Y-42672000D01*
X64008000Y-42672000D02*
X63500000Y-42164000D01*
X63500000Y-42164000D02*
X64516000Y-42164000D01*
X64516000Y-42164000D02*
X65024000Y-42164000D01*
X47752000Y-46990000D02*
X45466000Y-44704000D01*
X47752000Y-46990000D02*
X45432000Y-44670000D01*
G04 #@! TO.N,VCC*
X65408000Y-124330000D02*
X67310000Y-124330000D01*
G04 #@! TO.N,Net-(IC12-Pad9)*
X152400000Y-150114000D02*
X152400000Y-146050000D01*
X152400000Y-146050000D02*
X152334000Y-145984000D01*
X152334000Y-146558000D02*
X151130000Y-146558000D01*
G04 #@! TO.N,0*
X117790000Y-108778000D02*
X117856000Y-108712000D01*
G04 #@! TO.N,Net-(IC14-Pad15)*
X52320000Y-46310000D02*
X52320000Y-43184000D01*
X52320000Y-43184000D02*
X52324000Y-43180000D01*
G04 #@! TO.N,Net-(IC1-Pad11)*
X134620000Y-89408000D02*
X133858000Y-88646000D01*
X134620000Y-91440000D02*
X134620000Y-89408000D01*
X133858000Y-88646000D02*
X130810000Y-88646000D01*
G04 #@! TO.N,Net-(IC1-Pad13)*
X135890000Y-87376000D02*
X130302000Y-87376000D01*
X130302000Y-87376000D02*
X129540000Y-88138000D01*
X129540000Y-88138000D02*
X129540000Y-91440000D01*
G04 #@! TO.N,Net-(IC1-Pad10)*
X128270000Y-86360000D02*
X136398000Y-86360000D01*
X136398000Y-86360000D02*
X137160000Y-87122000D01*
X137160000Y-87122000D02*
X137160000Y-91440000D01*
G04 #@! TO.N,Net-(IC1-Pad14)*
X138430000Y-85344000D02*
X127762000Y-85344000D01*
X127762000Y-85344000D02*
X127000000Y-86106000D01*
X127000000Y-86106000D02*
X127000000Y-91440000D01*
G04 #@! TO.N,Net-(IC1-Pad15)*
X140970000Y-83312000D02*
X125222000Y-83312000D01*
X124460000Y-84074000D02*
X124460000Y-91440000D01*
X125222000Y-83312000D02*
X124460000Y-84074000D01*
G04 #@! TO.N,Net-(IC1-Pad9)*
X125730000Y-84328000D02*
X138684000Y-84328000D01*
X138684000Y-84328000D02*
X139700000Y-85344000D01*
X139700000Y-85344000D02*
X139700000Y-91440000D01*
G04 #@! TO.N,Net-(IC1-Pad16)*
X143510000Y-82296000D02*
X125222000Y-82296000D01*
X125222000Y-82296000D02*
X121920000Y-85598000D01*
X121920000Y-85598000D02*
X121920000Y-91440000D01*
G04 #@! TO.N,Net-(IC1-Pad17)*
X146050000Y-81280000D02*
X125222000Y-81280000D01*
X125222000Y-81280000D02*
X119380000Y-87122000D01*
X119380000Y-87122000D02*
X119380000Y-91440000D01*
G04 #@! TO.N,Net-(IC1-Pad18)*
X148590000Y-80264000D02*
X125222000Y-80264000D01*
X125222000Y-80264000D02*
X116840000Y-88646000D01*
X116840000Y-88646000D02*
X116840000Y-91440000D01*
G04 #@! TO.N,Net-(IC1-Pad19)*
X134620000Y-76200000D02*
X134620000Y-78232000D01*
X134620000Y-78232000D02*
X133604000Y-79248000D01*
G04 #@! TO.N,Net-(IC1-Pad25)*
X42926000Y-118872000D02*
X42926000Y-118236000D01*
G04 #@! TO.N,0*
X58420000Y-76200000D02*
X58420000Y-76708000D01*
G04 #@! TO.N,Net-(IC5-Pad4)*
X76200000Y-75438000D02*
X76200000Y-76200000D01*
G04 #@! TO.N,0*
X64516000Y-130048000D02*
X46482000Y-130048000D01*
X44450000Y-128016000D02*
X44450000Y-123063000D01*
X40894000Y-119507000D02*
X40894000Y-109474000D01*
X46482000Y-130048000D02*
X44450000Y-128016000D01*
X44450000Y-123063000D02*
X40894000Y-119507000D01*
X40894000Y-109474000D02*
X41560000Y-108808000D01*
X41560000Y-108808000D02*
X42926000Y-108808000D01*
X63500000Y-132080000D02*
X63500000Y-131064000D01*
X66802000Y-130048000D02*
X67310000Y-129540000D01*
X63500000Y-131064000D02*
X64516000Y-130048000D01*
X64516000Y-130048000D02*
X66802000Y-130048000D01*
G04 #@! TO.N,VCC*
X36830000Y-126740000D02*
X36830000Y-125984000D01*
X74930000Y-122936000D02*
X74930000Y-126238000D01*
X71120000Y-122936000D02*
X71882000Y-122174000D01*
X71120000Y-124460000D02*
X71120000Y-122936000D01*
X74930000Y-126238000D02*
X75562000Y-126870000D01*
X74168000Y-122174000D02*
X74930000Y-122936000D01*
X71882000Y-122174000D02*
X74168000Y-122174000D01*
X75562000Y-126870000D02*
X97536000Y-126870000D01*
G04 #@! TO.N,Net-(IC1-Pad2)*
X107950000Y-59690000D02*
X107950000Y-62672000D01*
X107950000Y-62672000D02*
X109286000Y-64008000D01*
G04 #@! TO.N,VCC*
X113030000Y-59690000D02*
X113030000Y-62164000D01*
X113030000Y-62164000D02*
X111186000Y-64008000D01*
G04 #@! TO.N,Net-(IC1-Pad27)*
X139700000Y-68072000D02*
X140462000Y-68834000D01*
X140462000Y-68834000D02*
X146050000Y-68834000D01*
G04 #@! TO.N,Net-(IC1-Pad26)*
X142240000Y-56896000D02*
X142240000Y-67310000D01*
G04 #@! TO.N,Net-(IC1-Pad27)*
X138430000Y-55880000D02*
X139700000Y-57150000D01*
X139700000Y-57150000D02*
X139700000Y-68072000D01*
G04 #@! TO.N,Net-(IC1-Pad32)*
X125730000Y-44450000D02*
X125730000Y-55880000D01*
G04 #@! TO.N,VCC*
X110490000Y-44450000D02*
X110490000Y-40132000D01*
G04 #@! TO.N,Net-(IC1-Pad32)*
X127762000Y-72898000D02*
X138684000Y-72898000D01*
X125730000Y-55880000D02*
X127000000Y-57150000D01*
G04 #@! TO.N,Net-(IC1-Pad28)*
X135890000Y-44450000D02*
X135890000Y-55880000D01*
G04 #@! TO.N,Net-(IC1-Pad26)*
X142240000Y-67310000D02*
X143002000Y-68072000D01*
X140970000Y-55626000D02*
X142240000Y-56896000D01*
X143002000Y-68072000D02*
X148844000Y-68072000D01*
X148844000Y-68072000D02*
X149860000Y-69088000D01*
X149860000Y-69088000D02*
X149860000Y-76200000D01*
G04 #@! TO.N,Net-(IC1-Pad27)*
X138430000Y-44450000D02*
X138430000Y-55880000D01*
G04 #@! TO.N,Net-(IC1-Pad26)*
X140970000Y-44450000D02*
X140970000Y-55626000D01*
G04 #@! TO.N,Net-(IC1-Pad27)*
X146050000Y-68834000D02*
X147320000Y-70104000D01*
X147320000Y-70104000D02*
X147320000Y-76200000D01*
G04 #@! TO.N,Net-(IC1-Pad28)*
X135890000Y-55880000D02*
X137160000Y-57150000D01*
X137160000Y-57150000D02*
X137160000Y-68834000D01*
X137160000Y-68834000D02*
X137922000Y-69596000D01*
X137922000Y-69596000D02*
X143002000Y-69596000D01*
X143002000Y-69596000D02*
X144780000Y-71374000D01*
X144780000Y-71374000D02*
X144780000Y-76200000D01*
G04 #@! TO.N,Net-(IC1-Pad30)*
X130810000Y-44450000D02*
X130810000Y-55626000D01*
X130810000Y-55626000D02*
X132080000Y-56896000D01*
X132080000Y-56896000D02*
X132080000Y-70612000D01*
X132080000Y-70612000D02*
X132588000Y-71120000D01*
X132588000Y-71120000D02*
X141478000Y-71120000D01*
X141478000Y-71120000D02*
X142240000Y-71882000D01*
X142240000Y-71882000D02*
X142240000Y-76200000D01*
G04 #@! TO.N,Net-(IC1-Pad32)*
X127000000Y-57150000D02*
X127000000Y-72136000D01*
X127000000Y-72136000D02*
X127762000Y-72898000D01*
X138684000Y-72898000D02*
X139700000Y-73914000D01*
X139700000Y-73914000D02*
X139700000Y-76200000D01*
G04 #@! TO.N,VCC*
X110490000Y-40132000D02*
X109728000Y-39370000D01*
X109728000Y-39370000D02*
X108900000Y-39370000D01*
G04 #@! TO.N,0*
X113220000Y-33020000D02*
X132588000Y-33020000D01*
X132588000Y-33020000D02*
X135128000Y-33020000D01*
X133350000Y-33020000D02*
X134210000Y-33880000D01*
X132588000Y-33020000D02*
X133350000Y-33020000D01*
X134210000Y-33880000D02*
X134210000Y-34610000D01*
G04 #@! TO.N,Net-(IC1-Pad40)*
X111220000Y-33020000D02*
X111220000Y-35338000D01*
X111220000Y-35338000D02*
X110236000Y-36322000D01*
X110236000Y-36322000D02*
X108204000Y-36322000D01*
X108204000Y-36322000D02*
X107000000Y-37526000D01*
X107000000Y-37526000D02*
X107000000Y-39370000D01*
G04 #@! TO.N,Net-(LED33-Pad1)*
X129540000Y-34514000D02*
X129764000Y-34514000D01*
X129764000Y-34514000D02*
X131760000Y-36510000D01*
X131760000Y-36510000D02*
X134210000Y-36510000D01*
G04 #@! TO.N,Net-(LED34-Pad1)*
X139700000Y-34514000D02*
X139924000Y-34514000D01*
X141920000Y-36510000D02*
X144370000Y-36510000D01*
X139924000Y-34514000D02*
X141920000Y-36510000D01*
G04 #@! TO.N,0*
X143510000Y-33020000D02*
X135128000Y-33020000D01*
X144370000Y-34610000D02*
X144370000Y-33880000D01*
X144370000Y-33880000D02*
X143510000Y-33020000D01*
G04 #@! TO.N,Net-(IC1-Pad31)*
X136906000Y-119634000D02*
X136906000Y-118140000D01*
X136906000Y-119634000D02*
X137414000Y-120142000D01*
X137414000Y-120142000D02*
X149098000Y-120142000D01*
X149098000Y-120142000D02*
X149860000Y-120904000D01*
X149860000Y-120904000D02*
X149860000Y-124460000D01*
G04 #@! TO.N,Net-(IC1-Pad32)*
X140716000Y-119126000D02*
X140716000Y-118140000D01*
X140716000Y-119126000D02*
X141224000Y-119634000D01*
X151638000Y-119634000D02*
X152400000Y-120396000D01*
X152400000Y-120396000D02*
X152400000Y-124460000D01*
X141224000Y-119634000D02*
X151638000Y-119634000D01*
G04 #@! TO.N,0*
X151130000Y-143068000D02*
X151130000Y-144658000D01*
X64770000Y-134112000D02*
X63500000Y-132842000D01*
X133096000Y-108712000D02*
X133096000Y-110592000D01*
X100330000Y-180340000D02*
X101600000Y-179070000D01*
X125476000Y-108712000D02*
X125476000Y-110592000D01*
X143510000Y-143068000D02*
X143510000Y-144658000D01*
X140970000Y-143068000D02*
X140970000Y-144658000D01*
X70358000Y-129540000D02*
X69850000Y-130048000D01*
X66040000Y-180340000D02*
X82550000Y-180340000D01*
X144526000Y-108712000D02*
X144526000Y-110562000D01*
X133350000Y-143068000D02*
X133350000Y-144658000D01*
X101470000Y-178940000D02*
X101470000Y-176530000D01*
X63500000Y-132842000D02*
X63500000Y-132080000D01*
X102870000Y-26670000D02*
X102870000Y-30480000D01*
X135890000Y-143068000D02*
X135890000Y-144658000D01*
X92456000Y-108778000D02*
X92456000Y-110622000D01*
X90300000Y-176530000D02*
X90300000Y-179200000D01*
X69596000Y-110622000D02*
X69596000Y-108778000D01*
X68326000Y-134112000D02*
X64770000Y-134112000D01*
X46736000Y-110622000D02*
X46736000Y-108778000D01*
X81026000Y-108778000D02*
X81026000Y-110622000D01*
X80140000Y-176530000D02*
X80140000Y-177930000D01*
X54356000Y-110592000D02*
X54356000Y-108748000D01*
X64900000Y-172590000D02*
X66040000Y-171450000D01*
X84836000Y-108778000D02*
X84836000Y-110622000D01*
X96266000Y-108778000D02*
X96266000Y-110622000D01*
X101600000Y-179070000D02*
X101470000Y-178940000D01*
X124460000Y-130302000D02*
X124460000Y-132080000D01*
X50120000Y-47510000D02*
X51320000Y-47510000D01*
X64900000Y-176530000D02*
X64900000Y-179200000D01*
X80140000Y-177930000D02*
X82550000Y-180340000D01*
X82550000Y-180340000D02*
X91440000Y-180340000D01*
X64900000Y-172850000D02*
X64900000Y-172590000D01*
X101920000Y-25720000D02*
X102870000Y-26670000D01*
X121666000Y-108712000D02*
X121666000Y-110592000D01*
X67310000Y-127130000D02*
X67310000Y-129540000D01*
X100330000Y-180340000D02*
X118110000Y-180340000D01*
X99030000Y-25750000D02*
X99060000Y-25720000D01*
X46990000Y-171450000D02*
X46990000Y-176530000D01*
X90300000Y-175130000D02*
X90300000Y-176530000D01*
X48272000Y-47510000D02*
X50120000Y-47510000D01*
X51320000Y-47510000D02*
X52070000Y-48260000D01*
X69850000Y-130048000D02*
X69850000Y-132588000D01*
X148590000Y-143068000D02*
X148590000Y-144658000D01*
X69850000Y-132588000D02*
X68326000Y-134112000D01*
X91440000Y-171450000D02*
X91440000Y-173990000D01*
X123828000Y-129670000D02*
X124460000Y-130302000D01*
X48260000Y-57280000D02*
X53340000Y-57280000D01*
X91440000Y-180340000D02*
X100330000Y-180340000D01*
X146050000Y-143068000D02*
X146050000Y-144658000D01*
X64900000Y-169040000D02*
X63500000Y-167640000D01*
X90300000Y-179200000D02*
X91440000Y-180340000D01*
X67310000Y-129540000D02*
X67310000Y-130368000D01*
X77216000Y-108778000D02*
X77216000Y-110622000D01*
X138430000Y-143068000D02*
X138430000Y-144658000D01*
X93472000Y-129540000D02*
X70358000Y-129540000D01*
X66040000Y-171450000D02*
X69850000Y-171450000D01*
X40640000Y-25750000D02*
X99030000Y-25750000D01*
X73406000Y-108778000D02*
X73406000Y-110622000D01*
X64900000Y-179200000D02*
X66040000Y-180340000D01*
X88646000Y-108778000D02*
X88646000Y-110622000D01*
X63500000Y-167640000D02*
X60960000Y-167640000D01*
X129286000Y-108712000D02*
X129286000Y-110592000D01*
X93980000Y-130048000D02*
X93472000Y-129540000D01*
X65786000Y-110592000D02*
X65786000Y-108748000D01*
X61976000Y-110592000D02*
X61976000Y-108748000D01*
X58166000Y-110592000D02*
X58166000Y-108748000D01*
X42926000Y-110652000D02*
X42926000Y-108808000D01*
X100076000Y-108778000D02*
X100076000Y-110622000D01*
X64900000Y-172850000D02*
X64900000Y-169040000D01*
X97536000Y-129670000D02*
X123828000Y-129670000D01*
X50546000Y-110592000D02*
X50546000Y-108748000D01*
X119380000Y-179070000D02*
X119380000Y-174945000D01*
X47752000Y-46990000D02*
X48272000Y-47510000D01*
X140716000Y-108712000D02*
X140716000Y-110592000D01*
X99060000Y-25720000D02*
X101920000Y-25720000D01*
X60960000Y-165230000D02*
X60960000Y-167640000D01*
X136906000Y-108712000D02*
X136906000Y-110592000D01*
X118110000Y-180340000D02*
X119380000Y-179070000D01*
X117856000Y-108712000D02*
X117856000Y-110592000D01*
X91440000Y-173990000D02*
X90300000Y-175130000D01*
X93980000Y-132080000D02*
X93980000Y-130048000D01*
X64900000Y-176530000D02*
X64900000Y-172850000D01*
G04 #@! TO.N,Net-(C2-Pad2)*
X49530000Y-171450000D02*
X49530000Y-176270000D01*
X49530000Y-176270000D02*
X49790000Y-176530000D01*
G04 #@! TO.N,Net-(C3-Pad2)*
X77340000Y-175390000D02*
X80010000Y-172720000D01*
X80010000Y-172720000D02*
X80010000Y-165100000D01*
X78740000Y-163830000D02*
X77470000Y-163830000D01*
X77340000Y-176530000D02*
X77340000Y-175390000D01*
X80010000Y-165100000D02*
X78740000Y-163830000D01*
G04 #@! TO.N,Net-(C4-Pad2)*
X72390000Y-163830000D02*
X74930000Y-163830000D01*
G04 #@! TO.N,Net-(C5-Pad2)*
X93980000Y-161290000D02*
X93980000Y-163830000D01*
X92710000Y-160020000D02*
X93980000Y-161290000D01*
X87500000Y-176530000D02*
X87500000Y-161420000D01*
X92456000Y-160020000D02*
X92710000Y-160020000D01*
X92456000Y-160020000D02*
X102616000Y-160020000D01*
X93980000Y-163830000D02*
X96520000Y-163830000D01*
X102616000Y-160020000D02*
X103510000Y-160914000D01*
X88900000Y-160020000D02*
X92456000Y-160020000D01*
X87500000Y-161420000D02*
X88900000Y-160020000D01*
X103510000Y-160914000D02*
X103510000Y-163830000D01*
G04 #@! TO.N,Net-(C6-Pad2)*
X99060000Y-165100000D02*
X99060000Y-163830000D01*
X104270000Y-170310000D02*
X99060000Y-165100000D01*
X104270000Y-176530000D02*
X104270000Y-170310000D01*
G04 #@! TO.N,Net-(C7-Pad2)*
X51320000Y-50210000D02*
X50820000Y-50210000D01*
X50120000Y-49010000D02*
X49288000Y-49010000D01*
X57216000Y-45400000D02*
X57150000Y-45466000D01*
X49288000Y-49010000D02*
X48260000Y-50038000D01*
X50820000Y-50210000D02*
X50120000Y-49510000D01*
X48260000Y-54480000D02*
X53340000Y-54480000D01*
X50120000Y-49510000D02*
X50120000Y-49010000D01*
X59710000Y-45400000D02*
X57216000Y-45400000D01*
X48260000Y-50038000D02*
X48260000Y-54480000D01*
G04 #@! TO.N,Net-(IC1-Pad10)*
X95504000Y-121666000D02*
X95758000Y-121666000D01*
X96266000Y-118206000D02*
X97948000Y-118206000D01*
X97948000Y-118206000D02*
X98044000Y-118110000D01*
G04 #@! TO.N,Net-(IC1-Pad11)*
X91694000Y-121158000D02*
X91948000Y-121158000D01*
X94138000Y-118206000D02*
X94234000Y-118110000D01*
X92456000Y-118206000D02*
X94138000Y-118206000D01*
G04 #@! TO.N,Net-(IC1-Pad13)*
X84836000Y-118206000D02*
X86518000Y-118206000D01*
X86518000Y-118206000D02*
X86614000Y-118110000D01*
G04 #@! TO.N,Net-(IC1-Pad14)*
X82804000Y-118110000D02*
X82804000Y-115570000D01*
X81026000Y-118206000D02*
X82708000Y-118206000D01*
X82708000Y-118206000D02*
X82804000Y-118110000D01*
X81026000Y-118206000D02*
X81280000Y-118460000D01*
X82804000Y-115570000D02*
X82804000Y-115316000D01*
G04 #@! TO.N,Net-(IC1-Pad15)*
X77216000Y-118206000D02*
X78836000Y-118206000D01*
X78994000Y-121412000D02*
X78994000Y-118364000D01*
X78740000Y-121666000D02*
X78994000Y-121412000D01*
X78740000Y-124460000D02*
X78740000Y-121666000D01*
X78836000Y-118206000D02*
X78994000Y-118364000D01*
G04 #@! TO.N,Net-(IC1-Pad16)*
X73406000Y-118206000D02*
X75088000Y-118206000D01*
X75088000Y-118206000D02*
X75184000Y-118110000D01*
G04 #@! TO.N,Net-(IC1-Pad17)*
X71216000Y-118206000D02*
X71374000Y-118364000D01*
X69596000Y-118206000D02*
X71216000Y-118206000D01*
G04 #@! TO.N,Net-(IC1-Pad18)*
X65024000Y-121666000D02*
X65278000Y-121666000D01*
X60960000Y-122301000D02*
X61595000Y-121666000D01*
X65786000Y-118176000D02*
X67498000Y-118176000D01*
X60960000Y-124460000D02*
X60960000Y-122301000D01*
X67498000Y-118176000D02*
X67564000Y-118110000D01*
X61595000Y-121666000D02*
X65024000Y-121666000D01*
G04 #@! TO.N,Net-(IC1-Pad19)*
X61976000Y-118176000D02*
X63688000Y-118176000D01*
X63688000Y-118176000D02*
X63754000Y-118110000D01*
X59055000Y-121158000D02*
X61214000Y-121158000D01*
G04 #@! TO.N,Net-(IC1-Pad18)*
X116840000Y-91948000D02*
X116840000Y-91440000D01*
G04 #@! TO.N,Net-(IC1-Pad19)*
X58420000Y-124460000D02*
X58420000Y-121793000D01*
X58420000Y-121793000D02*
X59055000Y-121158000D01*
X61214000Y-121158000D02*
X61468000Y-121158000D01*
G04 #@! TO.N,Net-(IC1-Pad20)*
X58166000Y-118176000D02*
X59878000Y-118176000D01*
X59878000Y-118176000D02*
X59944000Y-118110000D01*
G04 #@! TO.N,Net-(IC1-Pad22)*
X54356000Y-118176000D02*
X56068000Y-118176000D01*
X56134000Y-115570000D02*
X56134000Y-118110000D01*
X56068000Y-118176000D02*
X56134000Y-118110000D01*
X56134000Y-115316000D02*
X56134000Y-115570000D01*
G04 #@! TO.N,Net-(IC1-Pad23)*
X52324000Y-115316000D02*
X52324000Y-115062000D01*
X52258000Y-118176000D02*
X52324000Y-118110000D01*
X50546000Y-118176000D02*
X52258000Y-118176000D01*
X52324000Y-118110000D02*
X52324000Y-115316000D01*
G04 #@! TO.N,Net-(IC1-Pad24)*
X48260000Y-124460000D02*
X48260000Y-121158000D01*
X46736000Y-118206000D02*
X48356000Y-118206000D01*
X48356000Y-118206000D02*
X48514000Y-118364000D01*
X48260000Y-121158000D02*
X48514000Y-120904000D01*
X48514000Y-120904000D02*
X48514000Y-118364000D01*
G04 #@! TO.N,Net-(IC1-Pad25)*
X45720000Y-121666000D02*
X44704000Y-120650000D01*
X45720000Y-124460000D02*
X45720000Y-121666000D01*
G04 #@! TO.N,Net-(IC1-Pad26)*
X118618000Y-122682000D02*
X117856000Y-121920000D01*
X117856000Y-121920000D02*
X117856000Y-118140000D01*
X136652000Y-122682000D02*
X118618000Y-122682000D01*
X137160000Y-124460000D02*
X137160000Y-123190000D01*
X137160000Y-123190000D02*
X136652000Y-122682000D01*
G04 #@! TO.N,Net-(IC1-Pad30)*
X147320000Y-121412000D02*
X146558000Y-120650000D01*
X133858000Y-120650000D02*
X133096000Y-119888000D01*
X147320000Y-124460000D02*
X147320000Y-121412000D01*
X146558000Y-120650000D02*
X133858000Y-120650000D01*
X133096000Y-119888000D02*
X133096000Y-118140000D01*
G04 #@! TO.N,Net-(IC1-Pad36)*
X95504000Y-129794000D02*
X95504000Y-131064000D01*
X68138000Y-132268000D02*
X69088000Y-131318000D01*
X69088000Y-131318000D02*
X69088000Y-129540000D01*
X73660000Y-128016000D02*
X74422000Y-128778000D01*
X74422000Y-128778000D02*
X74676000Y-128778000D01*
X74676000Y-128778000D02*
X94488000Y-128778000D01*
X67310000Y-132268000D02*
X68138000Y-132268000D01*
X69850000Y-128778000D02*
X74676000Y-128778000D01*
X94488000Y-128778000D02*
X95504000Y-129794000D01*
X73660000Y-124460000D02*
X73660000Y-128016000D01*
X96520000Y-132080000D02*
X101600000Y-132080000D01*
X69088000Y-129540000D02*
X69850000Y-128778000D01*
X95504000Y-131064000D02*
X96520000Y-132080000D01*
G04 #@! TO.N,Net-(IC4-Pad10)*
X101600000Y-68580000D02*
X104140000Y-68580000D01*
X99060000Y-68580000D02*
X101600000Y-68580000D01*
G04 #@! TO.N,Net-(IC6-Pad2)*
X70170000Y-174940000D02*
X70170000Y-176530000D01*
X72390000Y-172720000D02*
X70170000Y-174940000D01*
X72390000Y-171450000D02*
X72390000Y-172720000D01*
G04 #@! TO.N,Net-(IC7-Pad7)*
X41590000Y-165100000D02*
X41590000Y-166690000D01*
X39690000Y-168590000D02*
X39690000Y-170180000D01*
X41590000Y-166690000D02*
X39690000Y-168590000D01*
G04 #@! TO.N,Net-(IC10-Pad2)*
X95120000Y-175130000D02*
X95120000Y-176530000D01*
X93980000Y-173990000D02*
X95120000Y-175130000D01*
X93980000Y-171450000D02*
X93980000Y-173990000D01*
G04 #@! TO.N,Net-(IC11-Pad2)*
X111760000Y-150114000D02*
X111760000Y-146050000D01*
G04 #@! TO.N,Net-(IC11-Pad3)*
X114300000Y-150114000D02*
X114300000Y-146050000D01*
G04 #@! TO.N,Net-(IC11-Pad4)*
X116840000Y-148270000D02*
X116840000Y-146050000D01*
X116840000Y-148270000D02*
X116840000Y-150114000D01*
G04 #@! TO.N,Net-(IC11-Pad5)*
X119380000Y-148016000D02*
X119380000Y-146050000D01*
X119380000Y-148016000D02*
X119380000Y-150114000D01*
G04 #@! TO.N,Net-(IC11-Pad6)*
X121920000Y-147762000D02*
X121920000Y-146050000D01*
X121920000Y-147762000D02*
X121920000Y-150114000D01*
G04 #@! TO.N,Net-(IC11-Pad7)*
X124460000Y-147508000D02*
X124460000Y-146050000D01*
X124460000Y-147508000D02*
X124460000Y-150114000D01*
G04 #@! TO.N,Net-(IC11-Pad8)*
X127000000Y-147254000D02*
X127000000Y-150114000D01*
X127000000Y-147254000D02*
X127000000Y-146050000D01*
G04 #@! TO.N,Net-(IC12-Pad2)*
X134554000Y-145984000D02*
X134620000Y-146050000D01*
X133350000Y-146558000D02*
X134554000Y-146558000D01*
X134620000Y-150114000D02*
X134620000Y-146050000D01*
G04 #@! TO.N,Net-(IC12-Pad3)*
X137094000Y-145984000D02*
X137160000Y-146050000D01*
X135890000Y-146558000D02*
X137094000Y-146558000D01*
X137160000Y-150114000D02*
X137160000Y-146050000D01*
G04 #@! TO.N,Net-(IC12-Pad4)*
X139634000Y-145984000D02*
X139700000Y-146050000D01*
X138430000Y-146558000D02*
X139634000Y-146558000D01*
X139700000Y-150114000D02*
X139700000Y-146050000D01*
G04 #@! TO.N,Net-(IC12-Pad5)*
X142174000Y-145984000D02*
X142240000Y-146050000D01*
X140970000Y-146558000D02*
X142174000Y-146558000D01*
X142240000Y-147574000D02*
X142240000Y-146050000D01*
X142240000Y-147574000D02*
X142240000Y-150114000D01*
G04 #@! TO.N,Net-(IC12-Pad6)*
X144592000Y-146558000D02*
X144780000Y-146370000D01*
X143510000Y-146558000D02*
X144592000Y-146558000D01*
G04 #@! TO.N,Net-(IC14-Pad14)*
X116840000Y-124460000D02*
X116840000Y-123444000D01*
G04 #@! TO.N,Net-(R20-Pad1)*
X142240000Y-164780000D02*
X142240000Y-168910000D01*
G04 #@! TO.N,Net-(R21-Pad1)*
X144780000Y-164780000D02*
X144780000Y-168910000D01*
G04 #@! TO.N,Net-(R22-Pad1)*
X147320000Y-164780000D02*
X147320000Y-168910000D01*
G04 #@! TO.N,Net-(R23-Pad1)*
X149860000Y-164780000D02*
X149860000Y-168910000D01*
G04 #@! TO.N,Net-(R24-Pad1)*
X152400000Y-164780000D02*
X152400000Y-168910000D01*
G04 #@! TO.N,Net-(IC14-Pad4)*
X139700000Y-164780000D02*
X139700000Y-168910000D01*
G04 #@! TO.N,Net-(IC14-Pad6)*
X137160000Y-164780000D02*
X137160000Y-168910000D01*
G04 #@! TO.N,Net-(IC14-Pad8)*
X134620000Y-164780000D02*
X134620000Y-168910000D01*
G04 #@! TO.N,Net-(IC14-Pad11)*
X51320000Y-45224000D02*
X51320000Y-46310000D01*
X50546000Y-44450000D02*
X51320000Y-45224000D01*
X48514000Y-44450000D02*
X50546000Y-44450000D01*
X40640000Y-35620000D02*
X40640000Y-38354000D01*
G04 #@! TO.N,Net-(IC14-Pad13)*
X46990000Y-35620000D02*
X46990000Y-38354000D01*
X53320000Y-45740000D02*
X53320000Y-46310000D01*
X55626000Y-44450000D02*
X54610000Y-44450000D01*
X54610000Y-44450000D02*
X53320000Y-45740000D01*
G04 #@! TO.N,Net-(IC15-Pad19)*
X57130000Y-47010000D02*
X57150000Y-46990000D01*
X54020000Y-47010000D02*
X57130000Y-47010000D01*
G04 #@! TO.N,Net-(LED1-Pad1)*
X42926000Y-112552000D02*
X42926000Y-115636000D01*
G04 #@! TO.N,Net-(LED2-Pad1)*
X46736000Y-112522000D02*
X46736000Y-115606000D01*
G04 #@! TO.N,Net-(LED3-Pad1)*
X50546000Y-112492000D02*
X50546000Y-115576000D01*
G04 #@! TO.N,Net-(LED4-Pad1)*
X54356000Y-112492000D02*
X54356000Y-115576000D01*
G04 #@! TO.N,Net-(LED5-Pad1)*
X58166000Y-112492000D02*
X58166000Y-115576000D01*
G04 #@! TO.N,Net-(LED6-Pad1)*
X61976000Y-112492000D02*
X61976000Y-115576000D01*
G04 #@! TO.N,Net-(LED7-Pad1)*
X65786000Y-112492000D02*
X65786000Y-115576000D01*
G04 #@! TO.N,Net-(LED8-Pad1)*
X73660000Y-115352000D02*
X73406000Y-115606000D01*
G04 #@! TO.N,Net-(LED9-Pad1)*
X69596000Y-112522000D02*
X69596000Y-115606000D01*
G04 #@! TO.N,Net-(LED10-Pad1)*
X77216000Y-112522000D02*
X77216000Y-115606000D01*
G04 #@! TO.N,Net-(LED11-Pad1)*
X81026000Y-112522000D02*
X81026000Y-115606000D01*
G04 #@! TO.N,Net-(LED12-Pad1)*
X84836000Y-112522000D02*
X84836000Y-115606000D01*
G04 #@! TO.N,Net-(LED13-Pad1)*
X88646000Y-112522000D02*
X88646000Y-115606000D01*
G04 #@! TO.N,Net-(LED14-Pad1)*
X92456000Y-112522000D02*
X92456000Y-115606000D01*
G04 #@! TO.N,Net-(LED15-Pad1)*
X96266000Y-112522000D02*
X96266000Y-115606000D01*
G04 #@! TO.N,Net-(LED16-Pad1)*
X100076000Y-112522000D02*
X100076000Y-115606000D01*
G04 #@! TO.N,Net-(LED17-Pad1)*
X117856000Y-112492000D02*
X117856000Y-115540000D01*
G04 #@! TO.N,Net-(LED18-Pad1)*
X121666000Y-115540000D02*
X121666000Y-112492000D01*
G04 #@! TO.N,Net-(LED19-Pad1)*
X125476000Y-115540000D02*
X125476000Y-112492000D01*
G04 #@! TO.N,Net-(LED20-Pad1)*
X129286000Y-115540000D02*
X129286000Y-112492000D01*
G04 #@! TO.N,Net-(LED21-Pad1)*
X133096000Y-115540000D02*
X133096000Y-112492000D01*
G04 #@! TO.N,Net-(LED22-Pad1)*
X136906000Y-115540000D02*
X136906000Y-112492000D01*
G04 #@! TO.N,Net-(LED23-Pad1)*
X140716000Y-115540000D02*
X140716000Y-112492000D01*
G04 #@! TO.N,Net-(LED24-Pad1)*
X144526000Y-115510000D02*
X144526000Y-112462000D01*
G04 #@! TO.N,Net-(LED25-Pad1)*
X72390000Y-27620000D02*
X72390000Y-34260000D01*
G04 #@! TO.N,Net-(LED26-Pad1)*
X76200000Y-27620000D02*
X76200000Y-34260000D01*
G04 #@! TO.N,Net-(LED27-Pad1)*
X80010000Y-27620000D02*
X80010000Y-34260000D01*
G04 #@! TO.N,Net-(LED28-Pad1)*
X83820000Y-27620000D02*
X83820000Y-34260000D01*
G04 #@! TO.N,Net-(LED29-Pad1)*
X87630000Y-27620000D02*
X87630000Y-34260000D01*
G04 #@! TO.N,Net-(LED30-Pad1)*
X91440000Y-27620000D02*
X91440000Y-34260000D01*
G04 #@! TO.N,Net-(LED31-Pad1)*
X95250000Y-27620000D02*
X95250000Y-34260000D01*
G04 #@! TO.N,Net-(LED32-Pad1)*
X99060000Y-27620000D02*
X99060000Y-34260000D01*
G04 #@! TO.N,Net-(LED37-Pad1)*
X46990000Y-27650000D02*
X46990000Y-33020000D01*
G04 #@! TO.N,Net-(LED38-Pad1)*
X40640000Y-27650000D02*
X40640000Y-33020000D01*
G04 #@! TO.N,VCC*
X99060000Y-172720000D02*
X99060000Y-171450000D01*
X77470000Y-166878000D02*
X77470000Y-171450000D01*
X70990000Y-124330000D02*
X71120000Y-124460000D01*
X75438000Y-166370000D02*
X76962000Y-166370000D01*
X106680000Y-163830000D02*
X105410000Y-163830000D01*
X40640000Y-124968000D02*
X40640000Y-124460000D01*
X97020000Y-174760000D02*
X99060000Y-172720000D01*
X72390000Y-166370000D02*
X75438000Y-166370000D01*
X107950000Y-158496000D02*
X106172000Y-156718000D01*
X99060000Y-171450000D02*
X99060000Y-168910000D01*
X111760000Y-157734000D02*
X116840000Y-157734000D01*
X152400000Y-157734000D02*
X117348000Y-157734000D01*
X97020000Y-176530000D02*
X97020000Y-174760000D01*
X108712000Y-157734000D02*
X107950000Y-158496000D01*
X92710000Y-167640000D02*
X91440000Y-166370000D01*
X107950000Y-158496000D02*
X107950000Y-162560000D01*
X67310000Y-124330000D02*
X70990000Y-124330000D01*
X99060000Y-168910000D02*
X97790000Y-167640000D01*
X91440000Y-166370000D02*
X91440000Y-163830000D01*
X69850000Y-163830000D02*
X72390000Y-166370000D01*
X107950000Y-162560000D02*
X106680000Y-163830000D01*
X76962000Y-166370000D02*
X77470000Y-166878000D01*
X106172000Y-156718000D02*
X97536000Y-156718000D01*
X97790000Y-167640000D02*
X92710000Y-167640000D01*
X111760000Y-157734000D02*
X108712000Y-157734000D01*
X61026000Y-45400000D02*
X62210000Y-45400000D01*
X66424000Y-124330000D02*
X67310000Y-124330000D01*
G04 #@! TO.N,Net-(IC16-Pad13)*
X54610000Y-35590000D02*
X54610000Y-38354000D01*
G04 #@! TO.N,Net-(IC16-Pad14)*
X60960000Y-35590000D02*
X60960000Y-40046900D01*
X60960000Y-40046900D02*
X61722000Y-40808900D01*
G04 #@! TO.N,Net-(LED35-Pad1)*
X54610000Y-27620000D02*
X54610000Y-32990000D01*
G04 #@! TO.N,Net-(LED36-Pad1)*
X60960000Y-27351600D02*
X60960000Y-32990000D01*
G04 #@! TO.N,Net-(IC12-Pad7)*
X147132000Y-146558000D02*
X147320000Y-146370000D01*
X146050000Y-146558000D02*
X147132000Y-146558000D01*
G04 #@! TO.N,Net-(IC12-Pad8)*
X149794000Y-145984000D02*
X149860000Y-146050000D01*
X149860000Y-150114000D02*
X149860000Y-146050000D01*
X148590000Y-146558000D02*
X149794000Y-146558000D01*
G04 #@! TD*
M02*
