M48
INCH,TZ
T1C0.0157
T2C0.0315
T3C0.0320
T4C0.0394
T5C0.0472
T6C0.0591
T7C0.1171
%
G90
G05
T1
X16000Y-15100
X16900Y-42838
X17700Y-18300
X17700Y-19800
X18400Y-42826
X18500Y-15100
X19100Y-17500
X19900Y-42814
X20000Y-20600
X20400Y-35500
X20600Y-17000
X21400Y-42814
X21500Y-15100
X21900Y-17500
X21974Y-21874
X22500Y-17900
X22500Y-18500
X22600Y-16300
X22900Y-42814
X23100Y-19700
X23600Y-19100
X24200Y-31300
X24300Y-16066
X24400Y-42814
X25000Y-67600
X25500Y-29300
X25500Y-37300
X25751Y-48949
X25900Y-42814
X27400Y-42826
X27500Y-19200
X28900Y-42826
X30400Y-42826
X31900Y-42826
X33400Y-42826
X34900Y-42826
X36400Y-42826
X37900Y-42826
X39400Y-42826
X41300Y-42800
X43500Y-56300
X44300Y-35000
X44500Y-56300
X45500Y-56300
X46000Y-31600
X46400Y-42800
X46500Y-56300
X47500Y-56300
X47900Y-31900
X47900Y-42800
X48500Y-56300
X49400Y-42800
X49500Y-33200
X49500Y-56300
X50500Y-34000
X50500Y-56300
X50900Y-42800
X51300Y-56300
X51500Y-34900
X52400Y-42800
X52500Y-56326
X53500Y-34400
X53500Y-56326
X53900Y-42800
X54500Y-33600
X54500Y-56326
X55400Y-42800
X55500Y-32800
X55500Y-56326
X56500Y-32400
X56500Y-56326
X56900Y-42800
X57500Y-32000
X57500Y-56326
X58300Y-46400
X58500Y-31600
X58500Y-56326
X59500Y-31900
X59500Y-56326
X60400Y-56300
T2
X34000Y-57825
X34000Y-59400
X34000Y-60187
X34000Y-60975
X46000Y-30000
X46000Y-36000
X47000Y-30000
X47000Y-36000
X48000Y-30000
X48000Y-36000
X49000Y-30000
X49000Y-36000
X50000Y-30000
X50000Y-36000
X51000Y-30000
X51000Y-36000
X52000Y-30000
X52000Y-36000
X53000Y-30000
X53000Y-36000
X54000Y-30000
X54000Y-36000
X55000Y-30000
X55000Y-36000
X56000Y-30000
X56000Y-36000
X57000Y-30000
X57000Y-36000
X58000Y-30000
X58000Y-36000
X59000Y-30000
X59000Y-36000
T3
X16000Y-49000
X16000Y-52000
X17000Y-27000
X17000Y-30000
X17000Y-34000
X17000Y-37000
X17000Y-49000
X17000Y-52000
X18000Y-27000
X18000Y-30000
X18000Y-34000
X18000Y-37000
X18000Y-49000
X18000Y-52000
X18500Y-64500
X18500Y-67500
X19000Y-27000
X19000Y-30000
X19000Y-34000
X19000Y-37000
X19000Y-49000
X19000Y-52000
X19500Y-64500
X19500Y-67500
X20000Y-27000
X20000Y-30000
X20000Y-34000
X20000Y-37000
X20000Y-49000
X20000Y-52000
X20500Y-64500
X20500Y-67500
X21000Y-27000
X21000Y-30000
X21000Y-34000
X21000Y-37000
X21000Y-49000
X21000Y-52000
X21500Y-64500
X21500Y-67500
X22000Y-27000
X22000Y-30000
X22000Y-34000
X22000Y-37000
X22000Y-49000
X22000Y-52000
X23000Y-27000
X23000Y-30000
X23000Y-34000
X23000Y-37000
X23000Y-49000
X23000Y-52000
X24000Y-49000
X24000Y-52000
X25000Y-49000
X25000Y-52000
X27000Y-27000
X27000Y-30000
X27000Y-34000
X27000Y-37000
X27500Y-64500
X27500Y-67500
X28000Y-17400
X28000Y-20400
X28000Y-27000
X28000Y-30000
X28000Y-34000
X28000Y-37000
X28000Y-49000
X28000Y-52000
X28500Y-64500
X28500Y-67500
X29000Y-17400
X29000Y-20400
X29000Y-27000
X29000Y-30000
X29000Y-34000
X29000Y-37000
X29000Y-49000
X29000Y-52000
X29500Y-64500
X29500Y-67500
X30000Y-17400
X30000Y-20400
X30000Y-27000
X30000Y-30000
X30000Y-34000
X30000Y-37000
X30000Y-49000
X30000Y-52000
X30500Y-64500
X30500Y-67500
X31000Y-17400
X31000Y-20400
X31000Y-27000
X31000Y-30000
X31000Y-34000
X31000Y-37000
X31000Y-49000
X31000Y-52000
X32000Y-17400
X32000Y-20400
X32000Y-27000
X32000Y-30000
X32000Y-34000
X32000Y-37000
X32000Y-49000
X32000Y-52000
X33000Y-17400
X33000Y-20400
X33000Y-27000
X33000Y-30000
X33000Y-34000
X33000Y-37000
X33000Y-49000
X33000Y-52000
X34000Y-17400
X34000Y-20400
X34000Y-49000
X34000Y-52000
X35000Y-17400
X35000Y-20400
X35000Y-49000
X35000Y-52000
X36000Y-17400
X36000Y-20400
X36000Y-27000
X36000Y-30000
X36000Y-49000
X36000Y-52000
X36000Y-64500
X36000Y-67500
X37000Y-17400
X37000Y-20400
X37000Y-27000
X37000Y-30000
X37000Y-49000
X37000Y-52000
X37000Y-64500
X37000Y-67500
X38000Y-27000
X38000Y-30000
X38000Y-64500
X38000Y-67500
X38400Y-58700
X38400Y-61700
X38500Y-34000
X38500Y-37000
X39000Y-27000
X39000Y-30000
X39000Y-64500
X39000Y-67500
X40000Y-27000
X40000Y-30000
X40000Y-49000
X40000Y-52000
X41000Y-27000
X41000Y-30000
X41000Y-49000
X41000Y-52000
X41500Y-17500
X41500Y-23500
X41500Y-34000
X41500Y-37000
X42000Y-27000
X42000Y-30000
X42000Y-49000
X42000Y-52000
X42500Y-17500
X42500Y-23500
X43000Y-49000
X43000Y-52000
X43500Y-17500
X43500Y-23500
X44000Y-49000
X44000Y-52000
X44000Y-59100
X44000Y-62100
X44500Y-17500
X44500Y-23500
X45000Y-49000
X45000Y-52000
X45000Y-59100
X45000Y-62100
X45500Y-17500
X45500Y-23500
X46000Y-49000
X46000Y-52000
X46000Y-59100
X46000Y-62100
X46500Y-17500
X46500Y-23500
X47000Y-49000
X47000Y-52000
X47000Y-59100
X47000Y-62100
X47500Y-17500
X47500Y-23500
X48000Y-49000
X48000Y-52000
X48000Y-59100
X48000Y-62100
X48500Y-17500
X48500Y-23500
X49000Y-49000
X49000Y-52000
X49000Y-59100
X49000Y-62100
X49500Y-17500
X49500Y-23500
X50000Y-59100
X50000Y-62100
X50500Y-17500
X50500Y-23500
X51000Y-59100
X51000Y-62100
X51500Y-17500
X51500Y-23500
X52000Y-49000
X52000Y-52000
X52500Y-17500
X52500Y-23500
X53000Y-49000
X53000Y-52000
X53000Y-59100
X53000Y-62100
X53000Y-66500
X53000Y-69500
X53500Y-17500
X53500Y-23500
X54000Y-49000
X54000Y-52000
X54000Y-59100
X54000Y-62100
X54000Y-66500
X54000Y-69500
X54500Y-17500
X54500Y-23500
X55000Y-49000
X55000Y-52000
X55000Y-59100
X55000Y-62100
X55000Y-66500
X55000Y-69500
X55500Y-17500
X55500Y-23500
X56000Y-49000
X56000Y-52000
X56000Y-59100
X56000Y-62100
X56000Y-66500
X56000Y-69500
X56500Y-17500
X56500Y-23500
X57000Y-49000
X57000Y-52000
X57000Y-59100
X57000Y-62100
X57000Y-66500
X57000Y-69500
X57500Y-17500
X57500Y-23500
X58000Y-49000
X58000Y-52000
X58000Y-59100
X58000Y-62100
X58000Y-66500
X58000Y-69500
X58500Y-17500
X58500Y-23500
X59000Y-49000
X59000Y-52000
X59000Y-59100
X59000Y-62100
X59000Y-66500
X59000Y-69500
X59500Y-17500
X59500Y-23500
X60000Y-49000
X60000Y-52000
X60000Y-59100
X60000Y-62100
X60000Y-66500
X60000Y-69500
X60500Y-17500
X60500Y-23500
X61000Y-49000
X61000Y-52000
T4
X24713Y-58031
X24713Y-60000
X25500Y-58031
X25500Y-60000
X26287Y-58031
X26287Y-60000
X43000Y-11031
X43000Y-13000
X43787Y-11031
X43787Y-13000
X44575Y-11031
X44575Y-13000
X46213Y-66907
X46213Y-68876
X47000Y-66907
X47000Y-68876
X47787Y-66907
X47787Y-68876
T5
X17516Y-61205
X18500Y-61205
X19484Y-61205
T6
X34000Y-56998
X34000Y-61802
T7
X16768Y-58449
X20232Y-58449
T0
M30
